<?xml version="1.0" encoding="UTF-8"?>
<svg xmlns="http://www.w3.org/2000/svg" version="1.1" width="100" height="100" viewBox="0 0 100 100"><rect x="0" y="0" width="100" height="100" fill="#ffffff"/><g transform="scale(4.762)"><g transform="translate(0,0)"><path fill-rule="evenodd" d="M10 0L10 3L12 3L12 4L8 4L8 8L6 8L6 9L7 9L7 10L5 10L5 9L4 9L4 8L3 8L3 9L2 9L2 8L0 8L0 11L2 11L2 13L4 13L4 12L5 12L5 13L8 13L8 15L9 15L9 17L8 17L8 18L9 18L9 19L8 19L8 21L9 21L9 20L13 20L13 21L14 21L14 20L13 20L13 19L15 19L15 21L16 21L16 17L15 17L15 13L16 13L16 15L17 15L17 14L18 14L18 13L19 13L19 11L20 11L20 14L19 14L19 15L18 15L18 18L17 18L17 21L19 21L19 20L20 20L20 19L21 19L21 15L20 15L20 14L21 14L21 11L20 11L20 10L19 10L19 11L18 11L18 9L20 9L20 8L18 8L18 9L17 9L17 8L14 8L14 9L13 9L13 8L10 8L10 9L11 9L11 11L10 11L10 12L11 12L11 13L12 13L12 12L13 12L13 14L10 14L10 13L9 13L9 9L8 9L8 8L9 8L9 6L10 6L10 7L11 7L11 5L13 5L13 3L12 3L12 2L13 2L13 0L12 0L12 2L11 2L11 0ZM8 1L8 3L9 3L9 1ZM12 6L12 7L13 7L13 6ZM1 9L1 10L2 10L2 11L4 11L4 9L3 9L3 10L2 10L2 9ZM12 9L12 11L11 11L11 12L12 12L12 11L14 11L14 10L15 10L15 9L14 9L14 10L13 10L13 9ZM16 9L16 10L17 10L17 9ZM5 11L5 12L8 12L8 11ZM17 11L17 12L16 12L16 13L18 13L18 11ZM0 12L0 13L1 13L1 12ZM9 14L9 15L10 15L10 17L9 17L9 18L10 18L10 19L11 19L11 18L12 18L12 19L13 19L13 17L12 17L12 16L14 16L14 14L13 14L13 15L10 15L10 14ZM19 18L19 19L18 19L18 20L19 20L19 19L20 19L20 18ZM0 0L0 7L7 7L7 0ZM1 1L1 6L6 6L6 1ZM2 2L2 5L5 5L5 2ZM14 0L14 7L21 7L21 0ZM15 1L15 6L20 6L20 1ZM16 2L16 5L19 5L19 2ZM0 14L0 21L7 21L7 14ZM1 15L1 20L6 20L6 15ZM2 16L2 19L5 19L5 16Z" fill="#000000"/></g></g></svg>
