<svg width="45" height="53" viewBox="0 0 45 53" fill="none" xmlns="http://www.w3.org/2000/svg">
<path d="M29.9298 12.5554L10.3836 1.34709L9.15493 0.666153C6.35859 -0.886393 4.05656 0.366536 4.04243 3.47163L4.00007 15.9601C3.98594 19.0652 6.27385 22.8784 9.0702 24.4446L10.2989 25.1256L29.8451 36.3338C32.6414 37.8864 34.9434 36.6335 34.9576 33.5284L34.9999 21.0399C35.0141 17.9212 32.7261 14.1079 29.9298 12.5554Z" fill="#162D70"/>
<path d="M25.0934 13.5554L6.1777 2.34709L4.98864 1.66615C2.2825 0.113607 0.0547307 1.36654 0.0410634 4.47163L6.2937e-05 16.9601C-0.0136044 20.0652 2.2005 23.8784 4.90664 25.4446L6.09569 26.1256L25.0114 37.3338C27.7175 38.8864 29.9453 37.6335 29.9589 34.5284L29.9999 22.0399C30.0136 18.9212 27.7995 15.1079 25.0934 13.5554Z" fill="white"/>
<path d="M10.7605 19.3931L8.15312 17.7953L7.70969 18.9939L6.33097 18.149L8.74818 11.9029L10.277 12.8397L12.568 21.9711L11.1799 21.1205L10.7605 19.3931ZM10.4142 17.9428L9.49326 14.1504L8.51963 16.7818L10.4142 17.9428ZM18.2654 20.134C18.262 20.5446 18.1745 20.8779 18.0027 21.1338C17.8372 21.3935 17.5753 21.5241 17.2171 21.5257C16.8651 21.5311 16.4203 21.3691 15.8826 21.0395L14.7852 20.3671L14.761 23.315L13.448 22.5103L13.511 14.8326L15.9214 16.3097C16.4278 16.6201 16.8584 16.9871 17.2132 17.4108C17.5679 17.8346 17.8313 18.2797 18.0034 18.7463C18.1818 19.2168 18.2691 19.6793 18.2654 20.134ZM15.8365 19.7621C16.1991 19.9843 16.4688 20.0538 16.6454 19.9704C16.8221 19.8797 16.9119 19.6583 16.9148 19.3063C16.921 18.5584 16.5676 17.966 15.8548 17.5292L14.8137 16.8912L14.7954 19.1241L15.8365 19.7621ZM20.5302 19.134L20.4672 26.8117L19.1542 26.0071L19.2172 18.3294L20.5302 19.134Z" fill="#182569"/>
</svg>
