<svg width="60" height="53" viewBox="0 0 60 53" fill="none" xmlns="http://www.w3.org/2000/svg">
<path d="M37.355 40.3215C37.4852 41.1787 37.6065 41.982 37.7367 42.8347C38.0466 42.8347 38.3296 42.8257 38.617 42.8347C39.138 42.8526 39.4703 43.1488 39.4748 43.6515C39.4883 45.828 39.4883 48.0091 39.4748 50.1857C39.4703 50.6659 39.1469 50.9621 38.6619 50.998C38.5766 51.0025 38.4912 50.998 38.4059 50.998C33.1289 50.998 27.8474 50.998 22.5704 50.998C21.771 50.998 21.5015 50.7243 21.5015 49.9299C21.5015 47.9373 21.5015 45.9492 21.5015 43.9566C21.5015 43.086 21.753 42.8347 22.6198 42.8347C22.804 42.8347 22.9926 42.8347 23.2396 42.8347C23.3698 42.0044 23.4956 41.1876 23.6258 40.3394C23.4821 40.2587 23.3429 40.1689 23.1947 40.0926C21.25 39.1233 19.3009 38.1584 17.3653 37.1755C17.1048 37.0409 16.9251 37.0678 16.6781 37.207C16.2964 37.4179 15.8877 37.6019 15.47 37.7231C15.1332 37.8218 14.976 37.9923 14.8727 38.3155C13.5793 42.2288 12.2769 46.1377 10.9745 50.0466C10.6871 50.9038 10.5613 50.998 9.6586 50.998C8.82327 50.998 7.98793 50.998 7.15708 50.998C6.09719 50.998 5.79629 50.5851 6.12863 49.5978C7.5478 45.3344 8.96698 41.0665 10.3996 36.8075C10.5119 36.4754 10.4715 36.2645 10.2604 35.9863C8.55829 33.7513 9.0568 30.6189 11.3562 29.0167C11.6032 28.8462 11.711 28.6756 11.711 28.3615C11.6975 24.9418 11.6975 21.5221 11.711 18.1023C11.711 17.8017 11.6347 17.6177 11.3742 17.4381C9.51489 16.1501 8.79183 13.8928 9.54184 11.7655C10.2694 9.70564 12.3038 8.33686 14.5134 8.55227C15.25 8.62408 15.9641 8.96964 16.6692 9.2434C16.9207 9.34213 17.0913 9.41393 17.3563 9.2793C20.1138 7.88808 22.8848 6.5148 25.6423 5.12358C25.8354 5.02485 26.0196 4.83637 26.1273 4.64339C27.0884 2.95149 28.5256 2.00455 30.4747 2.00006C32.4463 1.99109 33.9014 2.93802 34.8714 4.65236C34.9792 4.84534 35.1634 5.02934 35.3565 5.12807C38.114 6.51929 40.8805 7.89256 43.6425 9.2793C43.876 9.39598 44.0422 9.40495 44.2847 9.26134C45.9644 8.27402 47.6845 8.22467 49.3551 9.22994C51.0483 10.2487 51.8432 11.8059 51.7309 13.7671C51.6411 15.293 50.9225 16.5226 49.665 17.4022C49.3776 17.6042 49.2878 17.8106 49.2923 18.1472C49.3057 21.5355 49.3012 24.9193 49.2923 28.3076C49.2923 28.6218 49.3641 28.8237 49.6426 29.0167C51.951 30.6189 52.445 33.7424 50.7429 35.9818C50.5318 36.26 50.4914 36.471 50.6037 36.8031C52.0363 41.062 53.4555 45.3299 54.8747 49.5933C55.2025 50.5762 54.8971 50.9935 53.8417 50.9935C52.9749 50.9935 52.1037 50.9935 51.2369 50.9935C50.4734 50.9935 50.3072 50.8768 50.0602 50.1364C48.7488 46.2095 47.4374 42.2872 46.1395 38.3558C46.0228 37.9968 45.8611 37.7949 45.4749 37.7096C45.1156 37.6288 44.7518 37.4852 44.4509 37.2788C44.1096 37.0454 43.8491 37.0589 43.4898 37.2384C41.4554 38.2796 39.4209 39.2893 37.355 40.3215ZM35.3969 23.2768C35.4238 20.611 33.2457 18.3626 30.6049 18.3312C27.8699 18.2953 25.6109 20.4674 25.5884 23.1601C25.566 25.8618 27.7396 28.1102 30.4073 28.1371C33.1289 28.1595 35.37 25.9785 35.3969 23.2768ZM37.8266 44.4997C32.9044 44.4997 28.0316 44.4997 23.1722 44.4997C23.1722 46.1377 23.1722 47.7443 23.1722 49.342C24.807 49.342 26.3968 49.342 28.0405 49.342C28.0405 48.5566 28.036 47.7982 28.0405 47.0353C28.045 46.407 28.3504 46.1063 28.9882 46.1018C29.9762 46.0973 30.9597 46.0973 31.9478 46.1018C32.6439 46.1063 32.9358 46.398 32.9403 47.0936C32.9448 47.8386 32.9403 48.5791 32.9403 49.3375C34.5975 49.3375 36.2053 49.3375 37.8266 49.3375C37.8266 47.7174 37.8266 46.1242 37.8266 44.4997ZM16.6467 17.5548C16.6467 21.3829 16.6467 25.0988 16.6467 28.8731C16.7814 28.7923 16.8533 28.7564 16.9207 28.707C19.1797 27.0151 21.4387 25.3277 23.6932 23.6313C24.0704 23.3486 24.0704 23.1197 23.6887 22.8325C22.5659 21.9798 21.4342 21.1361 20.3024 20.2924C19.1078 19.3948 17.9132 18.5018 16.6467 17.5548ZM44.3566 17.5638C44.132 17.7164 43.9928 17.8061 43.8581 17.9049C41.7069 19.516 39.5601 21.1271 37.4134 22.7338C36.861 23.1466 36.8565 23.3082 37.4089 23.7211C39.5466 25.3187 41.6799 26.9209 43.8177 28.5186C43.9748 28.6352 44.1365 28.7429 44.3566 28.8955C44.3566 25.0854 44.3566 21.3784 44.3566 17.5638ZM30.5016 3.62914C28.6962 3.62465 27.2232 5.09666 27.2187 6.90076C27.2187 8.67794 28.6783 10.1544 30.4522 10.1679C32.2621 10.1814 33.7487 8.71832 33.7577 6.9232C33.7711 5.11461 32.2981 3.62914 30.5016 3.62914ZM14.1272 16.6977C15.9326 16.7021 17.4147 15.2301 17.4147 13.435C17.4147 11.6534 15.9596 10.1769 14.1856 10.1634C12.3757 10.1499 10.8847 11.604 10.8712 13.4036C10.8577 15.2032 12.3308 16.6932 14.1272 16.6977ZM50.1096 13.453C50.1186 11.6489 48.6455 10.1634 46.8491 10.1634C45.0437 10.1634 43.5706 11.6309 43.5706 13.435C43.5706 15.2122 45.0347 16.6887 46.8042 16.6977C48.6096 16.7111 50.1007 15.2481 50.1096 13.453ZM50.1096 33.0153C50.1051 31.2157 48.6141 29.7527 46.8087 29.7662C45.0302 29.7796 43.5706 31.2471 43.5662 33.0243C43.5662 34.8239 45.0392 36.3004 46.8401 36.3049C48.6366 36.3004 50.1141 34.815 50.1096 33.0153ZM17.4147 33.0064C17.4057 31.2112 15.9191 29.7527 14.1048 29.7662C12.3308 29.7796 10.8712 31.2561 10.8712 33.0333C10.8712 34.8374 12.3532 36.3094 14.1542 36.3049C15.9506 36.2914 17.4192 34.806 17.4147 33.0064ZM24.0076 17.3484C24.4881 14.9923 25.8534 13.2555 27.798 12.3804C27.8923 12.34 28.0001 12.2413 28.0271 12.1515C28.1843 11.6489 27.9866 11.1462 27.5555 10.8096C27.3175 10.6212 27.066 10.4282 26.8863 10.1858C26.6348 9.84924 26.4238 9.82232 26.042 10.0198C24.1737 10.9847 22.283 11.9092 20.4012 12.8471C19.9476 13.0715 19.4985 13.3049 18.9776 13.5741C20.6707 14.8487 22.3099 16.0783 24.0076 17.3484ZM41.9718 13.6011C41.8865 13.5293 41.8506 13.4844 41.8057 13.4619C39.4523 12.2861 37.099 11.1103 34.7412 9.95247C34.6199 9.89413 34.3684 9.96145 34.2472 10.0557C33.8834 10.3339 33.5735 10.675 33.2142 10.9577C32.7741 11.3033 32.8325 12.1964 33.331 12.4477C34.9747 13.2735 36.093 14.5615 36.6993 16.2938C36.8116 16.6214 36.8834 16.9579 36.9912 17.3439C38.6709 16.0783 40.3101 14.8487 41.9718 13.6011ZM32.4642 29.4969C33.1334 33.9443 33.7981 38.3783 34.4628 42.8077C35.0331 42.8077 35.5406 42.8077 36.0795 42.8077C35.3744 38.127 34.6783 33.4731 33.9777 28.8013C33.4433 29.0481 32.9852 29.2591 32.4642 29.4969ZM26.5181 42.8167C27.1872 38.3648 27.8519 33.9264 28.5166 29.5014C28.0001 29.2635 27.5286 29.0481 27.0076 28.8058C26.3025 33.4911 25.6064 38.1404 24.9058 42.8167C25.4537 42.8167 25.9432 42.8167 26.5181 42.8167ZM36.6454 35.5734C38.4374 34.6803 40.1889 33.8052 42.0212 32.8897C39.8341 31.2516 37.7233 29.6719 35.5092 28.0159C35.8999 30.6144 36.2682 33.0602 36.6454 35.5734ZM18.9641 32.8897C20.8099 33.8097 22.5525 34.6803 24.3399 35.5734C24.7216 33.0378 25.0854 30.5874 25.4716 28.0159C23.2531 29.6764 21.1512 31.2516 18.9641 32.8897ZM7.92056 49.3689C8.3023 49.3689 8.61219 49.3375 8.91309 49.3779C9.34872 49.4318 9.52387 49.2523 9.65411 48.8439C10.4715 46.3262 11.3203 43.822 12.1556 41.3133C12.5329 40.1779 12.9101 39.038 13.2874 37.9026C12.8068 37.741 12.3757 37.5929 11.9041 37.4314C10.5838 41.3806 9.26788 45.3344 7.92056 49.3689ZM53.0423 49.3151C51.7219 45.3523 50.3971 41.3896 49.0767 37.4269C48.6006 37.5884 48.1695 37.732 47.7069 37.8891C47.7563 38.0641 47.8057 38.2436 47.8596 38.4142C48.9375 41.6454 50.0198 44.8766 51.1022 48.1079C51.5468 49.4407 51.5468 49.4407 52.939 49.3465C52.9525 49.3555 52.9704 49.342 53.0423 49.3151ZM13.3548 18.3088C13.3548 21.5894 13.3548 24.8789 13.3548 28.1506C13.8937 28.1506 14.4012 28.1506 14.9311 28.1506C14.9311 24.87 14.9311 21.5804 14.9311 18.3088C14.3967 18.3088 13.8892 18.3088 13.3548 18.3088ZM47.6261 28.1506C47.6261 24.8475 47.6261 21.5714 47.6261 18.3133C47.0827 18.3133 46.5617 18.3133 46.0452 18.3133C46.0452 21.6118 46.0452 24.8834 46.0452 28.1506C46.5841 28.1506 47.0916 28.1506 47.6261 28.1506ZM18.2231 10.6705C18.4386 11.0879 18.6228 11.4424 18.8114 11.8149C21.1557 10.6436 23.4686 9.48574 25.7725 8.33238C25.6917 7.87462 25.6199 7.46623 25.539 7.01296C23.0959 8.23813 20.6752 9.44535 18.2231 10.6705ZM35.2038 8.33685C37.5346 9.4992 39.8475 10.6571 42.1694 11.8149C42.367 11.42 42.5467 11.0654 42.7488 10.666C40.3056 9.44534 37.876 8.22915 35.4328 7.01296C35.3565 7.47071 35.2846 7.87012 35.2038 8.33685ZM36.1873 26.4766C38.2397 28.0159 40.2697 29.5373 42.3087 31.0676C42.5467 30.6727 42.7533 30.3272 42.9868 29.9457C40.9029 28.3839 38.8326 26.8311 36.7352 25.2604C36.5466 25.6778 36.3804 26.0458 36.1873 26.4766ZM24.2456 25.2604C22.1303 26.8491 20.0554 28.4019 17.9895 29.9502C18.241 30.3586 18.4521 30.7041 18.6767 31.0631C20.7336 29.5193 22.768 27.998 24.7935 26.4766C24.6049 26.0547 24.4387 25.6868 24.2456 25.2604ZM36.6858 21.2438C38.855 19.6192 40.9254 18.0619 42.9913 16.5137C42.7398 16.1053 42.5287 15.7597 42.3042 15.4007C40.7323 16.581 39.2188 17.7927 37.6155 18.8787C36.9014 19.3589 36.8206 20.0411 36.6005 20.7143C36.5601 20.8309 36.6409 20.9925 36.6858 21.2438ZM24.2905 21.2348C24.3264 20.9925 24.4073 20.822 24.3713 20.6783C24.1827 19.9693 24.0749 19.2153 23.289 18.8383C22.9881 18.6947 22.7411 18.4389 22.4671 18.237C21.2051 17.2945 19.9476 16.3521 18.6677 15.3962C18.4297 15.7911 18.2186 16.1501 17.9985 16.5226C20.0914 18.0889 22.1527 19.6327 24.2905 21.2348ZM31.2696 16.7066C31.2696 15.0327 31.2696 13.3946 31.2696 11.7745C30.7262 11.7745 30.2187 11.7745 29.7067 11.7745C29.7067 13.4215 29.7067 15.0641 29.7067 16.7066C30.2412 16.7066 30.7352 16.7066 31.2696 16.7066ZM18.2276 35.7888C20.0913 36.7178 21.9551 37.6513 23.8773 38.6072C23.9267 38.2751 23.9357 38.0327 24.0031 37.8128C24.1243 37.4179 24.0076 37.2115 23.6213 37.0275C22.4537 36.4799 21.3084 35.8875 20.1542 35.3086C19.7051 35.0842 19.256 34.8643 18.8024 34.6444C18.6048 35.0438 18.4297 35.3894 18.2276 35.7888ZM42.1739 34.6444C40.4853 35.4881 38.8146 36.3184 37.1529 37.1621C37.0541 37.2114 36.9328 37.3551 36.9418 37.4493C36.9688 37.8128 37.0451 38.1763 37.1125 38.6161C39.0392 37.6557 40.894 36.7268 42.7533 35.7978C42.5512 35.3984 42.3805 35.0528 42.1739 34.6444ZM32.563 41.1966C31.6379 41.1966 30.7711 41.1877 29.9043 41.2011C29.4193 41.2056 28.7681 41.0575 28.4896 41.3088C28.2022 41.5646 28.2786 42.2243 28.1977 42.7045C28.1932 42.7315 28.2112 42.7629 28.2202 42.7988C29.7382 42.7988 31.2561 42.7988 32.7921 42.7988C32.7202 42.2602 32.6484 41.7576 32.563 41.1966ZM35.3655 18.6858C35.5586 16.8951 34.4223 14.723 32.9448 14.18C32.9448 15.1179 32.9403 16.0469 32.9538 16.9759C32.9538 17.0657 33.0391 17.1868 33.1199 17.2362C33.8565 17.7254 34.6065 18.2011 35.3655 18.6858ZM28.0405 14.1665C26.4776 14.8352 25.2022 17.3619 25.6513 18.6633C26.3699 18.2056 27.1064 17.7388 27.8384 17.2631C27.9327 17.2003 28.0316 17.0657 28.0316 16.9624C28.045 16.0335 28.0405 15.109 28.0405 14.1665ZM28.9028 37.9609C28.822 38.495 28.7456 39.0111 28.6693 39.5361C29.8998 39.5361 31.099 39.5361 32.316 39.5361C32.2307 38.9886 32.1499 38.4725 32.069 37.9609C30.9957 37.9609 29.9627 37.9609 28.9028 37.9609ZM31.584 34.6983C30.8385 34.6983 30.1199 34.6983 29.3923 34.6983C29.3115 35.2413 29.2396 35.7484 29.1588 36.278C30.0705 36.278 30.9283 36.278 31.8265 36.278C31.7412 35.735 31.6648 35.2234 31.584 34.6983ZM30.1289 29.7841C29.9672 30.8881 29.81 31.9338 29.6528 32.9929C30.2412 32.9929 30.7711 32.9929 31.3325 32.9929C31.1663 31.8979 31.0091 30.8477 30.8475 29.7841C30.596 29.7841 30.3849 29.7841 30.1289 29.7841ZM29.6977 47.7533C29.6977 48.3143 29.6977 48.8169 29.6977 49.3375C30.2412 49.3375 30.7531 49.3375 31.2741 49.3375C31.2741 48.79 31.2741 48.2784 31.2741 47.7533C30.7352 47.7533 30.2322 47.7533 29.6977 47.7533Z" fill="#172568"/>
</svg>
