<svg width="192" height="192" viewBox="0 0 192 192" fill="none" xmlns="http://www.w3.org/2000/svg">
<path d="M121.202 67.0133L121.175 67H49.9175L21.0531 85.0868L21 85.1268V85.2466V89.1623V89.3222L85.3407 151.973L85.3805 152H85.6195L149.96 89.3488L150 89.3222V89.2023V85.2067V85.1268L121.202 67.0133Z" fill="url(#paint0_linear_653_2746)"/>
<path d="M149.654 85.1674C148.446 85.5403 146.919 85.7401 145.286 85.7401C142.087 85.7401 139.351 84.9676 138.927 83.9287L129.234 72.3281L149.654 85.1674Z" fill="url(#paint1_linear_653_2746)"/>
<path d="M138.69 83.9945C138.079 84.9934 134.919 85.7393 131.228 85.7393C127.471 85.7393 124.165 84.9268 123.713 83.9013C123.7 83.8746 123.687 83.8746 123.66 83.8613L129.037 72.4072L138.69 83.9945Z" fill="url(#paint2_linear_653_2746)"/>
<path d="M121.123 67.2266L128.704 71.9947L115.082 67.2266H121.123Z" fill="url(#paint3_linear_653_2746)"/>
<path d="M128.848 72.2876L123.418 83.8615L103.117 74.0456L114.735 67.333L128.848 72.2876Z" fill="#00ACF5"/>
<path d="M103.117 74.2852L123.365 84.0744C122.422 85.02 118.492 85.7259 114.057 85.7259C109.344 85.7259 105.321 84.9534 104.631 83.9279C104.644 83.9013 104.657 83.8746 104.644 83.848L103.117 74.2852Z" fill="url(#paint4_linear_653_2746)"/>
<path d="M104.46 83.9015C104.46 83.9015 104.446 83.9015 104.446 83.9148C103.836 84.9536 99.7729 85.7528 94.9931 85.7528C90.4657 85.7528 86.4693 85.0069 85.6328 84.0346L102.906 74.2188L104.46 83.9015Z" fill="url(#paint5_linear_653_2746)"/>
<path d="M114.496 67.2266L102.919 73.8992L85.8047 67.2266H114.496Z" fill="url(#paint6_linear_653_2746)"/>
<path d="M102.681 74.0456L102.655 74.059L102.695 74.0723L85.4743 83.8482C85.461 83.8482 85.461 83.8349 85.4477 83.8349L68.2539 74.0856L68.2937 74.0723L68.2672 74.0456L85.4743 67.333L102.681 74.0456Z" fill="#00ACF5"/>
<path d="M66.2886 83.8879C66.2886 83.8879 66.2753 83.8879 66.262 83.9013C65.6513 84.9401 61.5885 85.7392 56.8088 85.7392C52.2282 85.7392 48.1919 84.9801 47.4219 83.9945L67.8022 74.2852L66.262 83.8613C66.2886 83.8746 66.2886 83.8746 66.2886 83.8879Z" fill="url(#paint7_linear_653_2746)"/>
<path d="M66.4859 83.8878L68.0394 74.2051L85.273 83.9943C84.4764 84.9799 80.4667 85.7391 75.8994 85.7391C71.1727 85.7391 67.1365 84.9666 66.4727 83.9277C66.4727 83.9144 66.4859 83.9144 66.4859 83.8878Z" fill="url(#paint8_linear_653_2746)"/>
<path d="M85.141 67.2266L68.0135 73.8992L56.4492 67.2266H85.141Z" fill="url(#paint9_linear_653_2746)"/>
<path d="M49.9695 67.2266H55.8513L42.5078 71.9014L49.9695 67.2266Z" fill="url(#paint10_linear_653_2746)"/>
<path d="M56.2127 67.333L67.8169 74.0456L47.3437 83.7816L42.0859 72.2876L56.2127 67.333Z" fill="#00ACF5"/>
<path d="M47.1836 83.9146C46.7056 84.9401 43.4129 85.7393 39.6687 85.7393C35.9777 85.7393 32.8178 84.9934 32.207 83.9945L41.9258 72.4072L47.1836 83.9146Z" fill="url(#paint11_linear_653_2746)"/>
<path d="M41.5796 72.4736L32.0068 83.8878L32.0201 83.9011C32.0068 83.9144 31.9802 83.9144 31.9802 83.9277C31.5554 84.9533 28.8203 85.7391 25.6205 85.7391C24.0273 85.7391 22.527 85.5393 21.332 85.1797L41.5796 72.4736Z" fill="url(#paint12_linear_653_2746)"/>
<path d="M21.2383 89.2426C22.4465 88.8697 23.9866 88.6699 25.6064 88.6699C28.8062 88.6699 31.5413 89.4424 31.9662 90.4813C31.9794 90.5079 32.006 90.5212 32.0325 90.5212L70.9211 137.63L21.2383 89.2426Z" fill="url(#paint13_linear_653_2746)"/>
<path d="M32.207 90.4014C32.8443 89.4158 35.991 88.6699 39.6555 88.6699C43.4129 88.6699 46.7189 89.4824 47.1836 90.5079L71.6798 138.202L32.207 90.4014Z" fill="url(#paint14_linear_653_2746)"/>
<path d="M66.3682 90.5479C66.3284 90.5479 66.2886 90.5345 66.2753 90.5079C65.6646 89.469 61.6018 88.6699 56.822 88.6699C52.2149 88.6699 48.1521 89.4424 47.4219 90.4413L77.0696 125.083L66.3682 90.5479Z" fill="url(#paint15_linear_653_2746)"/>
<path d="M66.5391 90.388C67.3755 89.4024 71.3055 88.6699 75.8994 88.6699C80.5729 88.6699 84.6888 89.469 85.3261 90.4813L77.2404 124.937L66.5391 90.388Z" fill="url(#paint16_linear_653_2746)"/>
<path d="M72.3032 138.974L47.7539 91.1602L77.0697 125.403C77.0962 125.443 77.1361 125.443 77.1759 125.429L85.2882 151.614L72.3032 138.974Z" fill="url(#paint17_linear_653_2746)"/>
<path d="M85.4873 151.441L77.375 125.296L85.4475 90.8809L93.5996 125.39L85.4873 151.441Z" fill="url(#paint18_linear_653_2746)"/>
<path d="M123.461 90.4413C122.744 89.4424 118.681 88.6699 114.061 88.6699C109.361 88.6699 105.364 89.4291 104.647 90.4546L93.9727 124.897L123.461 90.4413Z" fill="url(#paint19_linear_653_2746)"/>
<path d="M93.7201 125.029L85.5547 90.4806C86.2185 89.4684 90.3079 88.6826 94.9814 88.6826C99.7346 88.6826 103.771 89.4684 104.421 90.494L93.7201 125.029Z" fill="url(#paint20_linear_653_2746)"/>
<path d="M98.6842 138.988L85.6992 151.627L93.8248 125.416V125.403L123.141 91.1602L98.6842 138.974V138.988Z" fill="url(#paint21_linear_653_2746)"/>
<path d="M123.725 90.4679C123.725 90.4679 123.725 90.4546 123.725 90.4679C124.269 89.4557 127.509 88.6699 131.213 88.6699C134.904 88.6699 138.064 89.4158 138.675 90.4147L99.3086 138.216L123.725 90.4679Z" fill="url(#paint22_linear_653_2746)"/>
<path d="M100.023 137.683L138.899 90.4946C138.899 90.4813 138.912 90.4946 138.925 90.4813C139.35 89.4557 142.085 88.6699 145.285 88.6699C146.958 88.6699 148.538 88.883 149.746 89.2693L100.023 137.683Z" fill="url(#paint23_linear_653_2746)"/>
<path d="M149.788 89.0556C148.567 88.6693 146.96 88.4562 145.274 88.4562C142.114 88.4562 139.459 89.1888 138.808 90.2276C138.052 89.1888 134.931 88.4562 131.214 88.4562C127.43 88.4562 124.296 89.2154 123.593 90.2676C122.716 89.2154 118.8 88.4562 114.06 88.4562C109.32 88.4562 105.39 89.2154 104.527 90.2676C103.651 89.2154 99.7206 88.4562 94.994 88.4562C90.2275 88.4562 86.2975 89.2154 85.4478 90.2809C84.598 89.2154 80.668 88.4562 75.9015 88.4562C71.1616 88.4562 67.2316 89.2154 66.3686 90.2676C65.4923 89.2154 61.5623 88.4562 56.8357 88.4562C52.0957 88.4562 48.1657 89.2154 47.3027 90.2676C46.599 89.2154 43.4657 88.4562 39.6817 88.4562C35.9641 88.4562 32.8573 89.1888 32.0872 90.2276C31.4366 89.1888 28.7812 88.4562 25.6213 88.4562C23.9882 88.4562 22.4348 88.656 21.2266 89.0289V85.4063C22.4481 85.7792 24.0015 85.979 25.6213 85.979C28.7812 85.979 31.4366 85.2464 32.0872 84.2076C32.844 85.2464 35.9641 85.979 39.6817 85.979C43.4657 85.979 46.599 85.2198 47.3027 84.1676C48.179 85.2198 52.0957 85.979 56.8357 85.979C61.5756 85.979 65.5056 85.2198 66.3686 84.1676C67.2449 85.2198 71.1749 85.979 75.9015 85.979C80.668 85.979 84.598 85.2198 85.4478 84.1543C86.2975 85.2198 90.2275 85.979 94.994 85.979C99.7339 85.979 103.664 85.2198 104.527 84.1676C105.403 85.2198 109.333 85.979 114.06 85.979C118.8 85.979 122.73 85.2198 123.593 84.1676C124.296 85.2198 127.43 85.979 131.214 85.979C134.931 85.979 138.052 85.2464 138.808 84.2076C139.459 85.2464 142.114 85.979 145.274 85.979C146.96 85.979 148.567 85.7659 149.788 85.3796V89.0556Z" fill="url(#paint24_linear_653_2746)"/>
<path d="M142.654 76.6457L142.643 82.2053C142.654 78.3555 140.119 74.5056 135.048 71.5746C124.964 65.7474 108.622 65.759 98.596 71.5746C93.6179 74.4707 91.1288 78.2624 91.1172 82.0541L91.1288 76.4945C91.1404 72.7028 93.6295 68.911 98.6076 66.0149C108.622 60.1877 124.975 60.1877 135.059 66.0149C140.131 68.9576 142.666 72.8074 142.654 76.6457Z" fill="#D5D0C8"/>
<path d="M98.6194 69.3531C108.634 63.526 124.987 63.526 135.071 69.3531C139.724 72.0399 142.236 75.506 142.608 79.0302C143.038 74.8895 140.538 70.6674 135.071 67.5154C124.987 61.6883 108.645 61.6999 98.6194 67.5154C93.2226 70.6442 90.7568 74.843 91.1988 78.9488C91.5594 75.4478 94.0252 72.0167 98.6194 69.3531Z" fill="#172568"/>
<path opacity="0.8" d="M135.058 69.015C124.974 63.1994 108.632 63.1994 98.6059 69.015C88.5916 74.8305 88.6497 84.2982 98.7339 90.1254C108.818 95.9409 125.16 95.9409 135.174 90.1254C145.188 84.2982 145.142 74.8305 135.058 69.015Z" fill="#00ACF5"/>
<path d="M143.794 76.6571L143.782 82.2167C143.77 86.1829 141.165 90.1375 135.978 93.1615C125.521 99.233 108.459 99.233 97.9324 93.1615C92.6403 90.1026 89.9884 86.0782 90 82.0655L90.0117 76.5059C90 80.5186 92.6403 84.5429 97.9441 87.6019C108.47 93.6733 125.533 93.6733 135.989 87.6019C141.177 84.5778 143.782 80.6233 143.794 76.6571Z" fill="#F6F2ED"/>
<path d="M135.861 65.5623C146.388 71.6337 146.434 81.5201 135.978 87.6032C125.521 93.6746 108.459 93.6746 97.9325 87.6032C87.4064 81.5317 87.3483 71.6337 97.8046 65.5623C108.261 59.4792 125.335 59.4792 135.861 65.5623ZM98.7351 87.1379C108.819 92.9535 125.161 92.9535 135.175 87.1379C145.19 81.3108 145.143 71.8431 135.059 66.0275C124.975 60.212 108.633 60.212 98.6071 66.0275C88.6044 71.8431 88.6509 81.3108 98.7351 87.1379Z" fill="#FDFAF5"/>
<path d="M140.812 95.7216C140.812 97.094 141.778 97.664 142.976 96.9661C144.174 96.2799 145.139 94.605 145.139 93.2209C145.139 91.8484 144.174 91.2785 142.976 91.9764C141.778 92.6742 140.812 94.3491 140.812 95.7216Z" fill="#6C00AC"/>
<path d="M144.525 91.836L137.535 87.8001C137.139 87.5674 136.592 87.5907 135.988 87.9396C134.79 88.6259 133.824 90.3007 133.824 91.6848C133.824 92.3711 134.057 92.8479 134.441 93.0806L141.431 97.1165C141.047 96.8839 140.814 96.407 140.814 95.7208C140.814 94.3367 141.78 92.6618 142.978 91.9756C143.583 91.6267 144.129 91.6034 144.525 91.836Z" fill="#E7E7E7"/>
<path d="M146.226 90.3348C145.563 89.9393 144.632 89.9859 143.597 90.5791C141.562 91.7538 139.922 94.6034 139.922 96.9529C139.922 98.116 140.329 98.9302 140.98 99.3256L162.591 111.806L167.836 102.815L146.226 90.3348Z" fill="url(#paint25_linear_653_2746)"/>
<path d="M161.531 109.432C161.531 111.782 163.183 112.736 165.207 111.561C167.242 110.386 168.882 107.537 168.882 105.187C168.882 103.64 168.173 102.71 167.103 102.57C166.544 102.5 165.893 102.652 165.195 103.059C163.171 104.233 161.531 107.083 161.531 109.432Z" fill="url(#paint26_linear_653_2746)"/>
<mask id="mask0_653_2746" style="mask-type:alpha" maskUnits="userSpaceOnUse" x="161" y="102" width="7" height="8">
<path d="M161.53 109.435C162.449 104.934 165.473 102.549 167.113 102.572C165.008 101.84 161.065 105.608 161.53 109.435Z" fill="url(#paint27_radial_653_2746)"/>
</mask>
<g mask="url(#mask0_653_2746)">
<path d="M161.53 109.434C162.449 104.933 165.473 102.548 167.113 102.572C165.008 101.839 161.065 105.607 161.53 109.434Z" fill="#172568"/>
</g>
<defs>
<linearGradient id="paint0_linear_653_2746" x1="152.597" y1="73.9388" x2="41.0277" y2="95.1481" gradientUnits="userSpaceOnUse">
<stop stop-color="#172568"/>
<stop offset="1" stop-color="#00ACF5"/>
</linearGradient>
<linearGradient id="paint1_linear_653_2746" x1="126.624" y1="64.3983" x2="151.308" y2="79.9073" gradientUnits="userSpaceOnUse">
<stop stop-color="#172568"/>
<stop offset="1" stop-color="#00ACF5"/>
</linearGradient>
<linearGradient id="paint2_linear_653_2746" x1="131.175" y1="72.4072" x2="131.175" y2="85.7393" gradientUnits="userSpaceOnUse">
<stop stop-color="#172568"/>
<stop offset="1" stop-color="#182F9B"/>
</linearGradient>
<linearGradient id="paint3_linear_653_2746" x1="121.84" y1="65.5898" x2="124.931" y2="73.2269" gradientUnits="userSpaceOnUse">
<stop stop-color="#172568"/>
<stop offset="1" stop-color="#00ACF5"/>
</linearGradient>
<linearGradient id="paint4_linear_653_2746" x1="113.162" y1="70.3577" x2="122.926" y2="85.3053" gradientUnits="userSpaceOnUse">
<stop stop-color="#172568"/>
<stop offset="1" stop-color="#00ACF5"/>
</linearGradient>
<linearGradient id="paint5_linear_653_2746" x1="95.0463" y1="74.2188" x2="95.0463" y2="85.7528" gradientUnits="userSpaceOnUse">
<stop stop-color="#172568"/>
<stop offset="1" stop-color="#182F9B"/>
</linearGradient>
<linearGradient id="paint6_linear_653_2746" x1="100.039" y1="64.9359" x2="103.158" y2="76.5352" gradientUnits="userSpaceOnUse">
<stop stop-color="#172568"/>
<stop offset="1" stop-color="#00ACF5"/>
</linearGradient>
<linearGradient id="paint7_linear_653_2746" x1="57.612" y1="74.2852" x2="57.612" y2="85.7392" gradientUnits="userSpaceOnUse">
<stop stop-color="#172568"/>
<stop offset="1" stop-color="#182F9B"/>
</linearGradient>
<linearGradient id="paint8_linear_653_2746" x1="75.7999" y1="70.2456" x2="85.9447" y2="84.5499" gradientUnits="userSpaceOnUse">
<stop stop-color="#172568"/>
<stop offset="1" stop-color="#00ACF5"/>
</linearGradient>
<linearGradient id="paint9_linear_653_2746" x1="70.6839" y1="64.9359" x2="73.8023" y2="76.5352" gradientUnits="userSpaceOnUse">
<stop stop-color="#172568"/>
<stop offset="1" stop-color="#00ACF5"/>
</linearGradient>
<linearGradient id="paint10_linear_653_2746" x1="49.1278" y1="65.6218" x2="52.1597" y2="73.1076" gradientUnits="userSpaceOnUse">
<stop stop-color="#172568"/>
<stop offset="1" stop-color="#00ACF5"/>
</linearGradient>
<linearGradient id="paint11_linear_653_2746" x1="39.6373" y1="67.8306" x2="52.0574" y2="79.8998" gradientUnits="userSpaceOnUse">
<stop stop-color="#172568"/>
<stop offset="1" stop-color="#00ACF5"/>
</linearGradient>
<linearGradient id="paint12_linear_653_2746" x1="31.3773" y1="67.9198" x2="43.278" y2="83.6329" gradientUnits="userSpaceOnUse">
<stop stop-color="#172568"/>
<stop offset="1" stop-color="#00ACF5"/>
</linearGradient>
<linearGradient id="paint13_linear_653_2746" x1="26.194" y1="88.6835" x2="103.031" y2="101.671" gradientUnits="userSpaceOnUse">
<stop stop-color="#172568"/>
<stop offset="1" stop-color="#00ACF5"/>
</linearGradient>
<linearGradient id="paint14_linear_653_2746" x1="51.7904" y1="71.6663" x2="94.9341" y2="101.408" gradientUnits="userSpaceOnUse">
<stop stop-color="#172568"/>
<stop offset="1" stop-color="#00ACF5"/>
</linearGradient>
<linearGradient id="paint15_linear_653_2746" x1="62.1308" y1="76.1698" x2="94.0843" y2="98.6752" gradientUnits="userSpaceOnUse">
<stop stop-color="#172568"/>
<stop offset="1" stop-color="#00ACF5"/>
</linearGradient>
<linearGradient id="paint16_linear_653_2746" x1="79.4383" y1="83.9131" x2="111.815" y2="101.963" gradientUnits="userSpaceOnUse">
<stop stop-color="#172568"/>
<stop offset="1" stop-color="#00ACF5"/>
</linearGradient>
<linearGradient id="paint17_linear_653_2746" x1="55.1986" y1="81.311" x2="126.784" y2="88.3202" gradientUnits="userSpaceOnUse">
<stop offset="0.00109459" stop-color="#172568"/>
<stop offset="1" stop-color="#00ACF5"/>
</linearGradient>
<linearGradient id="paint18_linear_653_2746" x1="85.4244" y1="70.0915" x2="110.252" y2="75.8454" gradientUnits="userSpaceOnUse">
<stop stop-color="#172568"/>
<stop offset="1" stop-color="#00ACF5"/>
</linearGradient>
<linearGradient id="paint19_linear_653_2746" x1="108.603" y1="76.2338" x2="140.39" y2="98.6164" gradientUnits="userSpaceOnUse">
<stop stop-color="#172568"/>
<stop offset="1" stop-color="#00ACF5"/>
</linearGradient>
<linearGradient id="paint20_linear_653_2746" x1="94.9149" y1="76.2054" x2="120.232" y2="87.5731" gradientUnits="userSpaceOnUse">
<stop stop-color="#172568"/>
<stop offset="1" stop-color="#00ACF5"/>
</linearGradient>
<linearGradient id="paint21_linear_653_2746" x1="123.161" y1="88.2498" x2="154.633" y2="115.996" gradientUnits="userSpaceOnUse">
<stop stop-color="#172568"/>
<stop offset="1" stop-color="#00ACF5"/>
</linearGradient>
<linearGradient id="paint22_linear_653_2746" x1="118.839" y1="71.6617" x2="161.949" y2="101.292" gradientUnits="userSpaceOnUse">
<stop stop-color="#172568"/>
<stop offset="1" stop-color="#00ACF5"/>
</linearGradient>
<linearGradient id="paint23_linear_653_2746" x1="149.998" y1="91.2855" x2="169.051" y2="143.343" gradientUnits="userSpaceOnUse">
<stop stop-color="#172568"/>
<stop offset="1" stop-color="#00ACF5"/>
</linearGradient>
<linearGradient id="paint24_linear_653_2746" x1="85.0092" y1="82.0511" x2="87.863" y2="98.5329" gradientUnits="userSpaceOnUse">
<stop stop-color="#00ACF5"/>
<stop offset="1" stop-color="#172568"/>
</linearGradient>
<linearGradient id="paint25_linear_653_2746" x1="153.771" y1="82.6194" x2="173.908" y2="104.999" gradientUnits="userSpaceOnUse">
<stop stop-color="#172568"/>
<stop offset="1" stop-color="#00ACF5"/>
</linearGradient>
<linearGradient id="paint26_linear_653_2746" x1="165.178" y1="99.2891" x2="173.369" y2="104.766" gradientUnits="userSpaceOnUse">
<stop stop-color="#172568"/>
<stop offset="1" stop-color="#00ACF5"/>
</linearGradient>
<radialGradient id="paint27_radial_653_2746" cx="0" cy="0" r="1" gradientUnits="userSpaceOnUse" gradientTransform="translate(166.078 102.487) scale(9.05072)">
<stop stop-color="white"/>
<stop offset="0.065" stop-color="white"/>
<stop offset="0.13" stop-color="white"/>
<stop offset="0.2237" stop-color="white"/>
<stop offset="0.28" stop-color="white"/>
<stop offset="1" stop-color="white"/>
</radialGradient>
</defs>
</svg>
