<svg width="90" height="90" viewBox="0 0 90 90" fill="none" xmlns="http://www.w3.org/2000/svg">
<g style="mix-blend-mode:multiply">
<rect width="90" height="90" fill="white"/>
<rect x="42" y="9" width="45" height="46" fill="#172568"/>
<path d="M88.9991 8.93248C88.9991 29.1056 88.9991 49.2803 88.9991 69.4534C88.4645 70.8964 87.3954 71.3453 85.8939 71.3386C76.2856 71.3014 66.679 71.3183 57.0707 71.3268C56.7217 71.3268 56.3336 71.185 56.0203 71.477C49.1376 71.4787 42.2565 71.4787 35.3737 71.4803C35.0588 71.1884 34.6706 71.3268 34.3199 71.3268C24.5788 71.3183 14.8377 71.3014 5.09665 71.3386C3.59684 71.3453 2.53455 70.8896 2 69.4551C2 49.282 2 29.1072 2 8.93416C2.56349 7.49793 3.65813 7.0625 5.15624 7.0625C32.0523 7.08444 58.9467 7.08444 85.8428 7.0625C87.3409 7.06082 88.4356 7.49624 88.9991 8.93248ZM45.5029 66.267C57.3397 66.267 69.1764 66.2687 81.0132 66.2653C83.0373 66.2653 83.8987 65.4029 83.8987 63.3946C83.8987 46.7336 83.8987 30.0726 83.8987 13.4133C83.8987 11.0404 82.627 9.77633 80.2386 9.77633C57.0741 9.77633 33.9096 9.77633 10.7469 9.77633C8.36184 9.77633 7.09696 11.0387 7.09696 13.4218C7.09696 30.0254 7.11739 46.6306 7.06802 63.2342C7.06292 65.1025 8.05201 66.3059 10.163 66.2957C21.9435 66.235 33.7241 66.267 45.5029 66.267Z" fill="#00ACF5"/>
<path d="M88.9991 8.93294C88.4356 7.4967 87.3427 7.05959 85.8428 7.06128C58.9467 7.08491 32.0523 7.08491 5.15624 7.06128C3.65813 7.06128 2.56349 7.49839 2 8.93294C2 8.09078 2 7.24692 2 6.40476C2.37963 5.65711 2.94483 5.09511 3.69899 4.71875C31.5655 4.71875 59.4319 4.71875 87.2984 4.71875C88.0491 5.09848 88.6177 5.65711 88.9974 6.40476C88.9991 7.24692 88.9991 8.09078 88.9991 8.93294Z" fill="#00ACF5"/>
<path d="M69.0133 79.7539C69.6568 81.391 68.9844 83.1226 67.3909 83.9377C67.1713 84.0491 66.9551 84.1656 66.7389 84.2803C52.7486 84.2803 38.7584 84.2803 24.7698 84.2803C23.6054 83.7538 22.6503 83.0382 22.3354 81.71C22.1737 81.0332 22.1651 80.3834 22.4971 79.7539C23.2172 81.2003 24.3629 81.9277 26.016 81.926C39.1772 81.9142 52.3367 81.9142 65.4979 81.926C67.1475 81.9277 68.2932 81.1986 69.0133 79.7539Z" fill="#00ACF5"/>
<path d="M56.0191 71.4805C56.0294 73.4399 56.0396 75.3976 56.0515 77.357C56.0532 77.5883 56.0617 77.8178 56.0668 78.049C49.1449 78.0507 42.2247 78.0524 35.3027 78.0541C35.3129 76.0643 35.3232 74.0728 35.3368 72.083C35.3385 71.8821 35.3606 71.683 35.3725 71.4822C42.2553 71.4822 49.1364 71.4805 56.0191 71.4805Z" fill="#018BC6"/>
<path d="M35.3051 77.5414C42.2271 77.538 49.1473 77.5346 56.0692 77.5312C59.2953 77.5346 62.5213 77.5296 65.7473 77.5464C67.3289 77.5549 68.432 78.3194 69.0176 79.7573C68.2975 81.202 67.1518 81.9311 65.4988 81.9311C52.3376 81.9193 39.1781 81.9193 26.0169 81.9311C24.3639 81.9328 23.2182 81.2071 22.498 79.759C23.0735 78.3278 24.1783 77.5549 25.7496 77.5464C28.9348 77.5312 32.12 77.5414 35.3051 77.5414Z" fill="#00ACF5"/>
<path d="M14.5933 40.983C14.134 40.6965 14 40.2668 14 39.7452C14.0064 33.9411 14 28.137 14.0085 22.3329C14.0106 21.3089 14.3083 21.0139 15.3439 21.0075C17.683 20.9947 20.0222 21.0118 22.3613 21.0161C22.3613 22.2709 22.357 23.5237 22.3655 24.7786C22.3677 25.1099 22.3443 25.2809 22.8716 25.4028C23.5798 25.5653 24.307 25.1655 25.0024 25.6465C25.366 25.8988 25.5744 25.4819 25.5701 25.0543C25.5574 23.7033 25.5659 22.3522 25.5659 21.0032C27.871 21.0032 30.1761 20.9947 32.4812 21.0054C33.6188 21.0097 33.9888 21.356 33.991 22.5018C34.0058 28.1712 33.9973 33.8385 33.9995 39.5079C33.9995 40.1193 33.8591 40.658 33.2956 40.9979C32.0495 40.9915 30.8013 40.9509 29.5551 40.9872C28.4451 41.0193 20.9982 40.9808 20.6495 40.9808C18.6315 40.9787 16.6134 40.983 14.5933 40.983Z" fill="#00ACF5"/>
<path d="M51.1475 35.3806C50.235 35.3806 49.3225 35.3907 48.41 35.3772C47.7257 35.3671 47.3699 35.0363 47.3631 34.3646C47.3477 32.5351 47.3477 30.704 47.3631 28.8745C47.3682 28.2281 47.7529 27.8349 48.41 27.8281C50.2537 27.8079 52.0991 27.8062 53.9445 27.8298C54.6442 27.8382 54.9762 28.2197 54.9796 28.9285C54.9881 30.7191 54.9881 32.5098 54.9796 34.3004C54.9762 35.0548 54.6544 35.3688 53.8849 35.3789C52.9724 35.389 52.06 35.3806 51.1475 35.3806ZM53.9428 30.0356C53.9343 29.6441 53.7606 29.3572 53.3861 29.212C52.9895 29.0584 52.6371 29.1513 52.3664 29.4652C51.9033 30.0019 51.4386 30.5402 51.013 31.1073C50.7491 31.4584 50.5602 31.617 50.1448 31.2609C49.7617 30.9318 49.2153 31.0398 48.9207 31.3925C48.6007 31.7756 48.6364 32.2887 49.045 32.6566C49.3514 32.9334 49.6868 33.1815 50.0154 33.433C50.6197 33.8954 51.0709 33.8616 51.556 33.2844C52.2796 32.4254 52.9827 31.5478 53.696 30.682C53.8543 30.4913 53.9462 30.2837 53.9428 30.0356Z" fill="#172568"/>
<path d="M51.2058 38.9916C52.1183 38.9916 53.0308 38.9831 53.9416 38.995C54.6361 39.0051 54.9732 39.3257 54.9766 40.0059C54.9868 41.8354 54.9868 43.6648 54.9766 45.4943C54.9732 46.1407 54.6651 46.5103 54.0028 46.5221C52.12 46.5559 50.2355 46.5559 48.3543 46.5238C47.6989 46.512 47.3652 46.1036 47.3618 45.4318C47.3516 43.6412 47.3499 41.8522 47.3618 40.0616C47.3669 39.319 47.7074 39 48.4701 38.9933C49.3809 38.9831 50.2933 38.9916 51.2058 38.9916ZM49.5886 42.1965C49.2021 42.2286 48.9161 42.4075 48.7748 42.7754C48.6318 43.145 48.7118 43.4859 49.0029 43.7441C49.357 44.0581 49.7316 44.35 50.1129 44.6302C50.6338 45.0116 51.0918 44.9593 51.5174 44.4564C52.2545 43.5821 52.9797 42.6978 53.693 41.805C54.0607 41.3442 54.0233 40.8059 53.6436 40.4852C53.2521 40.1527 52.675 40.2253 52.2817 40.681C51.8698 41.1586 51.4595 41.6396 51.0833 42.1442C50.7972 42.529 50.5487 42.8159 50.0942 42.345C49.9716 42.2185 49.7775 42.183 49.5886 42.1965Z" fill="#172568"/>
<path d="M51.1631 16.792C52.0756 16.792 52.9881 16.7835 53.9006 16.7954C54.6632 16.8055 54.9765 17.1211 54.9799 17.8856C54.9867 19.656 54.9867 21.4264 54.9799 23.1985C54.9765 23.9951 54.6326 24.3444 53.812 24.3512C52.0671 24.3647 50.3221 24.3664 48.5772 24.3495C47.7072 24.3411 47.3617 23.9715 47.36 23.104C47.3549 21.3927 47.3532 19.6796 47.36 17.9683C47.3634 17.1093 47.68 16.8004 48.5465 16.7937C49.4182 16.7852 50.2915 16.792 51.1631 16.792ZM53.9448 18.9404C53.9363 18.5674 53.7558 18.2907 53.4154 18.1573C53.0119 17.9987 52.6306 18.0713 52.3412 18.4156C51.8849 18.959 51.4219 19.4991 50.9929 20.0627C50.7426 20.3902 50.5588 20.5336 50.1638 20.2079C49.7297 19.8501 49.2173 19.9514 48.904 20.3497C48.5959 20.7412 48.6504 21.2509 49.0658 21.6121C49.3773 21.8838 49.711 22.1319 50.0412 22.3833C50.6286 22.8272 51.0678 22.7951 51.5359 22.2416C52.2594 21.3825 52.9642 20.5066 53.6809 19.6391C53.8495 19.4332 53.9567 19.2105 53.9448 18.9404Z" fill="#172568"/>
<path d="M65.1775 43.8347C63.4734 43.8347 61.7693 43.838 60.0652 43.8313C59.8303 43.8296 59.5868 43.8161 59.3621 43.7537C58.8361 43.6068 58.5705 43.2153 58.5909 42.6972C58.6097 42.2044 58.8906 41.8432 59.3945 41.7234C59.6413 41.6643 59.9035 41.6542 60.1605 41.6525C63.5092 41.6474 66.8578 41.6491 70.2047 41.6491C70.3238 41.6491 70.443 41.6457 70.5605 41.6542C71.2789 41.7099 71.7385 42.1267 71.7487 42.7292C71.7589 43.3452 71.2687 43.8178 70.5264 43.8262C68.744 43.8448 66.9599 43.833 65.1775 43.833C65.1775 43.833 65.1775 43.833 65.1775 43.8347Z" fill="#00ACF5"/>
<path d="M65.1551 21.6434C63.4527 21.6434 61.7503 21.6417 60.0462 21.645C59.767 21.645 59.4878 21.6417 59.2307 21.5235C58.7915 21.321 58.5549 20.9598 58.594 20.4873C58.6349 19.9978 58.9022 19.6367 59.4146 19.5304C59.6444 19.4831 59.8862 19.4713 60.1228 19.4713C63.468 19.4679 66.8149 19.4679 70.1601 19.4713C70.3763 19.4713 70.5976 19.4797 70.8104 19.5135C71.3433 19.5995 71.7178 20.0063 71.7433 20.5042C71.7689 20.9936 71.4284 21.4493 70.9057 21.5758C70.6793 21.6315 70.4359 21.64 70.201 21.6417C68.5207 21.6467 66.8387 21.6434 65.1551 21.6434Z" fill="#00ACF5"/>
<path d="M65.1176 32.6787C63.4543 32.6787 61.7911 32.6787 60.1295 32.6787C59.9321 32.6787 59.7329 32.6787 59.5371 32.6585C58.9821 32.6028 58.6774 32.2585 58.6076 31.7438C58.5361 31.2189 58.7898 30.8391 59.2852 30.6265C59.549 30.5134 59.8265 30.5286 60.104 30.5286C63.4696 30.5286 66.8353 30.5286 70.2009 30.5286C70.3388 30.5286 70.4784 30.5235 70.6163 30.5337C71.3041 30.5894 71.779 31.0619 71.7501 31.6594C71.7228 32.2382 71.2598 32.6652 70.5839 32.6703C68.7624 32.6838 66.9408 32.6754 65.1193 32.6754C65.1176 32.6771 65.1176 32.6771 65.1176 32.6787Z" fill="#00ACF5"/>
<path d="M25.9938 21C25.9938 22.3981 25.9833 24.9123 25.9992 26.3082C26.0045 26.7506 25.7448 27.1819 25.2917 26.9209C24.4252 26.4232 23.3815 26.6683 22.4991 26.5001C21.8393 26.374 22.0085 26.3657 22.0059 26.0228C21.9953 24.7243 22.0005 22.2985 22.0005 21C23.4992 21 24.4992 21 25.9938 21Z" fill="#172568"/>
<path d="M53.9393 30.0329C53.9444 30.281 53.8507 30.4886 53.6941 30.6793C52.9791 31.5468 52.2777 32.4227 51.5542 33.2817C51.069 33.8589 50.6162 33.891 50.0136 33.4302C49.685 33.1788 49.3496 32.9307 49.0432 32.6539C48.6363 32.286 48.5989 31.7746 48.9189 31.3898C49.2134 31.0371 49.7599 30.9291 50.1429 31.2582C50.5583 31.6143 50.7473 31.4556 51.0112 31.1046C51.4367 30.5375 51.9015 29.9991 52.3646 29.4625C52.6352 29.1485 52.9876 29.0557 53.3843 29.2093C53.7588 29.3544 53.9325 29.6413 53.9393 30.0329Z" fill="white"/>
<path d="M49.588 42.1966C49.777 42.1848 49.9727 42.2185 50.0936 42.3434C50.5481 42.8143 50.7967 42.5274 51.0827 42.1426C51.4589 41.638 51.8692 41.157 52.2812 40.6793C52.6744 40.2237 53.2498 40.1511 53.6431 40.4836C54.0227 40.8059 54.0602 41.3443 53.6925 41.8034C52.9792 42.6961 52.2539 43.5805 51.5168 44.4547C51.0912 44.9594 50.6333 45.01 50.1123 44.6286C49.731 44.3484 49.3565 44.0564 49.0024 43.7425C48.7113 43.4843 48.6312 43.1434 48.7742 42.7738C48.9155 42.4075 49.2015 42.2287 49.588 42.1966Z" fill="white"/>
<path d="M53.9424 18.9413C53.9543 19.2113 53.847 19.4358 53.6785 19.64C52.9618 20.5058 52.2587 21.3817 51.5335 22.2424C51.067 22.796 50.6261 22.8297 50.0388 22.3842C49.7085 22.1344 49.3749 21.8846 49.0633 21.6129C48.6479 21.2517 48.5935 20.7421 48.9016 20.3505C49.2148 19.9522 49.7272 19.8493 50.1614 20.2088C50.5563 20.5345 50.7402 20.391 50.9904 20.0636C51.4211 19.4999 51.8825 18.9599 52.3387 18.4164C52.6281 18.0721 53.0095 17.9996 53.4129 18.1582C53.7551 18.2915 53.9356 18.57 53.9424 18.9413Z" fill="white"/>
<path d="M85.62 50.8984H4.8125V68.3003H85.62V50.8984Z" fill="#00ACF5"/>
<rect x="17" y="37" width="6" height="2" fill="white"/>
</g>
</svg>
