<svg width="192" height="192" viewBox="0 0 192 192" fill="none" xmlns="http://www.w3.org/2000/svg">
<path d="M56.9592 173.262V111.086L27.7402 94.2266V173.262H56.9592Z" fill="url(#paint0_linear_653_292)"/>
<path opacity="0.83" d="M56.959 173.262V111.086L86.178 94.2266V173.262H56.959Z" fill="url(#paint1_linear_653_292)"/>
<path d="M57.62 76.9297L27.9609 93.789L57.1799 110.648L86.3989 93.789L57.62 76.9297Z" fill="white"/>
<path opacity="0.8" d="M66.5584 144.5L78.2493 151.17L138.368 184.915L126.611 191.642L66.4922 157.953V145.605C66.4922 145.241 66.5187 144.874 66.5584 144.5Z" fill="white"/>
<path d="M66.2812 157.749L78.0383 150.966V138.618C78.0383 134.593 75.5896 132.741 72.5685 134.484L71.7511 134.953C68.7299 136.696 66.2812 141.372 66.2812 145.397V157.749Z" fill="#172568"/>
<path d="M76.4552 31.8125H72.4082V34.6202C72.4082 34.6202 72.4082 34.6301 72.4082 34.6367C72.4082 35.2882 73.3149 35.814 74.43 35.814C75.5485 35.814 76.4519 35.2882 76.4519 34.6367C76.4519 34.6301 76.4519 34.6268 76.4519 34.6268V34.6202V31.8125H76.4552Z" fill="url(#paint2_linear_653_292)"/>
<path d="M72.4082 31.8179C72.4082 32.4694 73.3149 32.9952 74.43 32.9952C75.5485 32.9952 76.4519 32.4694 76.4519 31.8179C76.4519 31.1664 75.5452 30.6406 74.43 30.6406C73.3149 30.6406 72.4082 31.1698 72.4082 31.8179Z" fill="url(#paint3_linear_653_292)"/>
<path d="M74.43 32.9934C73.3248 32.9934 72.4281 32.4775 72.4082 31.8359C72.4082 31.8426 72.4082 31.8492 72.4082 31.8558C72.4082 32.5073 73.3149 33.0331 74.43 33.0331C75.5485 33.0331 76.4519 32.5073 76.4519 31.8558C76.4519 31.8492 76.4519 31.8426 76.4519 31.8359C76.4353 32.4775 75.5353 32.9934 74.43 32.9934Z" fill="url(#paint4_radial_653_292)"/>
<path d="M35.3867 31.8125H39.4337V34.6202C39.4337 34.6202 39.4337 34.6301 39.4337 34.6367C39.4337 35.2882 38.527 35.814 37.4119 35.814C36.2967 35.814 35.39 35.2882 35.39 34.6367C35.39 34.6301 35.39 34.6268 35.39 34.6268V34.6202V31.8125H35.3867Z" fill="url(#paint5_linear_653_292)"/>
<path d="M39.4304 31.8179C39.4304 32.4694 38.5237 32.9952 37.4086 32.9952C36.2934 32.9952 35.3867 32.4694 35.3867 31.8179C35.3867 31.1664 36.2934 30.6406 37.4086 30.6406C38.5237 30.6406 39.4304 31.1698 39.4304 31.8179Z" fill="url(#paint6_linear_653_292)"/>
<path d="M37.4086 32.9934C38.5138 32.9934 39.4105 32.4775 39.4304 31.8359C39.4304 31.8426 39.4304 31.8492 39.4304 31.8558C39.4304 32.5073 38.5237 33.0331 37.4086 33.0331C36.2901 33.0331 35.3867 32.5073 35.3867 31.8558C35.3867 31.8492 35.3867 31.8426 35.3867 31.8359C35.4066 32.4775 36.3033 32.9934 37.4086 32.9934Z" fill="url(#paint7_radial_653_292)"/>
<path d="M76.4552 52.6875H72.4082V55.4952C72.4082 55.4952 72.4082 55.5051 72.4082 55.5117C72.4082 56.1632 73.3149 56.689 74.43 56.689C75.5485 56.689 76.4519 56.1632 76.4519 55.5117C76.4519 55.5051 76.4519 55.5018 76.4519 55.5018V55.4952V52.6875H76.4552Z" fill="url(#paint8_linear_653_292)"/>
<path d="M72.4082 52.6929C72.4082 53.3444 73.3149 53.8702 74.43 53.8702C75.5485 53.8702 76.4519 53.3444 76.4519 52.6929C76.4519 52.0414 75.5452 51.5156 74.43 51.5156C73.3149 51.5156 72.4082 52.0448 72.4082 52.6929Z" fill="url(#paint9_linear_653_292)"/>
<path d="M74.43 53.8684C73.3248 53.8684 72.4281 53.3525 72.4082 52.7109C72.4082 52.7176 72.4082 52.7242 72.4082 52.7308C72.4082 53.3823 73.3149 53.9081 74.43 53.9081C75.5485 53.9081 76.4519 53.3823 76.4519 52.7308C76.4519 52.7242 76.4519 52.7176 76.4519 52.7109C76.4353 53.3525 75.5353 53.8684 74.43 53.8684Z" fill="url(#paint10_radial_653_292)"/>
<path d="M63.318 38.4404V40.4048L60.7402 38.9133V36.9258L63.318 38.4404Z" fill="url(#paint11_linear_653_292)"/>
<path d="M63.3145 38.4394V40.4038L76.233 32.1461V30.9258L63.3145 38.4394Z" fill="url(#paint12_linear_653_292)"/>
<path d="M76.2332 30.926L63.3147 38.4396L60.7402 36.925L73.6621 29.418L76.2332 30.926Z" fill="url(#paint13_linear_653_292)"/>
<path d="M48.5781 38.4404V40.4048L51.1592 38.9133V36.9258L48.5781 38.4404Z" fill="url(#paint14_linear_653_292)"/>
<path d="M48.5807 38.4394V40.4038L35.6621 32.1461V30.9258L48.5807 38.4394Z" fill="url(#paint15_linear_653_292)"/>
<path d="M35.6621 30.926L48.5807 38.4396L51.1584 36.925L38.2332 29.418L35.6621 30.926Z" fill="url(#paint16_linear_653_292)"/>
<path d="M64.2966 43.5312H47.5098V47.6551C47.5098 47.6551 47.5098 47.7014 47.5098 47.7213C47.5098 50.4198 51.2689 52.6058 55.9048 52.6058C60.5408 52.6058 64.2999 50.4198 64.2999 47.7213C64.2999 47.6981 64.2966 47.675 64.2966 47.6551H64.2999V43.5312H64.2966Z" fill="#172568"/>
<path d="M65.4757 40.2109H46.3262V44.9136C46.3262 44.9136 46.3262 44.9632 46.3262 44.9896C46.3262 48.0685 50.6147 50.562 55.9026 50.562C61.1905 50.562 65.479 48.0685 65.479 44.9896C65.479 44.9632 65.4757 44.94 65.4757 44.9136H65.479V40.2109H65.4757Z" fill="url(#paint17_linear_653_292)"/>
<path d="M55.9006 45.8244C61.1895 45.8244 65.477 43.3296 65.477 40.2521C65.477 37.1745 61.1895 34.6797 55.9006 34.6797C50.6117 34.6797 46.3242 37.1745 46.3242 40.2521C46.3242 43.3296 50.6117 45.8244 55.9006 45.8244Z" fill="url(#paint18_linear_653_292)"/>
<path d="M55.8993 45.8013C50.6677 45.8013 46.4188 43.3607 46.3295 40.3281C46.3295 40.3612 46.3262 40.3943 46.3262 40.4273C46.3262 43.5062 50.6147 45.9997 55.9026 45.9997C61.1905 45.9997 65.479 43.5062 65.479 40.4273C65.479 40.3943 65.4757 40.3612 65.4757 40.3281C65.3797 43.3607 61.1309 45.8013 55.8993 45.8013Z" fill="url(#paint19_radial_653_292)"/>
<path d="M61.4721 39.8577C61.4721 41.2202 59.3047 42.3247 56.6277 42.3247C53.9506 42.3247 51.7832 41.2202 51.7832 39.8577C51.7832 38.4952 53.9506 37.3906 56.6277 37.3906C59.3047 37.3906 61.4721 38.4952 61.4721 39.8577Z" fill="url(#paint20_radial_653_292)"/>
<path d="M59.7341 38.4062H52.0703V39.8944C52.0703 39.8944 52.0703 39.9143 52.0703 39.9242C52.0703 41.1544 53.7844 42.1531 55.9022 42.1531C58.02 42.1531 59.7341 41.1544 59.7341 39.9242C59.7341 39.9143 59.7341 39.9043 59.7341 39.8944V38.4062Z" fill="#172568"/>
<path d="M55.9022 40.6493C58.0185 40.6493 59.7341 39.6514 59.7341 38.4204C59.7341 37.1893 58.0185 36.1914 55.9022 36.1914C53.7859 36.1914 52.0703 37.1893 52.0703 38.4204C52.0703 39.6514 53.7859 40.6493 55.9022 40.6493Z" fill="url(#paint21_linear_653_292)"/>
<path d="M54.2031 38.4615C54.2031 39.0071 54.9642 39.4503 55.904 39.4503C56.8438 39.4503 57.6048 39.0071 57.6048 38.4615C57.6048 37.9158 56.8438 37.4727 55.904 37.4727C54.9642 37.4727 54.2031 37.9158 54.2031 38.4615Z" fill="#172568"/>
<path d="M55.9022 40.6424C53.8076 40.6424 52.11 39.6668 52.0736 38.4531C52.0736 38.4664 52.0703 38.4796 52.0703 38.4928C52.0703 39.723 53.7844 40.7218 55.9022 40.7218C58.02 40.7218 59.7341 39.723 59.7341 38.4928C59.7341 38.4796 59.7341 38.4664 59.7308 38.4531C59.6977 39.6668 57.9968 40.6424 55.9022 40.6424Z" fill="url(#paint22_radial_653_292)"/>
<path d="M74.3223 53.2334V54.4338L76.9033 52.9391V51.7188L74.3223 53.2334Z" fill="url(#paint23_linear_653_292)"/>
<path d="M74.3252 53.2331V54.4336L60.9434 48.1304V45.3789L74.3252 53.2331Z" fill="#00ACF5"/>
<path d="M60.9434 45.3791L74.3252 53.2334L76.9029 51.7187L63.5145 43.8711L60.9434 45.3791Z" fill="url(#paint24_linear_653_292)"/>
<path d="M76.2501 48.6797H72.6035V51.2096C72.6035 51.2096 72.6035 51.2195 72.6035 51.2228C72.6035 51.8082 73.4209 52.2844 74.4268 52.2844C75.4328 52.2844 76.2501 51.8082 76.2501 51.2228C76.2501 51.2195 76.2501 51.2129 76.2501 51.2096V48.6797Z" fill="url(#paint25_linear_653_292)"/>
<path d="M72.6035 48.6866C72.6035 49.2719 73.4209 49.7481 74.4268 49.7481C75.4328 49.7481 76.2501 49.2719 76.2501 48.6866C76.2501 48.1012 75.4328 47.625 74.4268 47.625C73.4209 47.6283 72.6035 48.1012 72.6035 48.6866Z" fill="url(#paint26_linear_653_292)"/>
<path d="M74.4268 49.7448C73.4308 49.7448 72.6234 49.2786 72.6035 48.7031C72.6035 48.7097 72.6035 48.7164 72.6035 48.723C72.6035 49.3083 73.4209 49.7845 74.4268 49.7845C75.4328 49.7845 76.2501 49.3083 76.2501 48.723C76.2501 48.7164 76.2501 48.7097 76.2501 48.7031C76.2336 49.2819 75.4228 49.7448 74.4268 49.7448Z" fill="url(#paint27_radial_653_292)"/>
<path d="M75.4041 47.168H73.4551V48.5206V48.5272C73.4551 48.8413 73.8919 49.0927 74.4279 49.0927C74.9673 49.0927 75.4008 48.838 75.4008 48.5272C75.4008 48.5239 75.4008 48.5206 75.4008 48.5206V48.5172V47.168H75.4041Z" fill="url(#paint28_linear_653_292)"/>
<path d="M73.4551 47.171C73.4551 47.4851 73.8919 47.7365 74.4279 47.7365C74.9673 47.7365 75.4008 47.4818 75.4008 47.171C75.4008 46.8568 74.964 46.6055 74.4279 46.6055C73.8919 46.6055 73.4551 46.8568 73.4551 47.171Z" fill="url(#paint29_linear_653_292)"/>
<path d="M74.4279 47.7353C73.8952 47.7353 73.465 47.4872 73.4551 47.1797V47.1896C73.4551 47.5038 73.8919 47.7551 74.4279 47.7551C74.9673 47.7551 75.4008 47.5005 75.4008 47.1896V47.1797C75.3942 47.4872 74.9607 47.7353 74.4279 47.7353Z" fill="url(#paint30_radial_653_292)"/>
<g opacity="0.2">
<path opacity="0.2" d="M63.0176 48.5195C63.0176 44.8519 68.1268 41.8789 74.4272 41.8789C77.6304 41.8789 80.5225 42.6494 82.594 43.8863L66.3697 53.2188C64.3015 52.0183 63.0176 50.3549 63.0176 48.5195Z" fill="#FFD4C0"/>
<path opacity="0.5" d="M85.8363 48.5205C85.8363 52.188 80.7271 55.1611 74.4267 55.1611C71.2798 55.1611 68.434 54.4203 66.3691 53.2231L82.5934 43.8906C84.5987 45.0845 85.8363 46.7182 85.8363 48.5205Z" fill="#FFD4C0"/>
</g>
<g opacity="0.2">
<path opacity="0.2" d="M85.8381 48.5195C85.8381 44.8519 80.7289 41.8789 74.4285 41.8789C71.2253 41.8789 68.3332 42.6494 66.2617 43.8863L82.486 53.2188C84.5575 52.0183 85.8381 50.3549 85.8381 48.5195Z" fill="#FFD4C0"/>
<path opacity="0.5" d="M63.0176 48.5199C63.0176 52.1874 68.1268 55.1605 74.4272 55.1605C77.5741 55.1605 80.4199 54.4197 82.4848 53.2225L66.2605 43.8867C64.2585 45.0839 63.0176 46.7176 63.0176 48.5199Z" fill="#FFD4C0"/>
</g>
<path d="M35.3867 52.6875H39.4337V55.4952C39.4337 55.4952 39.4337 55.5051 39.4337 55.5117C39.4337 56.1632 38.527 56.689 37.4119 56.689C36.2967 56.689 35.39 56.1632 35.39 55.5117C35.39 55.5051 35.39 55.5018 35.39 55.5018V55.4952V52.6875H35.3867Z" fill="url(#paint31_linear_653_292)"/>
<path d="M39.4304 52.6929C39.4304 53.3444 38.5237 53.8702 37.4086 53.8702C36.2934 53.8702 35.3867 53.3444 35.3867 52.6929C35.3867 52.0414 36.2934 51.5156 37.4086 51.5156C38.5237 51.5156 39.4304 52.0448 39.4304 52.6929Z" fill="url(#paint32_linear_653_292)"/>
<path d="M37.4086 53.8684C38.5138 53.8684 39.4105 53.3525 39.4304 52.7109C39.4304 52.7176 39.4304 52.7242 39.4304 52.7308C39.4304 53.3823 38.5237 53.9081 37.4086 53.9081C36.2901 53.9081 35.3867 53.3823 35.3867 52.7308C35.3867 52.7242 35.3867 52.7176 35.3867 52.7109C35.4066 53.3525 36.3033 53.8684 37.4086 53.8684Z" fill="url(#paint33_radial_653_292)"/>
<path d="M37.5153 53.2334V54.4338L34.9375 52.9391V51.7188L37.5153 53.2334Z" fill="url(#paint34_linear_653_292)"/>
<path d="M37.5117 53.2331V54.4336L50.8935 48.1304V45.3789L37.5117 53.2331Z" fill="#00ACF5"/>
<path d="M50.8938 45.3791L37.5119 53.2334L34.9375 51.7187L48.3226 43.8711L50.8938 45.3791Z" fill="url(#paint35_linear_653_292)"/>
<path d="M35.5879 48.6797H39.2345V51.2096C39.2345 51.2096 39.2345 51.2195 39.2345 51.2228C39.2345 51.8082 38.4171 52.2844 37.4112 52.2844C36.4052 52.2844 35.5879 51.8082 35.5879 51.2228C35.5879 51.2195 35.5879 51.2129 35.5879 51.2096V48.6797Z" fill="url(#paint36_linear_653_292)"/>
<path d="M39.2345 48.6866C39.2345 49.2719 38.4171 49.7481 37.4112 49.7481C36.4052 49.7481 35.5879 49.2719 35.5879 48.6866C35.5879 48.1012 36.4052 47.625 37.4112 47.625C38.4171 47.625 39.2345 48.1012 39.2345 48.6866Z" fill="url(#paint37_linear_653_292)"/>
<path d="M37.4112 49.7409C38.4072 49.7409 39.2146 49.2746 39.2345 48.6992C39.2345 48.7058 39.2345 48.7124 39.2345 48.7191C39.2345 49.3044 38.4171 49.7806 37.4112 49.7806C36.4052 49.7806 35.5879 49.3044 35.5879 48.7191C35.5879 48.7124 35.5879 48.7058 35.5879 48.6992C35.6044 49.278 36.4152 49.7409 37.4112 49.7409Z" fill="url(#paint38_radial_653_292)"/>
<path d="M36.4355 47.168H38.3846V48.5206V48.5272C38.3846 48.8413 37.9478 49.0927 37.4117 49.0927C36.8723 49.0927 36.4389 48.838 36.4389 48.5272C36.4389 48.5239 36.4389 48.5206 36.4389 48.5206V48.5172V47.168H36.4355Z" fill="url(#paint39_linear_653_292)"/>
<path d="M38.3813 47.171C38.3813 47.4851 37.9445 47.7365 37.4084 47.7365C36.869 47.7365 36.4355 47.4818 36.4355 47.171C36.4355 46.8568 36.8723 46.6055 37.4084 46.6055C37.9478 46.6055 38.3813 46.8568 38.3813 47.171Z" fill="url(#paint40_linear_653_292)"/>
<path d="M37.4084 47.7353C37.9412 47.7353 38.3713 47.4872 38.3813 47.1797V47.1896C38.3813 47.5038 37.9445 47.7551 37.4084 47.7551C36.869 47.7551 36.4355 47.5005 36.4355 47.1896V47.1797C36.4455 47.4872 36.8757 47.7353 37.4084 47.7353Z" fill="url(#paint41_radial_653_292)"/>
<g opacity="0.2">
<path opacity="0.2" d="M48.8205 48.5195C48.8205 44.8519 43.7113 41.8789 37.4109 41.8789C34.2077 41.8789 31.3156 42.6494 29.2441 43.8863L45.4684 53.2188C47.5399 52.0183 48.8205 50.3549 48.8205 48.5195Z" fill="#FFD4C0"/>
<path opacity="0.5" d="M26 48.5199C26 52.1874 31.1092 55.1605 37.4096 55.1605C40.5565 55.1605 43.4023 54.4197 45.4672 53.2225L29.2429 43.8867C27.2376 45.0839 26 46.7176 26 48.5199Z" fill="#FFD4C0"/>
</g>
<g opacity="0.2">
<path opacity="0.2" d="M26 48.5195C26 44.8519 31.1092 41.8789 37.4096 41.8789C40.6128 41.8789 43.5049 42.6494 45.5764 43.8863L29.3521 53.2188C27.2806 52.0183 26 50.3549 26 48.5195Z" fill="#FFD4C0"/>
<path opacity="0.5" d="M48.8187 48.5199C48.8187 52.1874 43.7096 55.1605 37.4091 55.1605C34.2622 55.1605 31.4164 54.4197 29.3516 53.2225L45.5759 43.8867C47.5812 45.0839 48.8187 46.7176 48.8187 48.5199Z" fill="#FFD4C0"/>
</g>
<path d="M76.2501 27.8008H72.6035V30.3307C72.6035 30.3307 72.6035 30.3406 72.6035 30.3439C72.6035 30.9293 73.4209 31.4055 74.4268 31.4055C75.4328 31.4055 76.2501 30.9293 76.2501 30.3439C76.2501 30.3406 76.2501 30.334 76.2501 30.3307V27.8008Z" fill="url(#paint42_linear_653_292)"/>
<path d="M72.6035 27.8077C72.6035 28.393 73.4209 28.8692 74.4268 28.8692C75.4328 28.8692 76.2501 28.393 76.2501 27.8077C76.2501 27.2223 75.4328 26.7461 74.4268 26.7461C73.4209 26.7494 72.6035 27.2223 72.6035 27.8077Z" fill="url(#paint43_linear_653_292)"/>
<path d="M74.4268 28.8659C73.4308 28.8659 72.6234 28.3996 72.6035 27.8242C72.6035 27.8308 72.6035 27.8374 72.6035 27.8441C72.6035 28.4294 73.4209 28.9056 74.4268 28.9056C75.4328 28.9056 76.2501 28.4294 76.2501 27.8441C76.2501 27.8374 76.2501 27.8308 76.2501 27.8242C76.2336 28.3996 75.4228 28.8659 74.4268 28.8659Z" fill="url(#paint44_radial_653_292)"/>
<path d="M75.4041 26.2891H73.4551V27.6416V27.6483C73.4551 27.9624 73.8919 28.2138 74.4279 28.2138C74.9673 28.2138 75.4008 27.9591 75.4008 27.6483C75.4008 27.645 75.4008 27.6416 75.4008 27.6416V27.6383V26.2891H75.4041Z" fill="url(#paint45_linear_653_292)"/>
<path d="M73.4551 26.2921C73.4551 26.6062 73.8919 26.8576 74.4279 26.8576C74.9673 26.8576 75.4008 26.6029 75.4008 26.2921C75.4008 25.9779 74.964 25.7266 74.4279 25.7266C73.8919 25.7266 73.4551 25.9779 73.4551 26.2921Z" fill="url(#paint46_linear_653_292)"/>
<path d="M74.4279 26.8564C73.8952 26.8564 73.465 26.6083 73.4551 26.3008V26.3107C73.4551 26.6249 73.8919 26.8762 74.4279 26.8762C74.9673 26.8762 75.4008 26.6216 75.4008 26.3107V26.3008C75.3942 26.6083 74.9607 26.8564 74.4279 26.8564Z" fill="url(#paint47_radial_653_292)"/>
<g opacity="0.2">
<path opacity="0.2" d="M63.0176 27.6406C63.0176 23.973 68.1268 21 74.4272 21C77.6304 21 80.5225 21.7705 82.594 23.0074L66.3697 32.3399C64.3015 31.1394 63.0176 29.476 63.0176 27.6406Z" fill="#FFD4C0"/>
<path opacity="0.5" d="M85.8363 27.6416C85.8363 31.3091 80.7271 34.2821 74.4267 34.2821C71.2798 34.2821 68.434 33.5414 66.3691 32.3442L82.5934 23.0117C84.5987 24.2056 85.8363 25.8392 85.8363 27.6416Z" fill="#FFD4C0"/>
</g>
<g opacity="0.2">
<path opacity="0.2" d="M85.8381 27.6406C85.8381 23.973 80.7289 21 74.4285 21C71.2253 21 68.3332 21.7705 66.2617 23.0074L82.486 32.3399C84.5575 31.1394 85.8381 29.476 85.8381 27.6406Z" fill="#FFD4C0"/>
<path opacity="0.5" d="M63.0176 27.641C63.0176 31.3085 68.1268 34.2815 74.4272 34.2815C77.5741 34.2815 80.4199 33.5408 82.4848 32.3436L66.2605 23.0078C64.2585 24.205 63.0176 25.8386 63.0176 27.641Z" fill="#FFD4C0"/>
</g>
<path d="M35.5879 27.8008H39.2345V30.3307C39.2345 30.3307 39.2345 30.3406 39.2345 30.3439C39.2345 30.9293 38.4171 31.4055 37.4112 31.4055C36.4052 31.4055 35.5879 30.9293 35.5879 30.3439C35.5879 30.3406 35.5879 30.334 35.5879 30.3307V27.8008Z" fill="url(#paint48_linear_653_292)"/>
<path d="M39.2345 27.8077C39.2345 28.393 38.4171 28.8692 37.4112 28.8692C36.4052 28.8692 35.5879 28.393 35.5879 27.8077C35.5879 27.2223 36.4052 26.7461 37.4112 26.7461C38.4171 26.7461 39.2345 27.2223 39.2345 27.8077Z" fill="url(#paint49_linear_653_292)"/>
<path d="M37.4112 28.8659C38.4072 28.8659 39.2146 28.3996 39.2345 27.8242C39.2345 27.8308 39.2345 27.8374 39.2345 27.8441C39.2345 28.4294 38.4171 28.9056 37.4112 28.9056C36.4052 28.9056 35.5879 28.4294 35.5879 27.8441C35.5879 27.8374 35.5879 27.8308 35.5879 27.8242C35.6044 28.3996 36.4152 28.8659 37.4112 28.8659Z" fill="url(#paint50_radial_653_292)"/>
<path d="M36.4355 26.2891H38.3846V27.6416V27.6483C38.3846 27.9624 37.9478 28.2138 37.4117 28.2138C36.8723 28.2138 36.4389 27.9591 36.4389 27.6483C36.4389 27.645 36.4389 27.6416 36.4389 27.6416V27.6383V26.2891H36.4355Z" fill="url(#paint51_linear_653_292)"/>
<path d="M38.3813 26.2921C38.3813 26.6062 37.9445 26.8576 37.4084 26.8576C36.869 26.8576 36.4355 26.6029 36.4355 26.2921C36.4355 25.9779 36.8723 25.7266 37.4084 25.7266C37.9478 25.7266 38.3813 25.9779 38.3813 26.2921Z" fill="url(#paint52_linear_653_292)"/>
<path d="M37.4084 26.8564C37.9412 26.8564 38.3713 26.6083 38.3813 26.3008V26.3107C38.3813 26.6249 37.9445 26.8762 37.4084 26.8762C36.869 26.8762 36.4355 26.6216 36.4355 26.3107V26.3008C36.4455 26.6083 36.8757 26.8564 37.4084 26.8564Z" fill="url(#paint53_radial_653_292)"/>
<g opacity="0.2">
<path opacity="0.2" d="M48.8205 27.6406C48.8205 23.973 43.7113 21 37.4109 21C34.2077 21 31.3156 21.7705 29.2441 23.0074L45.4684 32.3399C47.5399 31.1394 48.8205 29.476 48.8205 27.6406Z" fill="#FFD4C0"/>
<path opacity="0.5" d="M26 27.641C26 31.3085 31.1092 34.2815 37.4096 34.2815C40.5565 34.2815 43.4023 33.5408 45.4672 32.3436L29.2429 23.0078C27.2376 24.205 26 25.8386 26 27.641Z" fill="#FFD4C0"/>
</g>
<g opacity="0.2">
<path opacity="0.2" d="M26 27.6406C26 23.973 31.1092 21 37.4096 21C40.6128 21 43.5049 21.7705 45.5764 23.0074L29.3521 32.3399C27.2806 31.1394 26 29.476 26 27.6406Z" fill="#FFD4C0"/>
<path opacity="0.5" d="M48.8187 27.641C48.8187 31.3085 43.7096 34.2815 37.4091 34.2815C34.2622 34.2815 31.4164 33.5408 29.3516 32.3436L45.5759 23.0078C47.5812 24.205 48.8187 25.8386 48.8187 27.641Z" fill="#FFD4C0"/>
</g>
<path opacity="0.1" d="M55.6474 85.1406L40.8691 93.6695L55.6474 102.222L70.4289 93.6695L55.6474 85.1406Z" fill="black"/>
<path d="M41.1602 88.3915L55.6439 80.0312L70.1309 88.3915L55.6439 96.7484L41.1602 88.3915Z" fill="black"/>
<path d="M55.6454 80.0314V65.7383L40.8672 74.2672L53.2331 81.4236L55.6454 80.0314Z" fill="#2B454E"/>
<path d="M55.6445 65.7383V80.0314L58.0601 81.4236L70.4261 74.2672L55.6445 65.7383Z" fill="#1A2E35"/>
<path d="M40.8672 74.2695V88.2253L55.6454 96.7509V82.8216L40.8672 74.2695Z" fill="url(#paint54_linear_653_292)"/>
<path d="M55.6445 82.8216V96.7509L70.4261 88.2253V74.2695L55.6445 82.8216Z" fill="url(#paint55_linear_653_292)"/>
<g opacity="0.23">
<path opacity="0.23" d="M55.6445 82.8216V96.7509L70.4261 88.2253V74.2695L55.6445 82.8216Z" fill="url(#paint56_linear_653_292)"/>
</g>
<path opacity="0.7" d="M55.6445 82.8203L55.939 96.2172L66.6736 90.3902L55.6445 96.7496V82.8203Z" fill="url(#paint57_linear_653_292)"/>
<path d="M59.6165 93.0966C59.5735 93.0966 59.5371 93.0602 59.5371 93.0172V91.2512C59.5371 91.2083 59.5735 91.1719 59.6165 91.1719C59.6595 91.1719 59.6959 91.2083 59.6959 91.2512V93.0172C59.6959 93.0602 59.6629 93.0966 59.6165 93.0966Z" fill="#F0F0F0"/>
<path d="M59.3898 91.8628C59.3799 91.8628 59.3699 91.8595 59.36 91.8562C59.3203 91.8396 59.3004 91.7933 59.3203 91.7537L59.6016 91.1055L59.9159 91.4659C59.9457 91.499 59.9424 91.5486 59.9093 91.5784C59.8762 91.6048 59.8266 91.6048 59.7968 91.5718L59.6479 91.3998L59.4659 91.8165C59.4493 91.8429 59.4196 91.8628 59.3898 91.8628Z" fill="#F0F0F0"/>
<path d="M60.349 92.6786C60.3059 92.6786 60.2695 92.6422 60.2695 92.5992V90.8333C60.2695 90.7903 60.3059 90.7539 60.349 90.7539C60.392 90.7539 60.4284 90.7903 60.4284 90.8333V92.5992C60.4284 92.6422 60.392 92.6786 60.349 92.6786Z" fill="#F0F0F0"/>
<path d="M60.1183 91.4448C60.1084 91.4448 60.0984 91.4415 60.0885 91.4382C60.0488 91.4217 60.029 91.3754 60.0488 91.3357L60.3301 90.6875L60.6444 91.048C60.6742 91.081 60.6709 91.1306 60.6378 91.1604C60.6047 91.1902 60.5551 91.1869 60.5253 91.1538L60.3764 90.9818L60.1944 91.3985C60.1779 91.4283 60.1481 91.4448 60.1183 91.4448Z" fill="#F0F0F0"/>
<path d="M57.516 94.2887C57.4862 94.2887 57.4564 94.2821 57.4299 94.2655C57.3704 94.2324 57.334 94.163 57.334 94.077V93.8621C57.334 93.8191 57.3704 93.7827 57.4134 93.7827C57.4564 93.7827 57.4928 93.8191 57.4928 93.8621V94.077C57.4928 94.1101 57.5027 94.1266 57.5094 94.1299C57.516 94.1332 57.5325 94.1332 57.5623 94.1167C57.6318 94.077 57.7079 93.9183 57.7079 93.7595V92.8567C57.7079 92.8137 57.7443 92.7773 57.7873 92.7773C57.8303 92.7773 57.8667 92.8137 57.8667 92.8567V93.7595C57.8667 93.9646 57.7708 94.1762 57.6417 94.2523C57.5987 94.2754 57.5557 94.2887 57.516 94.2887Z" fill="#F0F0F0"/>
<path d="M56.6836 93.5604V93.4248C56.6836 92.7833 57.1369 91.9995 57.6929 91.6787C57.9774 91.5134 58.2488 91.4902 58.4572 91.6126C58.6657 91.7316 58.7815 91.9797 58.7815 92.3071V92.3534L56.6836 93.5604ZM58.1627 91.6919C58.0436 91.6919 57.9113 91.7316 57.769 91.8143C57.2958 92.0855 56.9053 92.7237 56.8457 93.2826L58.6194 92.2608C58.6095 92.0127 58.5234 91.8308 58.3745 91.7482C58.315 91.7085 58.2422 91.6919 58.1627 91.6919Z" fill="#F0F0F0"/>
<path d="M55.6474 65.7383L40.8691 74.2672L55.6474 82.8192L70.4289 74.2672L55.6474 65.7383Z" fill="#00DFBF"/>
<path d="M55.6474 65.7383L40.8691 74.2672L55.6474 82.8192L70.4289 74.2672L55.6474 65.7383Z" fill="#00ACF5"/>
<path opacity="0.7" d="M40.8691 74.2695L55.6474 82.2924L70.4289 74.2695L55.6474 82.8216L40.8691 74.2695Z" fill="white"/>
<path d="M47 70.727L61.7915 79.2625L64.0681 77.9463L49.2799 69.4141L47 70.727Z" fill="white"/>
<path d="M64.0716 77.9453V80.839L63.7969 80.6802L63.5123 81.173L63.2244 81.0043L62.9399 81.5037L62.652 81.335L62.3674 81.8311L62.0795 81.6657L61.7949 82.1618V79.2615L64.0716 77.9453Z" fill="white"/>
<path d="M64.0716 77.9453V80.839L63.7969 80.6802L63.5123 81.173L63.2244 81.0043L62.9399 81.5037L62.652 81.335L62.3674 81.8311L62.0795 81.6657L61.7949 82.1618V79.2615L64.0716 77.9453Z" fill="white"/>
<path d="M57.749 56.259L55.7602 55.1016L53.7715 56.2458L55.7602 57.4066L57.749 56.259Z" fill="white"/>
<path opacity="0.84" d="M55.7611 58.5078L53.918 59.5694L55.7611 60.6409L57.6043 59.5793L55.7611 58.5078Z" fill="white"/>
<path opacity="0.68" d="M55.7587 61.918L54.0645 62.8935L55.7587 63.879L57.4529 62.9035L55.7587 61.918Z" fill="white"/>
<path opacity="0.52" d="M55.7596 65.3242L54.2109 66.2171L55.7596 67.1166L57.3049 66.2237L55.7596 65.3242Z" fill="white"/>
<path opacity="0.36" d="M55.7611 68.7344L54.3613 69.538L55.7611 70.3548L57.1608 69.5479L55.7611 68.7344Z" fill="white"/>
<path opacity="0.2" d="M57.0089 72.8682L55.758 72.1406L54.5039 72.8616L55.758 73.5924L57.0089 72.8682Z" fill="white"/>
<path opacity="0.1" d="M89.5254 158.723L81.5605 163.319L89.5254 167.929L97.4937 163.319L89.5254 158.723Z" fill="black"/>
<path d="M81.7148 160.472L89.5242 155.965L97.3336 160.472L89.5242 164.977L81.7148 160.472Z" fill="black"/>
<path d="M89.5235 155.967V148.262L81.5586 152.862L88.223 156.718L89.5235 155.967Z" fill="#2B454E"/>
<path d="M89.5234 148.262V155.967L90.8272 156.718L97.4916 152.862L89.5234 148.262Z" fill="#1A2E35"/>
<path d="M81.5586 152.863V160.384L89.5235 164.98V157.47L81.5586 152.863Z" fill="url(#paint58_linear_653_292)"/>
<path d="M89.5215 157.47V164.98L97.4897 160.384V152.863L89.5215 157.47Z" fill="url(#paint59_linear_653_292)"/>
<g opacity="0.23">
<path opacity="0.23" d="M89.5215 157.47V164.98L97.4897 160.384V152.863L89.5215 157.47Z" fill="url(#paint60_linear_653_292)"/>
</g>
<path opacity="0.7" d="M89.5215 157.469L89.6803 164.691L95.4645 161.55L89.5215 164.979V157.469Z" fill="url(#paint61_linear_653_292)"/>
<path d="M91.6661 163.011C91.6429 163.011 91.623 162.991 91.623 162.968V162.016C91.623 161.993 91.6429 161.973 91.6661 161.973C91.6892 161.973 91.7091 161.993 91.7091 162.016V162.968C91.7058 162.991 91.6892 163.011 91.6661 163.011Z" fill="#F0F0F0"/>
<path d="M91.5396 162.348C91.533 162.348 91.5297 162.348 91.5231 162.344C91.4999 162.334 91.49 162.311 91.4999 162.288L91.6521 161.938L91.8209 162.133C91.8375 162.149 91.8341 162.179 91.8176 162.192C91.8011 162.209 91.7746 162.205 91.758 162.189L91.6786 162.096L91.5827 162.321C91.5727 162.338 91.5562 162.348 91.5396 162.348Z" fill="#F0F0F0"/>
<path d="M92.0528 162.785C92.0296 162.785 92.0098 162.765 92.0098 162.742V161.789C92.0098 161.766 92.0296 161.746 92.0528 161.746C92.0759 161.746 92.0958 161.766 92.0958 161.789V162.742C92.0958 162.765 92.0759 162.785 92.0528 162.785Z" fill="#F0F0F0"/>
<path d="M91.9303 162.121C91.9236 162.121 91.9203 162.121 91.9137 162.118C91.8905 162.108 91.8806 162.085 91.8906 162.061L92.0428 161.711L92.2115 161.906C92.2281 161.923 92.2248 161.952 92.2082 161.966C92.1917 161.982 92.1652 161.979 92.1487 161.962L92.0692 161.87L91.9733 162.095C91.96 162.111 91.9468 162.121 91.9303 162.121Z" fill="#F0F0F0"/>
<path d="M90.5315 163.653C90.515 163.653 90.4984 163.65 90.4852 163.64C90.4521 163.62 90.4355 163.584 90.4355 163.538V163.422C90.4355 163.399 90.4554 163.379 90.4786 163.379C90.5017 163.379 90.5216 163.399 90.5216 163.422V163.538C90.5216 163.554 90.5249 163.564 90.5282 163.567C90.5315 163.571 90.5414 163.567 90.5547 163.561C90.5911 163.538 90.6341 163.455 90.6341 163.369V162.883C90.6341 162.86 90.6539 162.84 90.6771 162.84C90.7003 162.84 90.7201 162.86 90.7201 162.883V163.369C90.7201 163.481 90.6672 163.594 90.5977 163.634C90.5745 163.647 90.5514 163.653 90.5315 163.653Z" fill="#F0F0F0"/>
<path d="M90.082 163.261V163.188C90.082 162.841 90.3269 162.421 90.6247 162.246C90.7769 162.157 90.9258 162.143 91.0384 162.21C91.1509 162.276 91.2137 162.408 91.2137 162.583V162.606L90.082 163.261ZM90.8795 162.256C90.8166 162.256 90.7438 162.279 90.6677 162.322C90.4129 162.468 90.2012 162.811 90.1714 163.112L91.1277 162.56C91.1211 162.428 91.0781 162.329 90.9953 162.282C90.9589 162.266 90.9225 162.256 90.8795 162.256Z" fill="#F0F0F0"/>
<path d="M89.5254 148.262L81.5605 152.862L89.5254 157.469L97.4937 152.862L89.5254 148.262Z" fill="#00DFBF"/>
<path d="M89.5254 148.262L81.5605 152.862L89.5254 157.469L97.4937 152.862L89.5254 148.262Z" fill="#00ACF5"/>
<path opacity="0.7" d="M81.5605 152.863L89.5254 157.186L97.4937 152.863L89.5254 157.47L81.5605 152.863Z" fill="white"/>
<path d="M84.8633 150.953L92.8348 155.553L94.0625 154.842L86.0909 150.242L84.8633 150.953Z" fill="white"/>
<path d="M94.0636 154.844V156.405L93.9147 156.319L93.7625 156.583L93.6069 156.494L93.4514 156.762L93.2992 156.673L93.1437 156.937L92.9915 156.851L92.8359 157.116V155.555L94.0636 154.844Z" fill="white"/>
<path d="M94.0636 154.844V156.405L93.9147 156.319L93.7625 156.583L93.6069 156.494L93.4514 156.762L93.2992 156.673L93.1437 156.937L92.9915 156.851L92.8359 157.116V155.555L94.0636 154.844Z" fill="white"/>
<path opacity="0.1" d="M116.587 174.988L108.619 179.585L116.587 184.195L124.556 179.585L116.587 174.988Z" fill="black"/>
<path d="M108.781 176.742L116.591 172.238L124.4 176.742L116.591 181.25L108.781 176.742Z" fill="black"/>
<path d="M116.589 172.237V164.531L108.621 169.128L115.289 172.987L116.589 172.237Z" fill="#2B454E"/>
<path d="M116.59 164.531V172.237L117.89 172.987L124.558 169.128L116.59 164.531Z" fill="#1A2E35"/>
<path d="M108.621 169.129V176.652L116.589 181.249V173.739L108.621 169.129Z" fill="url(#paint62_linear_653_292)"/>
<path d="M116.586 173.739V181.249L124.554 176.652V169.129L116.586 173.739Z" fill="url(#paint63_linear_653_292)"/>
<g opacity="0.23">
<path opacity="0.23" d="M116.586 173.739V181.249L124.554 176.652V169.129L116.586 173.739Z" fill="url(#paint64_linear_653_292)"/>
</g>
<path opacity="0.7" d="M116.586 173.738L116.741 180.961L122.529 177.819L116.586 181.249V173.738Z" fill="url(#paint65_linear_653_292)"/>
<path d="M118.719 179.273C118.696 179.273 118.676 179.253 118.676 179.23V178.277C118.676 178.254 118.696 178.234 118.719 178.234C118.742 178.234 118.762 178.254 118.762 178.277V179.23C118.762 179.253 118.742 179.273 118.719 179.273Z" fill="#F0F0F0"/>
<path d="M118.596 178.609C118.59 178.609 118.586 178.609 118.58 178.606C118.557 178.596 118.547 178.573 118.557 178.55L118.709 178.199L118.878 178.394C118.894 178.411 118.891 178.441 118.874 178.454C118.858 178.47 118.831 178.467 118.815 178.451L118.735 178.358L118.639 178.583C118.626 178.599 118.613 178.609 118.596 178.609Z" fill="#F0F0F0"/>
<path d="M119.113 179.046C119.09 179.046 119.07 179.026 119.07 179.003V178.051C119.07 178.028 119.09 178.008 119.113 178.008C119.136 178.008 119.156 178.028 119.156 178.051V179.003C119.156 179.03 119.136 179.046 119.113 179.046Z" fill="#F0F0F0"/>
<path d="M118.991 178.383C118.984 178.383 118.981 178.383 118.974 178.379C118.951 178.369 118.941 178.346 118.951 178.323L119.103 177.973L119.272 178.168C119.289 178.184 119.285 178.214 119.269 178.227C119.252 178.244 119.226 178.241 119.209 178.224L119.13 178.131L119.034 178.356C119.021 178.373 119.007 178.383 118.991 178.383Z" fill="#F0F0F0"/>
<path d="M117.596 179.923C117.579 179.923 117.563 179.92 117.55 179.91C117.517 179.89 117.5 179.853 117.5 179.807V179.691C117.5 179.668 117.52 179.648 117.543 179.648C117.566 179.648 117.586 179.668 117.586 179.691V179.807C117.586 179.824 117.589 179.834 117.593 179.837C117.596 179.84 117.606 179.837 117.619 179.83C117.656 179.807 117.699 179.724 117.699 179.639V179.152C117.699 179.129 117.718 179.109 117.742 179.109C117.765 179.109 117.785 179.129 117.785 179.152V179.639C117.785 179.751 117.732 179.863 117.662 179.903C117.639 179.916 117.616 179.923 117.596 179.923Z" fill="#F0F0F0"/>
<path d="M117.145 179.531V179.458C117.145 179.111 117.389 178.691 117.687 178.515C117.839 178.426 117.988 178.413 118.101 178.479C118.213 178.545 118.276 178.678 118.276 178.853V178.876L117.145 179.531ZM117.945 178.522C117.882 178.522 117.81 178.545 117.734 178.588C117.479 178.734 117.267 179.078 117.237 179.379L118.194 178.826C118.187 178.694 118.144 178.595 118.061 178.549C118.025 178.532 117.985 178.522 117.945 178.522Z" fill="#F0F0F0"/>
<path d="M116.587 164.531L108.619 169.128L116.587 173.738L124.556 169.128L116.587 164.531Z" fill="#00DFBF"/>
<path d="M116.587 164.531L108.619 169.128L116.587 173.738L124.556 169.128L116.587 164.531Z" fill="#00ACF5"/>
<path opacity="0.7" d="M108.619 169.129L116.587 173.455L124.556 169.129L116.587 173.739L108.619 169.129Z" fill="white"/>
<path d="M111.926 167.219L119.901 171.82L121.128 171.112L113.153 166.512L111.926 167.219Z" fill="white"/>
<path d="M121.126 171.113V172.671L120.977 172.588L120.822 172.853L120.669 172.76L120.514 173.031L120.362 172.939L120.206 173.207L120.051 173.117L119.898 173.385V171.821L121.126 171.113Z" fill="white"/>
<path d="M121.126 171.113V172.671L120.977 172.588L120.822 172.853L120.669 172.76L120.514 173.031L120.362 172.939L120.206 173.207L120.051 173.117L119.898 173.385V171.821L121.126 171.113Z" fill="white"/>
<defs>
<linearGradient id="paint0_linear_653_292" x1="42.5844" y1="260.936" x2="42.3507" y2="94.2272" gradientUnits="userSpaceOnUse">
<stop stop-color="#172568"/>
<stop offset="0.3064" stop-color="#172568"/>
<stop offset="0.4578" stop-color="#172568"/>
<stop offset="0.5752" stop-color="#172568"/>
<stop offset="0.6752" stop-color="#11366C"/>
<stop offset="0.7641" stop-color="#0E4B84"/>
<stop offset="0.845" stop-color="#0A64A2"/>
<stop offset="0.92" stop-color="#0683C5"/>
<stop offset="0.9884" stop-color="#01A5ED"/>
<stop offset="1" stop-color="#00ACF5"/>
</linearGradient>
<linearGradient id="paint1_linear_653_292" x1="101.005" y1="204.694" x2="49.4828" y2="115.4" gradientUnits="userSpaceOnUse">
<stop stop-color="#172567"/>
<stop offset="0.2022" stop-color="#172567"/>
<stop offset="0.3538" stop-color="#172568"/>
<stop offset="0.489" stop-color="#122B5F"/>
<stop offset="0.6146" stop-color="#103E76"/>
<stop offset="0.7335" stop-color="#0C5893"/>
<stop offset="0.8475" stop-color="#0877B7"/>
<stop offset="0.9556" stop-color="#029BE1"/>
<stop offset="1" stop-color="#00ACF5"/>
</linearGradient>
<linearGradient id="paint2_linear_653_292" x1="72.4269" y1="33.8128" x2="76.4093" y2="33.8128" gradientUnits="userSpaceOnUse">
<stop stop-color="#161242"/>
<stop offset="0.1208" stop-color="#151748"/>
<stop offset="0.2745" stop-color="#132457"/>
<stop offset="0.446" stop-color="#103B71"/>
<stop offset="0.6304" stop-color="#0C5A96"/>
<stop offset="0.8228" stop-color="#0682C4"/>
<stop offset="1" stop-color="#00ACF5"/>
</linearGradient>
<linearGradient id="paint3_linear_653_292" x1="76.8068" y1="29.2727" x2="73.6034" y2="32.7096" gradientUnits="userSpaceOnUse">
<stop stop-color="#9F79C8"/>
<stop offset="0.1367" stop-color="#A580CB"/>
<stop offset="0.3288" stop-color="#B492D3"/>
<stop offset="0.5529" stop-color="#CDB0E1"/>
<stop offset="0.5808" stop-color="#D1B4E3"/>
<stop offset="0.7644" stop-color="#DBC4E9"/>
<stop offset="1" stop-color="#EBDEF3"/>
</linearGradient>
<radialGradient id="paint4_radial_653_292" cx="0" cy="0" r="1" gradientUnits="userSpaceOnUse" gradientTransform="translate(73.7815 32.8351) scale(1.49215 1.49125)">
<stop stop-color="white"/>
<stop offset="1"/>
</radialGradient>
<linearGradient id="paint5_linear_653_292" x1="39.4123" y1="33.8128" x2="35.4299" y2="33.8128" gradientUnits="userSpaceOnUse">
<stop stop-color="#161242"/>
<stop offset="0.1208" stop-color="#151748"/>
<stop offset="0.2745" stop-color="#132457"/>
<stop offset="0.446" stop-color="#103B71"/>
<stop offset="0.6304" stop-color="#0C5A96"/>
<stop offset="0.8228" stop-color="#0682C4"/>
<stop offset="1" stop-color="#00ACF5"/>
</linearGradient>
<linearGradient id="paint6_linear_653_292" x1="35.0326" y1="29.2727" x2="38.2358" y2="32.7096" gradientUnits="userSpaceOnUse">
<stop stop-color="#9F79C8"/>
<stop offset="0.1367" stop-color="#A580CB"/>
<stop offset="0.3288" stop-color="#B492D3"/>
<stop offset="0.5529" stop-color="#CDB0E1"/>
<stop offset="0.5808" stop-color="#D1B4E3"/>
<stop offset="0.7644" stop-color="#DBC4E9"/>
<stop offset="1" stop-color="#EBDEF3"/>
</linearGradient>
<radialGradient id="paint7_radial_653_292" cx="0" cy="0" r="1" gradientUnits="userSpaceOnUse" gradientTransform="translate(38.0576 32.8351) rotate(180) scale(1.49212 1.49122)">
<stop stop-color="white"/>
<stop offset="1"/>
</radialGradient>
<linearGradient id="paint8_linear_653_292" x1="72.4076" y1="54.6882" x2="76.4541" y2="54.6882" gradientUnits="userSpaceOnUse">
<stop stop-color="#161242"/>
<stop offset="0.1208" stop-color="#151748"/>
<stop offset="0.2745" stop-color="#132457"/>
<stop offset="0.446" stop-color="#103B71"/>
<stop offset="0.6304" stop-color="#0C5A96"/>
<stop offset="0.8228" stop-color="#0682C4"/>
<stop offset="1" stop-color="#00ACF5"/>
</linearGradient>
<linearGradient id="paint9_linear_653_292" x1="76.8068" y1="50.148" x2="73.6034" y2="53.5849" gradientUnits="userSpaceOnUse">
<stop stop-color="#9F79C8"/>
<stop offset="0.1367" stop-color="#A580CB"/>
<stop offset="0.3288" stop-color="#B492D3"/>
<stop offset="0.5529" stop-color="#CDB0E1"/>
<stop offset="0.5808" stop-color="#D1B4E3"/>
<stop offset="0.7644" stop-color="#DBC4E9"/>
<stop offset="1" stop-color="#EBDEF3"/>
</linearGradient>
<radialGradient id="paint10_radial_653_292" cx="0" cy="0" r="1" gradientUnits="userSpaceOnUse" gradientTransform="translate(73.7815 53.7105) scale(1.49215 1.49125)">
<stop stop-color="white"/>
<stop offset="1"/>
</radialGradient>
<linearGradient id="paint11_linear_653_292" x1="62.5132" y1="38.8097" x2="56.1344" y2="36.8986" gradientUnits="userSpaceOnUse">
<stop stop-color="#9F79C8"/>
<stop offset="0.1367" stop-color="#A580CB"/>
<stop offset="0.3288" stop-color="#B492D3"/>
<stop offset="0.5529" stop-color="#CDB0E1"/>
<stop offset="0.5808" stop-color="#D1B4E3"/>
<stop offset="0.7644" stop-color="#DBC4E9"/>
<stop offset="1" stop-color="#EBDEF3"/>
</linearGradient>
<linearGradient id="paint12_linear_653_292" x1="87.2475" y1="39.5798" x2="51.3645" y2="31.5311" gradientUnits="userSpaceOnUse">
<stop stop-color="#161242"/>
<stop offset="0.1302" stop-color="#103B71"/>
<stop offset="0.2626" stop-color="#0B5D99"/>
<stop offset="0.3993" stop-color="#077ABA"/>
<stop offset="0.5388" stop-color="#0490D4"/>
<stop offset="0.6824" stop-color="#02A0E7"/>
<stop offset="0.8326" stop-color="#00A9F1"/>
<stop offset="1" stop-color="#00ACF5"/>
</linearGradient>
<linearGradient id="paint13_linear_653_292" x1="65.2727" y1="27.8046" x2="68.7285" y2="34.3946" gradientUnits="userSpaceOnUse">
<stop stop-color="#161242"/>
<stop offset="0.2851" stop-color="#161444"/>
<stop offset="0.4373" stop-color="#151B4C"/>
<stop offset="0.5581" stop-color="#13265A"/>
<stop offset="0.6624" stop-color="#11376D"/>
<stop offset="0.756" stop-color="#0E4D86"/>
<stop offset="0.8421" stop-color="#0A67A5"/>
<stop offset="0.9211" stop-color="#0586C9"/>
<stop offset="0.9949" stop-color="#00A9F2"/>
<stop offset="1" stop-color="#00ACF5"/>
</linearGradient>
<linearGradient id="paint14_linear_653_292" x1="49.3842" y1="38.8097" x2="55.7629" y2="36.8986" gradientUnits="userSpaceOnUse">
<stop stop-color="#9F79C8"/>
<stop offset="0.1367" stop-color="#A580CB"/>
<stop offset="0.3288" stop-color="#B492D3"/>
<stop offset="0.5529" stop-color="#CDB0E1"/>
<stop offset="0.5808" stop-color="#D1B4E3"/>
<stop offset="0.7644" stop-color="#DBC4E9"/>
<stop offset="1" stop-color="#EBDEF3"/>
</linearGradient>
<linearGradient id="paint15_linear_653_292" x1="24.649" y1="39.5798" x2="60.532" y2="31.5311" gradientUnits="userSpaceOnUse">
<stop stop-color="#161242"/>
<stop offset="0.1302" stop-color="#103B71"/>
<stop offset="0.2626" stop-color="#0B5D99"/>
<stop offset="0.3993" stop-color="#077ABA"/>
<stop offset="0.5388" stop-color="#0490D4"/>
<stop offset="0.6824" stop-color="#02A0E7"/>
<stop offset="0.8326" stop-color="#00A9F1"/>
<stop offset="1" stop-color="#00ACF5"/>
</linearGradient>
<linearGradient id="paint16_linear_653_292" x1="46.6239" y1="27.8046" x2="43.1682" y2="34.3946" gradientUnits="userSpaceOnUse">
<stop stop-color="#161242"/>
<stop offset="0.2851" stop-color="#161444"/>
<stop offset="0.4373" stop-color="#151B4C"/>
<stop offset="0.5581" stop-color="#13265A"/>
<stop offset="0.6624" stop-color="#11376D"/>
<stop offset="0.756" stop-color="#0E4D86"/>
<stop offset="0.8421" stop-color="#0A67A5"/>
<stop offset="0.9211" stop-color="#0586C9"/>
<stop offset="0.9949" stop-color="#00A9F2"/>
<stop offset="1" stop-color="#00ACF5"/>
</linearGradient>
<linearGradient id="paint17_linear_653_292" x1="46.4168" y1="45.3885" x2="65.2643" y2="45.3885" gradientUnits="userSpaceOnUse">
<stop stop-color="#161242"/>
<stop offset="0.1302" stop-color="#103B71"/>
<stop offset="0.2626" stop-color="#0B5D99"/>
<stop offset="0.3993" stop-color="#077ABA"/>
<stop offset="0.5388" stop-color="#0490D4"/>
<stop offset="0.6824" stop-color="#02A0E7"/>
<stop offset="0.8326" stop-color="#00A9F1"/>
<stop offset="1" stop-color="#00ACF5"/>
</linearGradient>
<linearGradient id="paint18_linear_653_292" x1="67.1467" y1="28.2029" x2="51.986" y2="44.4688" gradientUnits="userSpaceOnUse">
<stop stop-color="#161242"/>
<stop offset="0.1302" stop-color="#103B71"/>
<stop offset="0.2626" stop-color="#0B5D99"/>
<stop offset="0.3993" stop-color="#077ABA"/>
<stop offset="0.5388" stop-color="#0490D4"/>
<stop offset="0.6824" stop-color="#02A0E7"/>
<stop offset="0.8326" stop-color="#00A9F1"/>
<stop offset="1" stop-color="#00ACF5"/>
</linearGradient>
<radialGradient id="paint19_radial_653_292" cx="0" cy="0" r="1" gradientUnits="userSpaceOnUse" gradientTransform="translate(52.8277 45.056) scale(7.06192 7.05764)">
<stop stop-color="white"/>
<stop offset="1"/>
</radialGradient>
<radialGradient id="paint20_radial_653_292" cx="0" cy="0" r="1" gradientUnits="userSpaceOnUse" gradientTransform="translate(56.6299 39.8577) scale(4.84388 2.46843)">
<stop offset="0.1919" stop-color="#5F5C5D"/>
<stop offset="1" stop-color="white"/>
</radialGradient>
<linearGradient id="paint21_linear_653_292" x1="60.4035" y1="33.5998" x2="54.3366" y2="40.1089" gradientUnits="userSpaceOnUse">
<stop stop-color="#161242"/>
<stop offset="0.1123" stop-color="#151849"/>
<stop offset="0.2741" stop-color="#13285C"/>
<stop offset="0.466" stop-color="#0F437B"/>
<stop offset="0.6809" stop-color="#0A69A7"/>
<stop offset="0.9121" stop-color="#0398DE"/>
<stop offset="1" stop-color="#00ACF5"/>
</linearGradient>
<radialGradient id="paint22_radial_653_292" cx="0" cy="0" r="1" gradientUnits="userSpaceOnUse" gradientTransform="translate(54.674 40.3437) scale(2.82597 2.82426)">
<stop stop-color="white"/>
<stop offset="1"/>
</radialGradient>
<linearGradient id="paint23_linear_653_292" x1="75.1583" y1="53.2125" x2="81.1327" y2="51.4225" gradientUnits="userSpaceOnUse">
<stop stop-color="#9F79C8"/>
<stop offset="0.1367" stop-color="#A580CB"/>
<stop offset="0.3288" stop-color="#B492D3"/>
<stop offset="0.5529" stop-color="#CDB0E1"/>
<stop offset="0.5808" stop-color="#D1B4E3"/>
<stop offset="0.7644" stop-color="#DBC4E9"/>
<stop offset="1" stop-color="#EBDEF3"/>
</linearGradient>
<linearGradient id="paint24_linear_653_292" x1="72.2277" y1="42.2551" x2="68.6741" y2="49.0316" gradientUnits="userSpaceOnUse">
<stop stop-color="#161242"/>
<stop offset="0.2851" stop-color="#161444"/>
<stop offset="0.4373" stop-color="#151B4C"/>
<stop offset="0.5581" stop-color="#13265A"/>
<stop offset="0.6624" stop-color="#11376D"/>
<stop offset="0.756" stop-color="#0E4D86"/>
<stop offset="0.8421" stop-color="#0A67A5"/>
<stop offset="0.9211" stop-color="#0586C9"/>
<stop offset="0.9949" stop-color="#00A9F2"/>
<stop offset="1" stop-color="#00ACF5"/>
</linearGradient>
<linearGradient id="paint25_linear_653_292" x1="72.6216" y1="50.484" x2="76.2106" y2="50.484" gradientUnits="userSpaceOnUse">
<stop offset="0.0101" stop-color="#C1A1D5"/>
<stop offset="0.0488" stop-color="#C8ABDA"/>
<stop offset="0.1149" stop-color="#DAC6E6"/>
<stop offset="0.1998" stop-color="#F7F2F9"/>
<stop offset="0.2222" stop-color="white"/>
<stop offset="0.2513" stop-color="#F9F5FB"/>
<stop offset="0.3001" stop-color="#E9DBF2"/>
<stop offset="0.3586" stop-color="#D1B4E3"/>
<stop offset="0.4264" stop-color="#B395D6"/>
<stop offset="0.4949" stop-color="#9C7DCB"/>
<stop offset="0.5583" stop-color="#8E6EC5"/>
<stop offset="0.6111" stop-color="#8969C3"/>
<stop offset="0.755" stop-color="#9471C6"/>
<stop offset="1" stop-color="#B086CC"/>
</linearGradient>
<linearGradient id="paint26_linear_653_292" x1="76.5689" y1="46.3937" x2="73.6819" y2="49.4911" gradientUnits="userSpaceOnUse">
<stop stop-color="#9F79C8"/>
<stop offset="0.1367" stop-color="#A580CB"/>
<stop offset="0.3288" stop-color="#B492D3"/>
<stop offset="0.5529" stop-color="#CDB0E1"/>
<stop offset="0.5808" stop-color="#D1B4E3"/>
<stop offset="0.7644" stop-color="#DBC4E9"/>
<stop offset="1" stop-color="#EBDEF3"/>
</linearGradient>
<radialGradient id="paint27_radial_653_292" cx="0" cy="0" r="1" gradientUnits="userSpaceOnUse" gradientTransform="translate(73.8424 49.6029) scale(1.34473 1.34392)">
<stop stop-color="white"/>
<stop offset="1"/>
</radialGradient>
<linearGradient id="paint28_linear_653_292" x1="73.4638" y1="48.1313" x2="75.3813" y2="48.1313" gradientUnits="userSpaceOnUse">
<stop offset="0.0101" stop-color="#C1A1D5"/>
<stop offset="0.0488" stop-color="#C8ABDA"/>
<stop offset="0.1149" stop-color="#DAC6E6"/>
<stop offset="0.1998" stop-color="#F7F2F9"/>
<stop offset="0.2222" stop-color="white"/>
<stop offset="0.2513" stop-color="#F9F5FB"/>
<stop offset="0.3001" stop-color="#E9DBF2"/>
<stop offset="0.3586" stop-color="#D1B4E3"/>
<stop offset="0.4264" stop-color="#B395D6"/>
<stop offset="0.4949" stop-color="#9C7DCB"/>
<stop offset="0.5583" stop-color="#8E6EC5"/>
<stop offset="0.6111" stop-color="#8969C3"/>
<stop offset="0.755" stop-color="#9471C6"/>
<stop offset="1" stop-color="#B086CC"/>
</linearGradient>
<linearGradient id="paint29_linear_653_292" x1="75.5727" y1="45.9456" x2="74.0303" y2="47.6004" gradientUnits="userSpaceOnUse">
<stop stop-color="#9F79C8"/>
<stop offset="0.1367" stop-color="#A580CB"/>
<stop offset="0.3288" stop-color="#B492D3"/>
<stop offset="0.5529" stop-color="#CDB0E1"/>
<stop offset="0.5808" stop-color="#D1B4E3"/>
<stop offset="0.7644" stop-color="#DBC4E9"/>
<stop offset="1" stop-color="#EBDEF3"/>
</linearGradient>
<radialGradient id="paint30_radial_653_292" cx="0" cy="0" r="1" gradientUnits="userSpaceOnUse" gradientTransform="translate(74.1161 47.6589) scale(0.718428 0.717992)">
<stop stop-color="white"/>
<stop offset="1"/>
</radialGradient>
<linearGradient id="paint31_linear_653_292" x1="39.4123" y1="54.6882" x2="35.4299" y2="54.6882" gradientUnits="userSpaceOnUse">
<stop stop-color="#161242"/>
<stop offset="0.1208" stop-color="#151748"/>
<stop offset="0.2745" stop-color="#132457"/>
<stop offset="0.446" stop-color="#103B71"/>
<stop offset="0.6304" stop-color="#0C5A96"/>
<stop offset="0.8228" stop-color="#0682C4"/>
<stop offset="1" stop-color="#00ACF5"/>
</linearGradient>
<linearGradient id="paint32_linear_653_292" x1="35.0326" y1="50.148" x2="38.2358" y2="53.5849" gradientUnits="userSpaceOnUse">
<stop stop-color="#9F79C8"/>
<stop offset="0.1367" stop-color="#A580CB"/>
<stop offset="0.3288" stop-color="#B492D3"/>
<stop offset="0.5529" stop-color="#CDB0E1"/>
<stop offset="0.5808" stop-color="#D1B4E3"/>
<stop offset="0.7644" stop-color="#DBC4E9"/>
<stop offset="1" stop-color="#EBDEF3"/>
</linearGradient>
<radialGradient id="paint33_radial_653_292" cx="0" cy="0" r="1" gradientUnits="userSpaceOnUse" gradientTransform="translate(38.0576 53.7105) rotate(180) scale(1.49212 1.49122)">
<stop stop-color="white"/>
<stop offset="1"/>
</radialGradient>
<linearGradient id="paint34_linear_653_292" x1="36.6799" y1="53.2125" x2="30.7053" y2="51.4224" gradientUnits="userSpaceOnUse">
<stop stop-color="#9F79C8"/>
<stop offset="0.1367" stop-color="#A580CB"/>
<stop offset="0.3288" stop-color="#B492D3"/>
<stop offset="0.5529" stop-color="#CDB0E1"/>
<stop offset="0.5808" stop-color="#D1B4E3"/>
<stop offset="0.7644" stop-color="#DBC4E9"/>
<stop offset="1" stop-color="#EBDEF3"/>
</linearGradient>
<linearGradient id="paint35_linear_653_292" x1="39.61" y1="42.2551" x2="43.1635" y2="49.0316" gradientUnits="userSpaceOnUse">
<stop stop-color="#161242"/>
<stop offset="0.2022" stop-color="#161545"/>
<stop offset="0.3538" stop-color="#141D4F"/>
<stop offset="0.489" stop-color="#122B5F"/>
<stop offset="0.6146" stop-color="#103E76"/>
<stop offset="0.7335" stop-color="#0C5893"/>
<stop offset="0.8475" stop-color="#0877B7"/>
<stop offset="0.9556" stop-color="#029BE1"/>
<stop offset="1" stop-color="#00ACF5"/>
</linearGradient>
<linearGradient id="paint36_linear_653_292" x1="39.217" y1="50.484" x2="35.6279" y2="50.484" gradientUnits="userSpaceOnUse">
<stop offset="0.0101" stop-color="#C1A1D5"/>
<stop offset="0.0488" stop-color="#C8ABDA"/>
<stop offset="0.1149" stop-color="#DAC6E6"/>
<stop offset="0.1998" stop-color="#F7F2F9"/>
<stop offset="0.2222" stop-color="white"/>
<stop offset="0.2513" stop-color="#F9F5FB"/>
<stop offset="0.3001" stop-color="#E9DBF2"/>
<stop offset="0.3586" stop-color="#D1B4E3"/>
<stop offset="0.4264" stop-color="#B395D6"/>
<stop offset="0.4949" stop-color="#9C7DCB"/>
<stop offset="0.5583" stop-color="#8E6EC5"/>
<stop offset="0.6111" stop-color="#8969C3"/>
<stop offset="0.755" stop-color="#9471C6"/>
<stop offset="1" stop-color="#B086CC"/>
</linearGradient>
<linearGradient id="paint37_linear_653_292" x1="35.2698" y1="46.3936" x2="38.1567" y2="49.4911" gradientUnits="userSpaceOnUse">
<stop stop-color="#9F79C8"/>
<stop offset="0.1367" stop-color="#A580CB"/>
<stop offset="0.3288" stop-color="#B492D3"/>
<stop offset="0.5529" stop-color="#CDB0E1"/>
<stop offset="0.5808" stop-color="#D1B4E3"/>
<stop offset="0.7644" stop-color="#DBC4E9"/>
<stop offset="1" stop-color="#EBDEF3"/>
</linearGradient>
<radialGradient id="paint38_radial_653_292" cx="0" cy="0" r="1" gradientUnits="userSpaceOnUse" gradientTransform="translate(37.9961 49.599) rotate(180) scale(1.34477 1.34395)">
<stop stop-color="white"/>
<stop offset="1"/>
</radialGradient>
<linearGradient id="paint39_linear_653_292" x1="38.373" y1="48.1313" x2="36.4556" y2="48.1313" gradientUnits="userSpaceOnUse">
<stop offset="0.0101" stop-color="#C1A1D5"/>
<stop offset="0.0488" stop-color="#C8ABDA"/>
<stop offset="0.1149" stop-color="#DAC6E6"/>
<stop offset="0.1998" stop-color="#F7F2F9"/>
<stop offset="0.2222" stop-color="white"/>
<stop offset="0.2513" stop-color="#F9F5FB"/>
<stop offset="0.3001" stop-color="#E9DBF2"/>
<stop offset="0.3586" stop-color="#D1B4E3"/>
<stop offset="0.4264" stop-color="#B395D6"/>
<stop offset="0.4949" stop-color="#9C7DCB"/>
<stop offset="0.5583" stop-color="#8E6EC5"/>
<stop offset="0.6111" stop-color="#8969C3"/>
<stop offset="0.755" stop-color="#9471C6"/>
<stop offset="1" stop-color="#B086CC"/>
</linearGradient>
<linearGradient id="paint40_linear_653_292" x1="36.2643" y1="45.9455" x2="37.8066" y2="47.6004" gradientUnits="userSpaceOnUse">
<stop stop-color="#9F79C8"/>
<stop offset="0.1367" stop-color="#A580CB"/>
<stop offset="0.3288" stop-color="#B492D3"/>
<stop offset="0.5529" stop-color="#CDB0E1"/>
<stop offset="0.5808" stop-color="#D1B4E3"/>
<stop offset="0.7644" stop-color="#DBC4E9"/>
<stop offset="1" stop-color="#EBDEF3"/>
</linearGradient>
<radialGradient id="paint41_radial_653_292" cx="0" cy="0" r="1" gradientUnits="userSpaceOnUse" gradientTransform="translate(37.7207 47.6589) rotate(180) scale(0.718429 0.717992)">
<stop stop-color="white"/>
<stop offset="1"/>
</radialGradient>
<linearGradient id="paint42_linear_653_292" x1="72.6216" y1="29.6048" x2="76.2106" y2="29.6048" gradientUnits="userSpaceOnUse">
<stop offset="0.0101" stop-color="#C1A1D5"/>
<stop offset="0.0488" stop-color="#C8ABDA"/>
<stop offset="0.1149" stop-color="#DAC6E6"/>
<stop offset="0.1998" stop-color="#F7F2F9"/>
<stop offset="0.2222" stop-color="white"/>
<stop offset="0.2513" stop-color="#F9F5FB"/>
<stop offset="0.3001" stop-color="#E9DBF2"/>
<stop offset="0.3586" stop-color="#D1B4E3"/>
<stop offset="0.4264" stop-color="#B395D6"/>
<stop offset="0.4949" stop-color="#9C7DCB"/>
<stop offset="0.5583" stop-color="#8E6EC5"/>
<stop offset="0.6111" stop-color="#8969C3"/>
<stop offset="0.755" stop-color="#9471C6"/>
<stop offset="1" stop-color="#B086CC"/>
</linearGradient>
<linearGradient id="paint43_linear_653_292" x1="76.5689" y1="25.5144" x2="73.6819" y2="28.6118" gradientUnits="userSpaceOnUse">
<stop stop-color="#9F79C8"/>
<stop offset="0.1367" stop-color="#A580CB"/>
<stop offset="0.3288" stop-color="#B492D3"/>
<stop offset="0.5529" stop-color="#CDB0E1"/>
<stop offset="0.5808" stop-color="#D1B4E3"/>
<stop offset="0.7644" stop-color="#DBC4E9"/>
<stop offset="1" stop-color="#EBDEF3"/>
</linearGradient>
<radialGradient id="paint44_radial_653_292" cx="0" cy="0" r="1" gradientUnits="userSpaceOnUse" gradientTransform="translate(73.8424 28.7237) scale(1.34473 1.34392)">
<stop stop-color="white"/>
<stop offset="1"/>
</radialGradient>
<linearGradient id="paint45_linear_653_292" x1="73.4638" y1="27.2521" x2="75.3813" y2="27.2521" gradientUnits="userSpaceOnUse">
<stop offset="0.0101" stop-color="#C1A1D5"/>
<stop offset="0.0488" stop-color="#C8ABDA"/>
<stop offset="0.1149" stop-color="#DAC6E6"/>
<stop offset="0.1998" stop-color="#F7F2F9"/>
<stop offset="0.2222" stop-color="white"/>
<stop offset="0.2513" stop-color="#F9F5FB"/>
<stop offset="0.3001" stop-color="#E9DBF2"/>
<stop offset="0.3586" stop-color="#D1B4E3"/>
<stop offset="0.4264" stop-color="#B395D6"/>
<stop offset="0.4949" stop-color="#9C7DCB"/>
<stop offset="0.5583" stop-color="#8E6EC5"/>
<stop offset="0.6111" stop-color="#8969C3"/>
<stop offset="0.755" stop-color="#9471C6"/>
<stop offset="1" stop-color="#B086CC"/>
</linearGradient>
<linearGradient id="paint46_linear_653_292" x1="75.5727" y1="25.0663" x2="74.0303" y2="26.7211" gradientUnits="userSpaceOnUse">
<stop stop-color="#9F79C8"/>
<stop offset="0.1367" stop-color="#A580CB"/>
<stop offset="0.3288" stop-color="#B492D3"/>
<stop offset="0.5529" stop-color="#CDB0E1"/>
<stop offset="0.5808" stop-color="#D1B4E3"/>
<stop offset="0.7644" stop-color="#DBC4E9"/>
<stop offset="1" stop-color="#EBDEF3"/>
</linearGradient>
<radialGradient id="paint47_radial_653_292" cx="0" cy="0" r="1" gradientUnits="userSpaceOnUse" gradientTransform="translate(74.1161 26.7797) scale(0.718428 0.717994)">
<stop stop-color="white"/>
<stop offset="1"/>
</radialGradient>
<linearGradient id="paint48_linear_653_292" x1="39.217" y1="29.6048" x2="35.6279" y2="29.6048" gradientUnits="userSpaceOnUse">
<stop offset="0.0101" stop-color="#C1A1D5"/>
<stop offset="0.0488" stop-color="#C8ABDA"/>
<stop offset="0.1149" stop-color="#DAC6E6"/>
<stop offset="0.1998" stop-color="#F7F2F9"/>
<stop offset="0.2222" stop-color="white"/>
<stop offset="0.2513" stop-color="#F9F5FB"/>
<stop offset="0.3001" stop-color="#E9DBF2"/>
<stop offset="0.3586" stop-color="#D1B4E3"/>
<stop offset="0.4264" stop-color="#B395D6"/>
<stop offset="0.4949" stop-color="#9C7DCB"/>
<stop offset="0.5583" stop-color="#8E6EC5"/>
<stop offset="0.6111" stop-color="#8969C3"/>
<stop offset="0.755" stop-color="#9471C6"/>
<stop offset="1" stop-color="#B086CC"/>
</linearGradient>
<linearGradient id="paint49_linear_653_292" x1="35.2698" y1="25.5144" x2="38.1567" y2="28.6118" gradientUnits="userSpaceOnUse">
<stop stop-color="#9F79C8"/>
<stop offset="0.1367" stop-color="#A580CB"/>
<stop offset="0.3288" stop-color="#B492D3"/>
<stop offset="0.5529" stop-color="#CDB0E1"/>
<stop offset="0.5808" stop-color="#D1B4E3"/>
<stop offset="0.7644" stop-color="#DBC4E9"/>
<stop offset="1" stop-color="#EBDEF3"/>
</linearGradient>
<radialGradient id="paint50_radial_653_292" cx="0" cy="0" r="1" gradientUnits="userSpaceOnUse" gradientTransform="translate(37.9961 28.7237) rotate(180) scale(1.34477 1.34395)">
<stop stop-color="white"/>
<stop offset="1"/>
</radialGradient>
<linearGradient id="paint51_linear_653_292" x1="38.373" y1="27.2521" x2="36.4556" y2="27.2521" gradientUnits="userSpaceOnUse">
<stop offset="0.0101" stop-color="#C1A1D5"/>
<stop offset="0.0488" stop-color="#C8ABDA"/>
<stop offset="0.1149" stop-color="#DAC6E6"/>
<stop offset="0.1998" stop-color="#F7F2F9"/>
<stop offset="0.2222" stop-color="white"/>
<stop offset="0.2513" stop-color="#F9F5FB"/>
<stop offset="0.3001" stop-color="#E9DBF2"/>
<stop offset="0.3586" stop-color="#D1B4E3"/>
<stop offset="0.4264" stop-color="#B395D6"/>
<stop offset="0.4949" stop-color="#9C7DCB"/>
<stop offset="0.5583" stop-color="#8E6EC5"/>
<stop offset="0.6111" stop-color="#8969C3"/>
<stop offset="0.755" stop-color="#9471C6"/>
<stop offset="1" stop-color="#B086CC"/>
</linearGradient>
<linearGradient id="paint52_linear_653_292" x1="36.2643" y1="25.0663" x2="37.8066" y2="26.7211" gradientUnits="userSpaceOnUse">
<stop stop-color="#9F79C8"/>
<stop offset="0.1367" stop-color="#A580CB"/>
<stop offset="0.3288" stop-color="#B492D3"/>
<stop offset="0.5529" stop-color="#CDB0E1"/>
<stop offset="0.5808" stop-color="#D1B4E3"/>
<stop offset="0.7644" stop-color="#DBC4E9"/>
<stop offset="1" stop-color="#EBDEF3"/>
</linearGradient>
<radialGradient id="paint53_radial_653_292" cx="0" cy="0" r="1" gradientUnits="userSpaceOnUse" gradientTransform="translate(37.7207 26.7797) rotate(180) scale(0.718429 0.717994)">
<stop stop-color="white"/>
<stop offset="1"/>
</radialGradient>
<linearGradient id="paint54_linear_653_292" x1="41.5329" y1="73.8838" x2="54.9573" y2="97.1498" gradientUnits="userSpaceOnUse">
<stop stop-color="#161242"/>
<stop offset="0.1302" stop-color="#103B71"/>
<stop offset="0.2626" stop-color="#0B5D99"/>
<stop offset="0.3993" stop-color="#077ABA"/>
<stop offset="0.5388" stop-color="#0490D4"/>
<stop offset="0.6824" stop-color="#02A0E7"/>
<stop offset="0.8326" stop-color="#00A9F1"/>
<stop offset="1" stop-color="#00ACF5"/>
</linearGradient>
<linearGradient id="paint55_linear_653_292" x1="63.0359" y1="74.2684" x2="63.0359" y2="96.7521" gradientUnits="userSpaceOnUse">
<stop stop-color="#161242"/>
<stop offset="0.2458" stop-color="#103E75"/>
<stop offset="0.6064" stop-color="#0779B9"/>
<stop offset="0.8674" stop-color="#029EE5"/>
<stop offset="1" stop-color="#00ACF5"/>
</linearGradient>
<linearGradient id="paint56_linear_653_292" x1="63.0359" y1="74.2684" x2="63.0359" y2="96.7521" gradientUnits="userSpaceOnUse">
<stop stop-color="#161242"/>
<stop offset="0.2458" stop-color="#103E75"/>
<stop offset="0.6064" stop-color="#0779B9"/>
<stop offset="0.8674" stop-color="#029EE5"/>
<stop offset="1" stop-color="#00ACF5"/>
</linearGradient>
<linearGradient id="paint57_linear_653_292" x1="61.1588" y1="82.8194" x2="61.1588" y2="96.7509" gradientUnits="userSpaceOnUse">
<stop stop-color="#161242"/>
<stop offset="0.2458" stop-color="#103E75"/>
<stop offset="0.6064" stop-color="#0779B9"/>
<stop offset="0.8674" stop-color="#029EE5"/>
<stop offset="1" stop-color="#00ACF5"/>
</linearGradient>
<linearGradient id="paint58_linear_653_292" x1="81.9163" y1="152.654" x2="89.1525" y2="165.195" gradientUnits="userSpaceOnUse">
<stop stop-color="#161242"/>
<stop offset="0.1302" stop-color="#103B71"/>
<stop offset="0.2626" stop-color="#0B5D99"/>
<stop offset="0.3993" stop-color="#077ABA"/>
<stop offset="0.5388" stop-color="#0490D4"/>
<stop offset="0.6824" stop-color="#02A0E7"/>
<stop offset="0.8326" stop-color="#00A9F1"/>
<stop offset="1" stop-color="#00ACF5"/>
</linearGradient>
<linearGradient id="paint59_linear_653_292" x1="93.5056" y1="152.862" x2="93.5056" y2="164.981" gradientUnits="userSpaceOnUse">
<stop stop-color="#161242"/>
<stop offset="0.2458" stop-color="#103E75"/>
<stop offset="0.6064" stop-color="#0779B9"/>
<stop offset="0.8674" stop-color="#029EE5"/>
<stop offset="1" stop-color="#00ACF5"/>
</linearGradient>
<linearGradient id="paint60_linear_653_292" x1="93.5056" y1="152.862" x2="93.5056" y2="164.981" gradientUnits="userSpaceOnUse">
<stop stop-color="#161242"/>
<stop offset="0.2458" stop-color="#103E75"/>
<stop offset="0.6064" stop-color="#0779B9"/>
<stop offset="0.8674" stop-color="#029EE5"/>
<stop offset="1" stop-color="#00ACF5"/>
</linearGradient>
<linearGradient id="paint61_linear_653_292" x1="92.4937" y1="157.47" x2="92.4937" y2="164.98" gradientUnits="userSpaceOnUse">
<stop stop-color="#161242"/>
<stop offset="0.2458" stop-color="#103E75"/>
<stop offset="0.6064" stop-color="#0779B9"/>
<stop offset="0.8674" stop-color="#029EE5"/>
<stop offset="1" stop-color="#00ACF5"/>
</linearGradient>
<linearGradient id="paint62_linear_653_292" x1="108.981" y1="168.922" x2="116.218" y2="181.463" gradientUnits="userSpaceOnUse">
<stop stop-color="#161242"/>
<stop offset="0.1302" stop-color="#103B71"/>
<stop offset="0.2626" stop-color="#0B5D99"/>
<stop offset="0.3993" stop-color="#077ABA"/>
<stop offset="0.5388" stop-color="#0490D4"/>
<stop offset="0.6824" stop-color="#02A0E7"/>
<stop offset="0.8326" stop-color="#00A9F1"/>
<stop offset="1" stop-color="#00ACF5"/>
</linearGradient>
<linearGradient id="paint63_linear_653_292" x1="120.569" y1="169.129" x2="120.569" y2="181.248" gradientUnits="userSpaceOnUse">
<stop stop-color="#161242"/>
<stop offset="0.2458" stop-color="#103E75"/>
<stop offset="0.6064" stop-color="#0779B9"/>
<stop offset="0.8674" stop-color="#029EE5"/>
<stop offset="1" stop-color="#00ACF5"/>
</linearGradient>
<linearGradient id="paint64_linear_653_292" x1="120.569" y1="169.129" x2="120.569" y2="181.248" gradientUnits="userSpaceOnUse">
<stop stop-color="#161242"/>
<stop offset="0.2458" stop-color="#103E75"/>
<stop offset="0.6064" stop-color="#0779B9"/>
<stop offset="0.8674" stop-color="#029EE5"/>
<stop offset="1" stop-color="#00ACF5"/>
</linearGradient>
<linearGradient id="paint65_linear_653_292" x1="119.557" y1="173.738" x2="119.557" y2="181.248" gradientUnits="userSpaceOnUse">
<stop stop-color="#161242"/>
<stop offset="0.2458" stop-color="#103E75"/>
<stop offset="0.6064" stop-color="#0779B9"/>
<stop offset="0.8674" stop-color="#029EE5"/>
<stop offset="1" stop-color="#00ACF5"/>
</linearGradient>
</defs>
</svg>
