<svg width="192" height="192" viewBox="0 0 192 192" fill="none" xmlns="http://www.w3.org/2000/svg">
<path d="M120.571 51.8865C119.64 51.3437 118.366 51.4212 116.953 52.2432L118.708 53.2669C120.121 52.4449 121.41 52.3828 122.326 52.9102L120.571 51.8865Z" fill="url(#paint0_linear_653_2646)"/>
<path fill-rule="evenodd" clip-rule="evenodd" d="M116.938 52.2285L36.0781 98.8661L37.8329 99.8743L118.692 53.2522L116.938 52.2285ZM31.0001 107.645C30.9851 104.434 33.2676 100.48 36.0781 98.8672L37.8328 99.8908C35.0221 101.504 32.7393 105.443 32.7549 108.669L32.9101 163.138C32.9255 165.163 33.635 166.572 34.7772 167.241L33.0343 166.225C31.8696 165.558 31.1553 164.131 31.1553 162.115L31.0001 107.646L31 107.645L31.0001 107.645Z" fill="url(#paint1_linear_653_2646)"/>
<path d="M123.805 56.1673C123.789 52.9412 121.506 51.6384 118.695 53.2514L37.8359 99.8736C35.0251 101.487 32.7424 105.442 32.7579 108.652L32.9132 163.122C32.9287 167.201 35.8171 168.83 39.3577 166.782L117.562 121.711C121.102 119.664 123.975 114.701 123.975 110.637L123.805 56.1673Z" fill="url(#paint2_linear_653_2646)"/>
<path d="M93.0861 24L57.3539 44.6124C55.1177 45.8997 53.3008 48.769 53.3008 51.0024V131.281L109.562 98.8343V30.9483L101.565 28.8235L93.0861 24Z" fill="url(#paint3_linear_653_2646)"/>
<path d="M93.0859 24V36.1751C93.0859 38.5016 94.9649 39.2926 97.2943 37.9587L109.485 30.9328L93.0859 24Z" fill="url(#paint4_linear_653_2646)"/>
<path d="M95.8993 43.7752L66.9688 60.4481V58.9902L95.8993 42.3018V43.7752Z" fill="white"/>
<path d="M95.8993 51.5926L66.9688 68.2655V66.8076L95.8993 50.1191V51.5926Z" fill="white"/>
<path d="M95.8993 59.409L66.9688 76.0819V74.624L95.8993 57.9355V59.409Z" fill="white"/>
<path d="M95.8993 67.2254L66.9688 83.8983V82.4404L95.8993 65.752V67.2254Z" fill="white"/>
<path d="M95.8993 75.0438L66.9688 91.7168V90.2589L95.8993 73.5859V75.0438Z" fill="white"/>
<path d="M137.482 60.3723C136.752 59.7829 135.479 59.876 133.926 60.7756L135.65 62.1404C137.202 61.2408 138.476 61.1478 139.206 61.7372L137.482 60.3723Z" fill="url(#paint5_linear_653_2646)"/>
<path d="M133.925 60.7754L101.5 79.4646L103.224 80.8449L135.648 62.1402L133.925 60.7754Z" fill="url(#paint6_linear_653_2646)"/>
<path d="M101.502 79.4639L79.0938 105.443L80.8175 106.823L103.226 80.8442L101.502 79.4639Z" fill="url(#paint7_linear_653_2646)"/>
<path d="M79.0926 105.444L45.4102 124.862L47.1339 126.243L80.8163 106.825L79.0926 105.444Z" fill="#143477"/>
<path d="M40.2394 165.42L47.1343 126.242L36 117.433L36.8852 163.993C36.6056 165.606 37.1181 166.304 37.8635 166.909L41.0159 168.785C40.2705 168.18 39.9599 167.033 40.2394 165.42Z" fill="white"/>
<path d="M135.647 62.1398L103.222 80.8445L80.8138 106.823L47.1314 126.241L40.2365 165.419C39.5998 169.048 41.9602 170.32 45.5164 168.273L123.721 123.186C127.261 121.139 130.662 116.548 131.299 112.918L139.824 64.4197C140.337 61.5349 138.458 60.5268 135.647 62.1398Z" fill="#172568"/>
<path d="M135.651 62.1398L103.226 80.8445L80.8177 106.823L47.1353 126.241L40.2404 165.419C39.6037 169.048 41.9641 170.32 45.5203 168.273L123.724 123.186C127.265 121.139 130.666 116.548 131.303 112.918L139.828 64.4197C140.34 61.5349 138.461 60.5268 135.651 62.1398Z" fill="url(#paint8_linear_653_2646)"/>
<path d="M37.9567 116L36 117.5L45.5 125L48.2058 124.112L37.9567 116Z" fill="#143477"/>
<path d="M158.294 63.1779C157.767 62.8677 157.037 62.9143 156.214 63.3796L93.8025 99.362C92.1875 100.293 90.883 102.542 90.8986 104.403L90.9452 119.866C90.9452 120.781 91.2713 121.432 91.7993 121.743L94.4858 123.309C93.9578 122.999 93.6317 122.363 93.6317 121.432L93.5851 105.969C93.5851 104.108 94.874 101.859 96.489 100.929L158.9 64.946C159.708 64.4808 160.453 64.4342 160.981 64.7444L158.294 63.1779Z" fill="url(#paint9_linear_653_2646)"/>
<path d="M93.8181 99.3623C92.2031 100.293 90.8987 102.542 90.9142 104.403L93.6007 105.969C93.6007 104.108 94.8896 101.859 96.5046 100.929L93.8181 99.3623Z" fill="#172568"/>
<path d="M158.292 63.1779C157.764 62.8677 157.034 62.9143 156.211 63.3796L158.897 64.946C159.705 64.4808 160.45 64.4342 160.978 64.7444L158.292 63.1779Z" fill="url(#paint10_linear_653_2646)"/>
<path d="M161.832 66.6216C161.832 64.7604 160.512 64.0159 158.897 64.9465L96.5017 100.929C94.8867 101.86 93.5823 104.108 93.5978 105.97L93.6444 121.433C93.6444 123.278 94.9644 124.023 96.5794 123.092L158.99 87.1099C160.605 86.1793 161.91 83.9304 161.894 82.0847L161.832 66.6216Z" fill="#00ACF5"/>
<path d="M103.51 103.546V109.594C103.51 110.256 103.659 110.679 103.958 110.861C104.257 111.033 104.678 110.963 105.219 110.651C105.769 110.333 106.193 109.916 106.492 109.398C106.791 108.87 106.941 108.275 106.941 107.613V101.565L108.65 100.578V106.612C108.65 107.442 108.493 108.238 108.178 108.999C107.87 109.745 107.454 110.415 106.929 111.008C106.412 111.596 105.834 112.074 105.195 112.443C104.565 112.807 103.991 112.993 103.473 113.003C102.964 113.007 102.56 112.811 102.261 112.415C101.962 112.009 101.812 111.39 101.812 110.56V104.526L103.51 103.546ZM117.614 98.4267C117.614 98.9494 117.504 99.5024 117.286 100.086C117.076 100.664 116.741 101.227 116.28 101.773C115.827 102.314 115.253 102.785 114.558 103.187L113.14 104.006V107.758L111.442 108.738V98.9657L114.558 97.1667C115.213 96.7887 115.771 96.5974 116.231 96.5927C116.692 96.5881 117.036 96.7491 117.262 97.0757C117.496 97.3977 117.614 97.8481 117.614 98.4267ZM114.486 101.647C114.954 101.376 115.302 101.054 115.528 100.681C115.755 100.298 115.868 99.8827 115.868 99.4347C115.868 98.4827 115.407 98.2727 114.486 98.8047L113.14 99.5817V102.424L114.486 101.647ZM121.668 101.28L124.457 99.67V101.224L119.971 103.814V94.042L121.668 93.062V101.28ZM130.616 97.7661C129.823 98.2234 129.096 98.4287 128.433 98.3821C127.77 98.3354 127.245 98.0461 126.857 97.5141C126.469 96.9727 126.275 96.2214 126.275 95.2601C126.275 94.3081 126.469 93.3421 126.857 92.3621C127.245 91.3727 127.77 90.4721 128.433 89.6601C129.096 88.8481 129.823 88.2134 130.616 87.7561C131.416 87.2941 132.143 87.0887 132.798 87.1401C133.461 87.1867 133.982 87.4831 134.362 88.0291C134.75 88.5611 134.944 89.3031 134.944 90.2551C134.944 91.2164 134.75 92.1917 134.362 93.1811C133.982 94.1564 133.461 95.0501 132.798 95.8621C132.135 96.6741 131.408 97.3087 130.616 97.7661ZM130.616 96.0161C131.125 95.7221 131.573 95.3324 131.961 94.8471C132.349 94.3524 132.652 93.7947 132.871 93.1741C133.089 92.5534 133.198 91.9164 133.198 91.2631C133.198 90.6097 133.089 90.1034 132.871 89.7441C132.652 89.3754 132.349 89.1724 131.961 89.1351C131.573 89.0977 131.125 89.2261 130.616 89.5201C130.106 89.8141 129.654 90.2061 129.258 90.6961C128.87 91.1814 128.567 91.7344 128.348 92.3551C128.13 92.9664 128.021 93.5987 128.021 94.2521C128.021 94.9054 128.13 95.4164 128.348 95.7851C128.567 96.1537 128.87 96.3614 129.258 96.4081C129.654 96.4407 130.106 96.3101 130.616 96.0161ZM142.548 88.917L139.177 90.863L138.62 93.047L136.837 94.076L139.88 82.533L141.857 81.392L144.9 89.421L143.106 90.457L142.548 88.917ZM142.087 87.615L140.863 84.234L139.638 89.029L142.087 87.615ZM150.148 76.6192C151.037 76.1059 151.817 75.8562 152.488 75.8702C153.167 75.8796 153.688 76.1526 154.052 76.6892C154.423 77.2119 154.609 77.9632 154.609 78.9432C154.609 79.9232 154.423 80.8892 154.052 81.8412C153.688 82.7792 153.167 83.6449 152.488 84.4382C151.817 85.2269 151.037 85.8779 150.148 86.3912L147.189 88.0992V78.3272L150.148 76.6192ZM150.087 84.7602C150.976 84.2469 151.663 83.5702 152.148 82.7302C152.633 81.8902 152.876 80.9616 152.876 79.9442C152.876 78.9269 152.633 78.2736 152.148 77.9842C151.663 77.6856 150.976 77.7929 150.087 78.3062L148.887 78.9992V85.4532L150.087 84.7602Z" fill="white"/>
<defs>
<linearGradient id="paint0_linear_653_2646" x1="118.456" y1="51.9149" x2="124.659" y2="53.4657" gradientUnits="userSpaceOnUse">
<stop stop-color="#00ACF5"/>
<stop offset="1" stop-color="white"/>
</linearGradient>
<linearGradient id="paint1_linear_653_2646" x1="-0.500195" y1="113.5" x2="135.736" y2="46.1775" gradientUnits="userSpaceOnUse">
<stop stop-color="#161242"/>
<stop offset="0.1302" stop-color="#103B71"/>
<stop offset="0.2626" stop-color="#0B5D99"/>
<stop offset="0.3993" stop-color="#077ABA"/>
<stop offset="0.5388" stop-color="#0490D4"/>
<stop offset="0.6824" stop-color="#02A0E7"/>
<stop offset="0.8326" stop-color="#00A9F1"/>
<stop offset="1" stop-color="#00ACF5"/>
</linearGradient>
<linearGradient id="paint2_linear_653_2646" x1="78.6103" y1="88.6618" x2="78.3627" y2="167.666" gradientUnits="userSpaceOnUse">
<stop stop-color="#00ACF5"/>
<stop offset="1" stop-color="#00ACF5" stop-opacity="0"/>
</linearGradient>
<linearGradient id="paint3_linear_653_2646" x1="81.4316" y1="24" x2="81.4316" y2="131.281" gradientUnits="userSpaceOnUse">
<stop stop-color="#00ACF5"/>
<stop offset="1" stop-color="#172568"/>
</linearGradient>
<linearGradient id="paint4_linear_653_2646" x1="101.285" y1="24" x2="101.285" y2="38.6062" gradientUnits="userSpaceOnUse">
<stop stop-color="#00ACF5"/>
<stop offset="1" stop-color="#172568"/>
</linearGradient>
<linearGradient id="paint5_linear_653_2646" x1="134.604" y1="61.8575" x2="138.097" y2="62.2152" gradientUnits="userSpaceOnUse">
<stop stop-color="#00ACF5"/>
<stop offset="1" stop-color="#00ACF5" stop-opacity="0"/>
</linearGradient>
<linearGradient id="paint6_linear_653_2646" x1="118.574" y1="60.7754" x2="118.574" y2="80.8449" gradientUnits="userSpaceOnUse">
<stop stop-color="#00ACF5"/>
<stop offset="1" stop-color="#172568"/>
</linearGradient>
<linearGradient id="paint7_linear_653_2646" x1="91.1598" y1="79.4639" x2="91.1598" y2="106.823" gradientUnits="userSpaceOnUse">
<stop stop-color="#00ACF5"/>
<stop offset="1" stop-color="#172568"/>
</linearGradient>
<linearGradient id="paint8_linear_653_2646" x1="44.6365" y1="59.5245" x2="108.973" y2="215.462" gradientUnits="userSpaceOnUse">
<stop stop-color="#161242"/>
<stop offset="0.1302" stop-color="#103B71"/>
<stop offset="0.2626" stop-color="#0B5D99"/>
<stop offset="0.3993" stop-color="#077ABA"/>
<stop offset="0.5388" stop-color="#0490D4"/>
<stop offset="0.6824" stop-color="#02A0E7"/>
<stop offset="0.8326" stop-color="#00A9F1"/>
<stop offset="1" stop-color="#00ACF5"/>
</linearGradient>
<linearGradient id="paint9_linear_653_2646" x1="90.896" y1="93.1436" x2="160.975" y2="93.1436" gradientUnits="userSpaceOnUse">
<stop stop-color="#161242"/>
<stop offset="0.0681" stop-color="#122F64"/>
<stop offset="0.1599" stop-color="#0D508A"/>
<stop offset="0.2586" stop-color="#096DAB"/>
<stop offset="0.364" stop-color="#0684C6"/>
<stop offset="0.4783" stop-color="#0396DB"/>
<stop offset="0.6063" stop-color="#01A2EA"/>
<stop offset="0.7589" stop-color="#00AAF2"/>
<stop offset="1" stop-color="#00ACF5"/>
</linearGradient>
<linearGradient id="paint10_linear_653_2646" x1="156.211" y1="63.9632" x2="160.978" y2="63.9632" gradientUnits="userSpaceOnUse">
<stop stop-color="#161242"/>
<stop offset="0.0681" stop-color="#122F64"/>
<stop offset="0.1599" stop-color="#0D508A"/>
<stop offset="0.2586" stop-color="#096DAB"/>
<stop offset="0.364" stop-color="#0684C6"/>
<stop offset="0.4783" stop-color="#0396DB"/>
<stop offset="0.6063" stop-color="#01A2EA"/>
<stop offset="0.7589" stop-color="#00AAF2"/>
<stop offset="1" stop-color="#00ACF5"/>
</linearGradient>
</defs>
</svg>
