<svg width="30" height="26" viewBox="0 0 30 26" fill="none" xmlns="http://www.w3.org/2000/svg">
<path d="M2.73998e-06 -2.03838e-06L11.4706 -1.03559e-06C12.479 4.39675 12.9832 8.28618 12.9832 11.6683C12.9832 21.2228 8.69748 26 0.126053 26L0.126053 20.4195C4.15967 20.4195 6.17647 18.2211 6.17647 13.8244L6.17647 10.9073L1.78643e-06 10.9073L2.73998e-06 -2.03838e-06ZM17.0168 -5.50725e-07L28.4874 4.52065e-07C29.4958 4.39675 30 8.28618 30 11.6683C30 21.2228 25.7143 26 17.1429 26L17.1429 20.4195C21.1765 20.4195 23.1933 18.2211 23.1933 13.8244L23.1933 10.9073L17.0168 10.9073L17.0168 -5.50725e-07Z" fill="white"/>
</svg>
