<svg width="43" height="54" viewBox="0 0 43 54" fill="none" xmlns="http://www.w3.org/2000/svg">
<path d="M35.7285 19.0008L7.70029 1.31069L6.55087 0.648149C3.93494 -0.862436 1.78142 0.356629 1.76821 3.3778L1.72858 15.5287C1.71536 18.5499 3.85567 22.2601 6.4716 23.7839L17.3641 31.2313L35.6492 42.1366C38.2652 43.6472 40.4187 42.4281 40.4319 39.407L40.4715 27.2561C40.4847 24.2216 38.3444 20.5114 35.7285 19.0008Z" fill="#162D70"/>
<path d="M31.7287 20.0008L5.97177 3.78481L4.82235 3.12227C2.20642 1.61169 0.0529064 2.83075 0.0396946 5.85192L6.08391e-05 18.0029C-0.0131509 21.024 2.12715 24.7342 4.74309 26.2581L13.3643 32.2312L31.6494 43.1366C34.2653 44.6472 36.4189 43.4281 36.4321 40.4069L36.4717 28.256C36.4849 25.2216 34.3446 21.5113 31.7287 20.0008Z" fill="white"/>
<path d="M5.5718 13.5512L5.55601 15.4761L7.76008 16.8268L7.75007 18.0477L5.54599 16.6971L5.5293 18.732L8.01474 20.2551L8.00446 21.5091L4.20595 19.1813L4.26902 11.4926L8.06753 13.8203L8.05724 15.0743L5.5718 13.5512ZM13.1182 24.6427L11.7231 21.19L10.417 22.9875L8.93511 22.0794L11.0303 19.4719L8.96995 14.3844L10.48 15.3097L11.8751 18.7515L13.1718 16.9593L14.6537 17.8674L12.568 20.4695L14.6282 25.5681L13.1182 24.6427ZM15.3402 22.1352C15.3464 21.3799 15.4957 20.7934 15.7882 20.3756C16.087 19.9544 16.4879 19.7321 16.9908 19.7086C17.5001 19.6816 18.0673 19.8598 18.6926 20.2429C19.4241 20.6912 20.0632 21.304 20.6099 22.0811C21.1565 22.8583 21.536 23.7026 21.7485 24.614L20.2385 23.6887C20.0914 23.2301 19.8811 22.8248 19.6075 22.4729C19.3401 22.1248 19.0282 21.8415 18.6718 21.6231C18.2904 21.3894 17.9488 21.2869 17.6469 21.3156C17.3513 21.3409 17.1176 21.4924 16.9456 21.7703C16.7799 22.052 16.695 22.4495 16.6908 22.9628C16.6866 23.4688 16.7642 23.9659 16.9236 24.4542C17.0893 24.939 17.3182 25.3777 17.6104 25.7705C17.9088 26.1597 18.2487 26.4712 18.6301 26.705C18.9865 26.9234 19.2999 27.0233 19.5703 27.0047C19.847 26.9826 20.0619 26.8343 20.2149 26.5596L21.725 27.4849C21.4997 28.1354 21.1101 28.5121 20.5563 28.6149C20.0087 28.7142 19.3661 28.5378 18.6282 28.0857C18.003 27.7025 17.4385 27.1907 16.9347 26.5504C16.4373 25.9065 16.044 25.1976 15.755 24.4235C15.4723 23.6533 15.334 22.8905 15.3402 22.1352ZM24.1925 24.962L24.1767 26.8869L26.3808 28.2376L26.3708 29.4585L24.1667 28.1079L24.15 30.1428L26.6354 31.6659L26.6252 32.9198L22.8266 30.5921L22.8897 22.9034L26.6882 25.2311L26.6779 26.4851L24.1925 24.962ZM29.1415 33.2348L31.2987 34.5567L31.2887 35.7776L27.8184 33.6511L27.8814 25.9733L29.1945 26.778L29.1415 33.2348Z" fill="#182569"/>
</svg>
