<svg width="90" height="90" viewBox="0 0 90 90" fill="none" xmlns="http://www.w3.org/2000/svg">
<path d="M4 20.4805L4.16861 20.4965C4.29546 20.808 4.60859 20.8626 4.8639 20.9895L18.6333 27.7333C18.6237 33.2043 18.6114 38.6743 18.5964 44.1432C18.5964 44.5382 18.7859 44.6988 19.0974 44.8545C20.4559 45.537 21.8015 46.2402 23.1552 46.9307C24.0014 47.361 24.0078 47.3546 24.0078 46.4297C24.0078 42.4798 24.0078 38.5303 24.0078 34.5815C24.0078 33.1942 24.0335 31.8085 24.048 30.4212C25.1142 30.9029 26.1885 31.3669 27.2419 31.8663C30.8709 33.609 34.4951 35.3597 38.1145 37.1184C38.2992 37.2372 38.3024 37.4235 38.3008 37.6114L38.2719 49.7117C37.9282 50.9497 37.2345 52.0383 36.7721 53.2297C35.3287 56.9077 34.6516 60.8417 34.7825 64.7906C34.8555 66.8868 35.1597 68.9686 35.6898 70.9981C34.5095 70.3703 33.4594 69.8195 32.4188 69.2559C26.3758 65.9857 20.3333 62.7101 14.2914 59.4292C11.2468 57.7775 8.20069 56.128 5.15294 54.4805C4.78362 54.2814 4.44319 53.9988 4 53.9603V20.4805Z" fill="#00ACF5"/>
<path d="M38.2746 49.7211L38.3035 37.6208C38.3035 37.4329 38.3035 37.2466 38.1172 37.1278C38.1236 32.5388 38.1295 27.9509 38.1349 23.364C38.4367 23.1954 38.7306 23.014 39.0389 22.8598C44.9995 19.8829 50.9601 16.906 56.9207 13.9291C57.176 13.8023 57.4859 13.7461 57.6385 13.457C62.3851 15.7564 67.1339 18.053 71.8848 20.347C72.3055 20.5493 72.3665 20.8415 72.3665 21.2429C72.3665 25.9138 72.3521 30.5831 72.3665 35.254C72.3665 35.832 72.2638 35.9782 71.6696 35.8064C69.0582 35.0311 66.3417 34.6687 63.6183 34.7322C52.8469 35.0533 44.6141 39.8221 38.8542 48.9086C38.6776 49.188 38.5989 49.5445 38.2746 49.7211Z" fill="#018BC6"/>
<path d="M51.9537 10.7216C48.7326 12.3807 45.5103 14.0399 42.287 15.6991C40.9109 16.4024 39.5187 17.072 38.1345 17.7576C38.1345 13.5047 38.1297 9.25236 38.1201 5.00055C38.1201 4.69708 38.2389 4.35828 37.9258 4.1094C38.0558 3.94883 38.1939 4.00021 38.3481 4.07568C42.8828 6.29579 47.418 8.51108 51.9537 10.7216Z" fill="#172568"/>
<path d="M72 20.5L38 37L35.5 25L57.5 13.5L72 20.5Z" fill="#172568"/>
<path d="M18.6327 27.7368L4.86326 20.993C4.60795 20.8661 4.29482 20.8116 4.16797 20.5001C12.184 16.5961 20.1989 12.6927 28.2127 8.7899C31.4435 7.21955 34.6839 5.66848 37.9196 4.10938C38.2327 4.35183 38.1139 4.69705 38.1139 5.00052C38.1246 9.25234 38.1294 13.5047 38.1283 17.7576C36.2753 18.8607 34.3146 19.7518 32.3877 20.7345C27.8091 23.0798 23.2241 25.4139 18.6327 27.7368Z" fill="#172568"/>
<path d="M51.9537 10.7216C48.7326 12.3807 45.5103 14.0399 42.287 15.6991C40.9109 16.4024 39.5187 17.072 38.1345 17.7576C38.1345 13.5047 38.1297 9.25236 38.1201 5.00055C38.1201 4.69708 38.2389 4.35828 37.9258 4.1094C38.0558 3.94883 38.1939 4.00021 38.3481 4.07568C42.8828 6.29579 47.418 8.51108 51.9537 10.7216Z" fill="#018BC6"/>
<path d="M51.9537 10.7216C48.7326 12.3807 45.5103 14.0399 42.287 15.6991C40.9109 16.4024 39.5187 17.072 38.1345 17.7576C38.1345 13.5047 38.1297 9.25236 38.1201 5.00055C38.1201 4.69708 38.2389 4.35828 37.9258 4.1094C38.0558 3.94883 38.1939 4.00021 38.3481 4.07568C42.8828 6.29579 47.418 8.51108 51.9537 10.7216Z" fill="#172568"/>
<path d="M24.0508 30.4234C24.6144 29.9241 25.3242 29.6864 25.9777 29.3605C30.0242 27.3523 34.0756 25.3532 38.1318 23.3633C38.1253 27.9512 38.1194 32.5392 38.1141 37.1271C34.4936 35.3758 30.8721 33.6251 27.2495 31.8749C26.1913 31.3692 25.117 30.9067 24.0508 30.4234Z" fill="#172568"/>
<path d="M65.2589 86.0061H61.7439C61.6565 85.8993 61.5319 85.9252 61.4201 85.9138C58.3858 85.6315 55.4406 84.7346 52.7641 83.2779C50.0875 81.8212 47.7355 79.8351 45.8514 77.4406C42.8545 73.6677 41.2711 69.3477 41.025 64.5421C40.897 62.0669 41.1944 59.588 41.9042 57.2132C42.2118 56.1789 42.5275 55.1414 43.0699 54.1929C43.0828 54.235 43.0974 54.2771 43.112 54.3175C43.9927 56.8361 45.3203 59.0567 47.3782 60.8016C48.2541 61.5445 49.232 62.1288 50.205 62.7261C51.3999 63.4593 52.3761 64.3948 52.5721 65.8742C52.6611 66.554 52.6595 67.2468 52.6935 67.933C52.7761 69.5953 53.2553 71.0229 54.8306 71.9018C55.5883 72.3242 56.0919 73.0235 56.4788 73.7988C56.8734 74.6169 57.1649 75.4808 57.3466 76.3707C57.6429 77.7125 57.8323 79.077 58.3051 80.3767C58.5463 81.0387 58.8119 81.691 59.3138 82.2089C59.8157 82.7269 60.4325 82.7625 60.9684 82.2348C61.1427 82.0576 61.2954 81.8604 61.4234 81.6473C61.9346 80.8051 62.2515 79.8596 62.3511 78.8795C62.4921 77.3846 63.0832 75.9675 64.0462 74.8152C64.4202 74.3653 64.7975 73.9169 65.1796 73.467C66.1397 72.3161 66.8569 71.0537 67.171 69.5613C67.4074 68.4283 67.1337 67.543 66.2449 66.8308C66.0733 66.6932 65.9065 66.5508 65.7268 66.4245C64.6961 65.7247 63.5823 65.156 62.411 64.7315C60.5021 63.9967 58.5852 63.3638 56.4804 63.8445C55.6855 64.0258 54.9423 63.8672 54.4372 63.0983C53.8996 62.3314 53.4056 61.5349 52.9574 60.7126C52.3324 59.4857 52.653 58.8658 54.0114 58.5857C54.8549 58.4126 55.7227 58.3656 56.5484 58.0905C57.222 57.8671 57.6818 57.4657 57.8226 56.7276C57.9061 56.2786 58.0852 55.8529 58.3478 55.4792C58.6104 55.1055 58.9503 54.7927 59.3445 54.562C60.6398 53.7753 61.9738 53.0275 63.5184 52.7977C63.9798 52.7281 64.4332 52.6035 64.893 52.5112C65.1935 52.469 65.4727 52.3322 65.6902 52.1206C65.9076 51.909 66.052 51.6337 66.1024 51.3345C66.2897 50.5214 66.3895 49.6907 66.4003 48.8565C66.4003 48.086 66.0992 47.6943 65.369 47.4693C65.1884 47.4102 65.0024 47.369 64.8137 47.3463C63.6373 47.2442 62.5267 46.7599 61.6517 45.9673C61.1333 45.5239 60.4646 45.2962 59.7833 45.3312C58.8831 45.3409 58.0169 45.5691 57.141 45.7326C56.1097 45.9252 55.08 46.2182 54.0243 45.8637L50.9967 44.8262C54.4971 42.4776 58.3699 41.2427 62.568 41.029C65.3204 40.8863 68.0747 41.2709 70.6827 42.162C73.5665 43.1254 76.2178 44.6794 78.4671 46.7248C78.0898 47.0226 77.6203 47.1052 77.1848 47.2703C76.1599 47.6571 75.1092 47.9857 74.1928 48.6137C73.8748 48.8251 73.6081 49.1049 73.412 49.4325C73.216 49.7601 73.0955 50.1273 73.0594 50.5074C72.9807 51.2353 73.0356 51.9714 73.2214 52.6795C73.3833 53.3529 73.4399 53.395 74.141 53.416C75.0602 53.4219 75.9791 53.3771 76.8933 53.2817C77.6656 53.2201 78.4331 53.0874 79.2118 53.1457C79.9906 53.204 80.4941 53.6458 80.5977 54.3661C80.7013 55.0864 80.1719 56.2307 79.6263 56.4363C79.5442 56.4669 79.458 56.4849 79.3705 56.4897C77.29 56.548 75.2128 56.5479 73.1744 56.0494C73.007 56.0001 72.8302 55.9914 72.6587 56.024C72.4872 56.0567 72.326 56.1298 72.1884 56.2372C71.8485 56.4976 71.5694 56.829 71.3708 57.2083C71.3267 57.2677 71.2963 57.3361 71.2818 57.4085C71.2672 57.481 71.2689 57.5558 71.2866 57.6275C71.5505 58.3138 71.2461 58.8852 70.9223 59.4484C70.5985 60.0117 70.2601 60.5183 69.9638 61.067C69.619 61.7145 69.4053 62.4137 69.6854 63.1356C69.8924 63.7005 70.2279 64.2096 70.6654 64.6228C71.1028 65.0359 71.6303 65.3419 72.2062 65.5165C73.1323 65.8143 74.1151 65.7625 75.08 65.79C76.7282 65.837 77.4293 66.4375 77.7466 68.056C77.9781 69.2473 77.8292 70.4532 77.9376 71.6428C78.0905 73.1738 77.981 74.7196 77.6138 76.2137C77.4908 76.709 77.7061 77.1039 78.1611 77.3321C78.6552 77.5618 79.2081 77.6336 79.7445 77.5377C80.3468 77.4584 80.8681 77.1541 81.4283 76.9647C81.4866 77.1606 81.3247 77.2544 81.2308 77.3726C80.369 78.4841 79.4017 79.5096 78.3424 80.4349C75.2873 83.1332 71.5495 84.9406 67.5369 85.6597C66.7857 85.7989 66.0198 85.8944 65.2589 86.0061Z" fill="#00ACF5"/>
<path d="M78.4678 46.7266C79.9978 48.002 81.2461 49.5235 82.3406 51.176C84.1606 53.9394 85.348 57.0703 85.8183 60.3453C85.8895 60.8179 85.9397 61.2922 85.9996 61.7664V65.4568C85.8377 65.7335 85.8895 66.0492 85.8539 66.3421C85.4101 69.9133 84.1098 73.3244 82.0637 76.2851C81.9623 76.4802 81.808 76.6428 81.6185 76.7544L81.5213 76.8791C81.4711 76.8791 81.4307 76.9001 81.4355 76.9632V76.973C80.8753 77.1623 80.354 77.4666 79.7517 77.5459C79.2153 77.6419 78.6624 77.5701 78.1683 77.3404C77.7133 77.1122 77.498 76.7172 77.6211 76.2219C77.9882 74.7278 78.0977 73.182 77.9449 71.6511C77.8364 70.4614 77.9853 69.2556 77.7538 68.0643C77.43 66.4457 76.7354 65.8436 75.0872 65.7983C74.1158 65.7708 73.1444 65.8226 72.2134 65.5247C71.6374 65.3485 71.1102 65.0408 70.6736 64.6259C70.2369 64.211 69.9027 63.7003 69.6974 63.1341C69.4173 62.4122 69.6311 61.7146 69.9759 61.0656C70.2722 60.512 70.6235 59.9876 70.9344 59.447C71.2452 58.9064 71.5626 58.314 71.2987 57.6261C71.2809 57.5543 71.2793 57.4795 71.2939 57.4071C71.3084 57.3346 71.3388 57.2662 71.3829 57.2069C71.5815 56.8276 71.8605 56.4962 72.2005 56.2357C72.3381 56.1283 72.4993 56.0552 72.6708 56.0226C72.8422 55.9899 73.019 55.9986 73.1865 56.048C75.2249 56.5465 77.3021 56.5465 79.3826 56.4882C79.47 56.4834 79.5563 56.4654 79.6384 56.4348C80.1905 56.2292 80.7215 55.1011 80.6098 54.3646C80.4981 53.6282 80.0108 53.2041 79.2239 53.1442C78.437 53.0843 77.6777 53.2187 76.9054 53.2802C75.9911 53.3756 75.0723 53.4205 74.153 53.4145C73.452 53.3935 73.3905 53.3514 73.2334 52.6781C73.0476 51.9699 72.9928 51.2338 73.0715 50.5059C73.1076 50.1259 73.228 49.7586 73.4241 49.431C73.6202 49.1034 73.8869 48.8237 74.2049 48.6122C75.1212 47.9842 76.172 47.6556 77.1969 47.2688C77.621 47.1005 78.0906 47.0179 78.4678 46.7266Z" fill="#018BC6"/>
<path d="M43.0684 54.1948C43.2384 53.5668 43.5865 53.023 43.9038 52.4662C45.6274 49.3933 48.0582 46.7751 50.9952 44.8281L54.0228 45.8656C55.0784 46.2266 56.1082 45.9271 57.1395 45.7345C58.0154 45.5727 58.8816 45.3428 59.7818 45.3331C60.4631 45.2981 61.1318 45.5258 61.6501 45.9692C62.5252 46.7618 63.6358 47.2461 64.8121 47.3483C65.0008 47.3709 65.1868 47.4121 65.3675 47.4713C66.0976 47.6962 66.3956 48.0879 66.3988 48.8584C66.388 49.6926 66.2881 50.5234 66.1009 51.3364C66.0505 51.6356 65.9061 51.9109 65.6887 52.1225C65.4712 52.3341 65.192 52.4709 64.8915 52.5131C64.4317 52.6054 63.9783 52.73 63.5169 52.7996C61.9723 53.0295 60.6463 53.7708 59.343 54.5639C58.9488 54.7946 58.6089 55.1074 58.3463 55.4811C58.0837 55.8548 57.9046 56.2806 57.8211 56.7295C57.6721 57.4676 57.2204 57.8625 56.5469 58.0924C55.7212 58.3675 54.8534 58.4161 54.0099 58.5877C52.6515 58.8677 52.3309 59.4876 52.9559 60.7145C53.404 61.5368 53.8981 62.3333 54.4357 63.1003C54.9408 63.8691 55.684 64.0277 56.4789 63.8464C58.5837 63.3609 60.5006 63.9986 62.4095 64.7334C63.5808 65.1579 64.6946 65.7267 65.7253 66.4264C65.905 66.5527 66.0717 66.6951 66.2434 66.8327C67.1322 67.5449 67.4058 68.4367 67.1695 69.5633C66.8554 71.0556 66.1381 72.3148 65.178 73.4689C64.804 73.9189 64.4268 74.3672 64.0447 74.8172C63.0787 75.9684 62.4848 77.3856 62.3415 78.8814C62.2419 79.8615 61.925 80.807 61.4138 81.6492C61.2858 81.8623 61.1331 82.0595 60.9588 82.2367C60.4229 82.7644 59.8255 82.7514 59.3041 82.2108C58.7828 81.6702 58.5416 81.0406 58.3036 80.3786C57.8324 79.0837 57.6414 77.7144 57.3451 76.3726C57.1634 75.4827 56.8719 74.6188 56.4773 73.8007C56.0903 73.0254 55.5868 72.3262 54.8291 71.9037C53.2538 71.0248 52.7745 69.5972 52.692 67.935C52.658 67.2487 52.6596 66.5559 52.5705 65.8761C52.3746 64.3967 51.3983 63.4612 50.2035 62.728C49.2321 62.1307 48.2606 61.5464 47.3766 60.8035C45.3188 59.0587 43.9912 56.838 43.1105 54.3195C43.0959 54.279 43.0813 54.2369 43.0684 54.1948Z" fill="white"/>
<path d="M81.6167 76.7461C81.6167 76.8157 81.6005 76.8675 81.5195 76.8707L81.6167 76.7461Z" fill="#89C7FC"/>
<path d="M81.5198 76.8711C81.5295 76.9391 81.5101 76.9747 81.434 76.9553C81.4291 76.8921 81.4696 76.8759 81.5198 76.8711Z" fill="#89C7FC"/>
</svg>
