<svg width="16" height="16" viewBox="0 0 32 32" fill="none" xmlns="http://www.w3.org/2000/svg">
<path d="M15.9987 6C9.33203 6 3.6387 10.1467 1.33203 16C3.6387 21.8533 9.33203 26 15.9987 26C22.6654 26 28.3587 21.8533 30.6654 16C28.3587 10.1467 22.6654 6 15.9987 6ZM15.9987 22.6667C12.3187 22.6667 9.33203 19.68 9.33203 16C9.33203 12.32 12.3187 9.33333 15.9987 9.33333C19.6787 9.33333 22.6654 12.32 22.6654 16C22.6654 19.68 19.6787 22.6667 15.9987 22.6667ZM15.9987 12C13.7854 12 11.9987 13.7867 11.9987 16C11.9987 18.2133 13.7854 20 15.9987 20C18.212 20 19.9987 18.2133 19.9987 16C19.9987 13.7867 18.212 12 15.9987 12Z" fill="#919091"/>
</svg>
