<svg width="192" height="192" viewBox="0 0 192 192" fill="none" xmlns="http://www.w3.org/2000/svg">
<path d="M31.2917 177.844L32.9992 178.821C33.547 179.136 34.4327 179.136 34.976 178.821L113.87 133.272C114.418 132.957 114.413 132.446 113.87 132.135L112.176 131.168C111.628 130.853 110.743 130.857 110.199 131.172L31.2917 176.707C30.7439 177.022 30.7439 177.529 31.2917 177.844Z" fill="#E1E1E1"/>
<path d="M33.4197 176.693L33.0727 176.492C32.5203 176.172 32.0684 175.392 32.0684 174.752V57.765C32.0684 57.1258 32.5158 56.3452 33.0727 56.0256L108.456 12.5131C109.008 12.1935 109.908 12.1935 110.465 12.5131L110.812 12.714C111.364 13.0336 111.816 13.8142 111.816 14.4534V131.441C111.816 132.08 111.369 132.861 110.812 133.18L35.4239 176.693C34.8715 177.012 33.9721 177.012 33.4197 176.693Z" fill="url(#paint0_linear_653_48)"/>
<path opacity="0.4" d="M111.803 14.289C111.734 13.7686 111.314 13.5814 110.807 13.869L35.424 57.3906C35.1455 57.5504 34.899 57.8289 34.7164 58.1348L32.3652 56.7789C32.5433 56.4639 32.7944 56.1899 33.0729 56.0256L108.452 12.5131C109.009 12.1935 109.908 12.1935 110.46 12.5131L110.807 12.714C111.314 13.0062 111.739 13.6819 111.803 14.289Z" fill="white"/>
<path opacity="0.1" d="M35.255 176.777C34.7026 177.014 33.9219 176.987 33.4197 176.699L33.0682 176.498C32.5158 176.179 32.0684 175.398 32.0684 174.759V57.7713C32.0684 57.4517 32.1779 57.091 32.3605 56.7852L34.7117 58.1411C34.5337 58.4561 34.4195 58.8122 34.4195 59.1272V176.119C34.4195 176.69 34.7802 176.959 35.255 176.777Z" fill="black"/>
<path d="M43.3123 134.388L42.9653 134.187C42.4129 133.867 41.9609 133.087 41.9609 132.447V111.419C41.9609 110.78 42.4083 110 42.9653 109.68L111.405 70.1303C111.957 69.8107 112.856 69.8107 113.413 70.1303L113.76 70.3312C114.313 70.6508 114.765 71.4314 114.765 72.0706V93.0986C114.765 93.7378 114.317 94.5185 113.76 94.838L45.3165 134.388C44.7641 134.707 43.8647 134.707 43.3123 134.388Z" fill="#EBEBEB"/>
<path d="M114.751 71.9115C114.683 71.391 114.263 71.2038 113.756 71.4914L45.3166 111.041C45.0381 111.201 44.7916 111.479 44.609 111.785L42.2578 110.429C42.4359 110.114 42.687 109.84 42.9654 109.676L111.4 70.1264C111.957 69.8068 112.857 69.8068 113.409 70.1264L113.756 70.3273C114.263 70.6286 114.687 71.3043 114.751 71.9115Z" fill="#FAFAFA"/>
<path d="M45.1476 134.465C44.5952 134.702 43.8145 134.675 43.3123 134.387L42.9608 134.187C42.4083 133.867 41.9609 133.086 41.9609 132.447V111.424C41.9609 111.104 42.0705 110.748 42.2531 110.438L44.6043 111.793C44.4262 112.108 44.3121 112.465 44.3121 112.78V133.812C44.3121 134.378 44.6728 134.648 45.1476 134.465Z" fill="#E1E1E1"/>
<path d="M54.9949 109.628C58.8983 107.373 62.0621 109.126 62.0621 113.546C62.0621 117.96 58.8938 123.334 54.9858 125.543C51.0779 127.753 47.9095 125.995 47.9141 121.626C47.9141 117.253 51.0916 111.884 54.9949 109.628Z" fill="#00ACF5"/>
<path d="M43.3123 162.88L42.9653 162.679C42.4129 162.36 41.9609 161.579 41.9609 160.94V139.912C41.9609 139.272 42.4083 138.492 42.9653 138.172L111.405 98.6225C111.957 98.3029 112.856 98.3029 113.413 98.6225L113.76 98.8234C114.313 99.1429 114.765 99.9236 114.765 100.563V121.591C114.765 122.23 114.317 123.011 113.76 123.33L45.3165 162.88C44.7641 163.2 43.8647 163.2 43.3123 162.88Z" fill="#EBEBEB"/>
<path d="M114.751 100.408C114.683 99.8871 114.263 99.6999 113.756 99.9875L45.3166 139.537C45.0381 139.697 44.7916 139.976 44.609 140.281L42.2578 138.926C42.4359 138.611 42.687 138.337 42.9654 138.172L111.4 98.6225C111.957 98.3029 112.857 98.3029 113.409 98.6225L113.756 98.8234C114.263 99.1247 114.687 99.8004 114.751 100.408Z" fill="#FAFAFA"/>
<path d="M45.1476 162.961C44.5952 163.198 43.8145 163.171 43.3123 162.883L42.9608 162.683C42.4083 162.363 41.9609 161.582 41.9609 160.943V139.92C41.9609 139.6 42.0705 139.239 42.2531 138.934L44.6043 140.29C44.4262 140.605 44.3121 140.961 44.3121 141.276V162.308C44.3121 162.874 44.6728 163.144 45.1476 162.961Z" fill="#E1E1E1"/>
<path d="M54.9949 138.125C58.8983 135.869 62.0621 137.622 62.0621 142.042C62.0621 146.456 58.8938 151.83 54.9858 154.039C51.0779 156.249 47.9095 154.491 47.9141 150.122C47.9141 145.749 51.0916 140.38 54.9949 138.125Z" fill="#00ACF5"/>
<path d="M43.3123 86.7315L42.9653 86.5306C42.4129 86.2111 41.9609 85.4304 41.9609 84.7912V63.7632C41.9609 63.124 42.4083 62.3434 42.9653 62.0238L111.405 22.4741C111.957 22.1545 112.856 22.1545 113.413 22.4741L113.76 22.6749C114.313 22.9945 114.765 23.7752 114.765 24.4143V45.4424C114.765 46.0815 114.317 46.8622 113.76 47.1818L45.3165 86.7315C44.7641 87.0511 43.8647 87.0511 43.3123 86.7315Z" fill="#EBEBEB"/>
<path d="M114.751 24.2545C114.683 23.7341 114.263 23.5469 113.756 23.8345L45.3166 63.3888C45.0381 63.5486 44.7916 63.8271 44.609 64.133L42.2578 62.7771C42.4359 62.4621 42.687 62.1881 42.9654 62.0238L111.4 22.4741C111.957 22.1545 112.857 22.1545 113.409 22.4741L113.756 22.6749C114.263 22.9717 114.687 23.6519 114.751 24.2545Z" fill="#FAFAFA"/>
<path d="M45.1476 86.8088C44.5952 87.0462 43.8145 87.0188 43.3123 86.7311L42.9608 86.5303C42.4083 86.2107 41.9609 85.43 41.9609 84.7909V63.7674C41.9609 63.4478 42.0705 63.0871 42.2531 62.7812L44.6043 64.1372C44.4262 64.4522 44.3121 64.8083 44.3121 65.1233V86.1559C44.3121 86.7266 44.6728 86.9959 45.1476 86.8088Z" fill="#E1E1E1"/>
<path d="M54.9949 61.9761C58.8983 59.7208 62.0621 61.4739 62.0621 65.8932C62.0621 70.3079 58.8938 75.6813 54.9858 77.8909C51.0779 80.1006 47.9095 78.3429 47.9141 73.9739C47.9141 69.5957 51.0916 64.2268 54.9949 61.9761Z" fill="#00ACF5"/>
<path d="M48.1209 113.427L47.7739 113.226C47.2215 112.906 46.7695 112.126 46.7695 111.487V90.4585C46.7695 89.8193 47.2169 89.0387 47.7739 88.7191L116.213 49.1694C116.766 48.8498 117.665 48.8498 118.222 49.1694L118.569 49.3702C119.121 49.6898 119.573 50.4705 119.573 51.1096V72.1377C119.573 72.7769 119.126 73.5575 118.569 73.8771L50.1296 113.427C49.5727 113.746 48.6779 113.746 48.1209 113.427Z" fill="#172568"/>
<path d="M119.56 50.9499C119.491 50.4294 119.071 50.2422 118.565 50.5298L50.1252 90.0841C49.8467 90.2439 49.6002 90.5224 49.4176 90.8283L47.0664 89.4724C47.2445 89.1574 47.4955 88.8835 47.774 88.7191L116.209 49.1694C116.766 48.8498 117.665 48.8498 118.218 49.1694L118.565 49.3702C119.071 49.667 119.496 50.3472 119.56 50.9499Z" fill="url(#paint1_linear_653_48)"/>
<path d="M49.962 113.504C49.4096 113.741 48.6289 113.714 48.1267 113.426L47.7752 113.226C47.2228 112.906 46.7754 112.125 46.7754 111.486V90.4627C46.7754 90.1431 46.885 89.7824 47.0676 89.4766L49.4187 90.8325C49.2407 91.1475 49.1266 91.5036 49.1266 91.8186V112.851C49.1266 113.422 49.4872 113.687 49.962 113.504Z" fill="url(#paint2_linear_653_48)"/>
<path d="M59.8055 88.6714C63.7089 86.4161 66.8727 88.1692 66.8727 92.5885C66.8727 97.0032 63.7043 102.377 59.7964 104.586C55.8884 106.796 52.72 105.038 52.7246 100.669C52.7292 96.291 55.9021 90.9221 59.8055 88.6714Z" fill="#F5F5F5"/>
<path d="M59.9485 101.373C59.6152 101.564 59.3002 101.583 59.0811 101.414L55.9766 99.0671C55.5612 98.752 55.616 97.8892 56.0953 97.1313C56.5747 96.3735 57.3006 96.0174 57.7115 96.3324L59.8754 97.9668L65.8835 85.0514C66.2578 84.2433 66.9746 83.7046 67.4859 83.8416C67.9972 83.9785 68.1068 84.7455 67.7324 85.549L60.8753 100.295C60.6698 100.738 60.3457 101.126 59.9987 101.341C59.9804 101.354 59.9622 101.363 59.9485 101.373Z" fill="url(#paint3_linear_653_48)"/>
<path d="M119.553 82.1757L117.567 81.0298V81.0343C116.704 80.5367 115.649 81.0298 115.092 81.3722L113.855 80.6554C112.353 79.7469 110.262 81.6461 109.796 82.1026L109.262 81.7922C107.669 80.8335 104.775 83.4038 104.775 83.4038V73.8393L106.03 73.2276L104.03 72.0725C104.03 72.0725 104.026 72.0725 104.026 72.068L104.012 72.0589C103.551 71.8032 102.921 71.8443 102.227 72.246C100.821 73.0587 99.6796 75.0309 99.6796 76.6562V98.8301C97.8489 97.4742 95.9041 96.6388 94.1966 96.9446C92.6581 97.2186 91.2839 98.5288 90.8822 99.2319C90.0376 100.716 91.43 101.647 93.2196 103.697C94.9956 105.724 96.5569 108.171 98.1776 109.677C99.7937 111.184 100.967 111.577 100.967 111.577V114.467L102.935 115.603L115.932 105.829V102.939C115.932 102.939 117.79 95.5339 118.384 92.4432C118.955 89.462 119.48 84.714 118.498 82.2487L119.553 82.1757Z" fill="#00DFBF"/>
<path d="M119.553 82.1757L117.567 81.0298V81.0343C116.704 80.5367 115.649 81.0298 115.092 81.3722L113.855 80.6554C112.353 79.7469 110.262 81.6461 109.796 82.1026L109.262 81.7922C107.669 80.8335 104.775 83.4038 104.775 83.4038V73.8393L106.03 73.2276L104.03 72.0725C104.03 72.0725 104.026 72.0725 104.026 72.068L104.012 72.0589C103.551 71.8032 102.921 71.8443 102.227 72.246C100.821 73.0587 99.6796 75.0309 99.6796 76.6562V98.8301C97.8489 97.4742 95.9041 96.6388 94.1966 96.9446C92.6581 97.2186 91.2839 98.5288 90.8822 99.2319C90.0376 100.716 91.43 101.647 93.2196 103.697C94.9956 105.724 96.5569 108.171 98.1776 109.677C99.7937 111.184 100.967 111.577 100.967 111.577V114.467L102.935 115.603L115.932 105.829V102.939C115.932 102.939 117.79 95.5339 118.384 92.4432C118.955 89.462 119.48 84.714 118.498 82.2487L119.553 82.1757Z" fill="url(#paint4_linear_653_48)"/>
<path d="M104.887 107.663L95.0534 101.988L90.7482 99.5C90.2004 100.838 91.5289 101.778 93.2135 103.705C94.9894 105.732 96.5508 108.179 98.1715 109.685C99.7876 111.192 100.961 111.585 100.961 111.585V114.474L102.929 115.611L105.8 113.452C105.426 110.991 104.887 107.663 104.887 107.663Z" fill="#00DFBF"/>
<path d="M101.641 77.7963L99.6738 76.6641V99.92L101.641 99.9702V77.7963Z" fill="url(#paint5_linear_653_48)"/>
<path d="M117.063 83.6655L118.588 82.5424C118.556 82.4419 118.524 82.3415 118.487 82.2456L119.04 82.2091L117.816 82.1543L115.775 81.0312C115.511 81.1363 115.269 81.2595 115.086 81.3737L115.725 81.7434L117.063 83.6655Z" fill="#00DFBF"/>
<path d="M111.664 83.3335L113.098 82.2423L111.125 81.0508C110.5 81.4434 109.998 81.9045 109.797 82.1008L111.166 82.8952L111.664 83.3335Z" fill="#00DFBF"/>
<path d="M108.678 83.2299L106.729 82.0886L106.738 82.0703V84.5447L109.011 83.7093L108.678 83.2299Z" fill="#00DFBF"/>
<path d="M104.887 107.663L95.0534 101.988L90.7482 99.5C90.2004 100.838 91.5289 101.778 93.2135 103.705C94.9894 105.732 96.5508 108.179 98.1715 109.685C99.7876 111.192 100.961 111.585 100.961 111.585V114.474L102.929 115.611L105.8 113.452C105.426 110.991 104.887 107.663 104.887 107.663Z" fill="url(#paint6_linear_653_48)"/>
<path d="M117.063 83.6694L118.588 82.5463C118.556 82.4459 118.524 82.3454 118.487 82.2495L119.04 82.213L117.816 82.1582L115.775 81.0352C115.511 81.1402 115.269 81.2634 115.086 81.3776L115.725 81.7474L117.063 83.6694Z" fill="url(#paint7_linear_653_48)"/>
<path d="M111.664 83.3374L113.098 82.2462L111.125 81.0547C110.5 81.4473 109.998 81.9084 109.797 82.1047L111.166 82.8991L111.664 83.3374Z" fill="url(#paint8_linear_653_48)"/>
<path d="M108.678 83.2299L106.729 82.0886L106.738 82.0703V84.5447L109.011 83.7093L108.678 83.2299Z" fill="url(#paint9_linear_653_48)"/>
<path d="M102.926 115.608V112.718C102.926 112.718 101.753 112.325 100.137 110.819C98.5204 109.312 96.9545 106.865 95.1786 104.838C93.389 102.793 91.9965 101.857 92.8411 100.373C93.2383 99.6702 94.6171 98.3599 96.1556 98.086C97.863 97.7801 99.8079 98.6156 101.639 99.9715V77.7976C101.639 76.1723 102.78 74.2 104.186 73.3874C105.592 72.5748 106.734 73.2322 106.734 74.8575V84.5406C106.734 84.5406 110.244 81.4225 111.66 83.3353C111.66 83.3353 115.106 79.7241 116.663 82.7738C116.663 82.7738 119.192 80.7285 120.334 83.1025C121.475 85.4765 120.927 90.4847 120.334 93.58C119.74 96.6753 117.882 104.076 117.882 104.076V106.966L102.926 115.608Z" fill="#00ACF5"/>
<path d="M106.737 88.6998C106.737 88.6998 107.056 84.2805 108.681 83.2305C108.681 83.2305 108.659 83.235 108.622 83.2487C107.59 83.7874 106.737 84.5453 106.737 84.5453V84.4631C106.718 84.5179 106.737 84.5453 106.737 84.5453V88.6998Z" fill="#172568"/>
<path d="M111.662 83.334V87.3744C111.662 87.3744 112.11 83.2153 113.041 82.2109C112.251 82.7223 111.667 83.334 111.662 83.334Z" fill="#172568"/>
<path d="M116.666 82.7785V86.8371C116.666 86.8371 116.913 82.7511 117.794 82.1484C117.155 82.3858 116.671 82.7739 116.666 82.7785Z" fill="#172568"/>
<path d="M102.211 69.4633C101.896 69.6459 101.641 69.5364 101.641 69.2214V66.0119C101.641 65.6969 101.896 65.2906 102.211 65.108C102.526 64.9254 102.782 65.0349 102.782 65.3499V68.5594C102.782 68.8744 102.526 69.2807 102.211 69.4633Z" fill="#EBEBEB"/>
<path d="M97.4199 74.5211C97.1962 74.9091 96.8355 75.1192 96.6118 74.9868L94.7537 73.9139C94.53 73.7861 94.53 73.3661 94.7537 72.978C94.9774 72.5899 95.3381 72.3799 95.5618 72.5123L97.4199 73.5852C97.6436 73.713 97.6436 74.133 97.4199 74.5211Z" fill="#EBEBEB"/>
<path d="M95.771 81.3551V81.4464C95.771 81.7843 95.4971 82.218 95.1547 82.4143L92.6163 83.8798C92.2785 84.0761 92 83.9574 92 83.6195V83.5282C92 83.1904 92.2739 82.7567 92.6163 82.5604L95.1547 81.0949C95.4925 80.8986 95.771 81.0173 95.771 81.3551Z" fill="#EBEBEB"/>
<path d="M108.992 73.4203V73.329C108.992 72.9912 109.266 72.5575 109.609 72.3611L112.147 70.8957C112.485 70.6994 112.763 70.818 112.763 71.1559V71.2472C112.763 71.585 112.489 72.0187 112.147 72.2151L109.609 73.6805C109.266 73.8768 108.992 73.7581 108.992 73.4203Z" fill="#EBEBEB"/>
<path d="M107.004 68.9873C106.78 68.8595 106.78 68.4394 107.004 68.0514L108.862 64.8374C109.086 64.4493 109.446 64.2393 109.67 64.3717C109.894 64.4995 109.894 64.9195 109.67 65.3076L107.812 68.5216C107.588 68.9051 107.227 69.1151 107.004 68.9873Z" fill="#EBEBEB"/>
<defs>
<linearGradient id="paint0_linear_653_48" x1="32.0684" y1="94.6026" x2="111.811" y2="94.6026" gradientUnits="userSpaceOnUse">
<stop stop-color="#161242"/>
<stop offset="0.2458" stop-color="#103E75"/>
<stop offset="0.6064" stop-color="#0779B9"/>
<stop offset="0.8674" stop-color="#029EE5"/>
<stop offset="1" stop-color="#00ACF5"/>
</linearGradient>
<linearGradient id="paint1_linear_653_48" x1="47.0683" y1="69.8813" x2="119.561" y2="69.8813" gradientUnits="userSpaceOnUse">
<stop stop-color="#161242"/>
<stop offset="0.2458" stop-color="#103E75"/>
<stop offset="0.6064" stop-color="#0779B9"/>
<stop offset="0.8674" stop-color="#029EE5"/>
<stop offset="1" stop-color="#00ACF5"/>
</linearGradient>
<linearGradient id="paint2_linear_653_48" x1="42.6757" y1="92.0098" x2="53.8043" y2="111.285" gradientUnits="userSpaceOnUse">
<stop stop-color="#161242"/>
<stop offset="0.2458" stop-color="#103E75"/>
<stop offset="0.6064" stop-color="#0779B9"/>
<stop offset="0.8674" stop-color="#029EE5"/>
<stop offset="1" stop-color="#00ACF5"/>
</linearGradient>
<linearGradient id="paint3_linear_653_48" x1="55.6974" y1="92.6777" x2="67.9552" y2="92.6777" gradientUnits="userSpaceOnUse">
<stop stop-color="#161242"/>
<stop offset="0.1302" stop-color="#103B71"/>
<stop offset="0.2626" stop-color="#0B5D99"/>
<stop offset="0.3993" stop-color="#077ABA"/>
<stop offset="0.5388" stop-color="#0490D4"/>
<stop offset="0.6824" stop-color="#02A0E7"/>
<stop offset="0.8326" stop-color="#00A9F1"/>
<stop offset="1" stop-color="#00ACF5"/>
</linearGradient>
<linearGradient id="paint4_linear_653_48" x1="90.625" y1="93.7574" x2="119.551" y2="93.7574" gradientUnits="userSpaceOnUse">
<stop stop-color="#161242"/>
<stop offset="0.2458" stop-color="#103E75"/>
<stop offset="0.6064" stop-color="#0779B9"/>
<stop offset="0.8674" stop-color="#029EE5"/>
<stop offset="1" stop-color="#00ACF5"/>
</linearGradient>
<linearGradient id="paint5_linear_653_48" x1="95.1312" y1="79.2856" x2="105.716" y2="97.6191" gradientUnits="userSpaceOnUse">
<stop stop-color="#161242"/>
<stop offset="0.0446" stop-color="#151849"/>
<stop offset="0.1114" stop-color="#132A5E"/>
<stop offset="0.1922" stop-color="#0E477F"/>
<stop offset="0.2839" stop-color="#096FAE"/>
<stop offset="0.3836" stop-color="#01A2E9"/>
<stop offset="0.4022" stop-color="#00ACF5"/>
<stop offset="1" stop-color="#122F64"/>
</linearGradient>
<linearGradient id="paint6_linear_653_48" x1="90.6245" y1="107.553" x2="105.796" y2="107.553" gradientUnits="userSpaceOnUse">
<stop stop-color="#161242"/>
<stop offset="0.2458" stop-color="#103E75"/>
<stop offset="0.6064" stop-color="#0779B9"/>
<stop offset="0.8674" stop-color="#029EE5"/>
<stop offset="1" stop-color="#00ACF5"/>
</linearGradient>
<linearGradient id="paint7_linear_653_48" x1="115.089" y1="82.3518" x2="119.041" y2="82.3518" gradientUnits="userSpaceOnUse">
<stop stop-color="#161242"/>
<stop offset="0.2458" stop-color="#103E75"/>
<stop offset="0.6064" stop-color="#0779B9"/>
<stop offset="0.8674" stop-color="#029EE5"/>
<stop offset="1" stop-color="#00ACF5"/>
</linearGradient>
<linearGradient id="paint8_linear_653_48" x1="109.794" y1="82.1982" x2="113.096" y2="82.1982" gradientUnits="userSpaceOnUse">
<stop stop-color="#161242"/>
<stop offset="0.2458" stop-color="#103E75"/>
<stop offset="0.6064" stop-color="#0779B9"/>
<stop offset="0.8674" stop-color="#029EE5"/>
<stop offset="1" stop-color="#00ACF5"/>
</linearGradient>
<linearGradient id="paint9_linear_653_48" x1="106.729" y1="83.3072" x2="109.011" y2="83.3072" gradientUnits="userSpaceOnUse">
<stop stop-color="#161242"/>
<stop offset="0.2458" stop-color="#103E75"/>
<stop offset="0.6064" stop-color="#0779B9"/>
<stop offset="0.8674" stop-color="#029EE5"/>
<stop offset="1" stop-color="#00ACF5"/>
</linearGradient>
</defs>
</svg>
