<svg width="45" height="53" viewBox="0 0 45 53" fill="none" xmlns="http://www.w3.org/2000/svg">
<path d="M29.9298 12.5554L10.3836 1.34709L9.15493 0.666153C6.35859 -0.886393 4.05656 0.366536 4.04243 3.47163L4.00007 15.9601C3.98594 19.0652 6.27385 22.8784 9.0702 24.4446L10.2989 25.1256L29.8451 36.3338C32.6414 37.8864 34.9434 36.6335 34.9576 33.5284L34.9999 21.0399C35.0141 17.9212 32.7261 14.1079 29.9298 12.5554Z" fill="#162D70"/>
<path d="M25.0934 13.5554L6.1777 2.34709L4.98864 1.66615C2.2825 0.113607 0.0547307 1.36654 0.0410634 4.47163L6.2937e-05 16.9601C-0.0136044 20.0652 2.2005 23.8784 4.90664 25.4446L6.09569 26.1256L25.0114 37.3338C27.7175 38.8864 29.9453 37.6335 29.9589 34.5284L29.9999 22.0399C30.0136 18.9212 27.7995 15.1079 25.0934 13.5554Z" fill="white"/>
<path d="M10.8396 13.1956L10.8294 14.4386L8.10012 12.766L8.08397 14.735L10.1755 16.0167L10.1655 17.2376L8.07395 15.9559L8.04733 19.2008L6.73427 18.3962L6.79725 10.7184L10.8396 13.1956ZM16.2257 16.4962L16.2156 17.7392L14.4711 16.6701L14.4183 23.1049L13.1052 22.3003L13.158 15.8655L11.4135 14.7965L11.4237 13.5535L16.2257 16.4962ZM21.9382 22.3847C21.9349 22.7954 21.8473 23.1286 21.6755 23.3845C21.51 23.6442 21.2482 23.7748 20.8899 23.7764C20.538 23.7818 20.0931 23.6198 19.5554 23.2903L18.4581 22.6178L18.4339 25.5657L17.1208 24.7611L17.1838 17.0833L19.5942 18.5604C20.1007 18.8708 20.5313 19.2378 20.886 19.6616C21.2407 20.0853 21.5041 20.5305 21.6763 20.9971C21.8546 21.4675 21.942 21.9301 21.9382 22.3847ZM19.5093 22.0128C19.872 22.2351 20.1416 22.3045 20.3183 22.2211C20.495 22.1304 20.5848 21.9091 20.5877 21.5571C20.5938 20.8091 20.2405 20.2167 19.5277 19.7799L18.4866 19.1419L18.4683 21.3749L19.5093 22.0128Z" fill="#182569"/>
</svg>
