<svg width="21" height="15" viewBox="0 0 21 15" fill="none" xmlns="http://www.w3.org/2000/svg">
<path fill-rule="evenodd" clip-rule="evenodd" d="M16.1027 6.66704H8.94169V9.00004H13.3107C12.5869 11.5354 10.0497 13.1011 7.45897 12.6112C4.86818 12.1212 3.07799 9.73724 3.32996 7.1126C3.58194 4.48797 5.79301 2.48812 8.42969 2.50004C9.79024 2.49597 11.0974 3.02932 12.0667 3.98404L13.7987 2.14304C12.3534 0.761474 10.4291 -0.00658284 8.42969 4.25093e-05C4.28755 4.25093e-05 0.929688 3.35791 0.929688 7.50004C0.929688 11.6422 4.28755 15 8.42969 15C12.0743 15.036 15.2589 12.5458 16.1027 9.00004V6.66704V6.66704V6.66704ZM20.7514 6.66686H19.2864V5.23486H18.0314V6.66686H16.5664V7.89386H18.0314V9.32586H19.2864V7.88986H20.7514V6.66286V6.66686Z" fill="white"/>
</svg>
