<svg width="53" height="49" viewBox="0 0 53 49" fill="none" xmlns="http://www.w3.org/2000/svg">
<path fill-rule="evenodd" clip-rule="evenodd" d="M26.1039 0.237858C25.9033 0.45491 25.8789 0.597403 25.8789 1.55237V2.62353L25.5425 2.62585C25.0503 2.62921 24.3913 2.97014 24.0955 3.37449C23.7147 3.89514 23.6016 4.34102 23.6016 5.3208V6.199H15.7532C6.97426 6.199 7.18709 6.1827 6.50523 6.90568C5.96219 7.48133 5.79687 7.88094 5.79687 8.61769C5.79687 9.88509 6.53225 10.7186 7.87878 10.9773L8.45961 11.089L7.76315 12.7958C6.96236 14.7585 6.5867 15.4342 5.81157 16.3067C5.09048 17.1184 4.32209 17.6668 2.31502 18.8023C0.325143 19.928 0.0567266 20.2209 0.0536211 21.2696C0.0512402 22.0868 0.319035 22.6432 0.92367 23.0773C1.35523 23.3872 1.38949 23.3934 2.85537 23.4289L4.34766 23.4651V25.0277V26.5903L2.76904 27.4375C1.90086 27.9034 1.08929 28.3716 0.965697 28.4779C0.518199 28.8626 0.311271 29.3508 0.312617 30.0179C0.314273 30.8025 0.595008 31.3506 1.22594 31.8012C1.65998 32.1112 1.71505 32.1223 3.01158 32.158L4.34942 32.1948L4.32261 38.0996L4.2959 44.0043L2.74316 44.0569C0.94075 44.1178 0.637967 44.2314 0.24057 44.9949C0.0362305 45.3873 0 45.612 0 46.4852C0 47.624 0.0873672 47.9613 0.498324 48.4077C1.08195 49.0419 -0.784545 48.9994 26.5 48.9994C53.7845 48.9994 51.9181 49.0419 52.5017 48.4077C52.9126 47.9613 53 47.624 53 46.4852C53 45.612 52.9638 45.3873 52.7594 44.9949C52.362 44.2314 52.0592 44.1178 50.2568 44.0569L48.7041 44.0043L48.6768 40.6194L48.6494 37.2343L48.3781 37.0176C48.229 36.8984 48.0454 36.8008 47.9704 36.8008C47.6643 36.8008 47.3105 37.0588 47.2083 37.3567C47.1416 37.551 47.0996 38.9083 47.0996 40.8673V44.0612L45.0034 44.0328L42.9072 44.0043L42.8555 40.6917C42.8111 37.8477 42.7782 37.322 42.624 36.9755C42.1775 35.9726 41.2647 35.2346 40.1899 35.0077L39.6465 34.8929V33.5333V32.1737H43.3646H47.0827L47.117 33.4978C47.1493 34.7414 47.1662 34.8339 47.3958 35.0226C47.7126 35.283 48.1838 35.2787 48.4453 35.013C48.6301 34.8253 48.6523 34.6625 48.6523 33.4987V32.1948L49.9892 32.1579C51.285 32.1223 51.34 32.1112 51.7741 31.8012C52.4083 31.3483 52.6856 30.8033 52.6878 30.0063C52.6891 29.4841 52.6384 29.2873 52.4174 28.9564C52.0568 28.4165 52.0519 28.4131 50.231 27.4346L48.6523 26.5863V25.0257V23.4651L50.1446 23.4289C51.6105 23.3934 51.6448 23.3872 52.0763 23.0773C52.681 22.6432 52.9488 22.0868 52.9464 21.2696C52.9434 20.2349 52.6668 19.9269 50.7744 18.851C48.6927 17.6674 47.9319 17.13 47.2265 16.3451C46.4175 15.4448 46.0506 14.7901 45.2368 12.7958L44.5404 11.089L45.1212 10.9773C46.4765 10.7169 47.2031 9.87437 47.2031 8.56322C47.2031 7.88494 47.0248 7.46755 46.4948 6.90568C45.8136 6.18343 46.0149 6.199 37.3503 6.199H29.6055V5.20681C29.6055 4.66113 29.5559 4.08138 29.4953 3.91859C29.2571 3.27805 28.3669 2.63111 27.7163 2.62585L27.4316 2.62353V1.56719C27.4316 0.58573 27.4136 0.492452 27.1775 0.252686C26.8515 -0.0785705 26.4024 -0.084775 26.1039 0.237858ZM27.9285 4.32714C28.0052 4.40506 28.0527 4.78753 28.0527 5.32616V6.199H26.6035H25.1543V5.36518C25.1543 4.2205 25.1792 4.20094 26.6419 4.20094C27.4079 4.20094 27.8466 4.24396 27.9285 4.32714ZM45.3776 7.99441C45.7308 8.27666 45.7594 8.90541 45.4327 9.20607C45.2295 9.39304 44.9669 9.40987 41.4906 9.45898C37.9557 9.50893 37.7588 9.52197 37.6194 9.71568C37.4145 10.0007 37.4365 10.4419 37.6704 10.7355C37.8659 10.9812 37.8947 10.9843 40.3664 11.0364L42.8648 11.089L43.7381 13.2388C44.6971 15.5994 45.2064 16.4778 46.2625 17.5925C47.158 18.5378 47.5506 18.8199 49.584 19.9779C50.5234 20.5128 51.3263 21.0032 51.3681 21.0675C51.4929 21.2595 51.4578 21.5267 51.2846 21.7027C51.1433 21.8462 50.6746 21.8679 47.7203 21.8679C44.3501 21.8679 44.318 21.8658 44.2493 21.646C44.1356 21.2823 43.4545 20.5869 43.0107 20.3816C42.5058 20.1479 41.5679 20.1274 41.0691 20.3392C40.5526 20.5585 40.084 20.9883 39.8469 21.4606L39.6422 21.8679H38.1042H36.5662L36.4424 21.5645C36.3744 21.3976 36.1707 21.1065 35.9899 20.9176C34.9112 19.7909 33.0596 19.9855 32.1982 21.3159L31.8409 21.8679H30.3091C29.1195 21.8679 28.7773 21.8373 28.7773 21.7309C28.7773 21.6555 28.636 21.3987 28.4634 21.1602C27.7833 20.2207 26.4517 19.9161 25.385 20.456C24.8702 20.7165 24.2227 21.4269 24.2227 21.7309C24.2227 21.8373 23.8795 21.8679 22.6853 21.8679H21.1481L20.8331 21.3531C20.3014 20.4841 19.2306 20.0283 18.1877 20.2271C17.6302 20.3333 16.9307 20.8662 16.6545 21.395L16.4075 21.8679H14.8826H13.3578L13.1531 21.4606C12.916 20.9883 12.4474 20.5585 11.9309 20.3392C11.4321 20.1274 10.4942 20.1479 9.98926 20.3816C9.54549 20.5869 8.86435 21.2823 8.75069 21.646C8.68196 21.8658 8.64987 21.8679 5.27971 21.8679C2.32538 21.8679 1.85666 21.8462 1.71536 21.7027C1.54218 21.5267 1.50729 21.2603 1.63192 21.0657C1.67374 21.0005 2.46905 20.5164 3.39925 19.99C5.40113 18.8572 5.83228 18.5476 6.74094 17.5906C7.7645 16.5127 8.32866 15.5361 9.27935 13.1962L10.1355 11.089L22.5191 11.0364L34.9027 10.9838L35.1526 10.6887C35.4583 10.3276 35.4671 10.0968 35.1887 9.73724L34.975 9.46129L21.3802 9.43385C8.17691 9.40724 7.7791 9.40062 7.56751 9.20607C7.24061 8.90552 7.26907 8.27666 7.62237 7.99441L7.89514 7.77641H26.5H45.1049L45.3776 7.99441ZM11.6502 22.021C11.9959 22.3721 11.9959 22.9412 11.6502 23.2923C11.0831 23.8685 10.1031 23.4659 10.1031 22.6566C10.1031 21.8474 11.0831 21.4448 11.6502 22.021ZM19.3548 21.9705C19.6376 22.2578 19.7153 22.6549 19.562 23.0308C19.4059 23.4138 19.1792 23.5505 18.7006 23.5505C18.4258 23.5505 18.2773 23.4741 18.0727 23.2269C17.9253 23.049 17.8047 22.7924 17.8047 22.6566C17.8047 22.5209 17.9253 22.2643 18.0727 22.0864C18.2878 21.8266 18.4205 21.7628 18.7455 21.7628C19.0106 21.7628 19.221 21.8345 19.3548 21.9705ZM27.1636 22.0864C27.5386 22.539 27.4851 23.0582 27.0266 23.4157C26.8148 23.5809 26.1852 23.5809 25.9734 23.4157C25.5149 23.0582 25.4614 22.539 25.8364 22.0864C26.0495 21.8289 26.1853 21.7628 26.5 21.7628C26.8147 21.7628 26.9505 21.8289 27.1636 22.0864ZM34.9273 22.0864C35.0747 22.2643 35.1953 22.5209 35.1953 22.6566C35.1953 22.7924 35.0747 23.049 34.9273 23.2269C34.4848 23.7612 33.6933 23.6569 33.438 23.0308C33.1748 22.3851 33.5755 21.7628 34.2545 21.7628C34.5795 21.7628 34.7122 21.8266 34.9273 22.0864ZM42.6511 22.0285C43.1972 22.6191 42.8015 23.5505 42.0046 23.5505C41.4694 23.5505 41.0957 23.183 41.0957 22.6566C41.0957 21.8425 42.1029 21.4357 42.6511 22.0285ZM8.79396 23.7489C9.12004 24.5486 10.0394 25.1219 11.0018 25.1256C11.9629 25.1293 12.7442 24.667 13.1531 23.8527L13.3578 23.4454H14.8831H16.4085L16.5465 23.7621C17.0746 24.9743 18.7289 25.4999 19.9268 24.8363C20.2802 24.6405 20.5577 24.3743 20.8018 23.9975L21.1591 23.4454H22.6909C23.9078 23.4454 24.2227 23.4745 24.2227 23.5873C24.2227 23.9013 24.8425 24.5827 25.3722 24.8508C26.4492 25.3961 27.807 25.0902 28.4763 24.1515C28.6418 23.9193 28.7773 23.6654 28.7773 23.5873C28.7773 23.4745 29.0922 23.4454 30.3091 23.4454H31.8409L32.1982 23.9975C32.9088 25.095 34.215 25.4465 35.3841 24.8545C35.8877 24.5996 36.541 23.8674 36.541 23.5579C36.541 23.483 37.0594 23.4454 38.0917 23.4454H39.6422L39.8469 23.8527C40.084 24.325 40.5526 24.7548 41.0691 24.9741C41.5679 25.1859 42.5058 25.1654 43.0107 24.9317C43.4545 24.7264 44.1356 24.031 44.2493 23.6674C44.3153 23.456 44.3853 23.4454 45.7091 23.4454H47.0996V24.865V26.2847H26.5H5.90039V24.865V23.4454H7.28533H8.67016L8.79396 23.7489ZM49.0386 28.565C51.0147 29.6159 51.1367 29.7033 51.1367 30.0681C51.1367 30.2674 51.0651 30.4175 50.9365 30.4874C50.8005 30.5614 44.3133 30.5963 30.6992 30.5963C10.8001 30.5963 10.6607 30.5978 10.4551 30.8066C10.1673 31.099 10.1884 31.5969 10.5022 31.9155C10.7449 32.1622 10.8141 32.1737 12.0549 32.1737H13.3535V33.5333V34.8929L12.8101 35.0077C11.7353 35.2346 10.8225 35.9726 10.376 36.9755C10.2218 37.322 10.1889 37.8477 10.1445 40.6917L10.0928 44.0043L7.99658 44.0328L5.90039 44.0612V38.1262V32.1913L7.152 32.1562C8.32152 32.1234 8.41644 32.1048 8.60122 31.8728C8.85731 31.5511 8.85172 31.2187 8.58424 30.8734L8.36976 30.5963H5.31677C3.41022 30.5963 2.18853 30.5554 2.06348 30.4874C1.77705 30.3317 1.79672 29.8036 2.09619 29.607C2.22434 29.5229 2.98125 29.0982 3.77832 28.6631L5.22754 27.8721L26.4722 27.867L47.7168 27.8621L49.0386 28.565ZM25.6719 33.5321V34.8904L25.1509 35.004C24.8643 35.0663 24.4567 35.2083 24.2451 35.3195C23.7471 35.581 23.0671 36.3065 22.7584 36.9059C22.5195 37.3697 22.514 37.446 22.4834 40.718L22.4521 44.0569H20.3421H18.2321L18.1995 40.7706C18.1688 37.6625 18.1549 37.4577 17.9433 36.9926C17.4733 35.9595 16.4299 35.1441 15.3462 34.9629L14.9062 34.8894V33.5315V32.1737H20.2891H25.6719V33.5321ZM38.0937 33.5271V34.8805L37.4901 35.0012C36.4572 35.2076 35.5187 35.9789 35.051 37.0057C34.8467 37.4544 34.8309 37.6897 34.8005 40.7706L34.7679 44.0569H32.6579H30.5479L30.5166 40.718C30.486 37.446 30.4805 37.3697 30.2416 36.9059C29.9329 36.3065 29.2529 35.581 28.7549 35.3195C28.5433 35.2083 28.1356 35.0663 27.8491 35.004L27.3281 34.8904V33.5321V32.1737H32.7109H38.0937V33.5271ZM15.5011 36.647C16.0143 36.8649 16.2451 37.0891 16.4713 37.5895C16.6416 37.9663 16.6617 38.3255 16.6637 41.0335L16.666 44.0569H14.1816H11.6973V40.9426C11.6973 37.9336 11.7049 37.8146 11.9239 37.4188C12.1616 36.989 12.4821 36.7238 12.9306 36.5858C13.4244 36.4338 15.0921 36.4734 15.5011 36.647ZM27.8975 36.684C28.3765 36.9087 28.717 37.2542 28.8739 37.6752C28.9429 37.86 28.9844 39.114 28.9844 41.014V44.0569H26.5H24.0156V41.014C24.0156 39.114 24.0571 37.86 24.1261 37.6752C24.4367 36.8422 25.1424 36.4899 26.5 36.4899C27.2375 36.4899 27.5869 36.5384 27.8975 36.684ZM40.5028 36.7991C40.709 36.9426 40.9732 37.233 41.0902 37.4442C41.2912 37.8077 41.3027 37.9963 41.3027 40.9426V44.0569H38.8184H36.334V41.0564C36.334 38.5942 36.3626 37.9865 36.4932 37.6688C36.8837 36.7196 37.4237 36.4677 38.9815 36.5083C40.0056 36.535 40.168 36.566 40.5028 36.7991ZM51.3955 46.5281V47.3694H26.5H1.60449L1.57354 46.6437C1.55646 46.2446 1.56671 45.8541 1.59621 45.7759C1.64114 45.657 5.70795 45.6382 26.5227 45.6603L51.3955 45.6868V46.5281Z" fill="#172568"/>
</svg>
