<svg width="90" height="90" viewBox="0 0 90 90" fill="none" xmlns="http://www.w3.org/2000/svg">
<g style="mix-blend-mode:multiply" clip-path="url(#clip0_653_944)">
<rect width="90" height="90" fill="white"/>
<path d="M62.1997 6C63.675 6.06509 65.1568 6.06184 66.6224 6.2083C70.7084 6.62165 73.8995 10.127 73.9669 14.3157C74.0246 17.974 73.9893 21.6356 73.9893 25.2938C73.9893 52.5356 73.9925 79.7775 73.9861 107.019C73.9861 111.644 71.5198 114.909 67.3344 115.911C66.5807 116.09 65.8239 116.058 65.067 116.061C59.2299 116.084 53.3928 116.1 47.5558 116.119C46.9977 116.103 46.4397 116.074 45.8784 116.074C37.482 116.071 29.0856 116.08 20.6892 116.067C15.5738 116.061 12.0234 112.468 12.0106 107.254C11.9914 98.837 12.0042 90.4236 12.0042 82.0069C12.0042 59.7285 12.001 37.4469 12.0074 15.1685C12.0074 10.6965 14.3551 7.45485 18.3287 6.3808C19.3037 6.11717 20.3012 6.08788 21.3018 6.08788C34.416 6.07811 47.5301 6.06835 60.6475 6.05533C61.1638 6.05533 61.6802 6.01953 62.1997 6ZM71.5102 17.7429C71.5198 16.6461 71.5583 15.546 71.5294 14.4492C71.4428 11.2368 68.906 8.67862 65.7341 8.67536C50.5801 8.65909 35.4262 8.66234 20.2691 8.67536C17.5109 8.67862 15.33 10.5045 14.6565 13.2547C14.2941 14.7421 14.5154 16.2458 14.493 17.7429C14.4673 18.2279 14.4192 18.7128 14.4192 19.1978C14.416 47.1231 14.416 75.0451 14.416 102.97C14.416 103.416 14.4384 103.862 14.4513 104.308C14.4545 105.363 14.4545 106.42 14.4641 107.475C14.4962 110.889 16.9978 113.545 20.3557 113.548C35.4936 113.577 50.6282 113.574 65.7661 113.548C68.8931 113.542 71.4589 110.886 71.5294 107.716C71.5551 106.58 71.5423 105.441 71.5455 104.305C71.5583 104.022 71.5807 103.739 71.5807 103.455C71.5839 75.2469 71.5839 47.0385 71.5807 18.8268C71.5839 18.472 71.5358 18.1075 71.5102 17.7429Z" fill="#00ACF5"/>
<path d="M72.1182 17.1053C52.7108 17.1053 33.3034 17.1053 13.896 17.1053C13.9222 15.579 13.693 14.0462 14.0631 12.5299C14.7475 9.7262 16.9778 7.86483 19.7942 7.86152C35.2684 7.84824 50.7425 7.84824 66.22 7.86152C69.4622 7.86483 72.0494 10.4694 72.1378 13.7475C72.1673 14.869 72.1247 15.9871 72.1182 17.1053ZM42.8827 13.2532C44.1861 13.2532 45.4895 13.2498 46.7962 13.2532C47.651 13.2565 48.4501 13.0309 48.4304 12.0255C48.4141 11.1197 47.7067 10.8742 46.8585 10.8875C44.2909 10.9207 41.7233 10.9207 39.1558 10.8875C38.3043 10.8775 37.6002 11.1197 37.5805 12.0255C37.5609 13.0309 38.36 13.2565 39.2147 13.2532C40.4395 13.2498 41.6611 13.2532 42.8827 13.2532ZM52.7632 10.9074C52.3276 10.9671 51.8986 11.2856 51.8855 12.0521C51.8724 12.8384 52.344 13.2034 53.0088 13.2134C53.6998 13.2233 54.1649 12.7488 54.1616 12.0521C54.1551 11.3752 53.785 10.8908 52.7632 10.9074Z" fill="#00ACF5"/>
<path d="M42.8601 59.6098C35.978 59.6098 29.0958 59.6144 22.2104 59.6098C20.237 59.6098 19.4073 58.4848 19.4073 55.7801C19.4007 46.371 19.4007 36.962 19.4073 27.5529C19.4073 24.8069 20.2601 23.6267 22.2864 23.5992C24.6367 23.567 26.9836 23.59 29.3338 23.59C40.5462 23.59 51.7553 23.59 62.9677 23.5946C63.4999 23.5946 64.0288 23.5716 64.561 23.7782C65.7444 24.2375 66.3493 25.2247 66.3956 26.9789C66.6468 36.3742 66.5939 45.7741 66.5873 55.1739C66.584 58.4159 65.6749 59.6695 63.3875 59.6695C56.545 59.6741 49.7026 59.6695 42.8601 59.6695C42.8601 59.6512 42.8601 59.6282 42.8601 59.6098ZM33.6046 40.7182C33.6046 40.6999 33.6046 40.6769 33.6046 40.6585C36.1201 40.6585 38.6323 40.6448 41.1478 40.6677C42.0965 40.6769 43.0089 40.4243 43.0551 38.8906C43.1014 37.3018 42.1461 37.0125 41.2272 37.0079C36.1995 36.9666 31.1684 36.9436 26.1407 36.9436C25.2118 36.9436 24.3094 37.2834 24.3425 38.8768C24.3755 40.4198 25.2184 40.7366 26.187 40.7274C28.6595 40.7045 31.1321 40.7182 33.6046 40.7182ZM33.6443 47.3032C33.6443 47.2894 33.6443 47.2757 33.6443 47.2619C36.1994 47.2619 38.7546 47.2343 41.3065 47.2757C42.2585 47.294 43.0419 46.9313 43.0353 45.4939C43.0254 44.1714 42.2883 43.7903 41.3759 43.7949C36.2656 43.8133 31.1585 43.7903 26.0481 43.7628C25.1193 43.7582 24.3226 44.0658 24.3458 45.572C24.3689 47.0782 25.1887 47.3216 26.1043 47.3124C28.6198 47.2894 31.1321 47.3032 33.6443 47.3032ZM26.9869 32.4939V32.4893C27.4794 32.4893 27.9753 32.5123 28.4678 32.4847C29.1851 32.4388 29.671 31.8327 29.7305 30.9189C29.7933 29.9729 29.3239 29.206 28.6496 29.1142C27.5918 28.9672 26.5109 28.9351 25.4531 29.0637C24.8119 29.1417 24.3061 29.8305 24.3524 30.8362C24.3987 31.8602 24.7986 32.5352 25.6283 32.4985C26.0812 32.4801 26.534 32.4939 26.9869 32.4939Z" fill="#172568"/>
<path d="M55.4215 63.3932C58.5385 63.3932 61.6555 63.3843 64.7725 63.3976C66.1293 63.4021 66.5694 63.9574 66.5794 65.7657C66.6027 69.7065 66.5994 73.6473 66.5794 77.5837C66.5694 79.3653 66.096 80.0139 64.7759 80.0184C58.5418 80.0362 52.3078 80.0228 46.077 80.0317C44.9603 80.0317 44.3835 79.3875 44.3902 77.8281C44.4102 73.7228 44.4169 69.6132 44.3869 65.508C44.3769 63.9174 44.9302 63.3576 46.0704 63.3754C49.1874 63.4198 52.3044 63.3932 55.4215 63.3932Z" fill="#00ACF5"/>
<path d="M30.6438 63.3779C33.6806 63.3779 36.7207 63.3735 39.7575 63.3779C41.3678 63.3824 41.5983 63.6766 41.605 65.754C41.6117 69.7038 41.615 73.6535 41.605 77.6077C41.6016 79.4087 41.184 80.0105 39.8176 80.015C33.6572 80.0373 27.5001 80.0373 21.3396 80.015C19.8496 80.0105 19.4287 79.4132 19.4187 77.3759C19.3953 73.5376 19.3986 69.6993 19.4187 65.8565C19.4287 63.9218 19.8496 63.3868 21.2828 63.3824C24.4031 63.369 27.5235 63.3779 30.6438 63.3779Z" fill="#018BC6"/>
<path d="M55.3926 101.308C52.4109 101.308 49.4326 101.313 46.4509 101.308C44.5776 101.304 44.3889 101.042 44.3889 98.5249C44.3889 94.7029 44.3822 90.8764 44.3923 87.0544C44.399 85.1812 44.773 84.6707 46.1712 84.6662C52.384 84.6529 58.5967 84.6529 64.8061 84.6662C66.2953 84.6707 66.5884 85.0658 66.5918 86.9834C66.5985 90.9741 66.5952 94.9604 66.5918 98.951C66.5884 100.886 66.2987 101.295 64.8364 101.304C61.6896 101.321 58.5395 101.308 55.3926 101.308Z" fill="#018BC6"/>
<path d="M30.5186 84.6592C33.5789 84.6592 36.6392 84.6502 39.6961 84.6636C41.2733 84.6681 41.6029 85.1138 41.6063 87.2132C41.613 91.109 41.613 95.0047 41.6063 98.9004C41.6029 100.79 41.2397 101.303 39.8373 101.303C33.6361 101.316 27.4314 101.316 21.2301 101.303C19.7101 101.298 19.4108 100.884 19.4074 98.8336C19.4007 94.9378 19.4007 91.0421 19.4074 87.1464C19.4108 85.0336 19.6966 84.6636 21.3411 84.6592C24.398 84.6547 27.4583 84.6592 30.5186 84.6592Z" fill="#00ACF5"/>
</g>
<defs>
<clipPath id="clip0_653_944">
<rect width="90" height="90" fill="white"/>
</clipPath>
</defs>
</svg>
