<svg width="19" height="18" viewBox="0 0 19 18" fill="none" xmlns="http://www.w3.org/2000/svg">
<path fill-rule="evenodd" clip-rule="evenodd" d="M13.7859 0H5.72091C2.97924 0.00275511 0.757213 2.22433 0.753906 4.966V13.032C0.756111 15.7744 2.97846 17.9972 5.72091 18H13.7859C16.5285 17.9972 18.7512 15.7746 18.7539 13.032V4.966C18.75 2.22417 16.5277 0.002754 13.7859 0V0ZM17.1576 13.0332C17.1554 14.8936 15.648 16.4014 13.7876 16.4042H5.72156C3.86111 16.4014 2.35377 14.8936 2.35156 13.0332V4.96717C2.35377 3.10688 3.86128 1.59937 5.72156 1.59717H13.7866C15.6472 1.59882 17.1554 3.10649 17.1576 4.96717V13.0332V13.0332V13.0332ZM9.75832 4.36184C7.88215 4.36063 6.19005 5.48987 5.47123 7.22287C4.75241 8.95588 5.14848 10.9513 6.4747 12.2783C7.80092 13.6054 9.79604 14.0028 11.5295 13.2851C13.263 12.5674 14.3933 10.876 14.3933 8.99984C14.3911 6.4391 12.3161 4.3636 9.75532 4.36084L9.75832 4.36184ZM9.75593 12.0411C8.52587 12.0411 7.41695 11.3 6.94632 10.1636C6.47569 9.02712 6.73605 7.71905 7.60597 6.84941C8.4759 5.97977 9.78405 5.71984 10.9204 6.19084C12.0567 6.66185 12.7973 7.77101 12.7969 9.00107C12.7942 10.6803 11.4321 12.0401 9.75293 12.0401L9.75593 12.0411ZM14.5892 3.00881C14.0316 3.00966 13.5523 3.40419 13.4442 3.9512C13.3361 4.49821 13.6294 5.04541 14.1447 5.25827C14.6601 5.47114 15.254 5.2904 15.5635 4.82656C15.8729 4.36271 15.8117 3.7449 15.4172 3.35081C15.1964 3.13112 14.8977 3.0078 14.5862 3.00781L14.5892 3.00881Z" fill="white"/>
</svg>
