<svg width="90" height="90" viewBox="0 0 90 90" fill="none" xmlns="http://www.w3.org/2000/svg">
<g style="mix-blend-mode:multiply">
<rect width="90" height="90" fill="white"/>
<rect y="6" width="80" height="77" rx="3" fill="#00ACF5"/>
<rect x="4" y="10" width="51" height="44" rx="3" fill="white"/>
<rect x="4" y="57" width="26" height="22" rx="3" fill="#172568"/>
<rect x="35" y="57" width="25" height="22" rx="3" fill="#172568"/>
<rect x="65" y="57" width="25" height="22" rx="3" fill="#172568"/>
<path d="M11.7223 27.7566L29.7106 45.4513L47.239 27.841L42.6587 23.3354L16.1925 23.2586L11.7223 27.7566Z" fill="#172568"/>
<path d="M67.0001 13.9946C65.0311 13.9946 63.062 13.9962 61.0917 13.9929C60.8688 13.9929 60.646 14.0195 60.428 13.8784C60.1583 13.7025 60.0105 13.4104 60.0007 13.0354C59.9884 12.6205 60.1435 12.3068 60.4341 12.116C60.6706 11.9617 60.9156 12.0065 61.1595 12.0048C65.0569 12.0015 68.9544 12.0032 72.8519 12.0032C72.975 12.0032 73.0982 11.9965 73.2213 12.0065C73.6696 12.0446 73.986 12.3533 73.9996 12.9624C74.0131 13.6179 73.6917 13.968 73.2152 13.9863C72.5797 14.0112 71.9431 13.9946 71.3077 13.9946C69.8718 13.9962 68.436 13.9946 67.0001 13.9946Z" fill="#172568"/>
<path d="M65.5001 19.9946C63.953 19.9946 62.4059 19.9962 60.8578 19.9929C60.6827 19.9929 60.5075 20.0195 60.3363 19.8784C60.1244 19.7025 60.0083 19.4104 60.0005 19.0354C59.9909 18.6205 60.1128 18.3068 60.3411 18.116C60.5269 17.9617 60.7194 18.0065 60.911 18.0048C63.9733 18.0015 67.0356 18.0032 70.0979 18.0032C70.1947 18.0032 70.2914 17.9965 70.3882 18.0065C70.7404 18.0446 70.989 18.3533 70.9997 18.9624C71.0103 19.6179 70.7578 19.968 70.3833 19.9863C69.8841 20.0112 69.3839 19.9946 68.8846 19.9946C67.7564 19.9962 66.6283 19.9946 65.5001 19.9946Z" fill="#172568"/>
<path d="M67.0001 25.9946C65.0311 25.9946 63.062 25.9962 61.0917 25.9929C60.8688 25.9929 60.646 26.0195 60.428 25.8784C60.1583 25.7025 60.0105 25.4104 60.0007 25.0354C59.9884 24.6205 60.1435 24.3068 60.4341 24.116C60.6706 23.9617 60.9156 24.0065 61.1595 24.0048C65.0569 24.0015 68.9544 24.0032 72.8519 24.0032C72.975 24.0032 73.0982 23.9965 73.2213 24.0065C73.6696 24.0446 73.986 24.3533 73.9996 24.9624C74.0131 25.6179 73.6917 25.968 73.2152 25.9863C72.5797 26.0112 71.9431 25.9946 71.3077 25.9946C69.8718 25.9962 68.436 25.9946 67.0001 25.9946Z" fill="white"/>
<path d="M67.0001 31.9946C65.0311 31.9946 63.062 31.9962 61.0917 31.9929C60.8688 31.9929 60.646 32.0195 60.428 31.8784C60.1583 31.7025 60.0105 31.4104 60.0007 31.0354C59.9884 30.6205 60.1435 30.3068 60.4341 30.116C60.6706 29.9617 60.9156 30.0065 61.1595 30.0048C65.0569 30.0015 68.9544 30.0032 72.8519 30.0032C72.975 30.0032 73.0982 29.9965 73.2213 30.0065C73.6696 30.0446 73.986 30.3533 73.9996 30.9624C74.0131 31.6179 73.6917 31.968 73.2152 31.9863C72.5797 32.0112 71.9431 31.9946 71.3077 31.9946C69.8718 31.9962 68.436 31.9946 67.0001 31.9946Z" fill="white"/>
<path d="M67.0001 37.9946C65.0311 37.9946 63.062 37.9962 61.0917 37.9929C60.8688 37.9929 60.646 38.0195 60.428 37.8784C60.1583 37.7025 60.0105 37.4104 60.0007 37.0354C59.9884 36.6205 60.1435 36.3068 60.4341 36.116C60.6706 35.9617 60.9156 36.0065 61.1595 36.0048C65.0569 36.0015 68.9544 36.0032 72.8519 36.0032C72.975 36.0032 73.0982 35.9965 73.2213 36.0065C73.6696 36.0446 73.986 36.3533 73.9996 36.9624C74.0131 37.6179 73.6917 37.968 73.2152 37.9863C72.5797 38.0112 71.9431 37.9946 71.3077 37.9946C69.8718 37.9962 68.436 37.9946 67.0001 37.9946Z" fill="white"/>
<path d="M67.0001 43.9946C65.0311 43.9946 63.062 43.9962 61.0917 43.9929C60.8688 43.9929 60.646 44.0195 60.428 43.8784C60.1583 43.7025 60.0105 43.4104 60.0007 43.0354C59.9884 42.6205 60.1435 42.3068 60.4341 42.116C60.6706 41.9617 60.9156 42.0065 61.1595 42.0048C65.0569 42.0015 68.9544 42.0032 72.8519 42.0032C72.975 42.0032 73.0982 41.9965 73.2213 42.0065C73.6696 42.0446 73.986 42.3533 73.9996 42.9624C74.0131 43.6179 73.6917 43.968 73.2152 43.9863C72.5797 44.0112 71.9431 43.9946 71.3077 43.9946C69.8718 43.9962 68.436 43.9946 67.0001 43.9946Z" fill="white"/>
<path d="M67.0001 49.9946C65.0311 49.9946 63.062 49.9962 61.0917 49.9929C60.8688 49.9929 60.646 50.0195 60.428 49.8784C60.1583 49.7025 60.0105 49.4104 60.0007 49.0354C59.9884 48.6205 60.1435 48.3068 60.4341 48.116C60.6706 47.9617 60.9156 48.0065 61.1595 48.0048C65.0569 48.0015 68.9544 48.0032 72.8519 48.0032C72.975 48.0032 73.0982 47.9965 73.2213 48.0065C73.6696 48.0446 73.986 48.3533 73.9996 48.9624C74.0131 49.6179 73.6917 49.968 73.2152 49.9863C72.5797 50.0112 71.9431 49.9946 71.3077 49.9946C69.8718 49.9962 68.436 49.9946 67.0001 49.9946Z" fill="white"/>
<path d="M78 61L82.9497 63.0503L85 68L82.9497 72.9497L78 75L73.0503 72.9497L71 68L73.0503 63.0503L78 61Z" fill="white"/>
<path fill-rule="evenodd" clip-rule="evenodd" d="M21.8674 62.2827L20.2652 60.6684L20.2654 60.668H20.2648H20.2647H17.2697H17.2691H14.3296H14.329L12.6641 62.284V74.0845L14.2831 75.6526L14.2754 75.671H17.2717H20.2104L20.2145 75.6812L20.2262 75.6698H20.2366L21.2774 74.6403L21.866 74.0638L21.8393 74.0463V62.3015L21.8674 62.2827Z" fill="white"/>
<path d="M44.7859 62L47.5482 66.1489L50.2463 62L54.2934 63.6288L55 68.0544L47.5482 75L40 68.0544L40.7388 63.6288L44.7859 62Z" fill="white"/>
</g>
</svg>
