<svg xmlns="http://www.w3.org/2000/svg" width="24" height="24" fill="#fff" xmlns:v="https://vecta.io/nano"><path d="M21.553 3.999c-.091-.009-.183-.009-.273 0H2.613a1.36 1.36 0 0 0-.353.053l9.633 9.593 9.66-9.647zm.987.927l-9.707 9.667c-.25.248-.588.388-.94.388a1.33 1.33 0 0 1-.94-.388L1.333 5c-.03.109-.045.221-.047.333v13.333a1.33 1.33 0 0 0 .391.943c.251.25.589.39.943.39h18.667c.354 0 .693-.14.943-.39s.39-.589.39-.943V5.332a1.32 1.32 0 0 0-.08-.407zM3.534 18.666h-.927v-.953l4.847-4.807.94.94-4.86 4.82zm17.74 0h-.933l-4.86-4.82.94-.94 4.847 4.807.007.953z"/></svg>