<svg width="54" height="54" viewBox="0 0 54 54" fill="none" xmlns="http://www.w3.org/2000/svg">
<path d="M27 54C41.8926 54 54 41.8926 54 27C54 12.1074 41.8926 0 27 0C12.1074 0 0 12.1074 0 27C0 41.8926 12.1074 54 27 54ZM17.6779 20.6337C16.8821 19.8379 16.8821 18.5306 17.6779 17.6778C18.076 17.2797 18.6442 17.0525 19.1557 17.0525C19.6672 17.0525 20.2358 17.2797 20.6335 17.6778L27.0001 24.044L33.3663 17.6778C33.7644 17.2797 34.3326 17.0525 34.8441 17.0525C35.3556 17.0525 35.9242 17.2797 36.3219 17.6778C37.1177 18.4736 37.1177 19.7808 36.3219 20.6337L29.9561 26.9999L36.3223 33.3661C37.1181 34.1619 37.1181 35.4692 36.3223 36.322C35.5265 37.1178 34.2193 37.1178 33.3664 36.322L27.0002 29.9558L20.634 36.322C19.8382 37.1178 18.5309 37.1178 17.6781 36.322C16.8823 35.5262 16.8823 34.2189 17.6781 33.3661L24.0443 26.9999L17.6779 20.6337Z" fill="url(#paint0_linear_307_842)"/>
<defs>
<linearGradient id="paint0_linear_307_842" x1="1" y1="-1.6314e-06" x2="58" y2="51.5" gradientUnits="userSpaceOnUse">
<stop stop-color="#FF9F99"/>
<stop offset="1" stop-color="#FF3D31"/>
</linearGradient>
</defs>
</svg>
