<svg width="192" height="192" viewBox="0 0 192 192" fill="none" xmlns="http://www.w3.org/2000/svg">
<path d="M80.0781 143.64V144.28C80.0781 145.31 80.7981 146.56 81.6881 147.07L116.238 167.02C117.128 167.53 118.568 167.53 119.458 167.02L176.678 133.99C177.568 133.48 178.288 132.23 178.288 131.2V130.56C178.288 129.53 177.568 128.28 176.678 127.77L142.128 107.82C141.238 107.31 139.798 107.31 138.908 107.82L81.6881 140.85C80.7981 141.37 80.0781 142.62 80.0781 143.64Z" fill="#00DFBF"/>
<path d="M80.0781 143.64V144.28C80.0781 145.31 80.7981 146.56 81.6881 147.07L116.238 167.02C117.128 167.53 118.568 167.53 119.458 167.02L176.678 133.99C177.568 133.48 178.288 132.23 178.288 131.2V130.56C178.288 129.53 177.568 128.28 176.678 127.77L142.128 107.82C141.238 107.31 139.798 107.31 138.908 107.82L81.6881 140.85C80.7981 141.37 80.0781 142.62 80.0781 143.64Z" fill="#00DFBF"/>
<path opacity="0.3" d="M176.679 127.77L142.129 107.82C141.239 107.31 139.799 107.31 138.909 107.82L117.859 119.98V167.41C118.439 167.41 119.029 167.28 119.469 167.02L176.689 133.99C177.579 133.48 178.299 132.23 178.299 131.2V130.56C178.289 129.53 177.569 128.28 176.679 127.77Z" fill="white"/>
<path d="M176.679 127.77L142.129 107.82C141.239 107.31 139.799 107.31 138.909 107.82L117.859 119.98V167.41C118.439 167.41 119.029 167.28 119.469 167.02L176.689 133.99C177.579 133.48 178.299 132.23 178.299 131.2V130.56C178.289 129.53 177.569 128.28 176.679 127.77Z" fill="url(#paint0_linear_653_2685)"/>
<path opacity="0.3" d="M117.856 119.97L81.6959 140.85C80.8059 141.36 80.0859 142.61 80.0859 143.64V144.28C80.0859 145.31 80.8059 146.56 81.6959 147.07L116.246 167.02C116.686 167.28 117.276 167.4 117.856 167.41V119.97Z" fill="white"/>
<path d="M117.856 119.97L81.6959 140.85C80.8059 141.36 80.0859 142.61 80.0859 143.64V144.28C80.0859 145.31 80.8059 146.56 81.6959 147.07L116.246 167.02C116.686 167.28 117.276 167.4 117.856 167.41V119.97Z" fill="url(#paint1_linear_653_2685)"/>
<path d="M110.707 159.47L81.687 142.72C80.797 142.21 80.797 141.37 81.687 140.86L138.907 107.83C139.797 107.32 141.237 107.32 142.127 107.83L176.677 127.78C177.567 128.29 177.567 129.13 176.677 129.64L167.187 135.12L163.867 137.04L119.467 162.68C118.577 163.19 117.137 163.19 116.247 162.68L113.437 161.05L110.707 159.47Z" fill="#00DFBF"/>
<path d="M110.707 159.47L81.687 142.72C80.797 142.21 80.797 141.37 81.687 140.86L138.907 107.83C139.797 107.32 141.237 107.32 142.127 107.83L176.677 127.78C177.567 128.29 177.567 129.13 176.677 129.64L167.187 135.12L163.867 137.04L119.467 162.68C118.577 163.19 117.137 163.19 116.247 162.68L113.437 161.05L110.707 159.47Z" fill="#00ACF5"/>
<path opacity="0.15" d="M137.056 131.63L176.686 127.76L137.406 129.98L142.126 107.81C141.646 107.53 141.006 107.42 140.376 107.44L132.966 137.41L81.036 141.69C80.996 142.05 81.206 142.42 81.686 142.7L123.626 140.27L117.856 163.04L125.236 140.18L132.396 139.76C133.296 139.71 134.116 139.34 134.756 138.77V138.76C135.356 138.22 135.786 137.51 135.966 136.68L137.056 131.63Z" fill="black"/>
<path opacity="0.3" d="M93.4269 140.68L132.967 137.42L134.387 131.75L135.167 128.6L140.387 107.45C139.847 107.47 139.327 107.58 138.917 107.82L110.307 124.34L81.6969 140.86C81.2869 141.1 81.0769 141.4 81.0469 141.71L88.9769 141.06L93.4269 140.68Z" fill="white"/>
<path d="M133.977 103.09C137.587 101 143.447 101 147.067 103.09C150.677 105.18 150.677 108.56 147.067 110.65C143.457 112.74 137.597 112.74 133.977 110.65C130.357 108.56 130.357 105.17 133.977 103.09Z" fill="#FF9090"/>
<path d="M135.948 108.11C135.828 108.1 135.738 108.07 135.678 108.02C135.618 107.97 135.588 107.9 135.608 107.84L136.148 105.46C136.168 105.4 136.178 105.33 136.208 105.25C136.228 105.17 136.298 105.1 136.408 105.03L137.728 104.27C137.808 104.23 137.908 104.2 138.018 104.2C138.128 104.2 138.228 104.22 138.308 104.27L145.318 108.32C145.398 108.36 145.438 108.42 145.438 108.49C145.438 108.56 145.398 108.61 145.318 108.66L143.898 109.48C143.818 109.53 143.718 109.55 143.608 109.55C143.488 109.55 143.398 109.53 143.318 109.48L138.578 106.74L138.268 108.05C138.258 108.12 138.198 108.17 138.108 108.21C138.018 108.25 137.918 108.27 137.798 108.26L135.948 108.11Z" fill="#FAFAFA"/>
<path d="M102.638 79.5752L95.138 83.9073L87.6445 88.2323L93.4486 103.472C93.5818 103.822 93.8061 104.074 94.0725 104.236C94.8786 104.726 102.723 109.22 102.989 109.381C103.795 109.872 104.994 109.542 105.281 108.463L111.562 84.7204L102.638 79.5752Z" fill="#00DFBF"/>
<path d="M102.638 79.5752L95.138 83.9073L87.6445 88.2323L93.4486 103.472C93.5818 103.822 93.8061 104.074 94.0725 104.236C94.8786 104.726 102.723 109.22 102.989 109.381C103.795 109.872 104.994 109.542 105.281 108.463L111.562 84.7204L102.638 79.5752Z" fill="url(#paint2_linear_653_2685)"/>
<path d="M96.5625 93.3768L104.063 89.0448L111.563 84.7197L105.283 108.462C104.904 109.906 102.899 110.011 102.367 108.616L96.5625 93.3768Z" fill="#00ACF5"/>
<path d="M148.638 36.9136C148.638 33.9204 147.6 31.8104 145.918 30.808C144.313 29.8547 138.523 26.5461 136.925 25.6278C135.207 24.6394 132.845 24.7866 130.223 26.2937L53.543 70.5606V108.308L62.4594 113.447L139.14 69.1797C144.39 66.1515 148.645 58.7771 148.645 52.7207L148.638 36.9136Z" fill="#00DFBF"/>
<path d="M148.638 36.9136C148.638 33.9204 147.6 31.8104 145.918 30.808C144.313 29.8547 138.523 26.5461 136.925 25.6278C135.207 24.6394 132.845 24.7866 130.223 26.2937L53.543 70.5606V108.308L62.4594 113.447L139.14 69.1797C144.39 66.1515 148.645 58.7771 148.645 52.7207L148.638 36.9136Z" fill="url(#paint3_linear_653_2685)"/>
<path d="M139.133 69.1729C144.384 66.1447 148.639 58.7703 148.639 52.7139V36.9138C148.639 30.8503 144.384 28.3969 139.133 31.4251L62.4531 75.699V113.447L139.133 69.1729Z" fill="#00ACF5"/>
<path d="M67.1003 64.6508L67.0583 64.6298C67.0583 64.6298 67.0583 64.6298 67.0513 64.6298L56.5786 58.5804C56.5786 58.5804 56.5716 58.5804 56.5716 58.5733L56.5085 58.5453C51.6297 56.0708 45.1246 56.7368 38.1078 61.2581C24.0041 70.3358 13.23 91.2741 14.0432 108.027C14.4497 116.376 17.6252 122.194 22.49 124.718L22.532 124.739H22.539L33.0257 130.774C33.0257 130.774 33.0257 130.774 33.0327 130.774L33.0818 130.802C37.9606 133.284 44.4867 132.562 51.5176 128.033C65.6213 118.949 76.3953 98.0105 75.5752 81.2571C75.1756 72.9084 71.9651 67.1744 67.1003 64.6508Z" fill="url(#paint4_linear_653_2685)"/>
<path d="M51.516 128.041C65.6197 118.956 76.3937 98.0177 75.5736 81.2642C74.7605 64.5108 62.6686 58.2931 48.5648 67.3708C34.4611 76.4555 23.6871 97.3938 24.5002 114.147C25.3203 130.901 37.4122 137.118 51.516 128.041Z" fill="url(#paint5_linear_653_2685)"/>
<path d="M48.3835 96.1527C47.6615 96.1527 46.9745 95.9774 46.3576 95.6199C44.7033 94.6666 43.75 92.5216 43.75 89.7387C43.75 84.7197 46.8343 78.8595 50.6196 76.6725C52.4141 75.635 54.1806 75.5158 55.5896 76.329C57.2439 77.2823 58.1972 79.4273 58.1972 82.2102C58.1972 87.2292 55.1129 93.0894 51.3276 95.2765C50.3182 95.8583 49.3158 96.1527 48.3835 96.1527ZM53.5707 77.2052C52.8838 77.2052 52.1197 77.4365 51.3346 77.8922C47.9349 79.8549 45.166 85.1683 45.166 89.7387C45.166 92.0029 45.86 93.7063 47.0656 94.4072C48.026 94.961 49.2877 94.8348 50.6266 94.0638C54.0264 92.101 56.7952 86.7806 56.7952 82.2172C56.7952 79.953 56.1013 78.2497 54.8956 77.5557C54.496 77.3173 54.0544 77.2052 53.5707 77.2052Z" fill="white"/>
<path d="M38.1851 94.4566C37.9398 94.4566 37.7084 94.3304 37.5753 94.1061C37.379 93.7697 37.4982 93.3421 37.8346 93.1458L44.1154 89.5147C44.4519 89.3184 44.8795 89.4376 45.0757 89.7741C45.272 90.1105 45.1529 90.5381 44.8164 90.7344L38.5356 94.3655C38.4234 94.4286 38.3043 94.4566 38.1851 94.4566Z" fill="white"/>
<path d="M42.0321 110.931C41.934 110.931 41.8429 110.909 41.7517 110.874C41.5485 110.783 41.4013 110.608 41.3452 110.391L36.7818 90.8895C36.7608 90.7914 36.6766 90.4829 36.4874 90.4479L34.7209 90.1184C34.3424 90.0483 34.09 89.6768 34.1601 89.2983C34.2302 88.9197 34.5947 88.6744 34.9803 88.7375L36.7467 89.0669C37.4407 89.2001 37.9524 89.7469 38.1487 90.567L42.4948 109.15L58.4701 99.9251C58.9328 99.6588 59.3884 98.9157 59.5216 98.1937L62.5849 81.5665C62.69 80.9776 62.5568 80.6552 62.4797 80.5991C62.4657 80.5921 62.3816 80.5921 62.2414 80.6762L57.8533 83.2138C57.5168 83.41 57.0892 83.2909 56.8929 82.9544C56.6966 82.6179 56.8158 82.1903 57.1523 81.9941L61.5404 79.4565C62.1573 79.099 62.7952 79.099 63.2929 79.4495C63.9097 79.8841 64.1621 80.7673 63.9658 81.8188L60.9025 98.4461C60.6922 99.5816 59.9983 100.661 59.1781 101.138L42.3826 110.832C42.2775 110.895 42.1583 110.931 42.0321 110.931Z" fill="white"/>
<path d="M41.155 116.784C40.8395 116.784 40.5381 116.707 40.2717 116.545C39.5918 116.153 39.1992 115.312 39.1992 114.246C39.1992 112.459 40.2717 110.433 41.6386 109.641L58.4762 99.918C58.8126 99.7218 59.2402 99.8409 59.4365 100.177C59.6328 100.514 59.5136 100.941 59.1771 101.138L42.3396 110.86C41.3933 111.407 40.6012 112.956 40.6012 114.246C40.6012 114.884 40.7904 115.227 40.9727 115.333C41.176 115.452 41.4774 115.312 41.6386 115.22L59.6608 104.818C59.9973 104.622 60.4249 104.741 60.6212 105.077C60.8174 105.414 60.6983 105.841 60.3618 106.038L42.3396 116.44C41.933 116.671 41.5335 116.784 41.155 116.784Z" fill="white"/>
<path d="M43.5244 123.667C43.209 123.667 42.9076 123.59 42.6342 123.429C41.9472 123.029 41.5547 122.188 41.5547 121.115C41.5547 119.314 42.6342 117.274 44.0151 116.482C44.7512 116.061 45.4872 116.019 46.097 116.37C46.784 116.769 47.1765 117.61 47.1765 118.683C47.1765 120.485 46.097 122.524 44.7161 123.316C44.3095 123.555 43.903 123.667 43.5244 123.667ZM45.1928 117.54C45.0175 117.54 44.8283 117.632 44.7091 117.702C43.7558 118.248 42.9496 119.819 42.9496 121.122C42.9496 121.774 43.1459 122.118 43.3282 122.223C43.5385 122.342 43.8399 122.209 44.0081 122.111C44.9615 121.564 45.7676 119.994 45.7676 118.69C45.7676 118.045 45.5713 117.695 45.389 117.589C45.333 117.554 45.2629 117.54 45.1928 117.54Z" fill="white"/>
<path d="M55.3643 116.832C55.0488 116.832 54.7474 116.755 54.474 116.594C53.7871 116.194 53.3945 115.353 53.3945 114.28C53.3945 112.479 54.474 110.439 55.855 109.647C56.591 109.226 57.327 109.184 57.9369 109.535C58.6238 109.934 59.0164 110.776 59.0164 111.848C59.0164 113.65 57.9369 115.689 56.5559 116.482C56.1494 116.72 55.7428 116.832 55.3643 116.832ZM57.0326 110.705C56.8574 110.705 56.6681 110.797 56.5489 110.867C55.5956 111.413 54.7895 112.984 54.7895 114.287C54.7895 114.939 54.9858 115.283 55.168 115.388C55.3783 115.507 55.6867 115.374 55.848 115.276C56.8013 114.729 57.6074 113.159 57.6074 111.855C57.6074 111.21 57.4111 110.86 57.2289 110.754C57.1728 110.719 57.1027 110.705 57.0326 110.705Z" fill="white"/>
<path d="M48.525 118.199C48.2796 118.199 48.0483 118.073 47.9151 117.849C47.7188 117.512 47.838 117.084 48.1745 116.888L51.6864 114.862C52.0228 114.666 52.4504 114.785 52.6467 115.122C52.843 115.458 52.7238 115.886 52.3874 116.082L48.8754 118.108C48.7703 118.171 48.6441 118.199 48.525 118.199Z" fill="white"/>
<path d="M49.9476 90.6287C49.7724 90.6287 49.6042 90.5656 49.471 90.4464L47.375 88.5257C47.0876 88.2664 47.0736 87.8177 47.333 87.5374C47.5923 87.25 48.041 87.2359 48.3214 87.4953L49.7093 88.7641L53.4666 80.5276C53.6278 80.1771 54.0414 80.0228 54.3989 80.1841C54.7494 80.3453 54.9036 80.7589 54.7423 81.1164L50.5855 90.2291C50.4944 90.4324 50.3051 90.5796 50.0878 90.6217C50.0388 90.6217 49.9967 90.6287 49.9476 90.6287Z" fill="white"/>
<path d="M96.0591 71.8123C95.3801 72.2043 94.7566 72.3803 94.1885 72.3403C93.6203 72.3003 93.17 72.0523 92.8375 71.5963C92.5049 71.1323 92.3386 70.4883 92.3386 69.6643C92.3386 68.8483 92.5049 68.0203 92.8375 67.1803C93.17 66.3323 93.6203 65.5603 94.1885 64.8643C94.7566 64.1683 95.3801 63.6243 96.0591 63.2323C96.745 62.8363 97.3685 62.6603 97.9297 62.7043C98.4978 62.7443 98.9447 62.9983 99.2703 63.4663C99.6029 63.9223 99.7691 64.5583 99.7691 65.3743C99.7691 66.1983 99.6029 67.0343 99.2703 67.8823C98.9447 68.7183 98.4978 69.4843 97.9297 70.1803C97.3616 70.8763 96.738 71.4203 96.0591 71.8123ZM96.0591 70.3123C96.4956 70.0603 96.8801 69.7263 97.2126 69.3103C97.5452 68.8863 97.805 68.4083 97.992 67.8763C98.1791 67.3443 98.2726 66.7983 98.2726 66.2383C98.2726 65.6783 98.1791 65.2443 97.992 64.9363C97.805 64.6203 97.5452 64.4463 97.2126 64.4143C96.8801 64.3823 96.4956 64.4923 96.0591 64.7443C95.6226 64.9963 95.2346 65.3323 94.8951 65.7523C94.5626 66.1683 94.3028 66.6423 94.1157 67.1743C93.9287 67.6983 93.8351 68.2403 93.8351 68.8003C93.8351 69.3603 93.9287 69.7983 94.1157 70.1143C94.3028 70.4303 94.5626 70.6083 94.8951 70.6483C95.2346 70.6763 95.6226 70.5643 96.0591 70.3123ZM105.58 66.2314L103.98 63.8914L103.294 64.2874V67.5514L101.839 68.3914V60.0154L104.562 58.4434C105.123 58.1194 105.601 57.9594 105.996 57.9634C106.391 57.9594 106.685 58.0974 106.879 58.3774C107.08 58.6454 107.18 59.0194 107.18 59.4994C107.18 60.0514 107.042 60.6314 106.765 61.2394C106.488 61.8394 106.075 62.3814 105.528 62.8654L107.264 65.2594L105.58 66.2314ZM103.294 63.0274L104.51 62.3254C104.905 62.0974 105.199 61.8194 105.393 61.4914C105.587 61.1554 105.684 60.7914 105.684 60.3994C105.684 60.0154 105.587 59.7754 105.393 59.6794C105.199 59.5754 104.905 59.6374 104.51 59.8654L103.294 60.5674V63.0274ZM112.019 54.1376C112.781 53.6976 113.45 53.4836 114.025 53.4956C114.607 53.5036 115.054 53.7376 115.366 54.1976C115.684 54.6456 115.844 55.2896 115.844 56.1296C115.844 56.9696 115.684 57.7976 115.366 58.6136C115.054 59.4176 114.607 60.1596 114.025 60.8396C113.45 61.5156 112.781 62.0736 112.019 62.5136L109.484 63.9776V55.6016L112.019 54.1376ZM111.967 61.1156C112.73 60.6756 113.318 60.0956 113.734 59.3756C114.15 58.6556 114.358 57.8596 114.358 56.9876C114.358 56.1156 114.15 55.5556 113.734 55.3076C113.318 55.0516 112.73 55.1436 111.967 55.5836L110.939 56.1776V61.7096L111.967 61.1156ZM119.375 51.2468V53.3468L121.817 51.9368V53.2688L119.375 54.6788V56.8988L122.129 55.3088V56.6768L117.92 59.1068V50.7188L122.129 48.2888V49.6568L119.375 51.2468ZM128.18 53.1835L126.579 50.8435L125.893 51.2395V54.5035L124.438 55.3435V46.9675L127.161 45.3955C127.722 45.0715 128.2 44.9115 128.595 44.9155C128.99 44.9115 129.285 45.0495 129.479 45.3295C129.68 45.5975 129.78 45.9715 129.78 46.4515C129.78 47.0035 129.642 47.5835 129.364 48.1915C129.087 48.7915 128.675 49.3335 128.128 49.8175L129.863 52.2115L128.18 53.1835ZM125.893 49.9795L127.109 49.2775C127.504 49.0495 127.799 48.7715 127.993 48.4435C128.187 48.1075 128.284 47.7435 128.284 47.3515C128.284 46.9675 128.187 46.7275 127.993 46.6315C127.799 46.5275 127.504 46.5895 127.109 46.8175L125.893 47.5195V49.9795ZM85.2514 90.3721L82.3624 92.0401L81.8843 93.9121L80.3567 94.7941L82.9651 84.9001L84.6591 83.9221L87.2675 90.8041L85.7295 91.6921L85.2514 90.3721ZM84.8565 89.2561L83.8069 86.3581L82.7573 90.4681L84.8565 89.2561ZM94.5195 80.8332C94.5195 81.2812 94.426 81.7552 94.2389 82.2552C94.0588 82.7512 93.7713 83.2332 93.3764 83.7012C92.9884 84.1652 92.4965 84.5692 91.9006 84.9132L90.6848 85.6152V88.8312L89.2298 89.6712V81.2952L91.9006 79.7532C92.4618 79.4292 92.9399 79.2652 93.3348 79.2612C93.7297 79.2572 94.0241 79.3952 94.2181 79.6752C94.4191 79.9512 94.5195 80.3372 94.5195 80.8332ZM91.8383 83.5932C92.2401 83.3612 92.538 83.0852 92.732 82.7652C92.926 82.4372 93.023 82.0812 93.023 81.6972C93.023 80.8812 92.6281 80.7012 91.8383 81.1572L90.6848 81.8232V84.2592L91.8383 83.5932ZM101.829 76.6128C101.829 77.0608 101.736 77.5348 101.549 78.0348C101.369 78.5308 101.081 79.0128 100.686 79.4808C100.298 79.9448 99.8064 80.3488 99.2106 80.6928L97.9947 81.3948V84.6108L96.5398 85.4508V77.0748L99.2106 75.5328C99.7718 75.2088 100.25 75.0448 100.645 75.0408C101.04 75.0368 101.334 75.1748 101.528 75.4548C101.729 75.7308 101.829 76.1168 101.829 76.6128ZM99.1482 79.3728C99.5501 79.1408 99.848 78.8648 100.042 78.5448C100.236 78.2168 100.333 77.8608 100.333 77.4768C100.333 76.6608 99.938 76.4808 99.1482 76.9368L97.9947 77.6028V80.0388L99.1482 79.3728ZM107.591 79.0704L105.991 76.7304L105.305 77.1264V80.3904L103.85 81.2304V72.8544L106.572 71.2824C107.134 70.9584 107.612 70.7984 108.007 70.8024C108.402 70.7984 108.696 70.9364 108.89 71.2164C109.091 71.4844 109.191 71.8584 109.191 72.3384C109.191 72.8904 109.053 73.4704 108.776 74.0784C108.499 74.6784 108.086 75.2204 107.539 75.7044L109.274 78.0984L107.591 79.0704ZM105.305 75.8664L106.521 75.1644C106.915 74.9364 107.21 74.6584 107.404 74.3304C107.598 73.9944 107.695 73.6304 107.695 73.2384C107.695 72.8544 107.598 72.6144 107.404 72.5184C107.21 72.4144 106.915 72.4764 106.521 72.7044L105.305 73.4064V75.8664ZM114.862 74.9566C114.183 75.3486 113.559 75.5246 112.991 75.4846C112.423 75.4446 111.973 75.1966 111.64 74.7406C111.307 74.2766 111.141 73.6326 111.141 72.8086C111.141 71.9926 111.307 71.1646 111.64 70.3246C111.973 69.4766 112.423 68.7046 112.991 68.0086C113.559 67.3126 114.183 66.7686 114.862 66.3766C115.548 65.9806 116.171 65.8046 116.732 65.8486C117.3 65.8886 117.747 66.1426 118.073 66.6106C118.405 67.0666 118.572 67.7026 118.572 68.5186C118.572 69.3426 118.405 70.1786 118.073 71.0266C117.747 71.8626 117.3 72.6286 116.732 73.3246C116.164 74.0206 115.541 74.5646 114.862 74.9566ZM114.862 73.4566C115.298 73.2046 115.683 72.8706 116.015 72.4546C116.348 72.0306 116.608 71.5526 116.795 71.0206C116.982 70.4886 117.075 69.9426 117.075 69.3826C117.075 68.8226 116.982 68.3886 116.795 68.0806C116.608 67.7646 116.348 67.5906 116.015 67.5586C115.683 67.5266 115.298 67.6366 114.862 67.8886C114.425 68.1406 114.037 68.4766 113.698 68.8966C113.365 69.3126 113.105 69.7866 112.918 70.3186C112.731 70.8426 112.638 71.3846 112.638 71.9446C112.638 72.5046 112.731 72.9426 112.918 73.2586C113.105 73.5746 113.365 73.7526 113.698 73.7926C114.037 73.8206 114.425 73.7086 114.862 73.4566ZM127.157 59.3977L124.497 69.3097L122.73 70.3297L120.07 63.4897L121.629 62.5897L123.624 68.0977L125.609 60.2917L127.157 59.3977ZM130.472 58.8401V60.9401L132.914 59.5301V60.8621L130.472 62.2721V64.4921L133.226 62.9021V64.2701L129.017 66.7001V58.3121L133.226 55.8821V57.2501L130.472 58.8401ZM138.071 53.0967C138.833 52.6567 139.502 52.4427 140.077 52.4547C140.659 52.4627 141.106 52.6967 141.417 53.1567C141.736 53.6047 141.895 54.2487 141.895 55.0887C141.895 55.9287 141.736 56.7567 141.417 57.5727C141.106 58.3767 140.659 59.1187 140.077 59.7987C139.502 60.4747 138.833 61.0327 138.071 61.4727L135.535 62.9367V54.5607L138.071 53.0967ZM138.019 60.0747C138.781 59.6347 139.37 59.0547 139.786 58.3347C140.201 57.6147 140.409 56.8187 140.409 55.9467C140.409 55.0747 140.201 54.5147 139.786 54.2667C139.37 54.0107 138.781 54.1027 138.019 54.5427L136.99 55.1367V60.6687L138.019 60.0747Z" fill="white"/>
<defs>
<linearGradient id="paint0_linear_653_2685" x1="117.855" y1="137.422" x2="178.294" y2="137.422" gradientUnits="userSpaceOnUse">
<stop stop-color="#161242"/>
<stop offset="0.2458" stop-color="#103E75"/>
<stop offset="0.6064" stop-color="#0779B9"/>
<stop offset="0.8674" stop-color="#029EE5"/>
<stop offset="1" stop-color="#00ACF5"/>
</linearGradient>
<linearGradient id="paint1_linear_653_2685" x1="80.078" y1="143.692" x2="117.852" y2="143.692" gradientUnits="userSpaceOnUse">
<stop stop-color="#161242"/>
<stop offset="0.2458" stop-color="#103E75"/>
<stop offset="0.6064" stop-color="#0779B9"/>
<stop offset="0.8674" stop-color="#029EE5"/>
<stop offset="1" stop-color="#00ACF5"/>
</linearGradient>
<linearGradient id="paint2_linear_653_2685" x1="87.6459" y1="94.5877" x2="111.557" y2="94.5877" gradientUnits="userSpaceOnUse">
<stop stop-color="#161242"/>
<stop offset="0.0681" stop-color="#122F64"/>
<stop offset="0.1599" stop-color="#0D508A"/>
<stop offset="0.2586" stop-color="#096DAB"/>
<stop offset="0.364" stop-color="#0684C6"/>
<stop offset="0.4783" stop-color="#0396DB"/>
<stop offset="0.6063" stop-color="#01A2EA"/>
<stop offset="0.7589" stop-color="#00AAF2"/>
<stop offset="1" stop-color="#00ACF5"/>
</linearGradient>
<linearGradient id="paint3_linear_653_2685" x1="53.5396" y1="69.2216" x2="148.637" y2="69.2216" gradientUnits="userSpaceOnUse">
<stop stop-color="#161242"/>
<stop offset="0.0681" stop-color="#122F64"/>
<stop offset="0.1599" stop-color="#0D508A"/>
<stop offset="0.2586" stop-color="#096DAB"/>
<stop offset="0.364" stop-color="#0684C6"/>
<stop offset="0.4783" stop-color="#0396DB"/>
<stop offset="0.6063" stop-color="#01A2EA"/>
<stop offset="0.7589" stop-color="#00AAF2"/>
<stop offset="1" stop-color="#00ACF5"/>
</linearGradient>
<linearGradient id="paint4_linear_653_2685" x1="44.5707" y1="31.348" x2="110.634" y2="78.2458" gradientUnits="userSpaceOnUse">
<stop stop-color="#172568"/>
<stop offset="1" stop-color="#00ACF5"/>
</linearGradient>
<linearGradient id="paint5_linear_653_2685" x1="50.0373" y1="63.1963" x2="50.0373" y2="132.215" gradientUnits="userSpaceOnUse">
<stop stop-color="#00ACF5"/>
<stop offset="1" stop-color="#172568"/>
</linearGradient>
</defs>
</svg>
