<svg width="192" height="192" viewBox="0 0 192 192" fill="none" xmlns="http://www.w3.org/2000/svg">
<path d="M171.982 145.531C171.966 145.491 171.942 145.455 171.915 145.42C171.899 145.392 171.879 145.376 171.859 145.348C171.843 145.32 171.819 145.296 171.791 145.268C171.768 145.244 171.744 145.22 171.716 145.196C171.64 145.129 171.549 145.065 171.442 145.001L78.9452 91.4262C78.0991 90.9361 76.7248 90.9361 75.8787 91.4262L30.532 117.692C30.4645 117.731 30.4049 117.767 30.3493 117.807C30.3255 117.823 30.3056 117.839 30.2858 117.855C30.1745 117.947 30.0911 118.042 30.0276 118.146C30.0117 118.17 29.9958 118.194 29.9839 118.222C29.96 118.262 29.9442 118.301 29.9362 118.341C29.9283 118.373 29.9203 118.405 29.9124 118.433C29.9005 118.485 29.8965 118.536 29.8965 118.588C29.8965 118.624 29.9005 118.66 29.9044 118.696C29.9124 118.736 29.9203 118.776 29.9362 118.815C29.9481 118.855 29.968 118.895 29.9839 118.931C30.0832 119.126 30.2619 119.31 30.5281 119.465L123.025 173.04C123.287 173.191 123.605 173.295 123.938 173.351C124.137 173.387 124.351 173.399 124.558 173.403C124.765 173.403 124.975 173.387 125.174 173.355C125.245 173.347 125.313 173.331 125.372 173.315C125.567 173.271 125.754 173.207 125.924 173.128C125.984 173.1 126.036 173.072 126.087 173.04L171.438 146.775C172.022 146.44 172.205 145.958 171.982 145.531ZM162.024 143.63L159.12 145.312L120.483 167.676C120.379 167.732 120.28 167.788 120.173 167.831C119.533 168.095 118.822 168.095 118.183 167.831C118.075 167.788 117.968 167.732 117.869 167.676L44.5102 125.184L40.963 123.131C40.824 123.052 40.7168 122.964 40.6294 122.868C40.26 122.462 40.3751 121.948 40.963 121.605L82.4844 97.5552C83.0128 97.2523 83.5569 97.0332 84.0972 97.1049C84.2282 97.1208 84.3593 97.1567 84.4904 97.2125C84.5579 97.2404 84.6294 97.2723 84.693 97.3121L162.024 142.104C162.608 142.443 162.608 143.292 162.024 143.63Z" fill="#172568"/>
<path d="M30.3526 117.809C29.59 118.351 28.9981 119.442 28.9941 120.355V122.387C28.9941 123.372 29.6734 124.563 30.5274 125.057L123.016 178.628C123.338 178.816 123.731 178.927 124.14 178.971C124.275 178.987 124.41 178.995 124.549 178.999C124.549 178.995 124.553 178.999 124.553 178.999V173.408V173.404C124.343 173.4 124.136 173.384 123.934 173.352C123.6 173.296 123.282 173.189 123.02 173.037L30.5274 119.462C29.7489 119.012 29.6853 118.299 30.3526 117.809Z" fill="url(#paint0_linear_653_119)"/>
<path opacity="0.8" d="M147.486 156.439C146.001 155.583 143.498 155.583 142.012 156.439C141.631 156.663 141.349 156.918 141.194 157.193C140.702 158.045 141.603 158.691 142.012 158.93C143.498 159.787 146.001 159.787 147.486 158.93C147.864 158.707 148.146 158.452 148.304 158.177C148.797 157.324 147.895 156.683 147.486 156.439Z" fill="white"/>
<g opacity="0.8">
<path opacity="0.8" d="M56.9167 106.966C57.3298 106.727 57.3298 106.336 56.9167 106.097C56.5036 105.858 55.8323 105.858 55.4192 106.097C55.0061 106.336 55.0061 106.727 55.4192 106.966C55.8323 107.205 56.5036 107.205 56.9167 106.966Z" fill="white"/>
<g opacity="0.8">
<path opacity="0.8" d="M54.5618 111.08C54.9272 110.869 54.9272 110.522 54.5618 110.311C54.1964 110.1 53.6005 110.1 53.2311 110.311C52.8657 110.522 52.8657 110.869 53.2311 111.08C53.6005 111.291 54.1964 111.291 54.5618 111.08Z" fill="white"/>
<path opacity="0.8" d="M56.8139 109.804L64.2578 105.493C64.6669 105.257 64.6868 104.887 64.3055 104.664C63.9241 104.44 63.2806 104.452 62.8755 104.692L55.4316 109.003C55.0224 109.238 55.0026 109.609 55.3879 109.832C55.7652 110.055 56.4048 110.043 56.8139 109.804Z" fill="white"/>
</g>
</g>
<path d="M171.645 145.133C172.281 145.627 172.213 146.328 171.442 146.771L126.092 173.04C125.671 173.283 125.115 173.407 124.559 173.407V178.998C125.115 178.994 125.663 178.874 126.088 178.627L171.439 152.366C172.285 151.88 172.972 150.684 172.972 149.7L172.98 147.663C172.976 146.763 172.396 145.683 171.645 145.133Z" fill="url(#paint1_linear_653_119)"/>
<path d="M52.1623 133.567C52.5993 133.822 52.9568 134.411 52.9568 134.886C52.9568 135.117 52.8733 135.276 52.7383 135.348C52.643 135.4 52.2815 135.619 52.1822 135.671C52.0392 135.75 51.8366 135.734 51.6102 135.607L41.2983 129.633C40.8614 129.378 40.5039 128.789 40.5039 128.314C40.5039 128.095 40.5794 127.94 40.7025 127.86C40.8018 127.796 41.1752 127.581 41.2745 127.525C41.4175 127.446 41.6201 127.462 41.8465 127.589L52.1623 133.567Z" fill="#1A2E35"/>
<path d="M51.6102 133.886L41.2983 127.912C40.8614 127.657 40.5039 127.84 40.5039 128.315C40.5039 128.789 40.8574 129.383 41.2983 129.634L51.6102 135.607C52.0471 135.862 52.4046 135.679 52.4046 135.205C52.4046 134.731 52.0471 134.141 51.6102 133.886Z" fill="white"/>
<path d="M38.3648 125.571C38.8017 125.826 39.1592 126.415 39.1592 126.89C39.1592 127.121 39.0758 127.28 38.9408 127.352C38.8454 127.404 38.484 127.623 38.3847 127.675C38.2417 127.754 38.0391 127.738 37.8127 127.611L32.9507 124.794C32.5137 124.538 32.1562 123.949 32.1562 123.474C32.1562 123.255 32.2317 123.1 32.3549 123.02C32.4542 122.956 32.8276 122.741 32.9269 122.685C33.0699 122.606 33.2724 122.622 33.4989 122.749L38.3648 125.571Z" fill="#1A2E35"/>
<path d="M37.8088 125.89L32.9468 123.072C32.5098 122.817 32.1523 123.001 32.1523 123.475C32.1523 123.949 32.5059 124.543 32.9468 124.794L37.8088 127.611C38.2457 127.866 38.6032 127.683 38.6032 127.209C38.6032 126.735 38.2497 126.145 37.8088 125.89Z" fill="white"/>
<path d="M162.028 143.605L159.124 145.287L120.487 167.651C120.384 167.711 120.284 167.763 120.177 167.807C119.538 168.07 118.827 168.07 118.187 167.807C118.08 167.763 117.972 167.707 117.873 167.651L44.5146 125.159L40.9674 123.106C40.8284 123.027 40.7211 122.939 40.6337 122.843C40.2643 122.437 40.3795 121.923 40.9674 121.58L82.4888 97.5304C83.0171 97.2275 83.5613 97.0084 84.1015 97.0801C84.2326 97.096 84.3637 97.1319 84.4948 97.1877C84.5623 97.2156 84.6338 97.2475 84.6974 97.2873L162.028 142.079C162.612 142.418 162.612 143.267 162.028 143.605Z" fill="white"/>
<path opacity="0.8" d="M162.028 143.605L159.124 145.287L120.487 167.651C120.384 167.711 120.284 167.763 120.177 167.807C119.538 168.07 118.827 168.07 118.187 167.807C118.08 167.763 117.972 167.707 117.873 167.651L44.5146 125.159L40.9674 123.106C40.8284 123.027 40.7211 122.939 40.6337 122.843C40.2643 122.437 40.3795 121.923 40.9674 121.58L82.4888 97.5304C83.0171 97.2275 83.5613 97.0084 84.1015 97.0801C84.2326 97.096 84.3637 97.1319 84.4948 97.1877C84.5623 97.2156 84.6338 97.2475 84.6974 97.2873L162.028 142.079C162.612 142.418 162.612 143.267 162.028 143.605Z" fill="white"/>
<path d="M49.7314 119.957C49.7115 119.957 49.6916 119.949 49.6718 119.937L49.4692 119.818L48.9766 120.1C48.9488 120.116 48.921 120.116 48.8932 120.1L48.8217 120.057C48.8058 120.049 48.7939 120.037 48.786 120.033C48.782 120.025 48.7741 120.017 48.7701 120.005L48.5635 119.28C48.5596 119.268 48.5596 119.256 48.5635 119.248C48.5675 119.24 48.5754 119.232 48.5913 119.224L48.6589 119.184C48.6787 119.172 48.6986 119.168 48.7184 119.168C48.7383 119.168 48.7582 119.176 48.782 119.188L49.493 119.598L49.6003 119.535C49.6201 119.523 49.64 119.519 49.6599 119.519C49.6797 119.519 49.6996 119.527 49.7234 119.539L49.7711 119.566C49.7909 119.578 49.8029 119.59 49.8068 119.602C49.8068 119.614 49.7989 119.622 49.779 119.634L49.6718 119.698L49.8743 119.818C49.8942 119.829 49.9061 119.841 49.9061 119.853C49.9061 119.865 49.8982 119.877 49.8743 119.889L49.7909 119.941C49.7711 119.953 49.7512 119.957 49.7314 119.957ZM49.3262 119.698L48.8177 119.403L48.9687 119.905L49.3262 119.698Z" fill="white"/>
<path d="M50.1926 119.548C49.986 119.54 49.7834 119.476 49.5769 119.36C49.3743 119.245 49.2671 119.125 49.2512 119.006C49.2392 118.886 49.3187 118.774 49.4935 118.675C49.565 118.635 49.6365 118.599 49.7159 118.575C49.7914 118.551 49.8669 118.535 49.9384 118.527C49.9542 118.527 49.9662 118.527 49.9741 118.531C49.9781 118.535 49.986 118.539 49.99 118.547L50.0337 118.627C50.0377 118.635 50.0377 118.643 50.0297 118.647C50.0257 118.647 50.0178 118.651 50.0019 118.655C49.8867 118.671 49.7795 118.703 49.6841 118.762C49.565 118.83 49.5133 118.906 49.5213 118.99C49.5332 119.073 49.6126 119.161 49.7715 119.249C49.9304 119.34 50.0774 119.388 50.2204 119.396C50.3634 119.404 50.4905 119.372 50.6017 119.308C50.6414 119.285 50.6812 119.261 50.709 119.233C50.7407 119.205 50.7606 119.181 50.7725 119.157L50.4428 118.966L50.2363 119.085C50.2164 119.097 50.1966 119.101 50.1767 119.101C50.1568 119.101 50.137 119.093 50.1131 119.081L50.0655 119.053C50.0416 119.041 50.0297 119.029 50.0297 119.018C50.0297 119.006 50.0377 118.998 50.0575 118.986L50.3832 118.794C50.4071 118.782 50.4269 118.774 50.4508 118.778C50.4746 118.778 50.4984 118.786 50.5223 118.802L50.995 119.077C51.0109 119.089 51.0228 119.097 51.0307 119.105C51.0387 119.113 51.0387 119.121 51.0347 119.129C51.0109 119.225 50.9155 119.32 50.7527 119.412C50.5898 119.508 50.3991 119.555 50.1926 119.548Z" fill="white"/>
<path d="M54.2575 117.108C54.4164 117.199 54.4164 117.347 54.2575 117.439C54.0986 117.53 53.8444 117.53 53.6895 117.439C53.5306 117.347 53.5306 117.199 53.6895 117.108C53.8444 117.016 54.0986 117.016 54.2575 117.108Z" fill="white"/>
<path d="M53.2203 116.84C52.9343 117.008 52.8429 117.243 52.9542 117.454C52.978 117.498 53.0495 117.522 53.125 117.518C53.2203 117.51 53.2839 117.454 53.2561 117.402C53.1766 117.255 53.2402 117.087 53.4427 116.968C53.6453 116.852 53.9353 116.816 54.1895 116.86C54.2809 116.876 54.3802 116.84 54.3881 116.784C54.3961 116.741 54.3524 116.697 54.2769 116.685C53.9154 116.625 53.5063 116.673 53.2203 116.84Z" fill="white"/>
<path d="M52.7634 116.576C52.3384 116.823 52.1835 117.17 52.3066 117.489C52.3225 117.536 52.398 117.568 52.4814 117.564C52.5767 117.556 52.6363 117.505 52.6164 117.453C52.5171 117.194 52.6403 116.911 52.9898 116.708C53.3394 116.504 53.828 116.433 54.2768 116.492C54.3682 116.504 54.4595 116.468 54.4675 116.417C54.4754 116.369 54.4198 116.325 54.3404 116.317C53.7922 116.237 53.1924 116.329 52.7634 116.576Z" fill="white"/>
<path d="M61.1632 112.497C61.1433 112.497 61.1274 112.489 61.1155 112.481C61.1036 112.473 61.0996 112.461 61.0996 112.449L61.187 112.027C61.191 112.015 61.191 112.007 61.1949 111.995C61.1989 111.983 61.2069 111.975 61.2188 111.967L61.3657 111.883C61.3816 111.875 61.3975 111.871 61.4174 111.871C61.4372 111.871 61.4531 111.875 61.469 111.883L62.6885 112.588C62.7004 112.596 62.7084 112.604 62.7084 112.616C62.7084 112.628 62.7004 112.636 62.6885 112.644L62.5375 112.732C62.5217 112.74 62.5058 112.744 62.4859 112.744C62.466 112.744 62.4502 112.74 62.4343 112.732L61.5048 112.194L61.4452 112.469C61.4412 112.481 61.4333 112.489 61.4174 112.497C61.4015 112.505 61.3856 112.505 61.3618 112.505L61.1632 112.497Z" fill="white"/>
<path d="M62.1182 111.942C62.0984 111.942 62.0825 111.934 62.0706 111.926C62.0587 111.918 62.0547 111.906 62.0547 111.894L62.1421 111.472C62.146 111.46 62.146 111.452 62.15 111.44C62.154 111.428 62.1619 111.42 62.1739 111.412L62.3208 111.328C62.3367 111.32 62.3526 111.316 62.3725 111.316C62.3923 111.316 62.4082 111.32 62.4241 111.328L63.6436 112.034C63.6595 112.042 63.6634 112.05 63.6634 112.062C63.6634 112.074 63.6555 112.082 63.6436 112.09L63.4926 112.177C63.4767 112.185 63.4608 112.189 63.441 112.189C63.4211 112.189 63.4052 112.185 63.3893 112.177L62.4599 111.639L62.4003 111.914C62.3963 111.926 62.3884 111.934 62.3725 111.942C62.3566 111.95 62.3407 111.95 62.3169 111.95L62.1182 111.942Z" fill="white"/>
<path d="M63.3157 111.192C63.3277 111.184 63.3475 111.18 63.3674 111.18C63.3872 111.18 63.4031 111.184 63.419 111.192L63.6057 111.299C63.6176 111.307 63.6256 111.319 63.6256 111.327C63.6256 111.339 63.6176 111.347 63.6057 111.355L63.4309 111.455C63.419 111.463 63.3992 111.467 63.3793 111.467C63.3594 111.467 63.3435 111.463 63.3277 111.455L63.141 111.347C63.1251 111.339 63.1211 111.331 63.1211 111.319C63.1211 111.307 63.129 111.299 63.141 111.291L63.3157 111.192ZM63.9751 111.57C63.987 111.562 64.0069 111.558 64.0268 111.558C64.0466 111.558 64.0625 111.562 64.0784 111.57L64.2651 111.678C64.277 111.686 64.285 111.694 64.285 111.706C64.285 111.718 64.277 111.726 64.2651 111.734L64.0903 111.833C64.0784 111.841 64.0585 111.845 64.0387 111.845C64.0188 111.845 64.0029 111.841 63.987 111.833L63.8003 111.726C63.7845 111.718 63.7805 111.71 63.7805 111.698C63.7805 111.686 63.7884 111.678 63.8003 111.67L63.9751 111.57Z" fill="white"/>
<path d="M65.2669 111.154C65.251 111.162 65.2351 111.166 65.2153 111.166C65.1954 111.166 65.1795 111.162 65.1636 111.154L64.9372 111.022L64.3533 111.361C64.3374 111.369 64.3215 111.373 64.3016 111.373C64.2818 111.373 64.2659 111.369 64.25 111.361L64.115 111.285C64.0991 111.273 64.0872 111.265 64.0792 111.253C64.0752 111.241 64.0713 111.225 64.0673 111.214L63.9243 110.46C63.9163 110.428 63.9283 110.405 63.9561 110.389L64.0991 110.305C64.115 110.297 64.1308 110.293 64.1507 110.293C64.1706 110.293 64.1865 110.297 64.2023 110.305L64.9571 110.743L65.1199 110.648C65.1318 110.64 65.1517 110.636 65.1716 110.636C65.1914 110.636 65.2073 110.64 65.2232 110.648L65.3583 110.723C65.3702 110.731 65.3781 110.739 65.3781 110.751C65.3781 110.763 65.3702 110.771 65.3583 110.779L65.1954 110.875L65.4218 111.006C65.4337 111.014 65.4417 111.022 65.4417 111.034C65.4417 111.046 65.4337 111.054 65.4218 111.062L65.2669 111.154ZM64.7028 110.883L64.2977 110.648L64.3771 111.066L64.7028 110.883Z" fill="white"/>
<path d="M64.7581 109.978C64.7462 109.97 64.7383 109.962 64.7383 109.95C64.7383 109.938 64.7462 109.93 64.7581 109.922L65.4652 109.512C65.4811 109.504 65.497 109.5 65.5168 109.5C65.5367 109.5 65.5526 109.504 65.5685 109.512L65.7035 109.588C65.7154 109.596 65.7234 109.604 65.7234 109.616C65.7234 109.628 65.7154 109.635 65.7035 109.643L65.1752 109.95L65.3977 110.102C65.4175 110.074 65.4414 110.05 65.4731 110.03C65.5049 110.01 65.5288 109.994 65.5526 109.982C65.6241 109.942 65.6996 109.91 65.775 109.887C65.8545 109.863 65.9339 109.847 66.0173 109.843C66.0968 109.839 66.1802 109.847 66.2557 109.863C66.3351 109.879 66.4106 109.906 66.4781 109.95C66.5576 109.998 66.6132 110.046 66.6449 110.094C66.6767 110.142 66.6886 110.189 66.6807 110.237C66.6727 110.285 66.6489 110.329 66.6052 110.377C66.5615 110.421 66.5059 110.464 66.4384 110.504C66.351 110.556 66.2676 110.592 66.1842 110.616C66.1007 110.64 66.0213 110.656 65.9458 110.66C65.8704 110.664 65.7989 110.66 65.7353 110.644C65.6678 110.632 65.6122 110.608 65.5605 110.584C65.5446 110.576 65.5367 110.568 65.5367 110.556C65.5367 110.544 65.5446 110.536 65.5605 110.528L65.7154 110.44C65.7274 110.433 65.7432 110.429 65.7591 110.429C65.779 110.429 65.7949 110.429 65.8147 110.436C65.8505 110.448 65.8862 110.456 65.922 110.456C65.9577 110.456 65.9895 110.456 66.0213 110.448C66.0531 110.44 66.0849 110.432 66.1166 110.421C66.1484 110.409 66.1762 110.393 66.204 110.377C66.2755 110.337 66.3152 110.289 66.3192 110.241C66.3232 110.193 66.2914 110.15 66.2239 110.11C66.1683 110.078 66.0968 110.062 66.0173 110.066C65.9339 110.07 65.8584 110.09 65.7869 110.134C65.7512 110.154 65.7234 110.173 65.7075 110.189C65.6916 110.205 65.6797 110.221 65.6718 110.233C65.6638 110.245 65.6598 110.257 65.6519 110.265C65.6479 110.273 65.636 110.285 65.6161 110.297L65.4414 110.397C65.4294 110.405 65.4096 110.409 65.3897 110.409C65.3699 110.409 65.354 110.405 65.3381 110.397L64.7581 109.978Z" fill="white"/>
<path d="M44.4597 123.186L44.0664 122.959L44.5907 122.656L44.984 122.883L44.4597 123.186Z" fill="white"/>
<path d="M45.2455 122.734L44.459 122.279L44.9833 121.977L45.7698 122.431L45.2455 122.734Z" fill="white"/>
<path d="M46.0333 122.277L44.8535 121.592L45.3778 121.289L46.5576 121.974L46.0333 122.277Z" fill="white"/>
<path d="M46.8191 121.821L45.2461 120.912L45.7704 120.609L47.3394 121.518L46.8191 121.821Z" fill="white"/>
<path d="M82.3359 99.7691C82.2088 99.7571 82.0976 99.777 82.0261 99.8169L80.0678 100.949C79.9407 101.02 79.9725 101.156 80.1433 101.255L80.8583 101.67C80.9536 101.726 81.0768 101.762 81.2039 101.77C81.2595 101.774 81.3111 101.774 81.3588 101.77C81.4223 101.762 81.474 101.746 81.5137 101.726L83.472 100.594C83.5991 100.522 83.5673 100.387 83.3965 100.287L82.6815 99.8727C82.5862 99.8169 82.4631 99.781 82.3359 99.7691ZM81.184 101.698C81.1363 101.694 81.0847 101.678 81.037 101.65L80.322 101.236C80.1989 101.164 80.1711 101.056 80.2664 101.004L82.2247 99.8727C82.2486 99.8607 82.2764 99.8488 82.3042 99.8488C82.3201 99.8488 82.336 99.8448 82.3518 99.8488C82.3995 99.8528 82.4511 99.8687 82.4988 99.8966L83.2138 100.311C83.3369 100.383 83.3648 100.49 83.2694 100.542L81.3111 101.674C81.2793 101.69 81.2317 101.702 81.184 101.698Z" fill="white"/>
<path d="M80.7589 100.855L81.605 101.346L81.2952 101.525C81.2673 101.541 81.2117 101.545 81.1919 101.533L80.5643 101.17C80.4729 101.118 80.453 101.039 80.5206 100.999L80.7589 100.855Z" fill="white"/>
<path d="M80.9062 100.778L81.2717 100.562L82.1178 101.053L81.7484 101.264L80.9062 100.778Z" fill="white"/>
<path d="M81.418 100.481L81.7834 100.266L82.6295 100.756L82.2601 100.971L81.418 100.481Z" fill="white"/>
<path d="M82.3508 100.008L82.9586 100.359C83.0698 100.423 83.0459 100.519 82.895 100.606L82.7719 100.678L81.9258 100.188L82.2197 100.02C82.2555 100.001 82.323 99.9925 82.3508 100.008Z" fill="white"/>
<path d="M82.7575 99.8346C82.8091 99.8028 82.972 99.8466 83.119 99.9303L83.2501 100.006C83.397 100.09 83.4725 100.185 83.4209 100.221L83.3295 100.281L82.6582 99.8904C82.6622 99.8904 82.7059 99.8665 82.7575 99.8346Z" fill="white"/>
<path d="M77.3457 103.077L78.8631 101.754L79.6655 102.898L78.6168 102.611L77.3457 103.077Z" fill="white"/>
<path opacity="0.1" d="M94.7965 108.16L60.1191 128.249L94.8004 148.393L129.478 128.249L94.7965 108.16Z" fill="black"/>
<path d="M108.383 148.208V148.463C108.383 148.874 108.669 149.372 109.022 149.575L122.746 157.525C123.1 157.728 123.672 157.728 124.025 157.525L146.754 144.363C147.108 144.159 147.394 143.661 147.394 143.251V142.996C147.394 142.585 147.108 142.087 146.754 141.884L133.03 133.934C132.677 133.73 132.105 133.73 131.751 133.934L109.022 147.096C108.669 147.3 108.383 147.798 108.383 148.208Z" fill="#00DFBF"/>
<path d="M108.383 148.208V148.463C108.383 148.874 108.669 149.372 109.022 149.575L122.746 157.525C123.1 157.728 123.672 157.728 124.025 157.525L146.754 144.363C147.108 144.159 147.394 143.661 147.394 143.251V142.996C147.394 142.585 147.108 142.087 146.754 141.884L133.03 133.934C132.677 133.73 132.105 133.73 131.751 133.934L109.022 147.096C108.669 147.3 108.383 147.798 108.383 148.208Z" fill="#00DFBF"/>
<path opacity="0.3" d="M146.753 141.884L133.029 133.934C132.676 133.73 132.104 133.73 131.75 133.934L123.389 138.779V157.681C123.619 157.681 123.853 157.629 124.028 157.525L146.757 144.363C147.111 144.159 147.397 143.661 147.397 143.251V142.996C147.393 142.585 147.107 142.087 146.753 141.884Z" fill="white"/>
<path d="M146.753 141.884L133.029 133.934C132.676 133.73 132.104 133.73 131.75 133.934L123.389 138.779V157.681C123.619 157.681 123.853 157.629 124.028 157.525L146.757 144.363C147.111 144.159 147.397 143.661 147.397 143.251V142.996C147.393 142.585 147.107 142.087 146.753 141.884Z" fill="url(#paint2_linear_653_119)"/>
<path opacity="0.3" d="M123.386 138.777L109.022 147.098C108.669 147.301 108.383 147.799 108.383 148.21V148.465C108.383 148.875 108.669 149.374 109.022 149.577L122.746 157.527C122.921 157.631 123.155 157.678 123.386 157.682V138.777Z" fill="white"/>
<path d="M123.386 138.777L109.022 147.098C108.669 147.301 108.383 147.799 108.383 148.21V148.465C108.383 148.875 108.669 149.374 109.022 149.577L122.746 157.527C122.921 157.631 123.155 157.678 123.386 157.682V138.777Z" fill="url(#paint3_linear_653_119)"/>
<path d="M120.548 154.516L109.021 147.841C108.667 147.638 108.667 147.303 109.021 147.1L131.75 133.938C132.103 133.734 132.675 133.734 133.029 133.938L146.753 141.888C147.106 142.091 147.106 142.426 146.753 142.629L142.983 144.813L141.665 145.578L124.028 155.796C123.674 155.999 123.102 155.999 122.749 155.796L121.633 155.146L120.548 154.516Z" fill="#00DFBF"/>
<path d="M120.548 154.516L109.021 147.841C108.667 147.638 108.667 147.303 109.021 147.1L131.75 133.938C132.103 133.734 132.675 133.734 133.029 133.938L146.753 141.888C147.106 142.091 147.106 142.426 146.753 142.629L142.983 144.813L141.665 145.578L124.028 155.796C123.674 155.999 123.102 155.999 122.749 155.796L121.633 155.146L120.548 154.516Z" fill="#00ACF5"/>
<path opacity="0.15" d="M131.016 143.422L146.758 141.88L131.155 142.764L133.03 133.93C132.839 133.818 132.585 133.774 132.331 133.782L129.387 145.725L108.76 147.431C108.744 147.574 108.827 147.722 109.018 147.833L125.677 146.865L123.385 155.939L126.317 146.829L129.161 146.662C129.518 146.642 129.844 146.494 130.098 146.267V146.263C130.337 146.048 130.508 145.765 130.579 145.434L131.016 143.422Z" fill="black"/>
<path opacity="0.3" d="M113.685 147.031L129.391 145.732L129.955 143.473L130.265 142.217L132.339 133.789C132.124 133.797 131.918 133.841 131.755 133.937L120.39 140.52L109.026 147.103C108.863 147.199 108.779 147.318 108.768 147.442L111.918 147.183L113.685 147.031Z" fill="white"/>
<path d="M129.793 132.05C131.227 131.218 133.555 131.218 134.993 132.05C136.427 132.883 136.427 134.23 134.993 135.063C133.559 135.896 131.231 135.896 129.793 135.063C128.355 134.226 128.355 132.879 129.793 132.05Z" fill="#FF9090"/>
<path d="M130.575 134.05C130.527 134.046 130.492 134.034 130.468 134.014C130.444 133.995 130.432 133.967 130.44 133.943L130.654 132.994C130.662 132.97 130.666 132.943 130.678 132.911C130.686 132.879 130.714 132.851 130.758 132.823L131.282 132.52C131.314 132.504 131.354 132.492 131.397 132.492C131.445 132.492 131.481 132.5 131.512 132.52L134.297 134.134C134.329 134.15 134.345 134.174 134.345 134.202C134.345 134.23 134.329 134.25 134.297 134.27L133.733 134.596C133.701 134.616 133.661 134.624 133.618 134.624C133.57 134.624 133.534 134.616 133.503 134.596L131.62 133.504L131.497 134.026C131.493 134.054 131.469 134.074 131.433 134.09C131.397 134.106 131.358 134.114 131.31 134.11L130.575 134.05Z" fill="#FAFAFA"/>
<path d="M60.8066 115.815L94.8007 96.125L128.791 115.815L94.8007 135.505L60.8066 115.815Z" fill="black"/>
<path d="M94.7984 96.1266V62.4609L60.1211 82.5456L89.134 99.4103L94.7984 96.1266Z" fill="#2B454E"/>
<path d="M94.7988 62.4609V96.1266L100.467 99.4103L129.48 82.5456L94.7988 62.4609Z" fill="#1A2E35"/>
<path d="M60.1211 82.543V115.416L94.7984 135.504V102.687L60.1211 82.543Z" fill="url(#paint4_linear_653_119)"/>
<path d="M94.7969 102.687V135.504L129.478 115.416V82.543L94.7969 102.687Z" fill="url(#paint5_linear_653_119)"/>
<g opacity="0.23">
<path opacity="0.23" d="M94.7969 102.687V135.504L129.478 115.416V82.543L94.7969 102.687Z" fill="url(#paint6_linear_653_119)"/>
</g>
<path opacity="0.7" d="M94.8008 102.688L95.4841 134.249L120.672 120.517L94.7969 135.504L94.8008 102.688Z" fill="url(#paint7_linear_653_119)"/>
<path d="M104.109 126.879C104.005 126.879 103.922 126.795 103.922 126.691V122.531C103.922 122.427 104.005 122.344 104.109 122.344C104.212 122.344 104.295 122.427 104.295 122.531V126.691C104.295 126.795 104.212 126.879 104.109 126.879Z" fill="#F0F0F0"/>
<path d="M103.567 123.977C103.543 123.977 103.519 123.973 103.495 123.961C103.4 123.921 103.36 123.809 103.4 123.718L104.059 122.191L104.794 123.044C104.862 123.12 104.854 123.239 104.774 123.307C104.699 123.371 104.58 123.367 104.512 123.287L104.163 122.881L103.738 123.865C103.706 123.937 103.638 123.977 103.567 123.977Z" fill="#F0F0F0"/>
<path d="M105.821 125.902C105.718 125.902 105.635 125.818 105.635 125.715V121.554C105.635 121.451 105.718 121.367 105.821 121.367C105.925 121.367 106.008 121.451 106.008 121.554V125.715C106.008 125.818 105.925 125.902 105.821 125.902Z" fill="#F0F0F0"/>
<path d="M105.28 122.996C105.256 122.996 105.232 122.992 105.208 122.98C105.113 122.94 105.073 122.829 105.113 122.737L105.772 121.211L106.507 122.06C106.575 122.135 106.567 122.255 106.487 122.323C106.408 122.391 106.293 122.383 106.225 122.303L105.876 121.896L105.451 122.881C105.419 122.956 105.351 122.996 105.28 122.996Z" fill="#F0F0F0"/>
<path d="M99.177 129.703C99.1055 129.703 99.034 129.687 98.9744 129.651C98.8354 129.572 98.752 129.408 98.752 129.205V128.695C98.752 128.591 98.8354 128.508 98.9386 128.508C99.0419 128.508 99.1253 128.591 99.1253 128.695V129.205C99.1253 129.281 99.1452 129.321 99.1611 129.329C99.173 129.341 99.2167 129.333 99.2803 129.297C99.4431 129.201 99.6258 128.835 99.6258 128.456V126.328C99.6258 126.224 99.7093 126.141 99.8125 126.141C99.9158 126.141 99.9992 126.224 99.9992 126.328V128.456C99.9992 128.942 99.7728 129.44 99.4709 129.616C99.3676 129.675 99.2683 129.703 99.177 129.703Z" fill="#F0F0F0"/>
<path d="M97.2246 127.987V127.665C97.2246 126.15 98.2852 124.305 99.592 123.552C100.259 123.166 100.899 123.11 101.387 123.393C101.876 123.676 102.146 124.257 102.146 125.031V125.138L97.2246 127.987ZM100.7 123.588C100.422 123.588 100.108 123.684 99.7787 123.875C98.6705 124.516 97.7529 126.015 97.6139 127.334L101.773 124.923C101.753 124.341 101.55 123.915 101.201 123.711C101.054 123.632 100.883 123.588 100.7 123.588Z" fill="#F0F0F0"/>
<path d="M94.7984 62.4609L60.1211 82.5456L94.8024 102.69L129.48 82.5456L94.7984 62.4609Z" fill="#00DFBF"/>
<path d="M94.7984 62.4609L60.1211 82.5456L94.8024 102.69L129.48 82.5456L94.7984 62.4609Z" fill="#00ACF5"/>
<path opacity="0.7" d="M60.1211 82.5469L94.8024 101.448L129.48 82.5469L94.8024 102.691L60.1211 82.5469Z" fill="white"/>
<path d="M74.5078 74.2097L109.217 94.3142L114.56 91.2139L79.8544 71.1133L74.5078 74.2097Z" fill="white"/>
<path d="M114.561 91.2148V98.0253L113.914 97.6547L113.243 98.8183L112.571 98.4238L111.9 99.5954L111.233 99.2009L110.561 100.365L109.89 99.9819L109.219 101.142V94.3152L114.561 91.2148Z" fill="white"/>
<path d="M114.561 91.2148V98.0253L113.914 97.6547L113.243 98.8183L112.571 98.4238L111.9 99.5954L111.233 99.2009L110.561 100.365L109.89 99.9819L109.219 101.142V94.3152L114.561 91.2148Z" fill="white"/>
<path d="M70.231 44.0234L65.9807 46.4862L61.7305 48.949L65.0195 57.6124C65.0949 57.8117 65.222 57.9552 65.373 58.0468C65.8298 58.3258 70.2747 60.8802 70.4256 60.9718C70.8824 61.2508 71.5617 61.0635 71.7245 60.4498L75.2836 46.9524L70.231 44.0234Z" fill="#00DFBF"/>
<path d="M70.231 44.0234L65.9807 46.4862L61.7305 48.949L65.0195 57.6124C65.0949 57.8117 65.222 57.9552 65.373 58.0468C65.8298 58.3258 70.2747 60.8802 70.4256 60.9718C70.8824 61.2508 71.5617 61.0635 71.7245 60.4498L75.2836 46.9524L70.231 44.0234Z" fill="url(#paint8_linear_653_119)"/>
<path d="M66.7871 51.8708L71.0374 49.408L75.2876 46.9492L71.7285 60.4466C71.514 61.2675 70.378 61.3273 70.0761 60.5342L66.7871 51.8708Z" fill="#00ACF5"/>
<path d="M96.2952 19.7728C96.2952 18.0712 95.7073 16.8717 94.7539 16.3019C93.8443 15.7599 90.5633 13.8789 89.6576 13.3569C88.6844 12.795 87.3458 12.8787 85.8602 13.7355L42.4043 38.901V60.3605L47.4569 63.2816L90.9088 38.116C93.884 36.3945 96.2952 32.2022 96.2952 28.7591V19.7728Z" fill="#00DFBF"/>
<path d="M96.2952 19.7728C96.2952 18.0712 95.7073 16.8717 94.7539 16.3019C93.8443 15.7599 90.5633 13.8789 89.6576 13.3569C88.6844 12.795 87.3458 12.8787 85.8602 13.7355L42.4043 38.901V60.3605L47.4569 63.2816L90.9088 38.116C93.884 36.3945 96.2952 32.2022 96.2952 28.7591V19.7728Z" fill="url(#paint9_linear_653_119)"/>
<path d="M90.9089 38.111C93.8841 36.3894 96.2952 32.1972 96.2952 28.7541V19.7718C96.2952 16.3247 93.8841 14.93 90.9089 16.6515L47.457 41.8211V63.2805L90.9089 38.111Z" fill="#00ACF5"/>
<path d="M50.09 35.5408L50.0662 35.5288C50.0662 35.5288 50.0662 35.5288 50.0622 35.5288L44.1278 32.0857C44.1278 32.0857 44.1238 32.0857 44.1238 32.0817L44.0881 32.0658C41.3234 30.6591 37.6372 31.0377 33.661 33.608C25.669 38.7687 19.5637 50.676 20.0245 60.2002C20.2548 64.9464 22.0543 68.254 24.811 69.6886L24.8348 69.7006H24.8388L30.7812 73.1317C30.7812 73.1317 30.7812 73.1317 30.7851 73.1317L30.813 73.1476C33.5776 74.5584 37.2757 74.1479 41.2598 71.5736C49.2479 66.4129 55.3532 54.5056 54.8924 44.9813C54.662 40.2352 52.8468 36.9754 50.09 35.5408Z" fill="url(#paint10_linear_653_119)"/>
<path d="M41.2611 71.5787C49.2492 66.4141 55.3544 54.5068 54.8937 44.9825C54.4329 35.4582 47.5808 31.9235 39.5888 37.0841C31.5967 42.2488 25.4914 54.1521 25.9522 63.6764C26.4169 73.2046 33.269 76.7393 41.2611 71.5787Z" fill="#172568"/>
<path d="M39.485 53.4478C39.0759 53.4478 38.6866 53.3481 38.337 53.1449C37.3996 52.6029 36.8594 51.3835 36.8594 49.8014C36.8594 46.9521 38.6071 43.6166 40.7521 42.3733C41.769 41.7835 42.77 41.7158 43.5684 42.178C44.5059 42.72 45.0461 43.9394 45.0461 45.5215C45.0461 48.3748 43.2983 51.7063 41.1533 52.9496C40.5813 53.2804 40.0133 53.4478 39.485 53.4478ZM42.4205 42.6762C42.0312 42.6762 41.5982 42.8077 41.1533 43.0667C39.2268 44.1825 37.6578 47.2032 37.6578 49.8014C37.6578 51.0886 38.051 52.057 38.7343 52.4555C39.2784 52.7703 39.9934 52.6986 40.7521 52.2602C42.6786 51.1444 44.2477 48.1198 44.2477 45.5255C44.2477 44.2383 43.8544 43.27 43.1712 42.8754C42.9488 42.7399 42.6945 42.6762 42.4205 42.6762Z" fill="#00ACF5"/>
<path d="M33.704 52.4844C33.565 52.4844 33.4339 52.4127 33.3584 52.2852C33.2472 52.0939 33.3147 51.8508 33.5054 51.7392L37.0645 49.675C37.2551 49.5634 37.4974 49.6311 37.6087 49.8224C37.7199 50.0137 37.6523 50.2568 37.4617 50.3684L33.9026 52.4326C33.839 52.4685 33.7675 52.4844 33.704 52.4844Z" fill="#00ACF5"/>
<path d="M35.8854 61.8505C35.8298 61.8505 35.7781 61.8385 35.7265 61.8186C35.6113 61.7668 35.5279 61.6672 35.4961 61.5436L32.9102 50.4572C32.8983 50.4014 32.8506 50.2261 32.7434 50.2062L31.7424 50.0189C31.5279 49.979 31.3849 49.7678 31.4246 49.5526C31.4643 49.3374 31.6709 49.198 31.8893 49.2338L32.8903 49.4211C33.2836 49.4968 33.5736 49.8077 33.6848 50.2739L36.1475 60.8383L45.2002 55.594C45.4624 55.4425 45.7205 55.0201 45.796 54.6096L47.5319 45.1571C47.5915 44.8224 47.516 44.6391 47.4723 44.6072C47.4643 44.6032 47.4167 44.6032 47.3372 44.651L44.8506 46.0936C44.66 46.2052 44.4177 46.1374 44.3064 45.9462C44.1952 45.7549 44.2627 45.5118 44.4534 45.4002L46.94 43.9576C47.2896 43.7544 47.651 43.7544 47.9331 43.9536C48.2826 44.2007 48.4256 44.7028 48.3144 45.3006L46.5785 54.7531C46.4594 55.3987 46.0661 56.0124 45.6014 56.2834L36.084 61.7947C36.0244 61.8306 35.9529 61.8505 35.8854 61.8505Z" fill="#00ACF5"/>
<path d="M35.3875 65.1771C35.2088 65.1771 35.038 65.1332 34.887 65.0416C34.5017 64.8184 34.2793 64.3402 34.2793 63.7345C34.2793 62.7183 34.887 61.5666 35.6616 61.1163L45.2029 55.589C45.3935 55.4775 45.6358 55.5452 45.747 55.7365C45.8583 55.9278 45.7907 56.1709 45.6001 56.2824L36.0588 61.8097C35.5226 62.1205 35.0737 63.0012 35.0737 63.7345C35.0737 64.0971 35.181 64.2924 35.2843 64.3522C35.3995 64.4199 35.5703 64.3402 35.6616 64.2884L45.8742 58.3746C46.0648 58.263 46.3071 58.3308 46.4183 58.522C46.5296 58.7133 46.462 58.9564 46.2714 59.068L36.0588 64.9818C35.8285 65.1133 35.602 65.1771 35.3875 65.1771Z" fill="#00ACF5"/>
<path d="M36.7275 69.0912C36.5488 69.0912 36.378 69.0473 36.223 68.9557C35.8338 68.7285 35.6113 68.2503 35.6113 67.6406C35.6113 66.6165 36.223 65.4568 37.0056 65.0065C37.4227 64.7674 37.8397 64.7435 38.1853 64.9427C38.5746 65.1699 38.797 65.6481 38.797 66.2578C38.797 67.282 38.1853 68.4416 37.4028 68.8919C37.1764 69.0274 36.946 69.0912 36.7275 69.0912ZM37.6769 65.6082C37.5776 65.6082 37.4703 65.66 37.4028 65.6999C36.8626 66.0107 36.4058 66.9034 36.4058 67.6446C36.4058 68.0152 36.517 68.2105 36.6203 68.2703C36.7394 68.338 36.9102 68.2623 37.0056 68.2065C37.5458 67.8957 38.0026 67.003 38.0026 66.2618C38.0026 65.8952 37.8914 65.6959 37.7881 65.6361C37.7523 65.6162 37.7166 65.6082 37.6769 65.6082Z" fill="#00ACF5"/>
<path d="M43.4365 65.2044C43.2578 65.2044 43.0869 65.1606 42.932 65.069C42.5428 64.8418 42.3203 64.3636 42.3203 63.7539C42.3203 62.7297 42.932 61.5701 43.7146 61.1198C44.1316 60.8807 44.5487 60.8568 44.8943 61.056C45.2836 61.2832 45.506 61.7614 45.506 62.3711C45.506 63.3952 44.8943 64.5549 44.1118 65.0052C43.8854 65.1367 43.655 65.2044 43.4365 65.2044ZM44.3859 61.7215C44.2866 61.7215 44.1793 61.7733 44.1118 61.8132C43.5716 62.124 43.1148 63.0167 43.1148 63.7579C43.1148 64.1285 43.226 64.3238 43.3293 64.3835C43.4484 64.4513 43.6232 64.3756 43.7146 64.3198C44.2548 64.0089 44.7116 63.1163 44.7116 62.3751C44.7116 62.0084 44.6004 61.8092 44.4971 61.7494C44.4613 61.7255 44.4256 61.7215 44.3859 61.7215Z" fill="#00ACF5"/>
<path d="M39.5653 65.982C39.4263 65.982 39.2952 65.9103 39.2197 65.7828C39.1085 65.5915 39.176 65.3484 39.3667 65.2368L41.3568 64.0851C41.5474 63.9736 41.7897 64.0413 41.901 64.2326C42.0122 64.4239 41.9447 64.667 41.754 64.7785L39.7639 65.9302C39.7004 65.9661 39.6328 65.982 39.5653 65.982Z" fill="#00ACF5"/>
<path d="M40.3714 50.31C40.2721 50.31 40.1767 50.2741 40.1013 50.2064L38.9136 49.1145C38.7507 48.967 38.7428 48.712 38.8897 48.5526C39.0367 48.3892 39.2909 48.3812 39.4498 48.5287L40.2363 49.25L42.3654 44.5676C42.4568 44.3683 42.6911 44.2806 42.8937 44.3723C43.0923 44.4639 43.1797 44.6991 43.0883 44.9023L40.7289 50.0829C40.6772 50.1984 40.57 50.2821 40.4468 50.306C40.423 50.306 40.3952 50.31 40.3714 50.31Z" fill="#00ACF5"/>
<path d="M64.924 37.0268C64.9359 36.72 64.9757 36.4171 65.0511 36.1063C65.1266 35.7994 65.2299 35.5085 65.3689 35.2335C65.504 34.9586 65.6708 34.7075 65.8654 34.4804C66.0601 34.2532 66.2865 34.0619 66.5447 33.9145C66.7949 33.767 67.0214 33.6953 67.22 33.6953C67.4186 33.6953 67.5854 33.7551 67.7205 33.8707C67.8555 33.9862 67.9628 34.1536 68.0382 34.3768C68.1137 34.5999 68.1534 34.855 68.1653 35.1499C68.1733 35.373 68.1773 35.6121 68.1773 35.8632C68.1773 36.1142 68.1733 36.3533 68.1653 36.5765C68.1534 36.8833 68.1137 37.1862 68.0382 37.497C67.9628 37.8039 67.8595 38.0988 67.7205 38.3738C67.5854 38.6527 67.4186 38.9038 67.22 39.1269C67.0214 39.3541 66.7989 39.5414 66.5447 39.6848C66.2865 39.8323 66.064 39.908 65.8654 39.908C65.6708 39.908 65.504 39.8522 65.3689 39.7327C65.2339 39.6131 65.1266 39.4457 65.0511 39.2226C64.9757 38.9994 64.9359 38.7444 64.924 38.4495C64.9161 38.2343 64.9121 38.0031 64.9121 37.7521C64.9121 37.505 64.9161 37.2619 64.924 37.0268ZM67.2001 37.0946C67.2041 36.9949 67.208 36.8873 67.212 36.7678C67.216 36.6482 67.216 36.5287 67.216 36.4051C67.216 36.2816 67.216 36.166 67.212 36.0505C67.208 35.9389 67.2041 35.8353 67.2001 35.7476C67.1922 35.6201 67.1763 35.5045 67.1445 35.4089C67.1167 35.3132 67.073 35.2415 67.0214 35.1897C66.9657 35.1379 66.9022 35.11 66.8227 35.11C66.7433 35.106 66.648 35.1379 66.5407 35.2017C66.4335 35.2654 66.3381 35.3411 66.2587 35.4368C66.1792 35.5324 66.1117 35.636 66.0601 35.7476C66.0084 35.8632 65.9647 35.9827 65.9369 36.1103C65.9091 36.2418 65.8893 36.3733 65.8813 36.5088C65.8734 36.6044 65.8694 36.708 65.8694 36.8236C65.8654 36.9391 65.8654 37.0587 65.8654 37.1822C65.8654 37.3058 65.8654 37.4253 65.8694 37.5409C65.8694 37.6564 65.8734 37.764 65.8813 37.8557C65.8932 38.1147 65.9528 38.302 66.0601 38.4176C66.1673 38.5332 66.3262 38.5292 66.5407 38.4056C66.7552 38.2821 66.9141 38.1028 67.0174 37.8637C67.1246 37.6286 67.1842 37.3735 67.2001 37.0946Z" fill="#FAFAFA"/>
<path d="M70.3128 31.8129C70.5392 31.6814 70.7457 31.5978 70.9245 31.5699C71.1032 31.542 71.2581 31.5659 71.3853 31.6416C71.5124 31.7173 71.6077 31.8528 71.6752 32.0481C71.7428 32.2433 71.7745 32.4944 71.7745 32.8012C71.7745 33.2037 71.7189 33.5664 71.6117 33.8931C71.5044 34.2199 71.3535 34.5108 71.1549 34.7619L71.7984 36.2961C71.8103 36.324 71.8143 36.3479 71.8143 36.3758C71.8143 36.4236 71.8023 36.4715 71.7825 36.5193C71.7586 36.5671 71.7348 36.599 71.703 36.6189L70.996 37.0294C70.9285 37.0692 70.8768 37.0732 70.849 37.0413C70.8212 37.0094 70.7974 36.9776 70.7775 36.9377L70.2015 35.5549L69.7249 35.8339V37.5474C69.7249 37.6072 69.713 37.667 69.6852 37.7228C69.6574 37.7825 69.6256 37.8224 69.5859 37.8423L68.9066 38.2368C68.8669 38.2608 68.8351 38.2568 68.8073 38.2289C68.7795 38.201 68.7676 38.1571 68.7676 38.1014V32.9288C68.7676 32.869 68.7795 32.8092 68.8073 32.7534C68.8351 32.6936 68.8669 32.6538 68.9066 32.6299L70.3128 31.8129ZM69.7249 34.5826L70.3128 34.2438C70.4597 34.1601 70.5789 34.0486 70.6742 33.9091C70.7696 33.7696 70.8172 33.5863 70.8172 33.3631C70.8172 33.14 70.7696 33.0124 70.6742 32.9806C70.5789 32.9487 70.4597 32.9766 70.3128 33.0603L69.7249 33.399V34.5826Z" fill="#FAFAFA"/>
<path d="M73.8883 29.7427C74.1267 29.6033 74.3451 29.5315 74.5438 29.5275C74.7424 29.5236 74.9132 29.5793 75.0562 29.6909C75.1992 29.8065 75.3104 29.9779 75.3938 30.205C75.4732 30.4321 75.5209 30.7071 75.5328 31.0259C75.5368 31.1375 75.5368 31.2371 75.5368 31.3328C75.5368 31.4244 75.5368 31.5161 75.5368 31.5998C75.5368 31.6835 75.5368 31.7711 75.5368 31.8628C75.5368 31.9544 75.5368 32.0541 75.5328 32.1617C75.5209 32.5004 75.4772 32.8272 75.3978 33.146C75.3183 33.4648 75.2071 33.7636 75.0681 34.0426C74.9291 34.3216 74.7622 34.5726 74.5676 34.7918C74.3729 35.011 74.1585 35.1943 73.9201 35.3338L72.5179 36.1467C72.4782 36.1706 72.4464 36.1666 72.4186 36.1387C72.3908 36.1108 72.3789 36.071 72.3789 36.0112V30.8346C72.3789 30.7749 72.3908 30.7191 72.4186 30.6593C72.4464 30.5995 72.4782 30.5597 72.5179 30.5397L73.8883 29.7427ZM74.5676 31.5519C74.5477 30.9502 74.3094 30.7788 73.8605 31.0379L73.3322 31.3447V34.3893L73.8883 34.0665C74.3253 33.8155 74.5517 33.3771 74.5676 32.7514C74.5716 32.6359 74.5716 32.5323 74.5716 32.4326C74.5716 32.333 74.5716 32.2374 74.5716 32.1457C74.5716 32.0541 74.5716 31.9584 74.5716 31.8628C74.5716 31.7671 74.5716 31.6635 74.5676 31.5519Z" fill="#FAFAFA"/>
<path d="M78.7248 31.2688C78.7645 31.2449 78.7963 31.2488 78.8241 31.2767C78.8519 31.3046 78.8638 31.3485 78.8638 31.4043V32.2531C78.8638 32.3129 78.8519 32.3726 78.8241 32.4284C78.7963 32.4882 78.7645 32.528 78.7248 32.552L76.266 33.9746C76.2263 33.9985 76.1945 33.9945 76.1667 33.9666C76.1389 33.9388 76.127 33.8989 76.127 33.8391V28.6625C76.127 28.6028 76.1389 28.543 76.1667 28.4872C76.1945 28.4274 76.2263 28.3876 76.266 28.3677L78.6851 26.9649C78.7208 26.941 78.7566 26.945 78.7844 26.9729C78.8122 27.0008 78.8241 27.0406 78.8241 27.1004V27.9492C78.8241 28.009 78.8122 28.0688 78.7844 28.1246C78.7566 28.1843 78.7248 28.2242 78.6851 28.2441L77.0882 29.1687V30.0334L78.5738 29.1726C78.6136 29.1527 78.6453 29.1527 78.6731 29.1806C78.7009 29.2085 78.7129 29.2484 78.7129 29.3081V30.1569C78.7129 30.2167 78.697 30.2765 78.6731 30.3323C78.6453 30.3921 78.6136 30.4319 78.5738 30.4518L77.0882 31.3126V32.2092L78.7248 31.2688Z" fill="#FAFAFA"/>
<path d="M81.0042 25.6176C81.2306 25.4861 81.4371 25.4024 81.6159 25.3745C81.7946 25.3467 81.9496 25.3706 82.0767 25.4463C82.2038 25.522 82.2991 25.6575 82.3666 25.8528C82.4342 26.048 82.4659 26.2991 82.4659 26.6059C82.4659 27.0084 82.4103 27.3711 82.3071 27.6978C82.1998 28.0246 82.0489 28.3155 81.8503 28.5666L82.4937 30.1008C82.5057 30.1287 82.5096 30.1526 82.5096 30.1805C82.5096 30.2283 82.4977 30.2762 82.4779 30.324C82.454 30.3718 82.4302 30.4037 82.3984 30.4236L81.6914 30.8341C81.6238 30.8739 81.5722 30.8779 81.5444 30.846C81.5166 30.8141 81.4928 30.7823 81.4729 30.7424L80.8969 29.3596L80.4203 29.6385V31.3521C80.4203 31.4119 80.4083 31.4717 80.3766 31.5275C80.3488 31.5872 80.317 31.6271 80.2773 31.647L79.598 32.0415C79.5583 32.0654 79.5265 32.0615 79.4987 32.0336C79.4709 32.0057 79.459 31.9618 79.459 31.906V26.7295C79.459 26.6697 79.4709 26.6099 79.4987 26.5541C79.5265 26.4943 79.5583 26.4545 79.598 26.4306L81.0042 25.6176ZM80.4203 28.3872L81.0081 28.0485C81.1551 27.9648 81.2743 27.8532 81.3696 27.7138C81.4649 27.5743 81.5126 27.391 81.5126 27.1638C81.5126 26.9407 81.4649 26.8131 81.3696 26.7813C81.2743 26.7494 81.1551 26.7773 81.0081 26.861L80.4203 27.1997V28.3872Z" fill="#FAFAFA"/>
<path d="M59.3618 48.6072C59.3578 48.6789 59.3538 48.7785 59.3538 48.9021C59.3538 49.0256 59.3499 49.1531 59.3499 49.2846C59.3499 49.4161 59.3499 49.5437 59.3538 49.6672C59.3538 49.7907 59.3578 49.8864 59.3618 49.9541C59.3697 50.0737 59.3856 50.1813 59.4095 50.2809C59.4333 50.3805 59.473 50.4562 59.5247 50.512C59.5763 50.5678 59.6438 50.5997 59.7233 50.6037C59.8027 50.6077 59.902 50.5758 60.0212 50.508C60.1403 50.4403 60.2357 50.3606 60.3112 50.2769C60.3866 50.1892 60.4502 50.1016 60.4978 50.0139C60.5455 49.9262 60.5852 49.8346 60.6091 49.7469C60.6369 49.6552 60.6567 49.5755 60.6686 49.5038C60.6845 49.4082 60.7044 49.3364 60.7243 49.2886C60.7441 49.2408 60.7838 49.2009 60.8434 49.1651L61.5227 48.7706C61.5544 48.7506 61.5823 48.7546 61.6021 48.7745C61.6259 48.7945 61.6379 48.8303 61.6379 48.8782C61.6339 49.1531 61.5902 49.4361 61.5068 49.723C61.4234 50.0099 61.3082 50.2849 61.1652 50.5479C61.0182 50.8069 60.8514 51.046 60.6528 51.2652C60.4581 51.4804 60.2436 51.6557 60.0172 51.7872C59.767 51.9307 59.5445 52.0024 59.3499 52.0024C59.1552 52.0024 58.9884 51.9426 58.8494 51.8231C58.7104 51.7075 58.6031 51.5362 58.5316 51.313C58.4561 51.0899 58.4164 50.8348 58.4045 50.5479C58.3965 50.3327 58.3926 50.0976 58.3926 49.8465C58.3926 49.5955 58.3965 49.3524 58.4045 49.1212C58.4124 48.8224 58.4522 48.5195 58.5276 48.2126C58.6031 47.9058 58.7104 47.6109 58.8454 47.3359C58.9805 47.061 59.1473 46.8059 59.3459 46.5788C59.5445 46.3516 59.767 46.1643 60.0132 46.0169C60.2397 45.8854 60.4541 45.8137 60.6488 45.8057C60.8434 45.7977 61.0142 45.8376 61.1612 45.9292C61.3082 46.0209 61.4194 46.1643 61.5028 46.3556C61.5862 46.5469 61.6299 46.778 61.6339 47.049C61.6339 47.0968 61.622 47.1447 61.5981 47.1925C61.5743 47.2403 61.5505 47.2722 61.5187 47.2921L60.8395 47.6866C60.7799 47.7225 60.7401 47.7265 60.7203 47.7026C60.7004 47.6787 60.6806 47.6308 60.6647 47.5551C60.6528 47.4993 60.6329 47.4395 60.6051 47.3798C60.5773 47.32 60.5415 47.2722 60.4939 47.2403C60.4462 47.2084 60.3826 47.1925 60.3072 47.1925C60.2317 47.1925 60.1324 47.2283 60.0172 47.2961C59.898 47.3638 59.8027 47.4475 59.7193 47.5432C59.6398 47.6388 59.5763 47.7464 59.5207 47.862C59.469 47.9775 59.4293 48.0971 59.4055 48.2246C59.3817 48.3521 59.3697 48.4796 59.3618 48.6072Z" fill="#FAFAFA"/>
<path d="M62.051 47.0073C62.0629 46.7004 62.1026 46.3976 62.1781 46.0867C62.2536 45.7799 62.3568 45.489 62.4959 45.214C62.6309 44.939 62.7978 44.688 62.9924 44.4608C63.187 44.2337 63.4134 44.0424 63.6716 43.895C63.9259 43.7475 64.1483 43.6758 64.3469 43.6758C64.5455 43.6758 64.7124 43.7356 64.8474 43.8511C64.9825 43.9667 65.0897 44.1341 65.1652 44.3572C65.2407 44.5804 65.2804 44.8354 65.2923 45.1303C65.3002 45.3535 65.3042 45.5926 65.3042 45.8436C65.3042 46.0947 65.3002 46.3338 65.2923 46.557C65.2804 46.8638 65.2407 47.1667 65.1652 47.4775C65.0897 47.7844 64.9864 48.0793 64.8474 48.3542C64.7124 48.6332 64.5455 48.8842 64.3469 49.1074C64.1483 49.3345 63.9259 49.5218 63.6716 49.6653C63.4134 49.8127 63.191 49.8885 62.9924 49.8885C62.7978 49.8885 62.6309 49.8327 62.4959 49.7131C62.3608 49.5936 62.2536 49.4262 62.1781 49.203C62.1026 48.9799 62.0629 48.7248 62.051 48.4299C62.043 48.2147 62.0391 47.9836 62.0391 47.7326C62.0391 47.4815 62.043 47.2424 62.051 47.0073ZM64.3271 47.075C64.331 46.9754 64.335 46.8678 64.339 46.7483C64.3429 46.6287 64.3429 46.5091 64.3429 46.3856C64.3429 46.2621 64.3429 46.1465 64.339 46.0309C64.335 45.9194 64.331 45.8158 64.3271 45.7281C64.3191 45.6006 64.3032 45.485 64.2714 45.3894C64.2436 45.2937 64.1999 45.222 64.1483 45.1702C64.0927 45.1184 64.0291 45.0905 63.9497 45.0905C63.8702 45.0865 63.7749 45.1184 63.6677 45.1821C63.5604 45.2459 63.4651 45.3216 63.3856 45.4172C63.3062 45.5129 63.2387 45.6165 63.187 45.7281C63.1314 45.8436 63.0917 45.9632 63.0639 46.0907C63.0361 46.2222 63.0162 46.3537 63.0083 46.4932C63.0003 46.5888 62.9964 46.6925 62.9964 46.808C62.9964 46.9236 62.9924 47.0431 62.9924 47.1667C62.9924 47.2902 62.9924 47.4098 62.9964 47.5253C62.9964 47.6409 63.0043 47.7485 63.0083 47.8402C63.0202 48.0992 63.0798 48.2865 63.187 48.402C63.2903 48.5176 63.4532 48.5136 63.6677 48.3901C63.8822 48.2666 64.0411 48.0872 64.1443 47.8481C64.2476 47.609 64.3112 47.35 64.3271 47.075Z" fill="#FAFAFA"/>
<path d="M68.256 46.9337C68.1964 46.9655 68.1487 46.9695 68.113 46.9456C68.0772 46.9177 68.0534 46.8938 68.0415 46.8739L66.8538 44.8216V47.5314C66.8538 47.5912 66.8419 47.651 66.8141 47.7067C66.7863 47.7665 66.7545 47.8064 66.7148 47.8263L66.0355 48.2208C65.9958 48.2447 65.964 48.2407 65.9362 48.2129C65.9084 48.185 65.8965 48.1411 65.8965 48.0853V42.9048C65.8965 42.845 65.9084 42.7852 65.9362 42.7294C65.964 42.6697 65.9958 42.6298 66.0355 42.6059L66.5757 42.2951C66.6353 42.2592 66.683 42.2592 66.7187 42.2831C66.7545 42.311 66.7783 42.3349 66.7902 42.3548L67.9779 44.4071V41.6973C67.9779 41.6375 67.9898 41.5778 68.0216 41.522C68.0494 41.4622 68.0812 41.4223 68.1209 41.4024L68.8002 41.0079C68.8399 40.984 68.8717 40.988 68.8995 41.0159C68.9273 41.0438 68.9432 41.0836 68.9432 41.1434V46.32C68.9432 46.3797 68.9312 46.4355 68.8995 46.4953C68.8717 46.5551 68.8399 46.5949 68.8002 46.6148L68.256 46.9337Z" fill="#FAFAFA"/>
<path d="M72.1725 39.0509C72.2123 39.0269 72.244 39.0309 72.2718 39.0588C72.2997 39.0867 72.3116 39.1266 72.3116 39.1863V40.0352C72.3116 40.0949 72.2997 40.1547 72.2718 40.2105C72.244 40.2703 72.2123 40.3101 72.1725 40.3301L70.6194 41.2307V42.3306L72.0693 41.4937C72.105 41.4698 72.1408 41.4738 72.1686 41.5017C72.1964 41.5296 72.2083 41.5734 72.2083 41.6292V42.478C72.2083 42.5378 72.1964 42.5936 72.1686 42.6533C72.1408 42.7131 72.109 42.753 72.0693 42.7729L70.6194 43.6098V45.3432C70.6194 45.403 70.6075 45.4628 70.5797 45.5186C70.5519 45.5784 70.5201 45.6182 70.4804 45.6381L69.8011 46.0327C69.7614 46.0566 69.7296 46.0526 69.7018 46.0247C69.674 45.9968 69.6621 45.9569 69.6621 45.8972V40.7246C69.6621 40.6648 69.674 40.609 69.7018 40.5492C69.7296 40.4895 69.7614 40.4496 69.8011 40.4297L72.1725 39.0509Z" fill="#FAFAFA"/>
<path d="M73.0023 44.1852C72.9626 44.2091 72.9308 44.2052 72.903 44.1773C72.8752 44.1494 72.8633 44.1095 72.8633 44.0497V38.8692C72.8633 38.8094 72.8752 38.7536 72.903 38.6938C72.9308 38.6341 72.9626 38.5942 73.0023 38.5743L73.6816 38.1798C73.7213 38.1559 73.7531 38.1598 73.7809 38.1877C73.8087 38.2156 73.8206 38.2555 73.8206 38.3153V43.4918C73.8206 43.5516 73.8087 43.6114 73.7809 43.6672C73.7531 43.7269 73.7213 43.7668 73.6816 43.7867L73.0023 44.1852Z" fill="#FAFAFA"/>
<path d="M76.0979 36.7778C76.3243 36.6463 76.5309 36.5666 76.7096 36.5347C76.8884 36.5068 77.0433 36.5307 77.1704 36.6064C77.2975 36.6821 77.3929 36.8176 77.4604 37.0129C77.5279 37.2082 77.5597 37.4592 77.5597 37.7661C77.5597 38.1686 77.5041 38.5312 77.3968 38.858C77.2896 39.1848 77.1386 39.4757 76.94 39.7267L77.5835 41.261C77.5954 41.2889 77.5994 41.3128 77.5994 41.3407C77.5994 41.3885 77.5875 41.4363 77.5676 41.4841C77.5438 41.5319 77.52 41.5638 77.4882 41.5838L76.7811 41.9942C76.7136 42.0341 76.662 42.0381 76.6342 42.0062C76.6064 41.9743 76.5825 41.9424 76.5627 41.9026L75.9867 40.5197L75.51 40.7987V42.5123C75.51 42.572 75.4981 42.6318 75.4703 42.6876C75.4425 42.7474 75.4107 42.7872 75.371 42.8072L74.6918 43.2017C74.652 43.2256 74.6203 43.2216 74.5925 43.1937C74.5646 43.1658 74.5527 43.122 74.5527 43.0662V37.8896C74.5527 37.8298 74.5646 37.7701 74.5925 37.7143C74.6203 37.6545 74.652 37.6147 74.6918 37.5907L76.0979 36.7778ZM75.51 39.5474L76.0979 39.2087C76.2449 39.125 76.3641 39.0134 76.4594 38.8739C76.5547 38.7344 76.6024 38.5511 76.6024 38.324C76.6024 38.1008 76.5547 37.9733 76.4594 37.9414C76.3641 37.9095 76.2449 37.9374 76.0979 38.0211L75.51 38.3599V39.5474Z" fill="#FAFAFA"/>
<path d="M79.6756 38.9024C79.6478 38.8745 79.6239 38.8426 79.6041 38.8107L79.1155 37.7706V40.4247C79.1155 40.4844 79.1036 40.5402 79.0758 40.6C79.048 40.6598 79.0162 40.6996 78.9765 40.7196L78.2972 41.1141C78.2575 41.138 78.2257 41.134 78.1979 41.1061C78.1701 41.0782 78.1582 41.0384 78.1582 40.9786V35.802C78.1582 35.7422 78.1701 35.6864 78.1979 35.6267C78.2257 35.5669 78.2575 35.527 78.2972 35.5071L78.901 35.1564C78.9685 35.1166 79.0202 35.1166 79.0559 35.1524C79.0917 35.1923 79.1115 35.2202 79.1234 35.2401L79.9656 36.9736L80.8077 34.2678C80.8196 34.2359 80.8394 34.1801 80.8752 34.1004C80.9109 34.0207 80.9626 33.9609 81.0301 33.9211L81.6339 33.5704C81.6736 33.5465 81.7054 33.5505 81.7332 33.5784C81.761 33.6063 81.7729 33.6461 81.7729 33.7059V38.8825C81.7729 38.9422 81.761 39.002 81.7332 39.0578C81.7054 39.1176 81.6736 39.1574 81.6339 39.1773L80.9546 39.5719C80.9149 39.5958 80.8831 39.5918 80.8553 39.5639C80.8275 39.536 80.8156 39.4961 80.8156 39.4364V36.7823L80.327 38.3883C80.3111 38.4401 80.2873 38.4999 80.2555 38.5597C80.2277 38.6234 80.184 38.6673 80.1324 38.6991L79.7987 38.8904C79.7431 38.9303 79.7034 38.9303 79.6756 38.9024Z" fill="#FAFAFA"/>
<path d="M85.0939 35.8937C85.1336 35.8698 85.1654 35.8738 85.1932 35.9017C85.221 35.9296 85.2329 35.9734 85.2329 36.0292V36.878C85.2329 36.9378 85.221 36.9975 85.1932 37.0533C85.1654 37.1131 85.1336 37.153 85.0939 37.1729L82.6351 38.5956C82.5954 38.6195 82.5636 38.6155 82.5358 38.5876C82.508 38.5597 82.4961 38.5159 82.4961 38.4601V33.2915C82.4961 33.2317 82.508 33.1719 82.5358 33.1161C82.5636 33.0563 82.5954 33.0165 82.6351 32.9926L85.0542 31.5938C85.0899 31.5699 85.1257 31.5739 85.1535 31.6018C85.1813 31.6297 85.1932 31.6695 85.1932 31.7293V32.5781C85.1932 32.6379 85.1773 32.6977 85.1535 32.7535C85.1257 32.8133 85.0939 32.8531 85.0542 32.873L83.4574 33.7976V34.6623L84.943 33.8015C84.9827 33.7776 85.0145 33.7816 85.0423 33.8095C85.0701 33.8374 85.082 33.8773 85.082 33.937V34.7858C85.082 34.8456 85.0661 34.9054 85.0423 34.9612C85.0145 35.021 84.9827 35.0608 84.943 35.0807L83.4574 35.9415V36.8381L85.0939 35.8937Z" fill="#FAFAFA"/>
<path d="M87.3473 30.2662C87.5857 30.1267 87.8041 30.055 88.0027 30.051C88.2013 30.047 88.3722 30.1028 88.5152 30.2144C88.6582 30.3299 88.7694 30.5013 88.8528 30.7284C88.9322 30.9556 88.9799 31.2306 88.9918 31.5494C88.9958 31.6609 88.9958 31.7606 88.9958 31.8562C88.9958 31.9479 88.9958 32.0395 88.9958 32.1232C88.9958 32.2069 88.9958 32.2985 88.9958 32.3862C88.9958 32.4779 88.9918 32.5775 88.9918 32.6851C88.9799 33.0238 88.9362 33.3506 88.8568 33.6694C88.7773 33.9882 88.6661 34.2871 88.5271 34.566C88.388 34.845 88.2212 35.096 88.0266 35.3152C87.8319 35.5384 87.6174 35.7177 87.3791 35.8572L85.9769 36.6701C85.9372 36.6941 85.9054 36.6901 85.8776 36.6622C85.8498 36.6343 85.8379 36.5904 85.8379 36.5346V31.3621C85.8379 31.3023 85.8498 31.2425 85.8776 31.1867C85.9054 31.1269 85.9372 31.0871 85.9769 31.0632L87.3473 30.2662ZM88.0266 32.0754C88.0067 31.4736 87.7684 31.3023 87.3195 31.5613L86.7912 31.8682V34.9167L87.3473 34.5939C87.7843 34.3429 88.0107 33.9045 88.0266 33.2789C88.0305 33.1633 88.0305 33.0597 88.0305 32.9601C88.0305 32.8604 88.0305 32.7648 88.0305 32.6731C88.0305 32.5815 88.0305 32.4858 88.0305 32.3862C88.0345 32.2906 88.0305 32.187 88.0266 32.0754Z" fill="#FAFAFA"/>
<defs>
<linearGradient id="paint0_linear_653_119" x1="28.9943" y1="148.403" x2="124.56" y2="148.403" gradientUnits="userSpaceOnUse">
<stop stop-color="#161242"/>
<stop offset="0.2458" stop-color="#103E75"/>
<stop offset="0.6064" stop-color="#0779B9"/>
<stop offset="0.8674" stop-color="#029EE5"/>
<stop offset="1" stop-color="#00ACF5"/>
</linearGradient>
<linearGradient id="paint1_linear_653_119" x1="124.559" y1="162.065" x2="172.978" y2="162.065" gradientUnits="userSpaceOnUse">
<stop stop-color="#161242"/>
<stop offset="0.2458" stop-color="#103E75"/>
<stop offset="0.6064" stop-color="#0779B9"/>
<stop offset="0.8674" stop-color="#029EE5"/>
<stop offset="1" stop-color="#00ACF5"/>
</linearGradient>
<linearGradient id="paint2_linear_653_119" x1="123.386" y1="145.729" x2="147.394" y2="145.729" gradientUnits="userSpaceOnUse">
<stop stop-color="#161242"/>
<stop offset="0.2458" stop-color="#103E75"/>
<stop offset="0.6064" stop-color="#0779B9"/>
<stop offset="0.8674" stop-color="#029EE5"/>
<stop offset="1" stop-color="#00ACF5"/>
</linearGradient>
<linearGradient id="paint3_linear_653_119" x1="108.383" y1="148.23" x2="123.388" y2="148.23" gradientUnits="userSpaceOnUse">
<stop stop-color="#161242"/>
<stop offset="0.2458" stop-color="#103E75"/>
<stop offset="0.6064" stop-color="#0779B9"/>
<stop offset="0.8674" stop-color="#029EE5"/>
<stop offset="1" stop-color="#00ACF5"/>
</linearGradient>
<linearGradient id="paint4_linear_653_119" x1="61.6841" y1="81.6386" x2="93.3644" y2="136.334" gradientUnits="userSpaceOnUse">
<stop stop-color="#161242"/>
<stop offset="0.1302" stop-color="#103B71"/>
<stop offset="0.2626" stop-color="#0B5D99"/>
<stop offset="0.3993" stop-color="#077ABA"/>
<stop offset="0.5388" stop-color="#0490D4"/>
<stop offset="0.6824" stop-color="#02A0E7"/>
<stop offset="0.8326" stop-color="#00A9F1"/>
<stop offset="1" stop-color="#00ACF5"/>
</linearGradient>
<linearGradient id="paint5_linear_653_119" x1="112.139" y1="82.5444" x2="112.139" y2="135.502" gradientUnits="userSpaceOnUse">
<stop stop-color="#161242"/>
<stop offset="0.2458" stop-color="#103E75"/>
<stop offset="0.6064" stop-color="#0779B9"/>
<stop offset="0.8674" stop-color="#029EE5"/>
<stop offset="1" stop-color="#00ACF5"/>
</linearGradient>
<linearGradient id="paint6_linear_653_119" x1="112.139" y1="82.5444" x2="112.139" y2="135.502" gradientUnits="userSpaceOnUse">
<stop stop-color="#161242"/>
<stop offset="0.2458" stop-color="#103E75"/>
<stop offset="0.6064" stop-color="#0779B9"/>
<stop offset="0.8674" stop-color="#029EE5"/>
<stop offset="1" stop-color="#00ACF5"/>
</linearGradient>
<linearGradient id="paint7_linear_653_119" x1="107.734" y1="102.688" x2="107.734" y2="135.502" gradientUnits="userSpaceOnUse">
<stop stop-color="#161242"/>
<stop offset="0.2458" stop-color="#103E75"/>
<stop offset="0.6064" stop-color="#0779B9"/>
<stop offset="0.8674" stop-color="#029EE5"/>
<stop offset="1" stop-color="#00ACF5"/>
</linearGradient>
<linearGradient id="paint8_linear_653_119" x1="61.734" y1="52.5577" x2="75.2835" y2="52.5577" gradientUnits="userSpaceOnUse">
<stop stop-color="#161242"/>
<stop offset="0.0681" stop-color="#122F64"/>
<stop offset="0.1599" stop-color="#0D508A"/>
<stop offset="0.2586" stop-color="#096DAB"/>
<stop offset="0.364" stop-color="#0684C6"/>
<stop offset="0.4783" stop-color="#0396DB"/>
<stop offset="0.6063" stop-color="#01A2EA"/>
<stop offset="0.7589" stop-color="#00AAF2"/>
<stop offset="1" stop-color="#00ACF5"/>
</linearGradient>
<linearGradient id="paint9_linear_653_119" x1="42.4052" y1="38.1395" x2="96.2937" y2="38.1395" gradientUnits="userSpaceOnUse">
<stop stop-color="#161242"/>
<stop offset="0.0681" stop-color="#122F64"/>
<stop offset="0.1599" stop-color="#0D508A"/>
<stop offset="0.2586" stop-color="#096DAB"/>
<stop offset="0.364" stop-color="#0684C6"/>
<stop offset="0.4783" stop-color="#0396DB"/>
<stop offset="0.6063" stop-color="#01A2EA"/>
<stop offset="0.7589" stop-color="#00AAF2"/>
<stop offset="1" stop-color="#00ACF5"/>
</linearGradient>
<linearGradient id="paint10_linear_653_119" x1="28.2948" y1="36.6888" x2="46.6941" y2="68.4545" gradientUnits="userSpaceOnUse">
<stop stop-color="#161242"/>
<stop offset="0.2458" stop-color="#103E75"/>
<stop offset="0.6064" stop-color="#0779B9"/>
<stop offset="0.8674" stop-color="#029EE5"/>
<stop offset="1" stop-color="#00ACF5"/>
</linearGradient>
</defs>
</svg>
