<svg width="60" height="53" viewBox="0 0 60 53" fill="none" xmlns="http://www.w3.org/2000/svg">
<path d="M49.3327 45.6514C50.0412 45.6514 50.7073 45.6514 51.3733 45.6514C52.2515 45.6514 52.2515 45.6514 52.2515 44.6894C52.2515 42.3861 52.2473 40.0782 52.2558 37.7749C52.2558 37.4789 52.1921 37.317 51.9249 37.1505C51.7 37.0071 51.5133 36.6649 51.454 36.3781C51.3818 36.0127 51.6024 35.6936 51.9376 35.5687C52.2006 35.4716 52.2558 35.3097 52.2515 35.0369C52.243 32.7475 52.2473 30.458 52.2515 28.1686C52.2515 27.905 52.2049 27.7385 51.9376 27.6368C51.6109 27.5165 51.4285 27.2159 51.437 26.8227C51.4455 26.4389 51.6152 26.1429 51.9503 26.018C52.1921 25.9301 52.2515 25.7821 52.2515 25.5231C52.243 23.5991 52.2473 21.6751 52.2515 19.751C52.2515 19.5244 52.2091 19.3903 51.9715 19.307C51.6449 19.196 51.4497 18.9046 51.437 18.5161C51.4285 18.1045 51.6109 17.8039 51.9588 17.6651C52.2006 17.5726 52.2685 17.42 52.2515 17.1702C52.2388 16.9344 52.2388 16.6939 52.2515 16.4534C52.2685 16.088 52.2473 15.8151 51.8485 15.6347C51.6491 15.5422 51.4582 15.1306 51.4667 14.8716C51.4752 14.6126 51.6873 14.2657 51.9036 14.1316C52.1582 13.9743 52.2685 13.8402 52.2558 13.5257C52.2006 12.2538 52.6206 11.264 53.7024 10.6628C53.8 10.6073 53.8679 10.4177 53.8849 10.2835C53.9188 9.98752 53.8849 9.67765 53.9273 9.38164C53.9909 8.93301 54.3303 8.63238 54.7206 8.65088C55.1279 8.67401 55.5097 8.90989 55.48 9.34464C55.4121 10.2697 55.8406 10.7645 56.4685 11.2733C57.0879 11.7774 57.2024 12.6146 57.177 13.4378C57.1685 13.7662 57.2194 13.9651 57.5418 14.1362C57.7582 14.2518 57.9703 14.6542 57.9618 14.9225C57.9533 15.1907 57.72 15.5376 57.4952 15.681C57.2491 15.8382 57.16 15.9816 57.1812 16.2637C57.1939 16.4672 57.1939 16.68 57.1812 16.8835C57.1558 17.2627 57.177 17.5588 57.5927 17.7438C57.7921 17.8363 57.9873 18.2571 57.9661 18.5069C57.9406 18.7798 57.7115 19.1174 57.4867 19.2654C57.2576 19.4088 57.1812 19.529 57.1812 19.7973C57.1855 21.6889 57.1855 23.5806 57.1812 25.4722C57.1812 25.7359 57.2194 25.9116 57.4867 26.0087C57.8176 26.129 57.9915 26.4204 57.9958 26.8135C58 27.2113 57.8091 27.5026 57.4867 27.6229C57.2152 27.7246 57.1727 27.8911 57.177 28.1548C57.1855 28.6311 57.1897 33.136 57.1727 33.6123C57.1515 34.2414 56.8164 34.616 56.3242 34.5975C55.8533 34.579 55.5479 34.2043 55.5352 33.5938C55.5267 33.1175 55.5182 28.6127 55.5352 28.1363C55.5479 27.7986 55.4249 27.7061 55.1279 27.7015C53.8933 27.683 53.8933 27.6738 53.8933 29.0382C53.8933 31.0084 53.9018 32.9833 53.8849 34.9536C53.8806 35.356 53.9952 35.4947 54.3558 35.4577C54.6315 35.43 54.9115 35.4346 55.1873 35.4577C55.463 35.4762 55.5394 35.3421 55.5352 35.0646C55.5224 34.5096 55.5267 33.95 55.5352 33.395C55.5479 32.7706 55.8745 32.3728 56.3582 32.3775C56.8291 32.3821 57.1515 32.7521 57.1685 33.358C57.1855 33.9315 57.1558 34.505 57.1897 35.0739C57.1982 35.2311 57.3297 35.4439 57.4612 35.5179C57.7879 35.7075 57.9915 35.9572 57.9915 36.3689C57.9915 36.7666 57.7964 37.0441 57.4739 37.169C57.2321 37.2661 57.177 37.4095 57.177 37.6593C57.1812 40.1707 57.1812 42.6821 57.177 45.1935C57.177 45.4617 57.2279 45.6144 57.4952 45.7161C57.8345 45.8456 58 46.1648 58 46.581C57.9915 47.7234 58 48.8704 57.9958 50.0174C57.9915 50.6141 57.6903 50.9517 57.1388 50.9933C57.0242 51.0026 56.9055 50.9979 56.7909 50.9979C49.0909 50.9979 37.437 50.9979 29.737 50.9979C29.5206 50.9979 29.2958 50.9933 29.0879 50.9378C28.6976 50.8268 28.5152 50.5031 28.5237 50.0822C28.5322 49.6613 28.7316 49.3468 29.1261 49.2589C29.3509 49.2081 29.5885 49.208 29.8219 49.2034C37.1273 49.1988 48.3867 49.2034 55.6964 49.2034C55.8958 49.2034 56.0952 49.2034 56.3242 49.2034C56.3242 48.5975 56.3242 48.0518 56.3242 47.4598C38.7903 47.4598 21.2564 47.4598 3.68432 47.4598C3.68432 48.0194 3.68432 48.5744 3.68432 49.2034C3.89219 49.2034 4.09159 49.2034 4.29098 49.2034C12.7037 49.2034 21.1207 49.2034 29.5334 49.2034C29.7497 49.2034 29.9746 49.208 30.1867 49.2543C30.577 49.3422 30.7849 49.6289 30.8061 50.0637C30.8273 50.4938 30.6025 50.8361 30.2164 50.9471C30.0637 50.9887 29.8982 50.9979 29.7413 50.9979C20.8619 50.9979 11.9782 51.0026 3.09886 50.9979C2.26735 50.9979 2.00432 50.7066 2.00432 49.7954C2.00432 48.7455 2.0128 47.6957 2.00008 46.6458C1.99583 46.174 2.1825 45.878 2.56008 45.6653C2.67886 45.6005 2.80614 45.4016 2.80614 45.2582C2.81886 42.7145 2.82311 40.1707 2.80614 37.6269C2.80614 37.4789 2.65765 37.2754 2.53038 37.1921C2.22068 36.9886 1.99159 36.7528 2.00432 36.3365C2.01705 35.9249 2.22492 35.6797 2.56008 35.504C2.67886 35.4392 2.80614 35.2311 2.80614 35.0877C2.82311 32.7521 2.82311 30.4118 2.80614 28.0761C2.80614 27.9281 2.65341 27.7339 2.52189 27.646C2.2122 27.4425 1.99159 27.202 2.00432 26.7811C2.01705 26.3926 2.19947 26.1105 2.53462 25.9902C2.78492 25.9024 2.81886 25.7312 2.81886 25.4861C2.81462 23.576 2.81462 21.6704 2.81886 19.7603C2.81886 19.5152 2.77644 19.3672 2.52189 19.2746C2.19947 19.159 2.00432 18.8723 2.00008 18.4745C1.99583 18.0814 2.16977 17.7808 2.49644 17.6559C2.77644 17.5449 2.84007 17.3645 2.81886 17.0824C2.80189 16.8789 2.80614 16.6661 2.81886 16.4626C2.84432 16.0787 2.81462 15.792 2.40735 15.6023C2.20795 15.5098 2.02129 15.0936 2.03402 14.8392C2.04674 14.5802 2.26311 14.2195 2.47523 14.1131C2.78917 13.9558 2.82735 13.7523 2.81886 13.4517C2.78068 12.2168 3.19644 11.2594 4.23583 10.6628C4.34613 10.598 4.43098 10.4038 4.44795 10.2558C4.48613 9.97365 4.44795 9.68227 4.48613 9.40014C4.54553 8.92838 4.88916 8.61851 5.29644 8.62776C5.69098 8.63701 5.99643 8.93301 6.08128 9.38164C6.22553 10.1772 6.43765 10.5888 6.9934 11.1715C7.5831 11.7913 7.77401 12.5729 7.74007 13.4286C7.72734 13.7616 7.79098 13.9558 8.1134 14.1223C8.32552 14.2333 8.49098 14.5941 8.54189 14.8762C8.60976 15.2508 8.38492 15.5654 8.05825 15.6856C7.79098 15.7874 7.72734 15.9492 7.74431 16.2129C7.75704 16.421 7.75704 16.6245 7.74431 16.8326C7.7231 17.2211 7.73158 17.5402 8.16431 17.7391C8.35946 17.827 8.54189 18.2525 8.52916 18.5115C8.51219 18.7705 8.29158 19.1266 8.07522 19.2376C7.78249 19.3856 7.74007 19.5614 7.74431 19.8482C7.74855 20.1488 7.7528 24.4316 7.71461 24.7276C7.65946 25.1762 7.33704 25.4676 6.93825 25.4769C6.52249 25.4861 6.17886 25.1762 6.12795 24.7091C6.09401 24.3946 6.09825 20.0979 6.11098 19.7834C6.12371 19.4643 6.03462 19.3394 5.71643 19.3348C4.46916 19.3209 4.46916 19.307 4.46916 20.6622C4.46916 22.2532 4.47765 23.8442 4.46068 25.4306C4.44795 25.8376 4.55401 25.944 4.90189 25.944C6.09825 25.9347 6.09825 25.9486 6.10249 24.6628C6.10249 24.4547 6.09825 24.2466 6.13219 24.0477C6.20856 23.6176 6.55643 23.3262 6.95098 23.3401C7.3328 23.354 7.6637 23.6361 7.70613 24.0616C7.7528 24.5333 7.74431 25.0144 7.74431 25.4907C7.74431 25.7544 7.77825 25.9347 8.04977 26.0319C8.38916 26.1521 8.55461 26.4527 8.5631 26.8366C8.56734 27.2298 8.38492 27.5304 8.05825 27.646C7.78674 27.7431 7.74855 27.9143 7.74855 28.1779C7.7528 30.4673 7.7528 32.7567 7.74855 35.0461C7.74855 35.319 7.84613 35.4346 8.05825 35.5872C8.2831 35.7491 8.48249 36.0636 8.54613 36.3504C8.63098 36.7204 8.40613 37.0488 8.07946 37.1736C7.76977 37.2893 7.74431 37.4974 7.74431 37.7888C7.74855 40.2354 7.75704 42.6867 7.74007 45.1334C7.73583 45.5589 7.8631 45.6791 8.24067 45.6653C9.02552 45.6375 9.81037 45.656 10.6419 45.656C10.6546 45.4062 10.6716 45.2074 10.6716 45.0085C10.6716 38.5057 10.6716 32.0028 10.6716 25.5C10.6716 25.3242 10.6631 25.1485 10.6801 24.9774C10.7352 24.4547 11.0789 24.1125 11.5201 24.1263C11.957 24.1402 12.2964 24.501 12.3092 25.0282C12.3304 25.759 12.3346 26.4897 12.3092 27.2205C12.2964 27.5998 12.411 27.7293 12.7546 27.7061C13.1279 27.6784 13.5055 27.7015 13.9213 27.7015C13.9298 27.498 13.9467 27.3454 13.9467 27.1928C13.9467 25.7312 13.9425 24.2651 13.951 22.8036C13.951 22.5214 13.9255 22.3364 13.6285 22.2347C13.2892 22.1191 13.1364 21.7953 13.1449 21.4114C13.1534 20.9998 13.3698 20.75 13.7049 20.5835C13.8364 20.5188 14.0104 20.38 14.0358 20.2413C14.3582 18.493 15.3255 17.2766 16.7128 16.4349C17.1116 16.1944 17.294 15.9215 17.2304 15.4312C17.2049 15.2138 17.2134 14.9826 17.2473 14.7652C17.3194 14.2703 17.6631 13.9697 18.1001 13.9928C18.5116 14.016 18.8128 14.3443 18.8637 14.8207C18.8764 14.9641 18.8934 15.1121 18.8722 15.2508C18.7619 15.9492 19.0249 16.3701 19.691 16.532C19.7164 16.4441 19.7631 16.3331 19.7801 16.2175C20.077 14.0715 21.074 12.3278 22.4273 10.8015C24.2219 8.77576 26.3855 7.30961 28.651 6.00997C29.037 5.78797 29.2194 5.55672 29.1855 5.06646C29.1431 4.38657 29.1685 3.70206 29.177 3.01755C29.1897 2.38392 29.5079 1.99542 29.9958 2.00004C30.4837 2.00004 30.7976 2.38855 30.8103 3.02218C30.8231 3.72057 30.8443 4.42357 30.8019 5.12196C30.7722 5.58446 30.9588 5.79259 31.3067 5.99147C33.2794 7.10611 35.1588 8.378 36.8134 10.0107C38.1837 11.3612 39.3206 12.8967 39.9061 14.8392C40.0715 15.3896 40.1691 15.9677 40.2964 16.5366C41.0897 16.236 41.1152 16.199 41.1194 15.3433C41.1194 15.1537 41.1109 14.9595 41.1364 14.7698C41.1915 14.3212 41.5012 14.0113 41.8958 13.9928C42.3031 13.9697 42.6424 14.2241 42.7188 14.6773C42.774 15.0011 42.7782 15.3433 42.7612 15.6717C42.7443 15.9862 42.8461 16.1574 43.1006 16.3054C43.9449 16.8002 44.7212 17.4154 45.2134 18.3265C45.5273 18.9046 45.6927 19.5753 45.943 20.195C46.0024 20.343 46.1212 20.5003 46.2527 20.5604C46.6134 20.7269 46.8424 20.9813 46.8509 21.4114C46.8594 21.8184 46.6812 22.1283 46.3249 22.2532C46.0915 22.3318 46.0491 22.4752 46.0491 22.7064C46.0534 24.2327 46.0576 25.759 46.0491 27.2853C46.0491 27.5905 46.1297 27.72 46.4224 27.6969C46.7279 27.6738 47.0334 27.6784 47.3388 27.6969C47.6061 27.7108 47.6952 27.5905 47.6909 27.3038C47.6782 26.6192 47.6824 25.9347 47.6867 25.2549C47.6909 24.538 47.9837 24.131 48.4885 24.1217C49.0188 24.1125 49.3327 24.5287 49.3327 25.2641C49.3327 31.1148 49.3327 36.9655 49.3327 42.8162C49.3327 43.7366 49.3327 44.657 49.3327 45.6514ZM37.8528 24.1032C37.8528 23.6037 37.8358 23.1597 37.857 22.7203C37.874 22.3919 37.7382 22.3179 37.4667 22.3226C36.8091 22.3364 36.1558 22.3318 35.4982 22.3272C34.9255 22.3226 34.5649 21.9711 34.5691 21.4392C34.5691 20.9119 34.934 20.5604 35.5067 20.5512C36.2788 20.5419 37.0509 20.5373 37.8231 20.5558C38.0818 20.5604 38.2218 20.4679 38.3025 20.195C38.7097 18.752 38.8158 17.2951 38.4594 15.8243C37.98 13.8309 36.8006 12.3556 35.4091 11.0559C35.2225 10.8802 34.9212 10.7599 34.6752 10.7599C32.0661 10.7368 29.457 10.746 26.8437 10.746C24.6376 10.746 24.6334 10.7414 23.1782 12.5637C21.4346 14.7467 20.917 17.2304 21.6467 20.0239C21.757 20.4402 21.9352 20.5604 22.3213 20.5558C25.2528 20.5373 28.1843 20.5465 31.1116 20.5465C31.4594 20.5465 31.8116 20.528 32.1594 20.5604C32.6091 20.5974 32.9188 20.9859 32.9103 21.4484C32.9061 21.9109 32.5837 22.2809 32.1382 22.3226C32.0067 22.3364 31.8752 22.3272 31.7437 22.3272C28.74 22.3272 25.7364 22.3272 22.7328 22.3272C22.6182 22.3272 22.491 22.2994 22.3849 22.3364C22.2958 22.3688 22.16 22.4659 22.1558 22.5446C22.1346 23.0626 22.1473 23.576 22.1473 24.1032C27.4122 24.1032 32.6006 24.1032 37.8528 24.1032ZM39.5158 29.4775C39.5073 29.6857 39.4903 29.8522 39.4903 30.0233C39.4861 30.9437 39.4903 31.8687 39.4903 32.7891C39.4903 33.2192 39.5073 33.6493 39.4691 34.0748C39.4225 34.5744 39.0661 34.8889 38.6376 34.875C38.2049 34.8565 37.8952 34.5142 37.8655 34.0147C37.857 33.8575 37.857 33.6956 37.857 33.5383C37.857 31.2027 37.857 28.8624 37.857 26.5267C37.857 26.3417 37.857 26.1567 37.857 25.944C32.6006 25.944 27.4037 25.944 22.1516 25.944C22.1516 26.1752 22.1516 26.3741 22.1516 26.5776C22.1516 32.5578 22.1516 38.5334 22.1516 44.5136C22.1516 45.656 22.1516 45.656 23.2164 45.6514C23.7976 45.6514 23.7976 45.6514 23.7976 44.99C23.7976 39.6342 23.7976 34.2737 23.7976 28.9179C23.7976 27.9883 24.0649 27.6969 24.9261 27.6969C28.2946 27.6969 31.6631 27.6969 35.0315 27.6969C35.9734 27.6969 36.2152 27.9651 36.2152 29.0012C36.2152 34.1211 36.2152 39.241 36.2152 44.361C36.2152 45.6699 36.2152 45.656 37.3988 45.6606C37.7637 45.6606 37.874 45.5404 37.8697 45.1426C37.8528 43.3758 37.8612 41.6137 37.8612 39.8469C37.8612 39.0699 37.8528 38.2883 37.874 37.5113C37.8867 37.0441 38.2176 36.7065 38.6249 36.6788C39.0109 36.651 39.3673 36.9378 39.4564 37.3679C39.4946 37.5529 39.4946 37.7471 39.4946 37.9368C39.4988 40.0689 39.4946 42.1965 39.4946 44.3286C39.4946 45.7254 39.4946 45.7161 40.7758 45.656C41.0388 45.6421 41.1364 45.5496 41.1321 45.2629C41.1237 44.546 41.1109 43.8291 41.1406 43.1168C41.1958 41.7571 42.2437 40.4852 43.4655 40.2632C43.5503 40.2493 43.6437 40.2447 43.7243 40.2678C44.6831 40.5777 45.9176 41.3501 46.0321 42.9873C46.0661 43.4637 46.0534 43.9401 46.0576 44.4165C46.0618 45.6606 46.0576 45.6421 47.203 45.656C47.5849 45.6606 47.6994 45.545 47.6994 45.1195C47.6867 40.0782 47.6867 35.0415 47.6994 30.0002C47.6994 29.5839 47.6061 29.459 47.2115 29.4637C44.9206 29.4822 42.634 29.4729 40.3431 29.4729C40.08 29.4775 39.817 29.4775 39.5158 29.4775ZM25.4479 41.9791C25.4437 41.9791 25.4437 41.9791 25.4394 41.9791C25.4394 43.0613 25.4479 44.139 25.4352 45.2212C25.431 45.5542 25.537 45.6606 25.8382 45.656C26.831 45.6421 27.8194 45.6421 28.8122 45.656C29.1049 45.6606 29.194 45.5358 29.1855 45.2351C29.1685 44.7449 29.177 44.25 29.1855 43.7597C29.194 43.066 29.4782 42.696 29.9916 42.6913C30.5261 42.6821 30.8146 43.0567 30.8231 43.7829C30.8273 44.2592 30.8358 44.7356 30.8188 45.212C30.8061 45.5311 30.8952 45.6653 31.2134 45.6606C32.2061 45.6421 33.1946 45.6468 34.1873 45.6606C34.4673 45.6653 34.5734 45.5681 34.5734 45.2536C34.5606 43.1076 34.5819 40.9616 34.5522 38.8202C34.5309 37.1644 33.9243 35.7722 32.694 34.801C31.9346 34.1997 31.0734 33.7511 30.2419 33.2655C30.1061 33.1868 29.86 33.21 29.7116 33.2932C28.9861 33.7002 28.2437 34.0795 27.5776 34.579C26.1988 35.6011 25.4861 37.0626 25.4564 38.8895C25.4352 39.9163 25.4479 40.9477 25.4479 41.9791ZM20.4801 29.4775C20.2934 29.4775 20.1364 29.4775 19.9837 29.4775C17.6079 29.4775 15.2279 29.4914 12.8522 29.4637C12.3855 29.459 12.3049 29.6209 12.3049 30.0834C12.3176 35.06 12.3134 40.0366 12.3134 45.0131C12.3134 45.138 12.2879 45.2767 12.3261 45.3924C12.3558 45.4895 12.4534 45.6329 12.5213 45.6375C12.9795 45.6606 13.4419 45.6468 13.9467 45.6468C13.9467 45.4016 13.9467 45.2305 13.9467 45.0594C13.951 44.4257 13.9298 43.7875 13.9595 43.1538C14.0273 41.7525 15.0031 40.5453 16.2588 40.2771C16.3819 40.2493 16.5219 40.2678 16.6449 40.3048C18.0322 40.6979 18.8637 41.8681 18.8722 43.4313C18.8764 44.0511 18.8594 44.6709 18.8849 45.2906C18.8891 45.4109 19.0291 45.6236 19.1225 45.6329C19.5637 45.6699 20.0134 45.6468 20.4801 45.6468C20.4801 40.2308 20.4801 34.8796 20.4801 29.4775ZM25.4394 34.1257C25.5625 34.0517 25.6091 34.0378 25.6346 34.0101C26.7546 32.7752 28.1376 32.0028 29.6013 31.3923C29.8219 31.2998 30.1316 31.2859 30.3522 31.3784C31.82 31.9751 33.2031 32.7475 34.3316 33.9731C34.374 34.0193 34.4419 34.0471 34.5394 34.1072C34.5479 33.9083 34.5606 33.7696 34.5606 33.6308C34.5606 32.4237 34.5479 31.2166 34.5691 30.0094C34.5776 29.5978 34.48 29.4683 34.0855 29.4683C31.5358 29.4868 28.9861 29.4775 26.4364 29.4775C25.4394 29.4775 25.4394 29.4775 25.4394 30.5783C25.4394 31.7392 25.4394 32.8908 25.4394 34.1257ZM39.5285 22.3272C39.5285 24.1541 39.5285 25.907 39.5285 27.6969C39.9443 27.6969 40.3218 27.6784 40.6994 27.7015C41.0176 27.72 41.1406 27.6136 41.1279 27.2483C41.1024 26.536 41.1109 25.8191 41.1237 25.1022C41.1321 24.5102 41.4631 24.1263 41.934 24.1217C42.4049 24.1171 42.74 24.4963 42.7655 25.0883C42.7824 25.5185 42.7697 25.9486 42.7697 26.3741C42.7697 27.8033 42.7697 27.8033 44.0934 27.6969C44.1061 27.6969 44.1273 27.7015 44.1358 27.6923C44.2291 27.5859 44.3988 27.4795 44.3988 27.3731C44.4158 25.8006 44.4158 24.2281 44.3988 22.6509C44.3988 22.5399 44.2334 22.3364 44.14 22.3364C42.617 22.3226 41.0897 22.3272 39.5285 22.3272ZM20.4885 22.3272C18.9104 22.3272 17.3788 22.3272 15.8516 22.3272C15.5546 22.3272 15.5885 22.5492 15.5885 22.7573C15.5885 23.9645 15.5885 25.1716 15.5885 26.3834C15.5885 27.7385 15.5885 27.7246 16.8316 27.7108C17.1752 27.7061 17.2473 27.5674 17.2388 27.2344C17.2176 26.5822 17.2304 25.9301 17.2346 25.278C17.2388 24.538 17.5443 24.1217 18.0704 24.1263C18.5794 24.131 18.8764 24.5426 18.8807 25.2549C18.8849 25.9394 18.8722 26.6239 18.8934 27.3038C18.8976 27.4379 19.0164 27.6691 19.0928 27.6784C19.551 27.7154 20.0134 27.6969 20.4928 27.6969C20.4885 25.8792 20.4885 24.1402 20.4885 22.3272ZM6.09825 41.4842C6.09825 40.4852 6.09825 39.4815 6.09825 38.4825C6.09825 37.2661 6.09825 37.2846 4.97401 37.2615C4.58371 37.2523 4.44795 37.3633 4.45219 37.8165C4.47341 39.9949 4.46068 42.1687 4.46068 44.3471C4.46068 45.6791 4.46068 45.6653 5.67401 45.6653C6.0431 45.6653 6.10674 45.508 6.10674 45.1565C6.08977 43.9309 6.09825 42.7098 6.09825 41.4842ZM55.5394 41.4842C55.5394 40.4852 55.5394 39.4815 55.5394 38.4825C55.5394 37.2661 55.5394 37.2846 54.4152 37.2615C54.0249 37.2523 53.8891 37.3633 53.8933 37.8165C53.9146 39.9949 53.9018 42.1687 53.9018 44.3471C53.9018 45.6791 53.9018 45.6606 55.1152 45.6653C55.4842 45.6653 55.5479 45.508 55.5479 45.1565C55.5309 43.9309 55.5394 42.7098 55.5394 41.4842ZM6.09825 31.6467C6.09825 30.5043 6.08977 29.3619 6.10249 28.2195C6.10674 27.8588 6.03037 27.683 5.66553 27.7246C5.40674 27.7524 5.13947 27.7478 4.88068 27.7246C4.55825 27.6969 4.44795 27.8218 4.45219 28.1779C4.46492 30.4627 4.46068 32.7475 4.45219 35.0322C4.45219 35.3514 4.52431 35.504 4.8425 35.4762C5.10128 35.4531 5.36856 35.4485 5.62734 35.4762C5.98371 35.5132 6.11098 35.3837 6.10249 34.9767C6.08553 33.8713 6.09825 32.7613 6.09825 31.6467ZM55.5394 22.6879C55.5394 22.0219 55.5394 21.3513 55.5394 20.6853C55.5394 19.3533 55.5394 19.3718 54.3346 19.3625C53.9697 19.3579 53.8933 19.5059 53.8976 19.862C53.9103 21.4484 53.9018 23.0394 53.9018 24.6258C53.9018 25.9671 53.9018 25.9579 55.1533 25.944C55.4673 25.9394 55.5521 25.8237 55.5479 25.5C55.5309 24.5611 55.5394 23.6222 55.5394 22.6879ZM20.0134 20.5095C19.8734 19.0203 19.6146 18.5901 18.4691 17.9056C18.3928 17.8594 18.3207 17.79 18.2358 17.7761C18.117 17.753 17.9728 17.7299 17.871 17.7808C17.1667 18.1554 16.5388 18.6503 16.1146 19.3764C15.9195 19.7094 15.8049 20.0933 15.631 20.5095C17.171 20.5095 18.5922 20.5095 20.0134 20.5095ZM40.0376 20.5003C41.4206 20.5003 42.8503 20.5003 44.314 20.5003C44 19.0896 43.1091 18.3173 42.04 17.7345C41.9679 17.6975 41.8406 17.7299 41.7558 17.7761C40.7206 18.3265 39.8976 19.0434 40.0376 20.5003ZM17.2261 44.2315C17.2219 44.2315 17.2176 44.2315 17.2134 44.2315C17.2134 43.8522 17.2304 43.4684 17.2091 43.0891C17.1879 42.7098 16.7764 42.1363 16.4837 42.1965C16.2079 42.252 15.9449 42.5156 15.7201 42.7376C15.6225 42.8347 15.5928 43.0613 15.5928 43.2278C15.5758 43.9262 15.5758 44.6246 15.5885 45.323C15.5928 45.4294 15.7031 45.6236 15.7667 45.6283C16.2291 45.6375 16.6916 45.6098 17.154 45.5959C17.1752 45.2397 17.2007 44.879 17.2219 44.5229C17.2346 44.4257 17.2261 44.3286 17.2261 44.2315ZM42.7782 44.2315C42.774 45.7207 42.774 45.7208 44.0552 45.6514C44.1146 45.6468 44.1867 45.6653 44.2249 45.6375C44.297 45.582 44.4031 45.4941 44.4031 45.4201C44.4031 44.6107 44.4497 43.7921 44.3394 42.9966C44.297 42.6867 43.9237 42.3121 43.6352 42.2103C43.4528 42.1456 43.1218 42.5202 42.8928 42.7376C42.8037 42.8208 42.7909 43.029 42.7824 43.1816C42.7655 43.5331 42.7782 43.8846 42.7782 44.2315ZM32.5328 8.90988C32.5455 8.87751 32.5582 8.84976 32.5667 8.81738C32.2612 8.62313 31.9643 8.41038 31.6546 8.23C31.1073 7.91087 30.5473 7.36974 29.9916 7.37437C29.4358 7.37899 28.8843 7.92475 28.3328 8.24387C28.0273 8.42425 27.7303 8.62776 27.4291 8.81738C27.4419 8.84976 27.4588 8.87751 27.4716 8.90988C29.16 8.90988 30.8443 8.90988 32.5328 8.90988ZM5.32189 17.5819C6.20431 17.568 6.09401 17.7021 6.09825 16.7679C6.10249 15.8059 6.09825 15.8012 5.19462 15.8059C4.37159 15.8105 4.46492 15.6949 4.46068 16.6245C4.45644 17.5819 4.46068 17.5819 5.32189 17.5819ZM54.6952 17.5819C55.5394 17.5819 55.5436 17.5819 55.5394 16.6522C55.5352 15.6717 55.6412 15.8151 54.7461 15.8059C53.9018 15.7966 53.8976 15.8059 53.9018 16.7355C53.9103 17.7114 53.783 17.568 54.6952 17.5819ZM5.27947 14.0113C6.11946 13.9975 6.08977 14.1408 6.09825 13.4748C6.10674 12.6886 5.8225 12.2492 5.30068 12.2307C4.76613 12.2122 4.45219 12.6701 4.46068 13.4748C4.46916 14.1362 4.43947 13.9928 5.27947 14.0113ZM54.7546 14.0113C55.5436 13.9975 55.5309 14.1362 55.5352 13.4841C55.5436 12.6747 55.2339 12.2168 54.7036 12.2307C54.1861 12.2446 53.8933 12.6839 53.9018 13.4656C53.9061 14.1455 53.8721 13.9928 54.7546 14.0113Z" fill="#172568"/>
</svg>
