<svg width="288" height="28" viewBox="0 0 288 28" fill="none" xmlns="http://www.w3.org/2000/svg">
<path d="M17.008 3.75989V7.48836H11.0865V26.7832H6.62501V7.48836H0.693359V3.75989H17.008Z" fill="white"/>
<path d="M29.4654 8.24876C30.8029 8.24876 31.9974 8.55947 33.0387 9.17052C34.0801 9.76087 34.8866 10.6516 35.4583 11.8426C36.0505 13.0026 36.3465 14.4111 36.3465 16.0682V26.7875H31.8851V16.7C31.8851 15.25 31.5379 14.1418 30.8335 13.3651C30.129 12.5779 29.1796 12.174 27.9647 12.174C26.7293 12.174 25.7594 12.5676 25.0346 13.3651C24.3301 14.1315 23.983 15.2396 23.983 16.7V26.7875H19.5215V2.38678H23.983V10.7966C24.5547 10.0094 25.3204 9.38802 26.2801 8.95303C27.2296 8.48697 28.2914 8.24876 29.4654 8.24876Z" fill="white"/>
<path d="M52.6296 15.9354C52.6092 14.7443 52.1906 13.8019 51.3841 13.0976C50.5775 12.3726 49.5872 12.0101 48.4233 12.0101C47.3207 12.0101 46.3815 12.3623 45.6158 13.0665C44.8705 13.7501 44.4111 14.7029 44.2477 15.9354H52.6296V15.9354ZM57.2443 17.2507C57.2443 17.9135 57.2034 18.5039 57.1218 19.0321H44.2171C44.3192 20.3474 44.7684 21.3831 45.5545 22.1288C46.3406 22.8745 47.3105 23.2473 48.454 23.2473C50.1079 23.2473 51.2922 22.512 51.9864 21.0413H56.7951C56.2846 22.802 55.3045 24.2519 53.865 25.3912C52.4254 26.5097 50.649 27.069 48.5459 27.069C46.8511 27.069 45.3197 26.6858 43.9619 25.9194C42.6244 25.1323 41.5729 24.0137 40.8072 22.5845C40.0619 21.1552 39.6943 19.5085 39.6943 17.6339C39.6943 15.7386 40.0619 14.0815 40.8072 12.6523C41.5524 11.223 42.5938 10.1252 43.9312 9.35878C45.2687 8.59237 46.8103 8.20917 48.5561 8.20917C50.2304 8.20917 51.7312 8.58201 53.0482 9.32771C54.3856 10.0734 55.4168 11.1402 56.1416 12.528C56.8767 13.9054 57.2443 15.4797 57.2443 17.2507Z" fill="white"/>
<path d="M76.2051 22.8579C78.543 22.8579 80.3501 22.1951 81.6263 20.8798C82.9024 19.5645 83.5354 17.7002 83.5354 15.3078C83.5354 12.9154 82.9024 11.0408 81.6263 9.70473C80.3501 8.33762 78.543 7.66443 76.2051 7.66443H73.0504V22.8683H76.2051V22.8579ZM76.3684 3.75989C78.7064 3.75989 80.7585 4.2363 82.5145 5.17878C84.3011 6.12125 85.6692 7.478 86.6288 9.23867C87.6089 10.9786 88.099 12.9982 88.099 15.3078C88.099 17.6174 87.6089 19.637 86.6288 21.3769C85.6692 23.0962 84.3011 24.4218 82.5145 25.3643C80.7482 26.3068 78.7064 26.7832 76.3684 26.7832H68.5889V3.75989H76.3684Z" fill="white"/>
<path d="M95.8969 8.51878V26.7883H91.4354V8.51878H95.8969ZM93.6916 6.34384C92.9055 6.34384 92.2521 6.09528 91.711 5.58779C91.2005 5.05959 90.9453 4.40711 90.9453 3.6407C90.9453 2.87429 91.2005 2.23217 91.711 1.72468C92.2419 1.19648 92.9055 0.937561 93.6916 0.937561C94.4778 0.937561 95.1209 1.19648 95.6314 1.72468C96.1623 2.23217 96.4277 2.86394 96.4277 3.6407C96.4277 4.40711 96.1623 5.05959 95.6314 5.58779C95.1312 6.08492 94.4778 6.34384 93.6916 6.34384Z" fill="white"/>
<path d="M113.043 17.6593C113.043 16.5408 112.829 15.5776 112.41 14.7905C111.982 13.9723 111.41 13.3612 110.685 12.9469C109.96 12.5119 109.184 12.2841 108.357 12.2841C107.53 12.2841 106.765 12.4912 106.06 12.9055C105.356 13.3198 104.784 13.9412 104.335 14.749C103.906 15.5361 103.702 16.489 103.702 17.5868C103.702 18.6846 103.916 19.6582 104.335 20.4867C104.784 21.3049 105.356 21.9263 106.06 22.3613C106.785 22.7963 107.551 23.0242 108.357 23.0242C109.184 23.0242 109.96 22.817 110.685 22.4027C111.41 21.9678 111.982 21.3463 112.41 20.5592C112.829 19.741 113.043 18.7778 113.043 17.6593ZM99.1484 17.5868C99.1484 15.7433 99.4956 14.1069 100.2 12.6777C100.925 11.2484 101.885 10.1506 103.099 9.38417C104.335 8.61776 105.703 8.23456 107.214 8.23456C108.531 8.23456 109.674 8.51419 110.654 9.06311C111.655 9.61202 112.451 10.3059 113.043 11.1448V8.53491H117.536V26.8044H113.043V24.1323C112.472 24.992 111.675 25.7066 110.654 26.2762C109.654 26.8251 108.5 27.1048 107.183 27.1048C105.693 27.1048 104.335 26.7112 103.11 25.9137C101.895 25.1266 100.935 24.0081 100.21 22.5788C99.4956 21.1185 99.1484 19.4614 99.1484 17.5868Z" fill="white"/>
<path d="M143.236 8.24628C145.4 8.24628 147.146 8.94018 148.463 10.328C149.801 11.6951 150.474 13.6008 150.474 16.0657V26.7851H146.013V16.6975C146.013 15.2682 145.666 14.1808 144.961 13.4351C144.257 12.6687 143.307 12.2855 142.092 12.2855C140.878 12.2855 139.918 12.6687 139.193 13.4351C138.489 14.1808 138.141 15.2682 138.141 16.6975V26.7851H133.68V16.6975C133.68 15.2682 133.333 14.1808 132.628 13.4351C131.924 12.6687 130.974 12.2855 129.76 12.2855C128.524 12.2855 127.554 12.6687 126.829 13.4351C126.125 14.1808 125.778 15.2682 125.778 16.6975V26.7851H121.316V8.51555H125.778V10.7216C126.35 9.95516 127.085 9.3441 127.973 8.90912C128.882 8.47413 129.882 8.24628 130.964 8.24628C132.343 8.24628 133.578 8.55698 134.66 9.16804C135.742 9.75838 136.579 10.618 137.182 11.7365C137.754 10.6801 138.58 9.83087 139.663 9.19911C140.765 8.56734 141.96 8.24628 143.236 8.24628Z" fill="white"/>
<path d="M162.331 23.0609C163.138 23.0609 163.893 22.8641 164.598 22.4706C165.322 22.0563 165.894 21.4349 166.323 20.627C166.752 19.8089 166.956 18.825 166.956 17.6546C166.956 15.9147 166.507 14.589 165.619 13.6672C164.751 12.7248 163.679 12.2483 162.403 12.2483C161.126 12.2483 160.054 12.7248 159.187 13.6672C158.339 14.589 157.91 15.925 157.91 17.6546C157.91 19.3946 158.329 20.7306 159.156 21.6731C159.993 22.5948 161.065 23.0609 162.331 23.0609ZM162.331 27.0794C160.636 27.0794 159.105 26.6962 157.747 25.9298C156.389 25.1426 155.317 24.0241 154.531 22.5948C153.765 21.1656 153.388 19.5189 153.388 17.6443C153.388 15.78 153.776 14.1229 154.562 12.6937C155.368 11.2644 156.461 10.1666 157.839 9.40021C159.217 8.61309 160.759 8.20917 162.464 8.20917C164.159 8.20917 165.7 8.60273 167.089 9.40021C168.467 10.1666 169.549 11.2644 170.335 12.6937C171.142 14.1229 171.55 15.7697 171.55 17.6443C171.55 19.5085 171.132 21.1656 170.305 22.5948C169.498 24.0241 168.395 25.1323 166.987 25.9298C165.608 26.6962 164.057 27.0794 162.331 27.0794Z" fill="white"/>
<path d="M184.475 8.24628C186.579 8.24628 188.273 8.94018 189.57 10.328C190.866 11.6951 191.51 13.6008 191.51 16.0657V26.7851H187.048V16.6975C187.048 15.2475 186.701 14.1393 185.997 13.3626C185.292 12.5754 184.343 12.1715 183.128 12.1715C181.892 12.1715 180.922 12.5651 180.198 13.3626C179.493 14.129 179.146 15.2372 179.146 16.6975V26.7851H174.685V8.51555H179.146V10.7941C179.738 10.0069 180.494 9.38553 181.413 8.95054C182.352 8.48448 183.373 8.24628 184.475 8.24628Z" fill="white"/>
<path d="M208.666 17.6528C208.666 16.5343 208.452 15.5711 208.033 14.7839C207.605 13.9657 207.033 13.3547 206.308 12.9404C205.583 12.5054 204.807 12.2776 203.98 12.2776C203.153 12.2776 202.388 12.4847 201.683 12.899C200.979 13.3133 200.407 13.9347 199.958 14.7425C199.529 15.5296 199.325 16.4825 199.325 17.5803C199.325 18.6781 199.539 19.6517 199.958 20.4802C200.407 21.2984 200.979 21.9198 201.683 22.3548C202.408 22.7898 203.174 23.0176 203.98 23.0176C204.807 23.0176 205.583 22.8105 206.308 22.3962C207.033 21.9612 207.605 21.3398 208.033 20.5527C208.452 19.7345 208.666 18.7713 208.666 17.6528ZM194.771 17.5803C194.771 15.7368 195.119 14.1004 195.823 12.6711C196.548 11.2419 197.518 10.1441 198.753 9.37766C199.988 8.61125 201.357 8.22805 202.868 8.22805C204.011 8.22805 205.114 8.48697 206.145 9.01517C207.186 9.52266 208.013 10.2062 208.626 11.0555V2.38678H213.148V26.7875H208.626V24.074C208.074 24.9751 207.298 25.7001 206.298 26.249C205.297 26.7979 204.144 27.0775 202.827 27.0775C201.336 27.0775 199.978 26.684 198.753 25.8865C197.518 25.0994 196.548 23.9808 195.823 22.5516C195.119 21.112 194.771 19.4549 194.771 17.5803Z" fill="white"/>
<path d="M233.851 14.2203C235.087 14.2203 235.995 13.9303 236.587 13.3607C237.18 12.7704 237.476 11.9418 237.476 10.8854C237.476 8.64833 236.261 7.51943 233.841 7.51943H230.309V14.21H233.851V14.2203ZM242.07 10.8854C242.07 12.1179 241.784 13.2675 241.212 14.3446C240.661 15.4217 239.783 16.2917 238.568 16.9545C237.374 17.6174 235.873 17.9488 234.045 17.9488H230.319V26.7832H225.857V3.75989H234.045C235.771 3.75989 237.231 4.07059 238.446 4.68165C239.66 5.2927 240.559 6.14197 241.151 7.21908C241.764 8.30655 242.07 9.5183 242.07 10.8854Z" fill="white"/>
<path d="M252.544 23.0609C253.351 23.0609 254.106 22.8641 254.81 22.4706C255.535 22.0563 256.107 21.4349 256.536 20.627C256.965 19.8089 257.169 18.825 257.169 17.6546C257.169 15.9147 256.72 14.589 255.831 13.6672C254.964 12.7248 253.892 12.2483 252.615 12.2483C251.339 12.2483 250.267 12.7248 249.4 13.6672C248.552 14.589 248.123 15.925 248.123 17.6546C248.123 19.3946 248.542 20.7306 249.369 21.6731C250.206 22.5948 251.268 23.0609 252.544 23.0609ZM252.544 27.0794C250.849 27.0794 249.318 26.6962 247.96 25.9298C246.602 25.1426 245.53 24.0241 244.744 22.5948C243.978 21.1656 243.601 19.5189 243.601 17.6443C243.601 15.78 243.989 14.1229 244.775 12.6937C245.581 11.2644 246.674 10.1666 248.052 9.40021C249.43 8.61309 250.972 8.20917 252.677 8.20917C254.371 8.20917 255.913 8.60273 257.302 9.40021C258.68 10.1666 259.762 11.2644 260.548 12.6937C261.355 14.1229 261.763 15.7697 261.763 17.6443C261.763 19.5085 261.344 21.1656 260.518 22.5948C259.711 24.0241 258.608 25.1323 257.199 25.9298C255.811 26.6962 254.269 27.0794 252.544 27.0794Z" fill="white"/>
<path d="M269.105 11.3533C269.677 10.3901 270.422 9.62374 271.331 9.07482C272.27 8.52591 273.332 8.24628 274.516 8.24628V13.0933H273.342C271.943 13.0933 270.881 13.4351 270.157 14.1186C269.452 14.8022 269.105 15.9829 269.105 17.6814V26.7851H264.644V8.51555H269.105V11.3533V11.3533Z" fill="white"/>
<path d="M283.178 12.3063V21.1407C283.178 21.7518 283.321 22.2075 283.596 22.4975C283.893 22.7564 284.383 22.891 285.067 22.891H287.139V26.7852H284.332C280.574 26.7852 278.696 24.8899 278.696 21.1097V12.3063H276.593V8.51572H278.696V4.00012H283.188V8.51572H287.139V12.3063H283.178Z" fill="white"/>
</svg>
