<svg width="60" height="53" viewBox="0 0 60 53" fill="none" xmlns="http://www.w3.org/2000/svg">
<path d="M48.1697 50.4284H10.9714C10.512 50.4284 10.1406 50.0571 10.1406 49.5976C10.1406 49.1382 10.512 48.7668 10.9714 48.7668H48.1697C48.6292 48.7668 49.0005 49.1382 49.0005 49.5976C49.0005 50.0571 48.6292 50.4284 48.1697 50.4284Z" fill="#172568"/>
<path d="M16.7136 50.4283C16.2542 50.4283 15.8828 50.0569 15.8828 49.5975V42.4534H21.8171C22.2765 42.4534 22.6479 42.8247 22.6479 43.2842C22.6479 43.7436 22.2765 44.115 21.8171 44.115H17.5444V49.5975C17.5444 50.0569 17.173 50.4283 16.7136 50.4283Z" fill="#172568"/>
<path d="M42.0104 50.4283C41.551 50.4283 41.1796 50.0569 41.1796 49.5975V44.115H36.907C36.4475 44.115 36.0762 43.7436 36.0762 43.2842C36.0762 42.8247 36.4475 42.4534 36.907 42.4534H42.8412V49.5975C42.8412 50.0569 42.4699 50.4283 42.0104 50.4283Z" fill="#172568"/>
<path d="M36.8909 50.4286C36.4314 50.4286 36.0601 50.0572 36.0601 49.5978V26.6609H22.6831V49.4638C22.6831 49.9232 22.3117 50.2946 21.8523 50.2946C21.3929 50.2946 21.0215 49.9232 21.0215 49.4638V24.9993H37.7255V49.5978C37.7217 50.0572 37.3503 50.4286 36.8909 50.4286Z" fill="#172568"/>
<path d="M35.4125 26.5267C34.953 26.5267 34.5817 26.1553 34.5817 25.6959V19.1375H24.2905V25.6959C24.2905 26.1553 23.9191 26.5267 23.4597 26.5267C23.0003 26.5267 22.6289 26.1553 22.6289 25.6959V17.476H36.2433V25.6959C36.2433 26.1515 35.8719 26.5267 35.4125 26.5267Z" fill="#172568"/>
<path d="M33.2646 18.4677C32.8051 18.4677 32.4338 18.0963 32.4338 17.6369V14.976H26.3081V17.4187C26.3081 17.8781 25.9367 18.2495 25.4773 18.2495C25.0179 18.2495 24.6465 17.8781 24.6465 17.4187V13.3145H34.0954V17.6369C34.0954 18.0963 33.724 18.4677 33.2646 18.4677Z" fill="#172568"/>
<path d="M32.1898 14.9763C31.7304 14.9763 31.359 14.6049 31.359 14.1455V12.0436L29.4945 10.8299L27.5151 12.0551V14.0076C27.5151 14.4671 27.1437 14.8384 26.6843 14.8384C26.2249 14.8384 25.8535 14.4671 25.8535 14.0076V11.1286L29.5136 8.86206L33.0206 11.1401V14.1416C33.0206 14.6049 32.6492 14.9763 32.1898 14.9763Z" fill="#172568"/>
<path d="M27.6257 26.5269C27.1663 26.5269 26.7949 26.1555 26.7949 25.6961V20.9946C26.7949 20.5352 27.1663 20.1638 27.6257 20.1638C28.0851 20.1638 28.4565 20.5352 28.4565 20.9946V25.6961C28.4565 26.1517 28.0851 26.5269 27.6257 26.5269Z" fill="#172568"/>
<path d="M31.3855 26.5269C30.9261 26.5269 30.5547 26.1555 30.5547 25.6961V20.9946C30.5547 20.5352 30.9261 20.1638 31.3855 20.1638C31.8449 20.1638 32.2163 20.5352 32.2163 20.9946V25.6961C32.2163 26.1517 31.8449 26.5269 31.3855 26.5269Z" fill="#172568"/>
<path d="M25.7449 49.8925C25.2854 49.8925 24.9141 49.5211 24.9141 49.0617V28.5138C24.9141 28.0544 25.2854 27.683 25.7449 27.683C26.2043 27.683 26.5757 28.0544 26.5757 28.5138V49.0617C26.5757 49.5211 26.2043 49.8925 25.7449 49.8925Z" fill="#172568"/>
<path d="M33.3992 49.8925C32.9397 49.8925 32.5684 49.5211 32.5684 49.0617V28.5138C32.5684 28.0544 32.9397 27.683 33.3992 27.683C33.8586 27.683 34.23 28.0544 34.23 28.5138V49.0617C34.23 49.5211 33.8586 49.8925 33.3992 49.8925Z" fill="#172568"/>
<path d="M29.7742 36.0599C29.3147 36.0599 28.9434 35.6886 28.9434 35.2291V28.2458C28.9434 27.7864 29.3147 27.415 29.7742 27.415C30.2336 27.415 30.605 27.7864 30.605 28.2458V35.2291C30.605 35.6886 30.2336 36.0599 29.7742 36.0599Z" fill="#172568"/>
<path d="M29.7742 49.8927C29.3147 49.8927 28.9434 49.5213 28.9434 49.0619V41.9101C28.9434 41.4507 29.3147 41.0793 29.7742 41.0793C30.2336 41.0793 30.605 41.4507 30.605 41.9101V49.0619C30.605 49.5213 30.2336 49.8927 29.7742 49.8927Z" fill="#172568"/>
<path d="M29.5046 10.6804C29.0452 10.6804 28.6738 10.3091 28.6738 9.84963V3.40233C28.6738 2.9429 29.0452 2.57153 29.5046 2.57153C29.9641 2.57153 30.3354 2.9429 30.3354 3.40233V9.84963C30.3354 10.3091 29.9641 10.6804 29.5046 10.6804Z" fill="#172568"/>
<path d="M29.9067 39.3945C30.4268 39.3945 30.8485 38.9728 30.8485 38.4527C30.8485 37.9325 30.4268 37.5109 29.9067 37.5109C29.3865 37.5109 28.9648 37.9325 28.9648 38.4527C28.9648 38.9728 29.3865 39.3945 29.9067 39.3945Z" fill="#172568"/>
</svg>
