<svg width="332" height="299" viewBox="0 0 332 299" fill="none" xmlns="http://www.w3.org/2000/svg">
<mask id="mask0_197_216" style="mask-type:alpha" maskUnits="userSpaceOnUse" x="0" y="0" width="332" height="299">
<rect width="332" height="299" fill="#D9D9D9"/>
</mask>
<g mask="url(#mask0_197_216)">
<path fill-rule="evenodd" clip-rule="evenodd" d="M322.336 84.4671C244.305 31.5318 148.512 27.5443 72.6958 67.2532C0.0581209 109.719 -14.2414 189.604 44.3659 246.973L322.336 84.4671Z" fill="url(#paint0_linear_197_216)"/>
<path d="M192.002 197.5L172.502 213.5" stroke="#172568"/>
<path d="M61.0479 193.337L61.2366 211.54L61.7539 213.286L62.5506 215.006L63.6305 216.685L64.9898 218.311L66.6322 219.873L68.5541 221.359L70.7554 222.759L176.957 284.02L179.385 285.291L181.088 286.049L183.757 287.049L186.544 287.887L189.425 288.562L192.385 289.075L195.398 289.426L198.445 289.614L201.507 289.641L204.562 289.505L207.59 289.207L210.569 288.747L213.48 288.124L216.301 287.34L219.012 286.393L221.591 285.284L224.019 284.012L226.22 282.613L227.53 281.628L229.263 280.089L230.717 278.482L231.891 276.818L232.782 275.113L233.39 273.374L233.719 271.616L233.764 269.85V255.176L233.719 256.941L233.39 258.699C233.39 258.699 232.865 260.193 232.79 260.412C229.848 268.802 61.0479 193.337 61.0479 193.337Z" fill="url(#paint1_linear_197_216)"/>
<path d="M93.2585 175.316L96.3207 175.346L99.3715 175.535L102.385 175.886L105.345 176.399L108.226 177.078L111.012 177.911L113.682 178.915L115.385 179.673L117.809 180.941L224.01 242.202L226.215 243.601L228.134 245.091L229.776 246.653L231.135 248.279L232.211 249.958L233.008 251.678L233.525 253.425L233.759 255.186L233.714 256.952L233.386 258.71L232.774 260.449L231.887 262.158L230.712 263.818L229.259 265.425L227.526 266.968L226.215 267.949L224.01 269.348L221.583 270.62L219.007 271.729L216.296 272.672L213.476 273.456L210.565 274.079L207.586 274.539L204.557 274.837L201.503 274.973L198.441 274.947L195.39 274.754L192.377 274.403L189.417 273.89L186.536 273.215L183.749 272.378L181.083 271.378L179.377 270.62L176.953 269.348L68.546 206.688L66.6279 205.201L64.9854 203.636L63.6261 202.01L62.5463 200.331L61.7533 198.611L61.2361 196.864L61.002 195.102L61.0473 193.337L61.3758 191.579L61.9874 189.84L62.8747 188.131L64.049 186.471L65.5027 184.864L67.2358 183.325L68.546 182.34L70.751 180.941L73.1751 179.673L75.7577 178.564L78.465 177.617L81.2855 176.832L84.1966 176.21L87.1757 175.75L90.2039 175.452L93.2585 175.316Z" fill="white"/>
<path d="M207.945 275.062L204.935 275.361L201.879 275.499L198.85 275.473L195.817 275.285L192.823 274.928L189.883 274.414L187.028 273.736L184.271 272.902L181.628 271.903L179.964 271.153L177.551 269.873L67.6677 205.627L65.8225 204.182L64.245 202.663L62.9504 201.099L61.9362 199.498L61.1955 197.878L60.7186 196.25L60.5028 194.617L60.5467 192.98L60.8468 191.349L61.4126 189.719L62.2427 188.105L63.3515 186.52L64.7382 184.964L66.395 183.475L67.6575 182.516L69.8142 181.129L72.1953 179.867L74.7391 178.759L77.4149 177.81L80.2107 177.022L83.0957 176.397L86.0589 175.937L89.0687 175.634L92.1092 175.5L95.1542 175.526L98.1872 175.714L101.181 176.067L104.121 176.581L106.976 177.259L109.733 178.094L112.376 179.096L114.041 179.842L116.457 181.122L224.139 243.951L226.297 245.338L228.181 246.814L229.759 248.332L231.053 249.9L232.068 251.498L232.808 253.117L233.285 254.749L233.501 256.382L233.457 258.015L233.157 259.65L232.591 261.276L231.761 262.891L230.652 264.479L229.266 266.031L227.605 267.524L226.346 268.479L224.189 269.866L221.808 271.133L219.265 272.24L216.589 273.185L213.793 273.974L210.908 274.598L207.945 275.062Z" fill="#FCFDFF" stroke="#1A276D"/>
<path d="M99.931 195.348C99.9008 195.367 99.8705 195.382 99.8441 195.401C99.8177 195.416 99.795 195.435 99.7686 195.45C99.678 195.506 99.5911 195.563 99.5081 195.623C99.4703 195.65 99.4326 195.676 99.3948 195.706C99.3117 195.767 99.2362 195.831 99.1645 195.895C99.1456 195.91 99.1229 195.929 99.1041 195.944C99.1003 195.948 99.0965 195.955 99.089 195.959C98.9946 196.05 98.9077 196.14 98.836 196.231C98.8322 196.238 98.8247 196.242 98.8171 196.25C98.7982 196.276 98.7831 196.299 98.768 196.325C98.734 196.37 98.7038 196.416 98.6774 196.461C98.6698 196.472 98.6623 196.484 98.6547 196.491C98.6359 196.521 98.6245 196.555 98.6094 196.585C98.5943 196.616 98.5792 196.646 98.5679 196.676C98.5641 196.683 98.5603 196.695 98.5566 196.702C98.5377 196.751 98.5264 196.8 98.515 196.849C98.5113 196.865 98.5075 196.876 98.5037 196.891C98.5037 196.895 98.5037 196.895 98.4999 196.898C98.4886 196.963 98.4811 197.027 98.4773 197.091C98.4773 197.102 98.4773 197.11 98.4773 197.121L98.4697 199.23C98.4697 199.154 98.4773 199.079 98.4924 199C98.4962 198.985 98.4999 198.97 98.5037 198.954C98.5188 198.898 98.5339 198.841 98.5566 198.785C98.5679 198.755 98.583 198.724 98.5981 198.694C98.617 198.653 98.6396 198.611 98.6623 198.57C98.6887 198.524 98.7227 198.479 98.7529 198.434C98.7756 198.404 98.7944 198.37 98.8209 198.34C98.8964 198.249 98.9795 198.159 99.0739 198.068C99.0965 198.045 99.1229 198.026 99.1494 198.004C99.2211 197.94 99.2966 197.879 99.3759 197.819C99.4137 197.793 99.4514 197.766 99.4892 197.736C99.5723 197.679 99.6591 197.619 99.7497 197.562C99.8026 197.529 99.8554 197.495 99.9121 197.461L108.653 192.387L108.661 190.278L99.931 195.348Z" fill="url(#paint2_linear_197_216)"/>
<path d="M109.812 201.177C109.597 201.301 109.378 201.418 109.155 201.531C109.083 201.565 109.011 201.599 108.94 201.633C108.785 201.708 108.63 201.78 108.475 201.848C108.392 201.886 108.305 201.92 108.222 201.954C108.071 202.014 107.924 202.071 107.769 202.127C107.682 202.157 107.595 202.191 107.509 202.218C107.373 202.263 107.237 202.304 107.101 202.346C106.972 202.384 106.848 202.421 106.716 202.455C106.583 202.489 106.451 202.52 106.319 202.55C106.187 202.58 106.059 202.61 105.926 202.636C105.813 202.659 105.7 202.674 105.583 202.693C105.39 202.723 105.202 202.753 105.005 202.772C104.877 202.787 104.745 202.799 104.616 202.81C104.492 202.821 104.367 202.829 104.239 202.836C104.084 202.844 103.929 202.848 103.771 202.851C103.665 202.851 103.563 202.855 103.457 202.851C103.28 202.848 103.102 202.84 102.925 202.833C102.838 202.829 102.751 202.825 102.664 202.818C102.438 202.799 102.211 202.776 101.981 202.746C101.939 202.742 101.894 202.738 101.852 202.731C101.573 202.689 101.29 202.64 101.007 202.584C100.697 202.52 100.387 202.444 100.078 202.354C99.8173 202.278 99.553 202.195 99.2887 202.105C99.2169 202.078 99.1452 202.052 99.0734 202.025C98.8997 201.961 98.7261 201.893 98.5486 201.822C98.3183 201.727 98.088 201.625 97.8576 201.52C97.7519 201.471 97.6424 201.426 97.5367 201.373C97.2006 201.207 96.8646 201.033 96.5286 200.837C94.0894 199.43 93.0057 198.023 93.0095 196.699L93.002 198.807C92.9982 200.132 94.0781 201.539 96.521 202.946C96.857 203.142 97.1931 203.316 97.5291 203.481C97.6386 203.534 97.7444 203.58 97.8501 203.629C98.0804 203.734 98.3107 203.836 98.541 203.93C98.5939 203.953 98.6468 203.979 98.6996 203.998C98.8205 204.047 98.9451 204.089 99.0659 204.134C99.1376 204.161 99.2094 204.187 99.2773 204.213C99.5303 204.3 99.7833 204.383 100.036 204.455C100.048 204.459 100.059 204.459 100.07 204.462C100.38 204.549 100.693 204.628 100.999 204.692C101.003 204.692 101.007 204.696 101.01 204.696C101.286 204.753 101.558 204.802 101.834 204.84C101.837 204.84 101.845 204.84 101.849 204.84C101.89 204.847 101.932 204.847 101.969 204.855C102.173 204.881 102.377 204.907 102.581 204.923C102.608 204.926 102.634 204.926 102.66 204.926C102.747 204.934 102.834 204.934 102.921 204.941C103.049 204.949 103.178 204.96 103.302 204.96C103.355 204.96 103.404 204.96 103.453 204.96C103.559 204.96 103.661 204.96 103.767 204.96C103.857 204.96 103.944 204.96 104.035 204.96C104.103 204.957 104.167 204.949 104.235 204.945C104.36 204.938 104.484 204.93 104.609 204.919C104.68 204.911 104.752 204.911 104.824 204.904C104.884 204.896 104.941 204.885 105.001 204.877C105.194 204.855 105.387 204.828 105.579 204.798C105.651 204.787 105.723 204.779 105.794 204.768C105.84 204.76 105.881 204.749 105.926 204.738C106.059 204.711 106.187 204.681 106.319 204.655C106.451 204.625 106.587 204.594 106.719 204.56C106.848 204.526 106.976 204.489 107.105 204.451C107.191 204.425 107.278 204.406 107.365 204.376C107.414 204.36 107.463 204.342 107.512 204.323C107.599 204.293 107.686 204.262 107.773 204.232C107.924 204.176 108.075 204.119 108.226 204.059C108.309 204.025 108.396 203.991 108.479 203.953C108.638 203.885 108.792 203.813 108.943 203.738C109.015 203.704 109.087 203.67 109.159 203.636C109.381 203.523 109.6 203.406 109.816 203.282L118.666 198.143L118.674 196.035L109.812 201.177Z" fill="url(#paint3_linear_197_216)"/>
<path d="M118.662 196.039L109.812 201.177C106.1 203.331 101.346 203.617 96.5322 200.841C91.7143 198.064 92.1938 195.284 95.8563 193.153L104.729 188L108.668 190.271L99.9266 195.344C98.1596 196.371 97.8348 197.657 99.9266 198.864C101.996 200.06 104.212 199.864 105.983 198.838L114.724 193.764L118.662 196.039Z" fill="#18ACF6"/>
<path d="M124.551 203.116L124.547 205.225L121.194 207.171L121.198 205.062L124.551 203.116Z" fill="url(#paint4_linear_197_216)"/>
<path d="M127.681 204.918L124.554 203.115L124.547 205.224L127.673 207.027C128.217 207.34 128.504 207.717 128.5 208.094L128.508 205.986C128.508 205.612 128.224 205.231 127.681 204.918Z" fill="url(#paint5_linear_197_216)"/>
<path d="M112.88 209.894L112.872 212.003L109.002 209.769L109.006 207.657L112.88 209.894Z" fill="url(#paint6_linear_197_216)"/>
<path d="M117.936 206.959L117.929 209.068L112.873 212.003L112.881 209.894L117.936 206.959Z" fill="url(#paint7_linear_197_216)"/>
<path d="M133.824 206.677C133.82 206.714 133.817 206.756 133.809 206.794C133.787 206.911 133.753 207.028 133.711 207.141C133.707 207.148 133.707 207.156 133.703 207.163C133.654 207.288 133.598 207.416 133.526 207.537C133.45 207.669 133.364 207.797 133.265 207.922C133.247 207.948 133.22 207.971 133.197 207.997C133.096 208.122 132.982 208.242 132.858 208.363C132.809 208.408 132.763 208.454 132.71 208.499C132.627 208.574 132.537 208.646 132.442 208.718C132.382 208.763 132.325 208.812 132.261 208.853C132.155 208.929 132.046 209.001 131.933 209.072C131.853 209.121 131.778 209.174 131.691 209.223C131.461 209.355 131.215 209.476 130.966 209.589C130.909 209.615 130.849 209.642 130.789 209.668C130.539 209.774 130.283 209.876 130.014 209.963C129.931 209.989 129.848 210.012 129.765 210.034C129.648 210.068 129.531 210.106 129.41 210.136C129.32 210.159 129.225 210.178 129.135 210.196C129.018 210.223 128.901 210.249 128.78 210.272C128.716 210.283 128.651 210.291 128.587 210.302C128.398 210.332 128.21 210.362 128.017 210.381C127.923 210.393 127.828 210.4 127.734 210.408C127.617 210.419 127.496 210.427 127.375 210.43C127.266 210.434 127.156 210.438 127.043 210.442C126.941 210.445 126.843 210.445 126.741 210.442C126.62 210.442 126.503 210.438 126.382 210.43C126.288 210.427 126.193 210.423 126.099 210.415C125.978 210.408 125.854 210.396 125.733 210.381C125.638 210.37 125.544 210.362 125.45 210.351C125.333 210.336 125.219 210.317 125.102 210.298C124.993 210.279 124.883 210.261 124.774 210.242C124.676 210.223 124.577 210.2 124.479 210.178C124.332 210.144 124.185 210.11 124.041 210.068C123.954 210.046 123.871 210.019 123.784 209.993C123.531 209.917 123.282 209.834 123.033 209.74C122.988 209.725 122.946 209.71 122.901 209.691C122.75 209.631 122.603 209.563 122.455 209.495C122.38 209.461 122.304 209.431 122.229 209.393C122.006 209.287 121.787 209.17 121.568 209.046L117.921 206.941L117.913 209.05L121.561 211.155C121.776 211.279 121.998 211.396 122.221 211.502C122.297 211.539 122.372 211.57 122.448 211.604C122.595 211.671 122.742 211.739 122.893 211.8C122.905 211.803 122.916 211.811 122.927 211.815C122.961 211.826 122.992 211.837 123.026 211.849C123.275 211.943 123.524 212.026 123.777 212.101C123.818 212.113 123.856 212.132 123.898 212.143C123.943 212.154 123.985 212.162 124.03 212.177C124.177 212.218 124.324 212.252 124.472 212.286C124.536 212.301 124.6 212.32 124.66 212.332C124.694 212.339 124.728 212.343 124.762 212.35C124.872 212.373 124.981 212.388 125.091 212.407C125.17 212.418 125.249 212.437 125.325 212.449C125.363 212.452 125.4 212.456 125.438 212.46C125.533 212.471 125.631 212.483 125.725 212.49C125.801 212.498 125.876 212.509 125.952 212.516C125.997 212.52 126.042 212.52 126.088 212.524C126.182 212.532 126.276 212.535 126.371 212.539C126.435 212.543 126.503 212.547 126.567 212.55C126.62 212.55 126.673 212.55 126.73 212.55C126.832 212.55 126.933 212.55 127.035 212.55C127.092 212.55 127.149 212.55 127.205 212.55C127.258 212.55 127.311 212.543 127.364 212.539C127.485 212.532 127.606 212.524 127.723 212.516C127.779 212.513 127.836 212.513 127.889 212.505C127.926 212.501 127.964 212.494 128.006 212.49C128.198 212.467 128.391 212.441 128.58 212.411C128.625 212.403 128.674 212.4 128.719 212.392C128.735 212.388 128.753 212.384 128.768 212.381C128.889 212.358 129.006 212.332 129.123 212.305C129.214 212.286 129.308 212.267 129.399 212.245C129.52 212.215 129.637 212.177 129.754 212.143C129.829 212.12 129.909 212.101 129.981 212.079C129.988 212.075 129.992 212.075 129.999 212.071C130.264 211.985 130.52 211.886 130.773 211.777C130.834 211.751 130.89 211.724 130.951 211.698C131.2 211.585 131.446 211.464 131.676 211.332C131.71 211.313 131.744 211.29 131.778 211.272C131.827 211.241 131.868 211.211 131.914 211.181C132.027 211.109 132.136 211.038 132.242 210.962C132.306 210.917 132.363 210.872 132.423 210.826C132.518 210.755 132.605 210.683 132.692 210.608C132.718 210.581 132.752 210.559 132.778 210.536C132.801 210.517 132.816 210.494 132.835 210.472C132.96 210.351 133.073 210.23 133.175 210.106C133.19 210.087 133.213 210.068 133.228 210.049C133.231 210.042 133.235 210.038 133.239 210.03C133.337 209.902 133.424 209.774 133.5 209.646C133.568 209.521 133.628 209.397 133.673 209.272C133.677 209.265 133.677 209.261 133.677 209.253C133.719 209.14 133.753 209.027 133.775 208.914C133.775 208.91 133.775 208.906 133.775 208.899C133.783 208.861 133.783 208.819 133.79 208.782C133.802 208.706 133.813 208.631 133.817 208.552C133.817 208.533 133.817 208.514 133.817 208.495L133.824 206.386C133.851 206.488 133.836 206.582 133.824 206.677Z" fill="url(#paint8_linear_197_216)"/>
<path d="M131.442 203.338C134.817 205.284 134.406 207.661 131.698 209.23C129.018 210.788 124.959 211.011 121.583 209.061L117.936 206.956L112.88 209.891L109.006 207.657L123.92 199L131.442 203.338ZM124.324 206.865C125.363 207.465 126.775 207.529 127.783 206.944C128.81 206.348 128.715 205.518 127.677 204.919L124.551 203.115L121.198 205.062L124.324 206.865Z" fill="#18ACF6"/>
<path d="M145.79 211.234L145.782 213.343L134.225 220.054L134.232 217.945L145.79 211.234Z" fill="url(#paint9_linear_197_216)"/>
<path d="M145.789 211.233L134.232 217.944L140.262 221.422L136.905 223.373L127.005 217.661L141.919 209L145.789 211.233Z" fill="#18ACF6"/>
<path d="M140.263 221.422L140.259 223.531L136.902 225.482L136.906 223.373L140.263 221.422Z" fill="url(#paint10_linear_197_216)"/>
<path d="M136.906 223.373L136.902 225.482L127.002 219.77L127.006 217.662L136.906 223.373Z" fill="url(#paint11_linear_197_216)"/>
<path d="M158.619 222.034C158.339 221.872 158.045 221.732 157.739 221.611C157.724 221.604 157.713 221.596 157.698 221.593C157.69 221.589 157.682 221.589 157.675 221.585C157.467 221.506 157.26 221.434 157.044 221.37C157.025 221.366 157.01 221.359 156.991 221.351C156.935 221.336 156.874 221.325 156.818 221.31C156.712 221.283 156.61 221.257 156.504 221.234C156.478 221.227 156.448 221.219 156.421 221.215C156.357 221.204 156.293 221.193 156.229 221.181C156.146 221.166 156.063 221.151 155.976 221.136C155.949 221.132 155.919 221.125 155.893 221.121C155.821 221.11 155.745 221.106 155.67 221.095C155.594 221.087 155.523 221.076 155.447 221.068C155.425 221.064 155.402 221.064 155.383 221.061C155.296 221.053 155.213 221.053 155.126 221.046C155.054 221.042 154.983 221.038 154.915 221.034C154.9 221.034 154.885 221.03 154.869 221.03C154.786 221.027 154.7 221.03 154.617 221.03C154.53 221.03 154.447 221.03 154.36 221.03C154.348 221.03 154.333 221.03 154.322 221.03C154.262 221.034 154.205 221.038 154.145 221.042C154.02 221.049 153.895 221.057 153.775 221.068C153.756 221.068 153.733 221.072 153.714 221.072C153.673 221.076 153.631 221.083 153.589 221.091C153.423 221.11 153.257 221.132 153.091 221.163C153.053 221.17 153.016 221.17 152.982 221.178C152.944 221.185 152.91 221.193 152.872 221.2C152.763 221.223 152.657 221.246 152.551 221.268C152.472 221.287 152.389 221.306 152.309 221.325C152.2 221.351 152.094 221.385 151.989 221.415C151.932 221.43 151.875 221.445 151.822 221.464C151.807 221.468 151.792 221.476 151.777 221.483C151.532 221.562 151.294 221.653 151.06 221.755C151.011 221.777 150.965 221.796 150.916 221.819C150.678 221.928 150.444 222.042 150.221 222.174C150.188 222.192 150.157 222.211 150.127 222.23C150.082 222.257 150.044 222.287 149.999 222.317C149.897 222.381 149.795 222.449 149.7 222.517C149.64 222.558 149.587 222.604 149.531 222.645C149.447 222.709 149.364 222.777 149.289 222.845C149.262 222.868 149.232 222.887 149.21 222.909C149.191 222.928 149.176 222.947 149.157 222.966C149.043 223.075 148.938 223.185 148.847 223.298C148.832 223.317 148.813 223.332 148.798 223.351C148.794 223.358 148.79 223.362 148.787 223.369C148.696 223.483 148.617 223.6 148.553 223.716C148.526 223.766 148.507 223.815 148.485 223.864C148.454 223.928 148.42 223.988 148.398 224.048C148.36 224.154 148.33 224.26 148.307 224.365C148.307 224.369 148.307 224.373 148.307 224.377C148.3 224.407 148.3 224.441 148.296 224.471C148.285 224.539 148.273 224.611 148.273 224.678C148.273 224.694 148.273 224.709 148.273 224.724L148.266 226.833C148.266 226.75 148.277 226.663 148.288 226.58C148.292 226.55 148.292 226.516 148.3 226.485C148.322 226.376 148.352 226.267 148.394 226.157C148.417 226.097 148.451 226.037 148.481 225.972C148.504 225.923 148.522 225.871 148.553 225.822C148.621 225.705 148.7 225.588 148.787 225.474C148.806 225.452 148.828 225.429 148.847 225.407C148.941 225.293 149.043 225.184 149.157 225.075C149.198 225.033 149.244 224.992 149.289 224.95C149.364 224.882 149.447 224.818 149.531 224.75C149.587 224.709 149.64 224.663 149.7 224.622C149.795 224.554 149.897 224.49 149.999 224.422C150.074 224.373 150.146 224.324 150.225 224.279C150.448 224.15 150.682 224.033 150.92 223.924C150.969 223.901 151.014 223.879 151.063 223.86C151.298 223.758 151.535 223.667 151.781 223.588C151.853 223.566 151.924 223.543 151.996 223.524C152.102 223.494 152.208 223.46 152.317 223.434C152.396 223.411 152.479 223.396 152.562 223.377C152.668 223.354 152.774 223.328 152.883 223.309C152.959 223.294 153.031 223.283 153.106 223.268C153.272 223.241 153.438 223.219 153.605 223.2C153.665 223.192 153.725 223.185 153.79 223.177C153.914 223.166 154.035 223.158 154.16 223.151C154.231 223.147 154.303 223.139 154.375 223.139C154.462 223.136 154.545 223.139 154.632 223.139C154.73 223.139 154.832 223.139 154.93 223.139C155.002 223.143 155.073 223.147 155.145 223.151C155.251 223.158 155.36 223.162 155.466 223.173C155.542 223.181 155.617 223.188 155.693 223.2C155.795 223.211 155.896 223.222 155.995 223.237C156.078 223.249 156.165 223.268 156.248 223.283C156.338 223.298 156.433 223.317 156.523 223.335C156.629 223.358 156.735 223.384 156.837 223.411C156.912 223.43 156.988 223.449 157.063 223.471C157.278 223.535 157.49 223.603 157.694 223.686C157.716 223.694 157.739 223.705 157.762 223.716C158.064 223.837 158.358 223.977 158.641 224.139C159.82 224.818 160.375 225.625 160.371 226.44L160.378 224.331C160.352 223.524 159.797 222.713 158.619 222.034Z" fill="url(#paint12_linear_197_216)"/>
<path d="M165.566 225.112C165.555 225.206 165.551 225.304 165.532 225.399C165.513 225.501 165.479 225.602 165.453 225.704C165.426 225.795 165.407 225.885 165.374 225.976C165.34 226.067 165.294 226.153 165.256 226.244C165.211 226.349 165.166 226.455 165.109 226.557C165.071 226.629 165.019 226.697 164.977 226.764C164.894 226.896 164.811 227.028 164.713 227.161C164.596 227.315 164.471 227.466 164.331 227.617C164.316 227.632 164.297 227.651 164.282 227.666C164.158 227.798 164.018 227.923 163.875 228.051C163.754 228.16 163.622 228.262 163.489 228.368C163.391 228.443 163.301 228.519 163.195 228.594C163.044 228.7 162.881 228.805 162.719 228.911C162.587 228.994 162.462 229.081 162.323 229.164C161.964 229.371 161.59 229.556 161.209 229.73C161.103 229.779 160.997 229.824 160.888 229.869C160.574 230.001 160.254 230.126 159.925 230.235C159.838 230.265 159.751 230.299 159.665 230.326C159.491 230.382 159.313 230.427 159.136 230.477C158.981 230.518 158.83 230.567 158.671 230.605C158.49 230.65 158.309 230.684 158.128 230.722C157.973 230.752 157.822 230.79 157.663 230.816C157.274 230.884 156.878 230.941 156.482 230.982C156.349 230.997 156.213 231.001 156.078 231.012C155.851 231.031 155.628 231.05 155.402 231.057C155.228 231.065 155.054 231.065 154.881 231.065C154.711 231.065 154.537 231.069 154.367 231.069C154.182 231.065 154.001 231.054 153.816 231.046C153.657 231.039 153.499 231.031 153.34 231.02C153.163 231.005 152.981 230.986 152.804 230.967C152.638 230.948 152.472 230.933 152.306 230.91C152.151 230.888 151.996 230.861 151.841 230.835C151.645 230.801 151.445 230.771 151.252 230.733C151.124 230.707 150.999 230.676 150.871 230.646C150.618 230.59 150.365 230.529 150.116 230.461C149.995 230.427 149.878 230.394 149.761 230.36C149.36 230.239 148.968 230.111 148.583 229.96C148.537 229.941 148.488 229.926 148.443 229.911C148.228 229.824 148.02 229.73 147.809 229.635C147.707 229.59 147.601 229.548 147.499 229.499C147.189 229.352 146.891 229.194 146.597 229.024C144.222 227.655 143.002 225.968 143.01 224.293L143.002 226.402C142.998 228.077 144.214 229.764 146.589 231.133C146.88 231.303 147.182 231.461 147.491 231.608C147.597 231.657 147.703 231.703 147.809 231.748C148.016 231.842 148.22 231.936 148.435 232.019C148.447 232.023 148.458 232.031 148.469 232.035C148.503 232.05 148.541 232.057 148.575 232.072C148.96 232.219 149.353 232.351 149.753 232.472C149.813 232.491 149.866 232.514 149.927 232.533C149.987 232.548 150.048 232.559 150.108 232.578C150.357 232.646 150.61 232.706 150.863 232.763C150.954 232.781 151.041 232.808 151.131 232.827C151.169 232.834 151.207 232.838 151.241 232.846C151.437 232.883 151.633 232.917 151.83 232.947C151.954 232.966 152.079 232.997 152.204 233.012C152.234 233.015 152.264 233.019 152.294 233.023C152.46 233.046 152.626 233.061 152.789 233.08C152.936 233.095 153.08 233.117 153.227 233.129C153.261 233.132 153.295 233.132 153.325 233.132C153.484 233.144 153.642 233.151 153.801 233.159C153.948 233.166 154.095 233.178 154.242 233.181C154.28 233.181 154.318 233.181 154.356 233.181C154.526 233.185 154.696 233.181 154.865 233.178C155.005 233.178 155.141 233.181 155.281 233.178C155.319 233.178 155.353 233.17 155.39 233.17C155.617 233.163 155.843 233.144 156.066 233.125C156.179 233.117 156.297 233.113 156.41 233.102C156.429 233.102 156.451 233.095 156.47 233.095C156.867 233.053 157.263 233 157.652 232.929C157.671 232.925 157.694 232.925 157.712 232.921C157.848 232.895 157.981 232.864 158.116 232.834C158.298 232.797 158.483 232.763 158.66 232.717C158.815 232.68 158.97 232.634 159.125 232.589C159.302 232.54 159.48 232.495 159.653 232.438C159.68 232.431 159.71 232.423 159.74 232.412C159.8 232.393 159.857 232.367 159.918 232.344C160.246 232.234 160.567 232.11 160.88 231.978C160.986 231.933 161.096 231.887 161.201 231.838C161.583 231.665 161.956 231.48 162.315 231.273C162.368 231.242 162.417 231.212 162.47 231.182C162.557 231.129 162.629 231.073 162.715 231.02C162.878 230.914 163.04 230.812 163.191 230.703C163.293 230.627 163.387 230.552 163.486 230.477C163.618 230.371 163.75 230.265 163.871 230.16C163.905 230.129 163.946 230.099 163.98 230.069C164.086 229.971 164.18 229.873 164.279 229.775C164.294 229.76 164.313 229.741 164.328 229.726C164.448 229.598 164.558 229.469 164.66 229.341C164.679 229.318 164.69 229.292 164.709 229.269C164.807 229.141 164.894 229.009 164.973 228.877C165.007 228.82 165.053 228.768 165.087 228.711C165.094 228.696 165.098 228.681 165.105 228.67C165.162 228.564 165.207 228.462 165.253 228.356C165.287 228.281 165.332 228.206 165.358 228.126C165.362 228.115 165.366 228.1 165.37 228.089C165.404 227.998 165.423 227.907 165.449 227.817C165.475 227.73 165.506 227.643 165.525 227.553C165.528 227.538 165.528 227.526 165.528 227.511C165.547 227.417 165.551 227.323 165.562 227.228C165.57 227.145 165.589 227.059 165.593 226.976C165.593 226.945 165.593 226.919 165.593 226.889L165.6 224.78C165.596 224.886 165.577 224.999 165.566 225.112Z" fill="url(#paint13_linear_197_216)"/>
<path d="M162.02 220.061C166.612 222.709 166.857 226.527 162.319 229.16C157.78 231.793 151.184 231.665 146.593 229.017C142.001 226.368 141.733 222.536 146.272 219.902C150.806 217.269 157.429 217.413 162.02 220.061ZM149.991 227.044C152.468 228.473 155.964 228.292 158.381 226.889C160.82 225.474 161.099 223.464 158.618 222.034C156.123 220.593 152.649 220.763 150.21 222.177C147.797 223.581 147.495 225.603 149.991 227.044Z" fill="#18ACF6"/>
<path d="M193.888 244.594L191.437 243.179L191.43 245.288L193.88 246.703C195.209 247.468 195.802 248.298 195.802 249.098L195.81 246.989C195.81 246.186 195.217 245.36 193.888 244.594Z" fill="url(#paint14_linear_197_216)"/>
<path d="M191.437 243.179L191.43 245.288L183.229 250.053L183.232 247.944L191.437 243.179Z" fill="url(#paint15_linear_197_216)"/>
<path d="M201.081 247.48C201.081 247.593 201.062 247.706 201.051 247.82C201.043 247.899 201.039 247.978 201.024 248.061C201.005 248.167 200.967 248.276 200.937 248.382C200.915 248.453 200.903 248.525 200.877 248.593C200.843 248.683 200.798 248.77 200.756 248.861C200.714 248.951 200.681 249.042 200.628 249.132C200.597 249.189 200.552 249.246 200.518 249.302C200.435 249.434 200.352 249.566 200.254 249.694C200.141 249.842 200.016 249.989 199.876 250.136C199.85 250.166 199.816 250.196 199.786 250.226C199.68 250.332 199.567 250.438 199.446 250.539C199.321 250.649 199.189 250.754 199.053 250.864C198.963 250.936 198.872 251.007 198.774 251.075C198.619 251.185 198.449 251.294 198.279 251.403C198.155 251.483 198.034 251.566 197.898 251.645C197.641 251.796 197.377 251.932 197.109 252.064C197.037 252.101 196.961 252.135 196.89 252.169C196.667 252.275 196.437 252.373 196.206 252.467C196.153 252.486 196.104 252.509 196.055 252.531C195.787 252.637 195.515 252.731 195.24 252.818C195.089 252.867 194.938 252.905 194.787 252.946C194.617 252.992 194.45 253.041 194.281 253.082C194.126 253.12 193.971 253.15 193.816 253.18C193.65 253.214 193.484 253.252 193.318 253.278C193.004 253.331 192.691 253.376 192.374 253.41C192.317 253.418 192.261 253.425 192.204 253.433C191.977 253.456 191.751 253.467 191.524 253.478C191.407 253.486 191.294 253.497 191.177 253.501C191.098 253.505 191.018 253.501 190.939 253.501C190.686 253.505 190.437 253.508 190.184 253.501C190.071 253.497 189.957 253.49 189.844 253.482C189.629 253.471 189.414 253.463 189.198 253.444C189.047 253.433 188.9 253.41 188.749 253.395C188.568 253.373 188.383 253.354 188.202 253.327C187.998 253.297 187.798 253.259 187.597 253.222C187.454 253.195 187.314 253.173 187.171 253.142C186.797 253.063 186.427 252.973 186.057 252.871C185.759 252.788 185.464 252.694 185.173 252.595C185.098 252.569 185.022 252.539 184.943 252.512C184.739 252.441 184.539 252.362 184.339 252.282C184.105 252.188 183.874 252.086 183.648 251.981C183.538 251.932 183.425 251.882 183.319 251.83C182.987 251.667 182.655 251.494 182.334 251.309L176.01 247.661L176.002 249.77L182.326 253.418C182.647 253.603 182.976 253.772 183.312 253.938C183.421 253.991 183.531 254.037 183.64 254.089C183.871 254.195 184.101 254.297 184.335 254.391C184.38 254.41 184.426 254.433 184.471 254.452C184.626 254.512 184.781 254.565 184.939 254.621C185.015 254.648 185.09 254.678 185.17 254.704C185.449 254.799 185.732 254.889 186.015 254.972C186.027 254.976 186.038 254.976 186.053 254.98C186.419 255.085 186.793 255.176 187.167 255.251C187.186 255.255 187.205 255.263 187.224 255.266C187.344 255.293 187.469 255.308 187.594 255.33C187.794 255.368 187.994 255.406 188.198 255.436C188.228 255.44 188.258 255.447 188.285 255.451C188.439 255.474 188.594 255.485 188.749 255.504C188.896 255.519 189.044 255.542 189.195 255.553C189.221 255.557 189.244 255.561 189.27 255.561C189.459 255.576 189.651 255.583 189.844 255.591C189.957 255.595 190.071 255.606 190.184 255.61C190.199 255.61 190.21 255.61 190.225 255.613C190.463 255.621 190.701 255.613 190.943 255.61C191.022 255.61 191.101 255.61 191.181 255.61C191.184 255.61 191.188 255.61 191.192 255.61C191.305 255.606 191.419 255.595 191.532 255.587C191.758 255.576 191.981 255.564 192.204 255.542C192.211 255.542 192.219 255.542 192.227 255.542C192.276 255.538 192.325 255.527 192.378 255.519C192.695 255.485 193.008 255.44 193.322 255.387C193.355 255.38 193.393 255.38 193.431 255.372C193.563 255.349 193.692 255.315 193.82 255.289C193.975 255.255 194.13 255.225 194.284 255.191C194.454 255.149 194.62 255.1 194.79 255.055C194.941 255.014 195.092 254.972 195.243 254.927C195.274 254.916 195.308 254.908 195.342 254.9C195.583 254.821 195.825 254.734 196.063 254.644C196.116 254.625 196.165 254.602 196.214 254.58C196.444 254.489 196.671 254.387 196.897 254.282C196.973 254.248 197.044 254.214 197.116 254.176C197.384 254.044 197.649 253.908 197.905 253.757C197.958 253.727 198.011 253.693 198.064 253.663C198.143 253.614 198.207 253.565 198.283 253.516C198.453 253.407 198.623 253.297 198.778 253.188C198.876 253.116 198.966 253.044 199.057 252.976C199.193 252.871 199.329 252.761 199.45 252.652C199.487 252.618 199.536 252.584 199.574 252.55C199.65 252.482 199.718 252.411 199.786 252.339C199.816 252.309 199.846 252.279 199.876 252.248C200.001 252.12 200.118 251.988 200.22 251.856C200.231 251.841 200.239 251.826 200.25 251.811C200.352 251.679 200.435 251.55 200.514 251.418C200.545 251.369 200.586 251.32 200.613 251.271C200.616 251.264 200.62 251.256 200.624 251.249C200.673 251.158 200.711 251.068 200.752 250.977C200.79 250.894 200.835 250.815 200.869 250.732C200.873 250.724 200.873 250.717 200.877 250.709C200.903 250.638 200.918 250.566 200.937 250.498C200.967 250.404 201.001 250.306 201.02 250.211C201.024 250.2 201.02 250.189 201.024 250.177C201.039 250.098 201.043 250.015 201.051 249.936C201.062 249.849 201.077 249.762 201.081 249.679C201.081 249.653 201.081 249.627 201.081 249.596V247.48Z" fill="url(#paint16_linear_197_216)"/>
<path d="M197.218 242.632C201.946 245.36 202.527 248.955 197.902 251.641C193.273 254.331 187.031 254.018 182.33 251.305L176.006 247.657L190.92 239L197.218 242.632ZM185.661 249.344C188.292 250.864 191.721 250.641 193.937 249.359C196.24 248.019 196.633 246.178 193.888 244.594L191.438 243.179L183.233 247.944L185.661 249.344Z" fill="#18ACF6"/>
<path d="M175.647 233.354L175.643 235.463L167.491 237.772L167.499 235.663L175.647 233.354Z" fill="url(#paint17_linear_197_216)"/>
<path d="M163.248 236.962L163.24 239.071L160.216 239.943L160.22 237.834L163.248 236.962Z" fill="url(#paint18_linear_197_216)"/>
<path d="M160.22 237.834L160.216 239.943L156.002 237.514L156.01 235.405L160.22 237.834Z" fill="url(#paint19_linear_197_216)"/>
<path d="M169.482 240.558L169.474 242.666L163.24 239.071L163.248 236.962L169.482 240.558Z" fill="url(#paint20_linear_197_216)"/>
<path d="M181.432 232.806L181.429 234.919L172.186 246.847L172.189 244.738L181.432 232.806Z" fill="url(#paint21_linear_197_216)"/>
<path d="M172.189 244.739L172.186 246.847L167.979 244.422L167.983 242.313L172.189 244.739Z" fill="url(#paint22_linear_197_216)"/>
<path d="M181.432 232.806L172.189 244.735L167.983 242.309L169.478 240.555L163.244 236.96L160.22 237.831L156.01 235.402L176.573 230L181.432 232.806ZM167.499 235.662L171.71 238.091L175.651 233.353L167.499 235.662Z" fill="#18ACF6"/>
<path d="M232.855 78.0522L231.229 78.498L231.506 87.2646L233.12 86.8189L232.855 78.0522Z" fill="url(#paint23_linear_197_216)"/>
<path d="M224.93 65.4645C225.026 65.5388 225.121 65.6131 225.217 65.6768C225.514 65.8997 225.801 66.1225 226.067 66.3454C226.088 66.3667 226.12 66.3879 226.152 66.4091C226.449 66.6532 226.715 66.9079 226.97 67.152C227.033 67.2051 227.087 67.2688 227.15 67.3219C227.405 67.5766 227.639 67.8207 227.862 68.0754C227.883 68.0966 227.894 68.1072 227.904 68.1285C228.106 68.362 228.287 68.5955 228.468 68.829C228.531 68.9139 228.595 68.9988 228.659 69.0837C228.765 69.2323 228.861 69.3808 228.956 69.5294C229.084 69.7205 229.2 69.9115 229.307 70.1026C229.381 70.2405 229.466 70.3679 229.53 70.5059C229.615 70.6651 229.689 70.8136 229.763 70.9728C229.827 71.1214 229.902 71.27 229.965 71.4186C230.029 71.5778 230.093 71.737 230.157 71.8962C230.21 72.0448 230.263 72.1934 230.316 72.342C230.38 72.5224 230.433 72.7028 230.486 72.8833C230.528 73.0318 230.571 73.1804 230.613 73.329C230.645 73.4458 230.666 73.5625 230.698 73.6793C230.741 73.8703 230.783 74.0507 230.815 74.2418C230.836 74.3479 230.858 74.4646 230.879 74.5708C230.911 74.7618 230.943 74.9529 230.964 75.1439C230.985 75.2713 230.996 75.388 231.017 75.5154C231.038 75.6746 231.049 75.8338 231.07 75.993C231.091 76.184 231.113 76.3751 231.123 76.5661C231.134 76.6828 231.144 76.7996 231.144 76.9057C231.176 77.3727 231.208 77.8397 231.229 78.3279C231.229 78.3704 231.229 78.4022 231.24 78.4447L232.865 77.9989C232.865 77.9777 232.865 77.9564 232.865 77.9458C232.865 77.9246 232.865 77.9034 232.865 77.8821C232.844 77.4045 232.812 76.9269 232.78 76.46C232.78 76.3963 232.77 76.322 232.77 76.2583C232.77 76.2158 232.759 76.1628 232.759 76.1203C232.748 75.9293 232.727 75.7382 232.706 75.5472C232.695 75.4305 232.685 75.3137 232.674 75.197C232.674 75.1545 232.663 75.1121 232.653 75.0696C232.642 74.9422 232.621 74.8255 232.6 74.6981C232.578 74.5708 232.568 74.4434 232.547 74.3161C232.536 74.2524 232.525 74.1887 232.515 74.125C232.494 74.0189 232.472 73.9021 232.451 73.796C232.43 73.7005 232.419 73.605 232.398 73.5201C232.377 73.4245 232.355 73.329 232.334 73.2335C232.313 73.1167 232.281 73 232.249 72.8833C232.239 72.8196 232.228 72.7665 232.207 72.7028C232.185 72.6073 232.154 72.5224 232.122 72.4269C232.069 72.2465 232.015 72.066 231.952 71.8856C231.931 71.8219 231.92 71.7582 231.899 71.7052C231.867 71.6203 231.824 71.5354 231.792 71.4505C231.729 71.2913 231.676 71.1321 231.612 70.9728C231.548 70.8243 231.484 70.6757 231.41 70.5271C231.336 70.3679 231.261 70.2193 231.176 70.0601C231.144 69.9964 231.113 69.9327 231.081 69.8585C231.038 69.7842 230.996 69.7205 230.953 69.6462C230.847 69.4551 230.73 69.2641 230.603 69.0731C230.55 68.9988 230.518 68.9245 230.465 68.8502C230.411 68.7759 230.358 68.7016 230.295 68.6273C230.231 68.5424 230.167 68.4575 230.103 68.3726C230.061 68.3089 230.018 68.2452 229.965 68.1815C229.827 68.0117 229.689 67.8419 229.54 67.6721C229.519 67.6509 229.509 67.6296 229.498 67.619L229.487 67.6084C229.328 67.428 229.158 67.2369 228.977 67.0565C228.914 66.9928 228.85 66.9292 228.786 66.8655C228.733 66.8124 228.669 66.7487 228.606 66.6957C228.542 66.632 228.489 66.5789 228.425 66.5152C228.234 66.3348 228.021 66.1544 227.809 65.974C227.798 65.9633 227.788 65.9634 227.788 65.9527C227.766 65.9315 227.735 65.9103 227.703 65.8891C227.511 65.7299 227.32 65.5707 227.118 65.4115C227.033 65.3478 226.938 65.2841 226.853 65.2098C226.757 65.1355 226.662 65.0612 226.555 64.9975C226.47 64.9339 226.396 64.8702 226.311 64.8171C226.12 64.6898 225.918 64.5518 225.716 64.4244C225.621 64.3607 225.525 64.2971 225.429 64.2334C225.398 64.2121 225.366 64.1909 225.334 64.1697C224.962 63.9256 224.569 63.6921 224.155 63.448C224.155 63.448 224.155 63.448 224.144 63.448L179.762 37.8486C179.667 37.7955 179.56 37.7424 179.465 37.6894C179.391 37.6469 179.316 37.6151 179.252 37.5832C179.231 37.5726 179.221 37.562 179.199 37.562C179.189 37.562 179.178 37.5514 179.167 37.5514C179.072 37.509 178.966 37.4665 178.87 37.424C178.817 37.4028 178.764 37.3816 178.721 37.371C178.7 37.3604 178.668 37.3498 178.647 37.3391C178.626 37.3285 178.594 37.3179 178.573 37.3073C178.466 37.2755 178.36 37.2436 178.265 37.2118C178.233 37.2012 178.211 37.2012 178.18 37.1906C178.148 37.1799 178.116 37.1799 178.084 37.1693C178.041 37.1587 177.988 37.1481 177.946 37.1375C177.84 37.1163 177.723 37.095 177.617 37.0738C177.617 37.0738 177.617 37.0738 177.606 37.0738C177.595 37.0738 177.585 37.0738 177.574 37.0738C177.468 37.0526 177.362 37.042 177.255 37.0314C177.213 37.0314 177.17 37.0314 177.138 37.0207C177.096 37.0207 177.054 37.0207 177 37.0101C176.958 37.0101 176.915 36.9995 176.884 36.9995C176.799 36.9995 176.724 36.9995 176.639 37.0101C176.597 37.0101 176.554 37.0101 176.512 37.0101C176.501 37.0101 176.48 37.0101 176.469 37.0101C176.374 37.0207 176.278 37.0314 176.182 37.042C176.129 37.0526 176.066 37.0526 176.012 37.0632C176.002 37.0632 176.002 37.0632 175.991 37.0632C175.832 37.0844 175.683 37.1269 175.534 37.1693L173.909 37.6151C174.069 37.5726 174.228 37.5408 174.387 37.509C174.44 37.4983 174.504 37.4983 174.557 37.4877C174.663 37.4771 174.77 37.4559 174.886 37.4559C174.929 37.4559 174.971 37.4559 175.014 37.4559C175.131 37.4559 175.258 37.4559 175.375 37.4559C175.418 37.4559 175.46 37.4559 175.513 37.4665C175.662 37.4771 175.811 37.4877 175.959 37.509C175.97 37.509 175.981 37.509 175.991 37.509C176.151 37.5302 176.31 37.5726 176.469 37.6045C176.501 37.6151 176.533 37.6151 176.565 37.6257C176.724 37.6682 176.884 37.7106 177.032 37.7743C177.054 37.7849 177.085 37.7955 177.107 37.8061C177.266 37.8698 177.425 37.9335 177.595 38.0078C177.617 38.0184 177.627 38.029 177.648 38.029C177.818 38.1139 177.988 38.1988 178.158 38.2943L222.54 63.8937C222.997 64.1591 223.422 64.4138 223.825 64.6791C223.921 64.7428 224.017 64.8065 224.112 64.8702C224.378 65.0718 224.665 65.2735 224.93 65.4645Z" fill="url(#paint24_linear_197_216)"/>
<path d="M299.841 132.806C299.841 132.668 299.852 132.53 299.841 132.392C299.841 132.286 299.841 132.169 299.83 132.063C299.83 132.042 299.83 132.02 299.83 131.999C299.83 131.988 299.83 131.967 299.83 131.957C299.82 131.797 299.82 131.649 299.799 131.49C299.788 131.383 299.777 131.277 299.767 131.171C299.767 131.139 299.756 131.108 299.756 131.076C299.756 131.054 299.756 131.033 299.746 131.001C299.724 130.821 299.703 130.651 299.671 130.471C299.661 130.407 299.65 130.354 299.639 130.29C299.629 130.227 299.618 130.163 299.607 130.089C299.597 130.014 299.586 129.94 299.565 129.866C299.533 129.728 299.501 129.59 299.469 129.462C299.448 129.388 299.437 129.314 299.416 129.24C299.406 129.218 299.406 129.187 299.395 129.165C299.374 129.08 299.342 129.006 299.321 128.921C299.257 128.709 299.193 128.486 299.119 128.274C299.108 128.231 299.098 128.189 299.087 128.157C299.066 128.083 299.023 128.008 299.002 127.934C298.928 127.722 298.843 127.51 298.758 127.308C298.704 127.191 298.662 127.074 298.609 126.968C298.513 126.767 298.418 126.565 298.311 126.363C298.28 126.289 298.248 126.215 298.205 126.151C298.184 126.119 298.173 126.098 298.152 126.066C297.993 125.78 297.823 125.504 297.653 125.238C297.642 125.228 297.632 125.207 297.632 125.196C297.632 125.196 297.632 125.196 297.632 125.185C297.621 125.164 297.6 125.143 297.589 125.132C297.462 124.952 297.334 124.761 297.196 124.591C297.175 124.57 297.164 124.548 297.143 124.527C297.111 124.485 297.069 124.442 297.037 124.4C296.962 124.315 296.899 124.219 296.824 124.135C296.75 124.05 296.686 123.975 296.612 123.901C296.58 123.869 296.559 123.837 296.527 123.806C296.506 123.784 296.495 123.774 296.474 123.752C296.367 123.636 296.251 123.53 296.144 123.423C296.091 123.381 296.038 123.328 295.996 123.285C295.974 123.264 295.943 123.243 295.921 123.222C295.889 123.201 295.868 123.169 295.836 123.148C295.741 123.063 295.635 122.978 295.528 122.893C295.465 122.85 295.401 122.797 295.337 122.755C295.316 122.744 295.295 122.723 295.284 122.712C295.263 122.702 295.241 122.681 295.22 122.67C295.125 122.606 295.029 122.532 294.923 122.468C294.827 122.405 294.721 122.341 294.625 122.288L233.152 86.8286L231.526 87.2744L293 122.734C293.223 122.861 293.446 123.01 293.659 123.158C293.68 123.169 293.701 123.19 293.712 123.201C293.914 123.349 294.105 123.498 294.285 123.668C294.307 123.689 294.339 123.71 294.36 123.731C294.54 123.89 294.721 124.071 294.891 124.251C294.923 124.283 294.944 124.315 294.976 124.336C295.125 124.495 295.273 124.665 295.411 124.835C295.443 124.877 295.486 124.92 295.518 124.962C295.677 125.153 295.826 125.366 295.964 125.567C295.974 125.589 295.996 125.61 296.006 125.62C296.017 125.631 296.028 125.652 296.038 125.673C296.219 125.939 296.378 126.215 296.537 126.491C296.591 126.586 296.644 126.692 296.697 126.788C296.803 126.99 296.899 127.191 296.994 127.393C297.047 127.51 297.1 127.616 297.143 127.732C297.228 127.934 297.313 128.146 297.387 128.359C297.43 128.475 297.472 128.582 297.515 128.698C297.589 128.911 297.653 129.133 297.717 129.346C297.748 129.452 297.78 129.558 297.812 129.664C297.833 129.738 297.844 129.813 297.865 129.887C297.918 130.099 297.961 130.301 298.003 130.513C298.014 130.577 298.025 130.641 298.035 130.704C298.078 130.97 298.12 131.224 298.152 131.49C298.152 131.521 298.163 131.553 298.163 131.585C298.195 131.861 298.216 132.137 298.226 132.413C298.226 132.434 298.226 132.455 298.226 132.477C298.237 132.753 298.237 133.039 298.226 133.315C298.226 133.347 298.226 133.368 298.226 133.389C298.216 133.665 298.195 133.931 298.163 134.207C298.163 134.238 298.152 134.26 298.152 134.292C298.12 134.578 298.067 134.865 298.014 135.141L279.095 226.607C279.021 226.946 278.936 227.286 278.829 227.594C278.819 227.615 278.819 227.636 278.808 227.657C278.702 227.965 278.596 228.262 278.468 228.538C278.458 228.559 278.447 228.581 278.436 228.591C278.309 228.857 278.171 229.111 278.022 229.355C278.001 229.387 277.98 229.419 277.958 229.451C277.841 229.642 277.703 229.822 277.576 229.992C277.523 230.056 277.48 230.12 277.427 230.183C277.321 230.311 277.204 230.427 277.087 230.544C277.002 230.629 276.928 230.714 276.843 230.788C276.715 230.894 276.588 230.99 276.46 231.085C276.376 231.149 276.291 231.213 276.206 231.276C276.057 231.372 275.908 231.446 275.749 231.531C275.674 231.574 275.6 231.616 275.526 231.648C275.292 231.754 275.058 231.839 274.803 231.903H274.793L276.418 231.457C276.662 231.393 276.907 231.298 277.14 231.191C277.215 231.16 277.289 231.107 277.374 231.064C277.523 230.99 277.682 230.905 277.831 230.809C277.916 230.756 278.001 230.682 278.086 230.618C278.213 230.523 278.341 230.427 278.468 230.321C278.553 230.247 278.638 230.162 278.712 230.077C278.797 229.992 278.893 229.918 278.978 229.822C279.01 229.791 279.031 229.759 279.052 229.727C279.106 229.663 279.159 229.599 279.201 229.536C279.265 229.451 279.329 229.377 279.392 229.302C279.456 229.207 279.52 229.101 279.594 229.005C279.615 228.973 279.637 228.941 279.658 228.91C279.669 228.888 279.679 228.878 279.69 228.857C279.775 228.719 279.849 228.581 279.924 228.443C279.977 228.347 280.019 228.252 280.062 228.145C280.072 228.124 280.083 228.114 280.093 228.092C280.104 228.082 280.104 228.061 280.115 228.05C280.168 227.933 280.221 227.806 280.274 227.678C280.327 227.551 280.37 227.434 280.412 227.307C280.423 227.275 280.433 227.243 280.444 227.222C280.455 227.201 280.455 227.18 280.465 227.158C280.487 227.084 280.518 227.01 280.54 226.936C280.571 226.819 280.603 226.691 280.635 226.564C280.667 226.437 280.699 226.32 280.72 226.193C280.72 226.182 280.72 226.182 280.72 226.171L299.639 134.705C299.661 134.589 299.682 134.472 299.703 134.355C299.724 134.228 299.745 134.101 299.756 133.973C299.756 133.931 299.767 133.888 299.767 133.856C299.767 133.835 299.777 133.803 299.777 133.782C299.788 133.718 299.788 133.655 299.799 133.591C299.809 133.464 299.82 133.326 299.83 133.198C299.83 133.124 299.841 133.039 299.841 132.965C299.841 132.933 299.841 132.912 299.841 132.891C299.83 132.859 299.83 132.827 299.841 132.806Z" fill="url(#paint25_linear_197_216)"/>
<path d="M222.53 63.9259C230.167 68.3305 230.996 72.8624 231.219 78.4874L231.495 87.2541L292.969 122.713C296.698 124.868 298.95 130.461 297.983 135.152L279.064 226.618C278.097 231.309 274.252 233.389 270.523 231.245L152.345 163.076C148.617 160.921 146.365 155.328 147.331 150.637L169.607 42.9539C170.574 38.2628 174.419 36.1826 178.148 38.3265L222.53 63.9259Z" fill="#E4E7FB"/>
<path d="M273.487 231.701C272.563 231.701 271.639 231.436 270.725 230.905L152.548 162.736C148.947 160.656 146.79 155.264 147.725 150.722L170.001 43.0385C170.649 39.9075 172.688 37.8804 175.195 37.8804C176.119 37.8804 177.044 38.1457 177.957 38.6764L222.339 64.2758C229.849 68.606 230.614 73.0955 230.837 78.5189L231.124 87.4978L292.789 123.074C296.39 125.154 298.557 130.535 297.612 135.088L278.692 226.554C278.034 229.674 275.994 231.701 273.487 231.701Z" fill="#162D70"/>
<path d="M278.469 228.517L277.81 230.852L265.116 238.218V236.275L278.469 228.517Z" fill="url(#paint26_linear_197_216)"/>
<path d="M286.498 161.568L285.457 160.963L293.392 144.257L294.433 144.862L286.498 161.568Z" fill="url(#paint27_linear_197_216)"/>
<path d="M257.094 153.662L286.497 161.569L294.433 144.864L277.213 227.775L267.408 233.443L257.094 153.662Z" fill="url(#paint28_linear_197_216)"/>
<path d="M257.094 153.661L256.053 153.056L285.456 160.963L286.497 161.568L257.094 153.661Z" fill="url(#paint29_linear_197_216)"/>
<path d="M191.532 99.0238C191.489 98.8752 191.436 98.7266 191.393 98.578C191.372 98.5249 191.351 98.4719 191.34 98.4082C191.266 98.1747 191.181 97.9412 191.107 97.7077C191.075 97.6228 191.054 97.5379 191.022 97.453C191 97.3999 190.99 97.3575 190.969 97.3044C190.937 97.2089 190.894 97.1134 190.862 97.0179C190.83 96.9223 190.788 96.8162 190.756 96.7207C190.714 96.6145 190.671 96.5084 190.629 96.4023C190.607 96.3492 190.586 96.2961 190.565 96.2431C190.554 96.2112 190.544 96.1794 190.533 96.1476C190.469 95.999 190.416 95.861 190.352 95.7124C190.321 95.6275 190.278 95.5426 190.246 95.4683C190.236 95.4471 190.225 95.4152 190.214 95.394C190.204 95.3728 190.193 95.3409 190.182 95.3197C190.129 95.2136 190.087 95.1074 190.034 95.0013C189.981 94.8952 189.938 94.7997 189.885 94.6935C189.864 94.6511 189.843 94.6192 189.832 94.5768C189.821 94.5662 189.821 94.5556 189.811 94.5343C189.789 94.5025 189.779 94.4706 189.758 94.4388C189.715 94.3539 189.673 94.269 189.63 94.1841C189.588 94.0992 189.545 94.0249 189.503 93.94C189.46 93.8657 189.418 93.7914 189.375 93.7065C189.375 93.7065 189.375 93.7065 189.375 93.6959C189.333 93.6216 189.29 93.5473 189.248 93.473C189.195 93.3881 189.141 93.2926 189.088 93.2077C189.025 93.1015 188.961 93.006 188.897 92.8999C188.897 92.8893 188.886 92.8893 188.886 92.8786C188.823 92.7831 188.759 92.6876 188.695 92.5921C188.589 92.4329 188.483 92.2631 188.366 92.1039C188.345 92.0826 188.334 92.0508 188.313 92.0296L188.302 92.019C188.207 91.8916 188.111 91.7642 188.015 91.6369C187.93 91.5307 187.845 91.414 187.75 91.3079C187.729 91.2866 187.707 91.2548 187.686 91.2336C187.675 91.223 187.665 91.2123 187.665 91.2017C187.633 91.1593 187.601 91.1274 187.569 91.085C187.506 91.0107 187.442 90.9364 187.378 90.8621C187.314 90.7878 187.251 90.7135 187.176 90.6392C187.112 90.5649 187.038 90.4906 186.974 90.4163C186.974 90.4163 186.974 90.4163 186.964 90.4057C186.964 90.4057 186.964 90.4057 186.953 90.3951C186.889 90.3208 186.826 90.2571 186.751 90.1828C186.677 90.0979 186.592 90.0237 186.507 89.9387C186.422 89.8538 186.326 89.7583 186.231 89.6734C186.21 89.6522 186.188 89.631 186.156 89.6097C186.146 89.5991 186.125 89.5885 186.114 89.5673C186.05 89.5142 185.997 89.4505 185.933 89.3975C185.806 89.2807 185.689 89.1746 185.562 89.0578C185.466 88.9729 185.37 88.8986 185.275 88.8137C185.253 88.7925 185.232 88.7819 185.211 88.7607C185.19 88.7394 185.169 88.7288 185.147 88.7076C184.988 88.5696 184.818 88.4316 184.648 88.2937C184.542 88.2088 184.425 88.1239 184.319 88.039C184.276 88.0071 184.223 87.9647 184.181 87.9328C184.149 87.901 184.106 87.8798 184.074 87.8479C183.862 87.6887 183.639 87.5189 183.405 87.3597C183.341 87.3172 183.278 87.2748 183.214 87.2323C183.129 87.1793 183.055 87.1156 182.97 87.0625C182.853 86.9776 182.747 86.9033 182.619 86.8184C182.438 86.7017 182.258 86.5849 182.067 86.4682C181.971 86.4151 181.886 86.3514 181.801 86.2984C181.769 86.2771 181.727 86.2559 181.695 86.2241C181.344 86.0012 180.973 85.7783 180.59 85.5554C180.569 85.5448 180.548 85.5236 180.516 85.513L136.134 59.9136C136.049 59.8605 135.964 59.818 135.879 59.765C135.783 59.7119 135.698 59.6695 135.603 59.627C135.539 59.5952 135.486 59.5739 135.433 59.5421C135.422 59.5315 135.401 59.5315 135.39 59.5209C135.369 59.5103 135.359 59.4996 135.337 59.4996C135.252 59.4572 135.157 59.4254 135.072 59.3829C134.987 59.3511 134.891 59.3086 134.806 59.2768C134.785 59.2662 134.753 59.2555 134.732 59.2555C134.711 59.2449 134.7 59.2449 134.679 59.2343C134.636 59.2237 134.583 59.2025 134.541 59.1919C134.445 59.16 134.36 59.1388 134.264 59.1176C134.19 59.0963 134.116 59.0857 134.052 59.0645C134.041 59.0645 134.031 59.0645 134.02 59.0539C134.009 59.0539 133.999 59.0539 133.999 59.0433C133.903 59.022 133.808 59.0008 133.712 58.9902C133.616 58.9796 133.521 58.9584 133.425 58.9584H133.415C133.404 58.9584 133.393 58.9584 133.393 58.9584C133.308 58.9478 133.213 58.9478 133.128 58.9478C133.032 58.9478 132.937 58.9478 132.841 58.9584C132.83 58.9584 132.82 58.9584 132.809 58.9584H132.799C132.671 58.969 132.554 58.9796 132.427 59.0008C132.395 59.0114 132.374 59.0114 132.342 59.022C132.278 59.0327 132.214 59.0539 132.161 59.0645C132.108 59.0751 132.044 59.0857 131.991 59.107C131.97 59.1176 131.949 59.1388 131.917 59.1388C131.704 59.2131 131.503 59.3086 131.322 59.436L129.644 60.5822C129.824 60.4548 130.026 60.3699 130.238 60.285C130.323 60.2532 130.398 60.232 130.483 60.2001C130.546 60.1789 130.6 60.1683 130.663 60.1577C130.812 60.1258 130.971 60.1046 131.131 60.094C131.141 60.094 131.152 60.094 131.163 60.094C131.343 60.0834 131.524 60.0834 131.715 60.1046C131.726 60.1046 131.736 60.1046 131.747 60.1046C131.949 60.1258 132.151 60.1577 132.363 60.2001C132.374 60.2001 132.384 60.2001 132.384 60.2107C132.586 60.2532 132.798 60.3169 133.011 60.3912C133.032 60.4018 133.043 60.4018 133.064 60.4124C133.277 60.4867 133.5 60.5716 133.723 60.6777C133.733 60.6883 133.755 60.6883 133.765 60.699C133.999 60.8051 134.233 60.9325 134.466 61.0598L178.848 86.6592C179.294 86.9139 179.73 87.1793 180.133 87.434C180.229 87.4871 180.314 87.5507 180.399 87.6038C180.707 87.8055 181.015 87.9965 181.302 88.1982C181.387 88.2512 181.472 88.3149 181.546 88.368C181.886 88.6015 182.205 88.835 182.513 89.0685C182.555 89.1003 182.608 89.1427 182.651 89.1746C182.959 89.4187 183.267 89.6522 183.543 89.8963C183.564 89.9175 183.586 89.9281 183.607 89.9494C183.904 90.2041 184.181 90.4482 184.446 90.7029C184.457 90.7135 184.478 90.7347 184.489 90.7454C184.765 91.0107 185.03 91.276 185.275 91.5307C185.519 91.7961 185.753 92.0614 185.976 92.3268C185.986 92.3374 185.997 92.348 185.997 92.3586C186.22 92.6239 186.422 92.8893 186.624 93.1546C186.762 93.3456 186.889 93.5261 187.006 93.7171C187.07 93.8126 187.134 93.8975 187.197 93.993C187.367 94.2584 187.537 94.5343 187.686 94.7997C187.845 95.0756 187.984 95.3516 188.122 95.6275C188.132 95.6381 188.132 95.6487 188.143 95.6593C188.281 95.9247 188.408 96.2006 188.525 96.4766C188.536 96.4978 188.547 96.519 188.557 96.5403C188.674 96.795 188.78 97.0603 188.886 97.315C188.908 97.3681 188.929 97.4212 188.95 97.4742C189.035 97.6759 189.11 97.8881 189.184 98.0898C189.216 98.1853 189.258 98.2808 189.29 98.3764C189.343 98.5143 189.386 98.6523 189.428 98.7797C189.503 99.0026 189.588 99.236 189.662 99.4695C189.726 99.6712 189.789 99.8728 189.864 100.074L192.243 107.833L193.922 106.687L191.532 99.0238Z" fill="url(#paint30_linear_197_216)"/>
<path d="M268.802 233.718C268.802 233.697 268.802 233.686 268.802 233.665C268.802 233.569 268.802 233.463 268.802 233.368C268.802 233.272 268.791 233.166 268.78 233.06C268.78 233.049 268.78 233.049 268.78 233.039L262.726 153.555C262.715 153.46 262.704 153.364 262.704 153.269C262.694 153.163 262.683 153.067 262.662 152.961C262.651 152.908 262.641 152.855 262.641 152.812C262.641 152.791 262.63 152.77 262.63 152.759C262.63 152.727 262.619 152.696 262.619 152.664C262.598 152.558 262.577 152.451 262.556 152.356C262.534 152.25 262.513 152.144 262.481 152.038C262.481 152.027 262.481 152.016 262.471 152.006C262.471 151.995 262.471 151.984 262.46 151.974C262.439 151.889 262.417 151.793 262.396 151.709C262.364 151.602 262.332 151.486 262.301 151.38C262.29 151.326 262.269 151.273 262.247 151.22C262.237 151.199 262.237 151.178 262.226 151.157C262.216 151.125 262.205 151.082 262.194 151.05C262.163 150.944 262.12 150.838 262.088 150.721C262.046 150.615 262.014 150.509 261.971 150.392V150.382C261.971 150.382 261.971 150.371 261.961 150.371C261.929 150.276 261.886 150.191 261.854 150.095C261.812 150 261.769 149.894 261.727 149.798C261.695 149.724 261.663 149.65 261.631 149.575C261.631 149.565 261.621 149.565 261.621 149.554C261.621 149.543 261.61 149.533 261.61 149.522C261.568 149.437 261.536 149.352 261.493 149.267C261.451 149.183 261.408 149.098 261.376 149.013C261.334 148.938 261.302 148.864 261.26 148.779C261.26 148.769 261.249 148.758 261.249 148.758C261.249 148.747 261.238 148.747 261.238 148.737C261.206 148.673 261.175 148.609 261.143 148.546C261.1 148.471 261.058 148.397 261.015 148.312C260.973 148.238 260.93 148.153 260.888 148.079C260.867 148.036 260.845 147.994 260.813 147.951C260.803 147.941 260.803 147.93 260.792 147.92C260.782 147.898 260.76 147.866 260.75 147.845C260.697 147.75 260.633 147.654 260.58 147.559C260.516 147.463 260.452 147.357 260.388 147.262C260.378 147.24 260.357 147.219 260.346 147.198C260.304 147.134 260.261 147.081 260.229 147.017C260.155 146.901 260.07 146.784 259.995 146.667C259.932 146.582 259.879 146.497 259.815 146.412C259.815 146.412 259.815 146.402 259.804 146.402C259.794 146.381 259.772 146.359 259.762 146.349C259.634 146.168 259.507 145.999 259.369 145.829C259.337 145.786 259.305 145.744 259.262 145.701C259.252 145.68 259.231 145.659 259.22 145.648C259.188 145.616 259.167 145.585 259.135 145.542C259.071 145.457 258.997 145.372 258.923 145.287C258.859 145.213 258.806 145.149 258.742 145.075C258.71 145.043 258.689 145.011 258.657 144.98C258.646 144.969 258.636 144.958 258.625 144.948C258.604 144.916 258.572 144.895 258.551 144.863C258.487 144.799 258.434 144.725 258.37 144.661C258.306 144.598 258.243 144.534 258.19 144.47C258.137 144.417 258.094 144.375 258.041 144.322C258.03 144.311 258.03 144.311 258.02 144.3C258.009 144.29 257.998 144.279 257.988 144.269C257.913 144.194 257.85 144.131 257.775 144.056C257.701 143.982 257.627 143.918 257.563 143.855C257.51 143.812 257.457 143.759 257.414 143.717C257.404 143.706 257.393 143.695 257.372 143.685C257.35 143.664 257.329 143.653 257.319 143.632C257.234 143.557 257.149 143.483 257.064 143.409C256.968 143.335 256.883 143.26 256.787 143.186C256.777 143.175 256.756 143.165 256.745 143.154C256.734 143.144 256.713 143.133 256.702 143.122C256.639 143.069 256.575 143.016 256.511 142.974C256.416 142.899 256.32 142.836 256.224 142.761C256.182 142.73 256.129 142.698 256.086 142.666C256.065 142.655 256.044 142.645 256.033 142.623C256.001 142.602 255.969 142.581 255.948 142.56C255.853 142.496 255.757 142.432 255.672 142.379C255.576 142.326 255.481 142.263 255.385 142.21C255.375 142.21 255.375 142.199 255.364 142.199L193.89 106.74L192.212 107.886L253.686 143.345C253.909 143.473 254.132 143.621 254.355 143.77C254.376 143.78 254.397 143.802 254.419 143.812C254.631 143.961 254.833 144.109 255.045 144.269C255.056 144.279 255.077 144.29 255.088 144.3C255.3 144.47 255.513 144.651 255.715 144.831C255.725 144.842 255.736 144.852 255.757 144.863C255.959 145.054 256.171 145.245 256.373 145.447C256.384 145.457 256.384 145.457 256.394 145.468C256.596 145.67 256.798 145.882 256.989 146.094C257 146.105 257.01 146.115 257.021 146.126C257.212 146.338 257.393 146.55 257.573 146.773C257.584 146.795 257.605 146.816 257.616 146.826C257.786 147.039 257.945 147.251 258.105 147.474C258.115 147.495 258.136 147.516 258.147 147.527C258.296 147.729 258.434 147.93 258.572 148.142C258.615 148.206 258.657 148.259 258.689 148.323C258.838 148.556 258.986 148.8 259.135 149.045C259.146 149.055 259.146 149.066 259.156 149.076C259.305 149.331 259.443 149.586 259.581 149.851C259.581 149.862 259.592 149.862 259.592 149.872C259.73 150.138 259.857 150.403 259.974 150.668C259.974 150.679 259.985 150.69 259.985 150.69C260.102 150.955 260.208 151.22 260.314 151.475C260.314 151.475 260.314 151.486 260.325 151.486C260.42 151.74 260.516 152.006 260.59 152.26C260.601 152.282 260.601 152.303 260.612 152.324C260.686 152.579 260.76 152.823 260.813 153.078C260.813 153.088 260.813 153.099 260.824 153.109C260.888 153.364 260.93 153.619 260.973 153.863C260.973 153.884 260.983 153.905 260.983 153.927C261.026 154.181 261.058 154.426 261.068 154.67L267.123 234.153C267.145 234.387 267.145 234.609 267.145 234.822C267.145 234.843 267.145 234.854 267.145 234.875C267.145 235.076 267.134 235.267 267.113 235.448C267.113 235.469 267.102 235.501 267.102 235.522C267.081 235.703 267.049 235.883 267.017 236.053C267.017 236.074 267.006 236.095 267.006 236.117C266.975 236.254 266.932 236.392 266.89 236.52C266.879 236.562 266.858 236.605 266.847 236.647C266.815 236.743 266.773 236.828 266.73 236.923C266.698 236.987 266.667 237.05 266.635 237.114C266.613 237.157 266.582 237.188 266.56 237.231C266.475 237.369 266.38 237.507 266.273 237.624C266.242 237.666 266.199 237.709 266.167 237.74C266.029 237.878 265.891 238.006 265.732 238.122L267.41 236.976C267.569 236.87 267.708 236.743 267.846 236.594C267.878 236.552 267.92 236.509 267.952 236.467C268.058 236.35 268.154 236.212 268.239 236.074C268.26 236.042 268.281 236.032 268.292 236C268.302 235.989 268.302 235.968 268.313 235.957C268.345 235.894 268.377 235.83 268.409 235.766C268.441 235.703 268.472 235.639 268.504 235.565C268.515 235.543 268.526 235.512 268.526 235.49C268.536 235.448 268.557 235.405 268.568 235.374C268.589 235.321 268.61 235.267 268.621 235.204C268.642 235.129 268.664 235.045 268.685 234.96C268.685 234.938 268.695 234.917 268.695 234.896C268.695 234.885 268.706 234.875 268.706 234.864C268.727 234.758 268.749 234.652 268.77 234.535C268.78 234.482 268.78 234.418 268.791 234.365C268.791 234.344 268.802 234.323 268.802 234.291C268.802 234.27 268.812 234.249 268.812 234.217C268.823 234.121 268.834 234.015 268.834 233.909C268.834 233.845 268.834 233.771 268.834 233.707C268.802 233.75 268.802 233.739 268.802 233.718Z" fill="url(#paint31_linear_197_216)"/>
<path d="M178.827 86.7114C186.464 91.1159 188.281 95.1808 189.853 100.159L192.232 107.917L253.706 143.376C257.435 145.531 260.738 150.625 261.057 154.701L267.112 234.184C267.42 238.259 264.626 239.841 260.898 237.686L142.72 169.517C138.991 167.362 135.688 162.268 135.38 158.192L128.252 64.6144C127.944 60.5389 130.727 58.9575 134.466 61.112L178.827 86.7114Z" fill="#162D70"/>
<path d="M178.827 86.7114C186.464 91.1159 188.281 95.1808 189.853 100.159L192.232 107.917L253.706 143.376C257.435 145.531 260.738 150.625 261.057 154.701L267.112 234.184C267.42 238.259 264.626 239.841 260.898 237.686L142.72 169.517C138.991 167.362 135.688 162.268 135.38 158.192L128.252 64.6144C127.944 60.5389 130.727 58.9575 134.466 61.112L178.827 86.7114Z" fill="url(#paint32_linear_197_216)"/>
<path d="M147.044 162.023C145.716 161.259 144.101 158.691 144.006 157.544L137.558 72.9136L174.493 94.2146C179.868 97.3137 180.548 99.4788 181.578 102.769L184.935 113.722L249.362 150.879C250.7 151.643 252.315 154.201 252.4 155.358L257.775 225.894L147.044 162.023Z" stroke="#B7C0EB" stroke-width="0.1946" stroke-miterlimit="10"/>
<path d="M260.894 90.9277L246.192 82.1929L245.268 81.6622C243.165 80.4523 241.433 81.4287 241.423 83.8486L241.391 93.581C241.38 96.0008 243.101 98.9726 245.204 100.193L246.128 100.724L260.83 109.459C262.934 110.669 264.665 109.692 264.676 107.272L264.708 97.5398C264.718 95.1093 262.997 92.1376 260.894 90.9277Z" fill="#162D70"/>
<path d="M184.003 67.9355L159.132 53.5475C156.942 52.2729 155.133 53.2978 155.12 55.8338L155.054 81.0491L162.934 88.5C165.562 90.0297 157.328 82.3649 155.054 81.0491L155.002 100.154C154.989 102.677 156.785 105.791 158.988 107.066L183.859 121.454C186.062 122.728 187.858 121.69 187.871 119.168L188.002 74.8339C187.989 72.3111 186.206 69.2101 184.003 67.9355Z" fill="#01ACF6"/>
<path d="M242.056 95.1744L211.145 77.6632C208.419 76.1189 206.171 77.3599 206.157 80.4485L206.002 134.416C205.988 137.491 208.222 141.283 210.948 142.827L241.859 160.338C244.599 161.883 246.833 160.628 246.847 157.553L247.002 103.585C247.016 100.497 244.796 96.7187 242.056 95.1744Z" fill="#01ACF6"/>
<path d="M192.002 200L190.002 145.5L163.502 130.5V109.5" stroke="white" stroke-width="1.5" stroke-dasharray="2 2"/>
<path d="M199.002 66L198.002 83.5L188.502 79.5" stroke="white" stroke-width="1.5" stroke-dasharray="2 2"/>
<path d="M190.002 145.5L227.502 167V153" stroke="white" stroke-width="1.5" stroke-dasharray="2 2"/>
</g>
<defs>
<linearGradient id="paint0_linear_197_216" x1="519.433" y1="-92.9902" x2="130.195" y2="346.484" gradientUnits="userSpaceOnUse">
<stop stop-color="#00ACF5"/>
<stop offset="1" stop-color="#00ACF5" stop-opacity="0"/>
</linearGradient>
<linearGradient id="paint1_linear_197_216" x1="147.406" y1="193.337" x2="147.406" y2="289.641" gradientUnits="userSpaceOnUse">
<stop stop-color="#00ACF5"/>
<stop offset="1" stop-color="#172568"/>
</linearGradient>
<linearGradient id="paint2_linear_197_216" x1="103.565" y1="190.278" x2="103.565" y2="199.23" gradientUnits="userSpaceOnUse">
<stop stop-color="#153175"/>
<stop offset="1" stop-color="#00ACF5"/>
</linearGradient>
<linearGradient id="paint3_linear_197_216" x1="105.838" y1="196.035" x2="105.838" y2="204.96" gradientUnits="userSpaceOnUse">
<stop stop-color="#153175"/>
<stop offset="1" stop-color="#00ACF5"/>
</linearGradient>
<linearGradient id="paint4_linear_197_216" x1="122.873" y1="203.116" x2="122.873" y2="207.171" gradientUnits="userSpaceOnUse">
<stop stop-color="#153175"/>
<stop offset="1" stop-color="#00ACF5"/>
</linearGradient>
<linearGradient id="paint5_linear_197_216" x1="126.527" y1="203.115" x2="126.527" y2="208.094" gradientUnits="userSpaceOnUse">
<stop stop-color="#153175"/>
<stop offset="1" stop-color="#00ACF5"/>
</linearGradient>
<linearGradient id="paint6_linear_197_216" x1="110.941" y1="207.657" x2="110.941" y2="212.003" gradientUnits="userSpaceOnUse">
<stop stop-color="#153175"/>
<stop offset="1" stop-color="#00ACF5"/>
</linearGradient>
<linearGradient id="paint7_linear_197_216" x1="115.405" y1="206.959" x2="115.405" y2="212.003" gradientUnits="userSpaceOnUse">
<stop stop-color="#153175"/>
<stop offset="1" stop-color="#00ACF5"/>
</linearGradient>
<linearGradient id="paint8_linear_197_216" x1="125.876" y1="206.386" x2="125.876" y2="212.55" gradientUnits="userSpaceOnUse">
<stop stop-color="#153175"/>
<stop offset="1" stop-color="#00ACF5"/>
</linearGradient>
<linearGradient id="paint9_linear_197_216" x1="140.007" y1="211.234" x2="140.007" y2="220.054" gradientUnits="userSpaceOnUse">
<stop stop-color="#153175"/>
<stop offset="1" stop-color="#00ACF5"/>
</linearGradient>
<linearGradient id="paint10_linear_197_216" x1="138.583" y1="221.422" x2="138.583" y2="225.482" gradientUnits="userSpaceOnUse">
<stop stop-color="#153175"/>
<stop offset="1" stop-color="#00ACF5"/>
</linearGradient>
<linearGradient id="paint11_linear_197_216" x1="131.954" y1="217.662" x2="131.954" y2="225.482" gradientUnits="userSpaceOnUse">
<stop stop-color="#153175"/>
<stop offset="1" stop-color="#00ACF5"/>
</linearGradient>
<linearGradient id="paint12_linear_197_216" x1="154.322" y1="221.029" x2="154.322" y2="226.833" gradientUnits="userSpaceOnUse">
<stop stop-color="#153175"/>
<stop offset="1" stop-color="#00ACF5"/>
</linearGradient>
<linearGradient id="paint13_linear_197_216" x1="154.301" y1="224.293" x2="154.301" y2="233.183" gradientUnits="userSpaceOnUse">
<stop stop-color="#153175"/>
<stop offset="1" stop-color="#00ACF5"/>
</linearGradient>
<linearGradient id="paint14_linear_197_216" x1="193.62" y1="243.179" x2="193.62" y2="249.098" gradientUnits="userSpaceOnUse">
<stop stop-color="#153175"/>
<stop offset="1" stop-color="#00ACF5"/>
</linearGradient>
<linearGradient id="paint15_linear_197_216" x1="187.333" y1="243.179" x2="187.333" y2="250.053" gradientUnits="userSpaceOnUse">
<stop stop-color="#153175"/>
<stop offset="1" stop-color="#00ACF5"/>
</linearGradient>
<linearGradient id="paint16_linear_197_216" x1="188.541" y1="247.48" x2="188.541" y2="255.617" gradientUnits="userSpaceOnUse">
<stop stop-color="#153175"/>
<stop offset="1" stop-color="#00ACF5"/>
</linearGradient>
<linearGradient id="paint17_linear_197_216" x1="171.569" y1="233.354" x2="171.569" y2="237.772" gradientUnits="userSpaceOnUse">
<stop stop-color="#153175"/>
<stop offset="1" stop-color="#00ACF5"/>
</linearGradient>
<linearGradient id="paint18_linear_197_216" x1="161.732" y1="236.962" x2="161.732" y2="239.943" gradientUnits="userSpaceOnUse">
<stop stop-color="#153175"/>
<stop offset="1" stop-color="#00ACF5"/>
</linearGradient>
<linearGradient id="paint19_linear_197_216" x1="158.111" y1="235.405" x2="158.111" y2="239.943" gradientUnits="userSpaceOnUse">
<stop stop-color="#153175"/>
<stop offset="1" stop-color="#00ACF5"/>
</linearGradient>
<linearGradient id="paint20_linear_197_216" x1="166.361" y1="236.962" x2="166.361" y2="242.666" gradientUnits="userSpaceOnUse">
<stop stop-color="#153175"/>
<stop offset="1" stop-color="#00ACF5"/>
</linearGradient>
<linearGradient id="paint21_linear_197_216" x1="176.809" y1="232.806" x2="176.809" y2="246.847" gradientUnits="userSpaceOnUse">
<stop stop-color="#153175"/>
<stop offset="1" stop-color="#00ACF5"/>
</linearGradient>
<linearGradient id="paint22_linear_197_216" x1="170.084" y1="242.313" x2="170.084" y2="246.847" gradientUnits="userSpaceOnUse">
<stop stop-color="#153175"/>
<stop offset="1" stop-color="#00ACF5"/>
</linearGradient>
<linearGradient id="paint23_linear_197_216" x1="231.225" y1="82.6582" x2="233.125" y2="82.6582" gradientUnits="userSpaceOnUse">
<stop stop-color="#F9FAFF"/>
<stop offset="0.5198" stop-color="#ECEFFE"/>
<stop offset="0.9923" stop-color="#E6EAFE"/>
</linearGradient>
<linearGradient id="paint24_linear_197_216" x1="173.894" y1="57.7459" x2="232.839" y2="57.7459" gradientUnits="userSpaceOnUse">
<stop stop-color="#F9FAFF"/>
<stop offset="0.5198" stop-color="#ECEFFE"/>
<stop offset="0.9923" stop-color="#E6EAFE"/>
</linearGradient>
<linearGradient id="paint25_linear_197_216" x1="265.67" y1="86.8199" x2="265.67" y2="231.928" gradientUnits="userSpaceOnUse">
<stop stop-color="#F9FAFF"/>
<stop offset="0.5198" stop-color="#ECEFFE"/>
<stop offset="0.9923" stop-color="#E6EAFE"/>
</linearGradient>
<linearGradient id="paint26_linear_197_216" x1="265.112" y1="233.368" x2="278.466" y2="233.368" gradientUnits="userSpaceOnUse">
<stop stop-color="#F9FAFF"/>
<stop offset="0.5198" stop-color="#ECEFFE"/>
<stop offset="0.9923" stop-color="#E6EAFE"/>
</linearGradient>
<linearGradient id="paint27_linear_197_216" x1="289.945" y1="144.257" x2="289.945" y2="161.568" gradientUnits="userSpaceOnUse">
<stop stop-color="#153175"/>
<stop offset="1" stop-color="#00ACF5"/>
</linearGradient>
<linearGradient id="paint28_linear_197_216" x1="275.763" y1="144.864" x2="275.763" y2="233.443" gradientUnits="userSpaceOnUse">
<stop stop-color="#153175"/>
<stop offset="1" stop-color="#00ACF5"/>
</linearGradient>
<linearGradient id="paint29_linear_197_216" x1="271.275" y1="153.056" x2="271.275" y2="161.568" gradientUnits="userSpaceOnUse">
<stop stop-color="#153175"/>
<stop offset="1" stop-color="#00ACF5"/>
</linearGradient>
<linearGradient id="paint30_linear_197_216" x1="129.634" y1="83.4644" x2="193.904" y2="83.4644" gradientUnits="userSpaceOnUse">
<stop stop-color="#F9FAFF"/>
<stop offset="0.5198" stop-color="#ECEFFE"/>
<stop offset="0.9923" stop-color="#E6EAFE"/>
</linearGradient>
<linearGradient id="paint31_linear_197_216" x1="192.227" y1="172.467" x2="268.806" y2="172.467" gradientUnits="userSpaceOnUse">
<stop stop-color="#F9FAFF"/>
<stop offset="0.5198" stop-color="#ECEFFE"/>
<stop offset="0.9923" stop-color="#E6EAFE"/>
</linearGradient>
<linearGradient id="paint32_linear_197_216" x1="134.493" y1="57.0907" x2="350.674" y2="407.934" gradientUnits="userSpaceOnUse">
<stop stop-color="#161242"/>
<stop offset="0.1302" stop-color="#103B71"/>
<stop offset="0.2626" stop-color="#0B5D99"/>
<stop offset="0.3993" stop-color="#077ABA"/>
<stop offset="0.5388" stop-color="#0490D4"/>
<stop offset="0.6824" stop-color="#02A0E7"/>
<stop offset="0.8326" stop-color="#00A9F1"/>
<stop offset="1" stop-color="#00ACF5"/>
</linearGradient>
</defs>
</svg>
