<svg width="22" height="22" viewBox="0 0 22 22" fill="none" xmlns="http://www.w3.org/2000/svg">
<path d="M20.1668 5.95831H14.6667" stroke="#272B65" stroke-width="1.5" stroke-miterlimit="10" stroke-linecap="round" stroke-linejoin="round"/>
<path d="M5.50004 5.95831H1.83337" stroke="#272B65" stroke-width="1.5" stroke-miterlimit="10" stroke-linecap="round" stroke-linejoin="round"/>
<path d="M9.16659 9.16666C10.9385 9.16666 12.3749 7.73025 12.3749 5.95833C12.3749 4.18642 10.9385 2.75 9.16659 2.75C7.39467 2.75 5.95825 4.18642 5.95825 5.95833C5.95825 7.73025 7.39467 9.16666 9.16659 9.16666Z" stroke="#272B65" stroke-width="1.5" stroke-miterlimit="10" stroke-linecap="round" stroke-linejoin="round"/>
<path d="M20.1667 16.0417H16.5" stroke="#272B65" stroke-width="1.5" stroke-miterlimit="10" stroke-linecap="round" stroke-linejoin="round"/>
<path d="M7.33337 16.0417H1.83337" stroke="#272B65" stroke-width="1.5" stroke-miterlimit="10" stroke-linecap="round" stroke-linejoin="round"/>
<path d="M12.8333 19.25C14.6052 19.25 16.0417 17.8136 16.0417 16.0416C16.0417 14.2697 14.6052 12.8333 12.8333 12.8333C11.0614 12.8333 9.625 14.2697 9.625 16.0416C9.625 17.8136 11.0614 19.25 12.8333 19.25Z" stroke="#272B65" stroke-width="1.5" stroke-miterlimit="10" stroke-linecap="round" stroke-linejoin="round"/>
</svg>
