<svg width="41" height="41" viewBox="0 0 41 41" fill="none" xmlns="http://www.w3.org/2000/svg">
<path d="M34.0817 0H6.39848L0 5.48433V34.9957L6.39848 40.48H34.0817L40.4802 34.9957L40.4799 5.48433L34.0817 0ZM36.1712 7.66068L32.1667 4.2222L33.9514 1.61042L38.7395 5.74541L36.1712 7.66068ZM28.5103 31.8182H11.97L8.66204 28.9891L8.66173 11.4912L11.9697 8.61836H28.51L31.818 11.4475V28.9453L28.5103 31.8182ZM28.4235 7.35599H12.0573L10.4032 5.00569H30.0339L28.4235 7.35599ZM10.8821 7.87853L7.96575 10.3597L5.35397 8.44446L9.05392 5.26706L10.8821 7.87853ZM7.35613 11.5347V28.9455L5.00583 30.6865V9.79348L7.35613 11.5347ZM7.9655 30.1208L10.8818 32.602L9.09712 35.2137L5.39717 32.0364L7.9655 30.1208ZM12.0571 33.1242H28.3798L30.0339 35.4745H10.4467L12.0571 33.1242ZM29.5985 32.6017L32.5148 30.1205L35.1266 32.0358L31.4267 35.2131L29.5985 32.6017ZM33.1244 28.9455V11.5347L35.4747 9.79374V30.6867L33.1244 28.9455ZM32.5151 10.3594L29.5988 7.87824L31.3835 5.26646L35.0834 8.44386L32.5151 10.3594ZM30.9481 3.65643H9.5328L7.87869 1.30612H32.6021L30.9481 3.65643ZM8.31404 4.22237L4.30955 7.66085L1.69777 5.74559L6.4859 1.61059L8.31404 4.22237ZM3.6568 8.83616V31.6443L1.3065 33.3853L1.30619 7.09492L3.6568 8.83616ZM4.30958 32.8196L8.31407 36.258L6.52938 38.8698L1.74125 34.7348L4.30958 32.8196ZM9.53275 36.8241H30.9481L32.6022 39.1744L7.8788 39.1747L9.53275 36.8241ZM32.1668 36.2581L36.1713 32.8196L38.7831 34.7349L33.9949 38.8699L32.1668 36.2581ZM36.8241 31.6443V8.83615L39.1744 7.09522V33.4291L36.8241 31.6443Z" fill="#272B65"/>
</svg>
