<svg width="44" height="44" viewBox="0 0 44 44" fill="none" xmlns="http://www.w3.org/2000/svg">
<path fill-rule="evenodd" clip-rule="evenodd" d="M31.273 2H12V42H31.273V2ZM14.812 4.313L13.179 2.687H30.094L28.46 4.313H14.811H14.812ZM12.692 40.826V3.174L14.322 4.798V39.202L12.692 40.826V40.826ZM28.95 39.202V4.798L30.581 3.174V40.826L28.95 39.202ZM17.134 6.625L15.502 5H27.772L26.138 6.626H17.134V6.625ZM15.014 38.514V5.486L16.355 6.822V37.179L15.014 38.514V38.514ZM26.918 37.178V6.822L28.258 5.486V38.514L26.918 37.178ZM18.586 8.07L17.824 7.312H25.448L24.687 8.07H18.586ZM17.046 36.49V7.51L18.097 8.556V35.444L17.047 36.49H17.046ZM25.176 35.444V8.556L26.226 7.51V36.49L25.176 35.444ZM18.788 35.243V8.757H24.484V35.243H18.788V35.243ZM17.534 36.977L18.586 35.93H24.686L25.739 36.977H17.534V36.977ZM15.502 39L16.844 37.664H26.429L27.77 39H15.501H15.502ZM13.179 41.313L14.812 39.688H28.462L30.094 41.313H13.179V41.313Z" fill="#272B65"/>
</svg>
