<svg width="40" height="40" viewBox="0 0 40 40" fill="none" xmlns="http://www.w3.org/2000/svg">
<path d="M20.0212 10.1525C16.4353 10.1525 13.5212 13.0666 13.5212 16.6525V19.7833C13.5212 20.4441 13.2395 21.4516 12.9037 22.015L11.6578 24.0841C10.8887 25.3625 11.4195 26.7816 12.8278 27.2583C17.497 28.8183 22.5345 28.8183 27.2037 27.2583C28.5145 26.825 29.0887 25.2758 28.3737 24.0841L27.1278 22.015C26.8028 21.4516 26.5212 20.4441 26.5212 19.7833V16.6525C26.5212 13.0775 23.5962 10.1525 20.0212 10.1525Z" stroke="#323232" stroke-width="1.5" stroke-miterlimit="10" stroke-linecap="round"/>
<path d="M22.0259 10.4667C21.6901 10.3692 21.3434 10.2934 20.9859 10.25C19.9459 10.12 18.9492 10.1959 18.0176 10.4667C18.3317 9.66502 19.1117 9.10168 20.0217 9.10168C20.9317 9.10168 21.7117 9.66502 22.0259 10.4667Z" stroke="#323232" stroke-width="1.5" stroke-miterlimit="10" stroke-linecap="round" stroke-linejoin="round"/>
<path d="M23.2715 27.6483C23.2715 29.4358 21.809 30.8983 20.0215 30.8983C19.1332 30.8983 18.3098 30.53 17.7248 29.945C17.1398 29.36 16.7715 28.5366 16.7715 27.6483" stroke="#323232" stroke-width="1.5" stroke-miterlimit="10"/>
</svg>
