<svg width="44" height="44" viewBox="0 0 44 44" fill="none" xmlns="http://www.w3.org/2000/svg">
<path fill-rule="evenodd" clip-rule="evenodd" d="M21.345 2L29.222 17.505L32.818 31.64L28.696 37.55L21.796 42L14.662 37.546L11.176 31.924H11.09V31.786L11 31.64L13.695 17.517L21.345 2ZM12.011 31.924L14.368 35.725L13.548 31.925H12.012L12.011 31.924ZM14.503 32.977L15.358 36.939H18.08L14.503 32.977ZM18.717 37.644H16.154L20.454 40.329L18.717 37.644ZM22.507 40.701L27.245 37.644H24.485L22.506 40.701H22.507ZM25.01 36.939H27.912L28.764 32.989L25.01 36.939V36.939ZM29.705 31.999L28.811 36.145L31.755 31.925H29.767L29.771 31.929L29.705 31.999V31.999ZM29.768 31.219H31.978L29.328 20.802L29.422 22.932C29.544 25.692 29.685 28.937 29.768 31.219V31.219ZM28.31 17.277L22.16 5.17L24.939 17.277H28.309H28.31ZM24.209 17.277L21.333 4.748L18.899 17.277H24.209ZM18.175 17.277L20.495 5.33L14.605 17.276H18.175V17.277ZM13.879 20.347L11.804 31.218H13.502C13.629 27.5937 13.7546 23.9694 13.879 20.345V20.347ZM14.669 17.982C14.619 19.565 14.434 24.932 14.289 29.048L18.042 17.982H14.669V17.982ZM17.711 21.17L14.305 31.22H16.579L17.71 21.17H17.711ZM16.721 31.924H14.508L18.048 35.844L16.721 31.924V31.924ZM19.563 37.644H23.639L21.601 40.794L19.563 37.644ZM19.228 36.939H24.006L24.048 36.816L21.762 32.239L19.228 36.939V36.939ZM18.88 36.089L17.472 31.924H21.126L18.88 36.09V36.089ZM22.399 31.924H25.702L24.368 35.868L22.399 31.924V31.924ZM25.157 35.756L28.798 31.924H26.453L25.157 35.756V35.756ZM26.555 31.219H28.966L25.318 20.244L26.555 31.219V31.219ZM24.11 17.982H19.011L21.706 29.326L24.109 17.982H24.11ZM21.362 30.952L21.328 31.11L21.403 31.126L21.426 31.219H17.296L18.625 19.428L21.362 30.952V30.952ZM22.156 31.219L22.091 30.943L24.518 19.488L25.84 31.219H22.156V31.219ZM25.316 17.982L28.97 28.973C28.857 26.185 28.707 22.836 28.602 20.481C28.552 19.376 28.512 18.489 28.492 17.981H25.316V17.982Z" fill="#272B65"/>
</svg>
