<svg width="26" height="26" viewBox="0 0 26 26" fill="none" xmlns="http://www.w3.org/2000/svg">
<path d="M11.6445 5.02664L6.84531 2.65414C4.25615 1.38664 2.13281 2.6758 2.13281 5.51414V21.5908C2.13281 22.8258 3.16198 23.8333 4.41865 23.8333H12.457C13.0528 23.8333 13.5403 23.3458 13.5403 22.75V8.02747C13.5403 6.88997 12.6845 5.5358 11.6445 5.02664ZM9.71615 14.8958H5.95698C5.51281 14.8958 5.14448 14.5275 5.14448 14.0833C5.14448 13.6391 5.51281 13.2708 5.95698 13.2708H9.71615C10.1603 13.2708 10.5286 13.6391 10.5286 14.0833C10.5286 14.5275 10.1711 14.8958 9.71615 14.8958ZM9.71615 10.5625H5.95698C5.51281 10.5625 5.14448 10.1941 5.14448 9.74997C5.14448 9.3058 5.51281 8.93747 5.95698 8.93747H9.71615C10.1603 8.93747 10.5286 9.3058 10.5286 9.74997C10.5286 10.1941 10.1711 10.5625 9.71615 10.5625Z" fill="#38A7DE"/>
<path d="M23.8346 19.5435V21.1251C23.8346 22.6201 22.6213 23.8335 21.1263 23.8335H16.2188C15.6338 23.8335 15.168 23.3676 15.168 22.7826V20.4426C16.3271 20.5835 17.5513 20.2476 18.4288 19.5435C19.1655 20.1393 20.108 20.4968 21.1371 20.4968C22.1446 20.4968 23.0871 20.1393 23.8346 19.5435Z" fill="#38A7DE"/>
<path d="M23.8346 16.3042V16.315C23.748 17.7342 22.5888 18.8717 21.1371 18.8717C19.6313 18.8717 18.4288 17.6475 18.4288 16.1633C18.4288 17.8208 16.9013 19.1533 15.168 18.8175V13C15.168 12.3067 15.8071 11.7867 16.4896 11.9383L18.4288 12.3717L18.9488 12.4908L21.1588 12.9891C21.6896 13.0975 22.1771 13.2817 22.5996 13.5525C22.5996 13.5633 22.6105 13.5633 22.6105 13.5633C22.7188 13.6392 22.8271 13.7258 22.9246 13.8233C23.423 14.3217 23.748 15.0475 23.8238 16.1092C23.8238 16.1742 23.8346 16.2392 23.8346 16.3042Z" fill="#38A7DE"/>
</svg>
