<svg width="44" height="44" viewBox="0 0 44 44" fill="none" xmlns="http://www.w3.org/2000/svg">
<path fill-rule="evenodd" clip-rule="evenodd" d="M10 2H34V30.6347L22 42L10 30.6347V2ZM10.9126 3.45789V29.9042L13.5221 29.0126V5.86526L10.9126 3.45684V3.45789ZM14.4347 6.70632V28.7011L17.0432 27.8095V9.11368L14.4347 6.70526V6.70632ZM17.8811 8.67789L15.2 6.20421H28.6042L25.9232 8.67789H17.8811V8.67789ZM17.9568 9.54421V28.0389L22 31.8716L26.0432 28.0379V9.54316H17.9579L17.9568 9.54421ZM26.9568 8.93368V27.9095L29.5653 28.8V6.52632L26.9568 8.93263V8.93368ZM30.4779 5.68421V29.1126L33.0874 30.0032V3.27684L30.4779 5.68421ZM32.2242 2.86526H11.5789L14.26 5.33895H29.5421L32.2232 2.86526H32.2242ZM32.5853 30.7516L30.0379 29.8821L22.4568 37.1137V40.3442L32.5853 30.7516V30.7516ZM21.5432 40.3442V37.1147L13.8853 29.8095L11.3379 30.6789L21.5432 40.3442ZM14.8326 29.4842L21.5432 35.8853V32.6632L17.3011 28.6421L14.8326 29.4842V29.4842ZM22.4568 32.6632V35.8853L29.0905 29.5568L26.6211 28.7147L22.4568 32.6621V32.6632Z" fill="#272B65"/>
</svg>
