<svg width="44" height="44" viewBox="0 0 44 44" fill="none" xmlns="http://www.w3.org/2000/svg">
<path fill-rule="evenodd" clip-rule="evenodd" d="M8.22 3H36.3811L42 17.4905L29.3442 40.1432H15.2505L2 17.4863L8.22 3ZM8.66211 4.32316L3.22421 16.9853H6.87474L11.1726 7.69789L8.66 4.32316H8.66211ZM11.8042 8.54421L7.89895 16.9853H11.5663L13.7474 11.1537L11.8042 8.54526V8.54421ZM14.3842 10.4547H29.8442L31.8042 7.82316H12.4242L14.3842 10.4547ZM32.4958 6.89263H11.7316L9.52632 3.92947H34.7042L32.4947 6.89263H32.4958ZM32.5347 8.39579L36.1368 16.9853H32.4632L30.5326 11.0853L32.5347 8.39579ZM29.6537 11.3853H14.6526L12.3326 17.5895L19.6263 31.8274H24.6916L31.6832 17.5832L29.6547 11.3842L29.6537 11.3853ZM32.5537 17.9147L25.5505 32.1811L27.2 35.0989L36.0737 17.9147H32.5537V17.9147ZM37.1179 17.9147L27.7453 36.0653L29.1611 38.5684L40.7 17.9147H37.1179ZM40.8084 16.9853H37.1432L33.1789 7.53053L35.7526 4.07368L35.56 3.92947H35.7463L40.8095 16.9853H40.8084ZM28.4589 39.2137H16.1032L17.6295 36.3189H26.8221L28.4589 39.2137ZM26.2968 35.3884H18.12L19.5095 32.7568H24.8095L26.2968 35.3884ZM18.7632 32.1811L17.2284 35.0905L7.95053 17.9147H11.4558L18.7632 32.1811ZM6.89579 17.9147H3.32526L15.4 38.5579L16.7084 36.0779L6.89474 17.9158L6.89579 17.9147Z" fill="#272B65"/>
</svg>
