<svg width="38" height="38" viewBox="0 0 38 38" fill="none" xmlns="http://www.w3.org/2000/svg">
<circle opacity="0.12" cx="19" cy="19" r="19" fill="#272B65"/>
<path d="M27.3325 14.3984C26.5533 13.5367 25.2516 13.1059 23.3633 13.1059H23.1433V13.0692C23.1433 11.5292 23.1433 9.62256 19.6966 9.62256H18.3033C14.8566 9.62256 14.8566 11.5384 14.8566 13.0692V13.1151H14.6366C12.7391 13.1151 11.4466 13.5459 10.6675 14.4076C9.75995 15.4159 9.78745 16.7726 9.87912 17.6984L9.88829 17.7626L9.95741 18.4883C9.97167 18.6381 10.0525 18.7735 10.1784 18.8558C10.3998 19.0005 10.7549 19.2289 10.97 19.3484C11.0983 19.4309 11.2358 19.5042 11.3733 19.5776C12.9408 20.4392 14.6641 21.0167 16.415 21.3009C16.4975 22.1626 16.8733 23.1709 18.8808 23.1709C20.8883 23.1709 21.2825 22.1717 21.3466 21.2826C23.2166 20.9801 25.0225 20.3292 26.6541 19.3759C26.7091 19.3484 26.7458 19.3209 26.7916 19.2934C27.1501 19.0908 27.5218 18.8418 27.8617 18.5972C27.9748 18.5157 28.047 18.3896 28.0624 18.2511L28.075 18.1384L28.1208 17.7076C28.13 17.6526 28.13 17.6067 28.1391 17.5426C28.2125 16.6167 28.1941 15.3517 27.3325 14.3984ZM19.9991 20.6776C19.9991 21.6492 19.9991 21.7959 18.8716 21.7959C17.7441 21.7959 17.7441 21.6217 17.7441 20.6867V19.5317H19.9991V20.6776ZM16.1675 13.1059V13.0692C16.1675 11.5109 16.1675 10.9334 18.3033 10.9334H19.6966C21.8325 10.9334 21.8325 11.5201 21.8325 13.0692V13.1151H16.1675V13.1059Z" fill="#272B65"/>
<path d="M27.067 20.6212C27.4208 20.4534 27.8272 20.7342 27.7918 21.1242L27.4695 24.6741C27.277 26.5075 26.5254 28.3774 22.492 28.3774H15.507C11.4737 28.3774 10.722 26.5075 10.5295 24.6833L10.2238 21.3205C10.1888 20.935 10.5859 20.6545 10.9388 20.8137C11.99 21.2879 13.8465 22.0912 15.0143 22.4011C15.1785 22.4446 15.3114 22.5623 15.3844 22.7157C15.9451 23.8924 17.1479 24.5183 18.8804 24.5183C20.5957 24.5183 21.8135 23.8683 22.3761 22.6884C22.4493 22.535 22.5822 22.4173 22.7465 22.3735C23.9874 22.0425 25.9661 21.1435 27.067 20.6212Z" fill="#272B65"/>
</svg>
