<svg width="44" height="44" viewBox="0 0 44 44" fill="none" xmlns="http://www.w3.org/2000/svg">
<path fill-rule="evenodd" clip-rule="evenodd" d="M21.9064 2.00154L21.8772 2L21.8479 2.00154L11.3645 2.61282L11.2481 2.61949L11.1455 2.6759L5.84303 5.60769L5.72047 5.67538L5.6497 5.79538L2.31846 11.4154L2.25025 11.5308L2.24718 11.6646L2.00256 22.0697L2.00103 22.0733L2.00256 22.0764L2.00051 22.1713L2 22.1836V22.1959L2.24718 32.5805L2.25025 32.7169L2.32102 32.8338L5.65175 38.3318L5.72252 38.4487L5.842 38.5154L11.1455 41.4472L11.2501 41.5051L11.3701 41.5103L21.9767 42H22.0003L22.0233 41.999L32.877 41.5103L33.0073 41.5041L33.1191 41.4369L38.1754 38.3826L38.2836 38.3169L38.3493 38.2092L41.6795 32.7118L41.7503 32.5944L41.7533 32.458L42 22.3185V22.2938L41.7533 11.6646L41.7503 11.5262L41.6774 11.4082L38.2242 5.78821L38.1534 5.67333L38.0354 5.60769L32.7319 2.6759L32.6299 2.61949L32.5135 2.61282L21.9064 2.00154ZM3.07896 24.4015L3.26973 32.4195L5.74867 36.5118L6.32046 31.4118L6.32097 31.4067L6.05174 30.8246L3.07896 24.4015V24.4015ZM7.14045 30.9426L12.0353 30.7359L10.9071 23.2205L7.19224 30.8359L7.14045 30.9426V30.9426ZM10.9435 20.9744L12.1532 13.3872L7.2348 13.1841L10.9435 20.9744ZM6.30302 12.5508L5.75175 7.63487L3.26973 11.8226L3.08563 19.6738L6.05482 13.1005L6.30302 12.5508V12.5508ZM19.6208 3.15897L11.5404 3.62974L7.66506 5.77231L12.826 6.53846L12.8496 6.54205L13.2019 6.36615L19.6198 3.15897H19.6208ZM13.2634 7.51744V12.3046L21.1931 11.1369L13.2634 7.51744ZM22.7172 11.1615L30.3555 12.3015L30.255 7.63231L22.7172 11.1615ZM30.9976 6.59949L36.2298 5.78154L32.3386 3.62974L24.1064 3.1559L30.5401 6.37128L30.9976 6.59949V6.59949ZM31.2796 7.59385L37.2001 6.66769L36.5642 12.159L31.3822 12.3651L31.2796 7.59385V7.59385ZM32.5904 20.8323L31.4719 13.3882L36.5083 13.1882L32.5893 20.8323H32.5904ZM32.5555 23.2031L31.3565 30.7231L36.6093 30.8256L36.5821 30.7744L32.555 23.2031H32.5555ZM37.5401 31.158L37.5565 31.28L38.2298 36.4277L40.7318 32.2974L40.9333 24.0138L37.7349 30.7487L37.5401 31.158V31.158ZM40.9221 20.0349L40.7318 11.8272L38.1267 7.58769L37.5406 12.6472L37.7303 13.0626L40.9221 20.0344V20.0349ZM36.5965 31.8508L37.3154 37.3451L31.2704 36.5195V31.7472L36.5965 31.8508ZM31.7181 21.9369L30.3104 30.7687L21.9977 31.9287L13.0773 30.7662L11.7901 22.1862L13.1978 13.3508L21.8772 12.0728L30.4304 13.3497L31.7186 21.9369H31.7181ZM11.5368 40.4913L7.66249 38.3497L12.7029 37.5959L13.1399 37.5308V37.4651L13.3481 37.5615L20.589 40.9087L11.5368 40.4913V40.4913ZM23.3854 40.9113L32.7006 40.4918L36.4031 38.2559L30.7894 37.4887L30.6325 37.561L23.3849 40.9113H23.3854ZM30.2443 36.2359L23.189 32.798L30.2443 31.8133V36.2359V36.2359ZM20.7798 32.8041L13.3363 36.4308L13.1399 36.5267V31.8087L20.7792 32.8041H20.7798ZM7.29121 31.9631L12.1147 31.7595V36.6467L6.6743 37.4605L7.2907 31.9631H7.29121ZM7.29121 12.16L6.6743 6.66154L12.2373 7.48821V12.3636L7.2907 12.1595L7.29121 12.16ZM21.8659 3.17846L14.3957 6.9118L21.9854 10.3764L29.3591 6.92308L21.8659 3.17846ZM21.99 33.3503L14.5337 36.9846L21.99 40.4308L29.4473 36.9836L21.9905 33.3497L21.99 33.3503ZM37.1319 14.2297L40.718 22.0651L37.1319 29.6154L33.115 22.0636L37.1319 14.2292V14.2297ZM10.3235 22.0682L6.6343 14.3179L3.13434 22.0682L6.6343 29.6308L10.3235 22.0682Z" fill="#272B65"/>
</svg>
