<svg width="44" height="44" viewBox="0 0 44 44" fill="none" xmlns="http://www.w3.org/2000/svg">
<path fill-rule="evenodd" clip-rule="evenodd" d="M19.932 3.10993C17.8393 3.10993 15.9376 3.21901 14.1282 3.44177C11.9402 3.71161 9.65517 4.1089 7.76395 5.18858C5.71664 6.35638 4.89357 8.71543 4.40561 10.6402C2.96054 16.341 2.7231 22.9466 3.71954 29.7442C3.76948 30.0821 3.82144 30.4194 3.87484 30.7575C4.25118 33.0971 4.69092 35.3451 5.9256 37.1134C7.23773 38.9937 9.52564 39.6987 11.5908 40.1404C13.9829 40.6517 16.6491 40.8899 19.9802 40.8899H24.0815C26.8313 40.8899 29.2099 40.714 31.3554 40.3523C33.8948 39.9237 36.449 39.27 37.9271 37.3978C39.1719 35.8227 39.6696 33.6201 40.0393 31.679C40.3916 29.8257 40.6318 27.7674 40.7728 25.3866C40.8422 24.1938 40.8807 23.084 40.8882 21.9952V21.9947C40.9186 18.1822 40.5819 14.7394 39.8608 11.4689C39.3648 9.22241 38.5257 6.48666 36.4261 5.26294C34.4729 4.12475 32.0579 3.70536 29.9528 3.44411C28.0241 3.20527 25.9793 3.09475 23.7244 3.1114C22.5957 3.11887 21.4678 3.11887 20.3371 3.1114C20.2016 3.11025 20.0666 3.11025 19.9323 3.11025L19.932 3.10993ZM24.0815 42.2398H19.9802C16.5515 42.2398 13.7963 41.9923 11.3086 41.4606C8.98601 40.9635 6.39872 40.1505 4.81923 37.8864C3.42127 35.8839 2.9444 33.4723 2.54308 30.9705C2.48826 30.6266 2.43429 30.2838 2.38434 29.9402C1.363 22.9686 1.60984 16.1803 3.0974 10.3086C3.65143 8.12546 4.60589 5.43623 7.0953 4.01673C9.19229 2.81998 11.6358 2.38963 13.9633 2.10288C15.9469 1.85859 18.0321 1.74462 20.3456 1.76214C21.4689 1.7696 22.5927 1.76903 23.7146 1.76214C26.043 1.74118 28.1311 1.85945 30.1184 2.10547C32.3589 2.38277 34.9408 2.83633 37.1058 4.09766C39.6573 5.58462 40.6221 8.66252 41.1778 11.1775C41.9222 14.5494 42.2681 18.0905 42.2379 22.0053V22.0047C42.229 23.1179 42.19 24.2498 42.1191 25.4661C41.9747 27.905 41.7278 30.0201 41.3647 31.9308C40.9654 34.0296 40.4188 36.4205 38.9861 38.2347C37.2252 40.4649 34.3856 41.2098 31.5792 41.6826C29.3596 42.0572 26.9067 42.2392 24.0812 42.2392" fill="#272B65"/>
<path fill-rule="evenodd" clip-rule="evenodd" d="M15.775 28.2273L22.0019 30.7179L28.2297 28.2273L30.7203 22.0004L28.2297 15.7726L22.0019 13.2817L15.775 15.7726L13.2841 22.0004L15.775 28.2273ZM22.0019 32.1199C21.9169 32.1199 21.8325 32.1038 21.7516 32.0714L15.0053 29.3727C14.8331 29.3038 14.6976 29.1683 14.6295 28.9969L11.9308 22.2504C11.8668 22.0893 11.8668 21.9105 11.9308 21.7491L14.6295 15.0029C14.6976 14.8315 14.8331 14.6957 15.0053 14.6271L21.7516 11.9284C21.9129 11.8644 22.0918 11.8644 22.2531 11.9284L28.9994 14.6271C29.1707 14.6957 29.3071 14.8315 29.3751 15.0029L32.0738 21.7491C32.1379 21.9105 32.1379 22.0893 32.0738 22.2504L29.3751 28.9969C29.3071 29.1683 29.1707 29.3038 28.9994 29.3727L22.2531 32.0714C22.1721 32.1038 22.0869 32.1199 22.0019 32.1199V32.1199Z" fill="#272B65"/>
<path fill-rule="evenodd" clip-rule="evenodd" d="M29.7448 28.0715H35.1947L40.6578 21.9995L35.1947 15.9279H29.7448L32.0737 21.7487C32.1378 21.91 32.1378 22.0894 32.0737 22.2507L29.7448 28.0715ZM35.495 29.4207H28.7484C28.5245 29.4207 28.3158 29.3093 28.1898 29.1244C28.0649 28.939 28.0394 28.7036 28.1223 28.4952L30.7203 21.9995L28.1223 15.5041C28.0394 15.2957 28.0649 15.0603 28.1898 14.8746C28.3158 14.6897 28.5245 14.5786 28.7484 14.5786H35.495C35.6865 14.5786 35.8687 14.6601 35.9968 14.8017L42.0667 21.5482C42.2973 21.8046 42.2973 22.1947 42.0667 22.451L35.9968 29.1973C35.8687 29.3391 35.6865 29.4207 35.495 29.4207V29.4207Z" fill="#272B65"/>
<path fill-rule="evenodd" clip-rule="evenodd" d="M32.2349 21.9995L35.6047 27.6159L40.6584 21.9995L35.6047 16.3831L32.2349 21.9995ZM35.4962 29.4203C35.4744 29.4203 35.4534 29.4198 35.4313 29.4178C35.218 29.3968 35.0277 29.2768 34.9178 29.0931L30.8699 22.3468C30.7413 22.1329 30.7413 21.8657 30.8699 21.6518L34.9178 14.9052C35.0277 14.7218 35.218 14.6018 35.4313 14.5809C35.6446 14.5619 35.8542 14.6423 35.9974 14.8013L42.0671 21.5479C42.2985 21.8042 42.2985 22.1944 42.0671 22.4507L35.9974 29.197C35.8691 29.3399 35.6862 29.4203 35.4962 29.4203V29.4203Z" fill="#272B65"/>
<path fill-rule="evenodd" clip-rule="evenodd" d="M8.80679 28.0715H14.2564L11.9277 22.2507C11.8634 22.0894 11.8634 21.91 11.9277 21.7487L14.2564 15.9279H8.80679L3.34339 21.9995L8.80679 28.0715ZM15.2528 29.4207H8.50652C8.31476 29.4207 8.13276 29.3391 8.00531 29.1973L1.93482 22.451C1.70402 22.1947 1.70402 21.8046 1.93482 21.5482L8.00531 14.8017C8.13276 14.6601 8.31476 14.5786 8.50652 14.5786H15.2528C15.477 14.5786 15.6854 14.6897 15.8114 14.8746C15.9363 15.0603 15.9621 15.2957 15.8789 15.5041L13.2809 21.9995L15.8789 28.4952C15.9621 28.7036 15.9363 28.939 15.8114 29.1244C15.6854 29.3093 15.477 29.4207 15.2528 29.4207V29.4207Z" fill="#272B65"/>
<path fill-rule="evenodd" clip-rule="evenodd" d="M3.3441 22L8.39788 27.6164L11.7677 22L8.39788 16.3836L3.3441 22ZM8.50635 29.4208C8.31603 29.4208 8.13403 29.3404 8.00514 29.1975L1.93546 22.4512C1.7038 22.1948 1.7038 21.8047 1.93546 21.5484L8.00514 14.8018C8.1481 14.6428 8.35938 14.5624 8.57123 14.5813C8.78423 14.6023 8.97541 14.7223 9.08536 14.9057L13.1332 21.6523C13.2613 21.8662 13.2613 22.1334 13.1332 22.3473L9.08536 29.0936C8.97541 29.2773 8.78423 29.3973 8.57123 29.4182C8.5497 29.4202 8.52874 29.4208 8.50635 29.4208L8.50635 29.4208Z" fill="#272B65"/>
<path fill-rule="evenodd" clip-rule="evenodd" d="M15.9273 35.1938L21.9987 40.6564L28.071 35.1938V29.744L22.2496 32.0729C22.0888 32.1369 21.9094 32.1369 21.749 32.0729L15.9273 29.744L15.9273 35.1938ZM21.9987 42.2383C21.8374 42.2383 21.6761 42.1809 21.5472 42.0655L14.8015 35.9953C14.6591 35.8675 14.5781 35.6855 14.5781 35.4938V28.7475C14.5781 28.5236 14.6895 28.3143 14.8744 28.1888C15.0604 28.0634 15.2966 28.0384 15.503 28.1214L21.9992 30.7193L28.4955 28.1214C28.701 28.0376 28.9378 28.0634 29.1241 28.1888C29.309 28.3143 29.4204 28.5236 29.4204 28.7475V35.4938C29.4204 35.6855 29.3394 35.8675 29.197 35.9958L22.4499 42.0655C22.3216 42.1809 22.1597 42.2383 21.9987 42.2383L21.9987 42.2383Z" fill="#272B65"/>
<path fill-rule="evenodd" clip-rule="evenodd" d="M16.3864 35.6024L22.002 40.6556L27.6192 35.6024L22.0028 32.232L16.3864 35.6024ZM22.002 42.2376C21.8409 42.2376 21.6796 42.1802 21.5507 42.0648L14.805 35.9951C14.6463 35.8519 14.5647 35.6415 14.5851 35.4285C14.6052 35.2157 14.7261 35.0248 14.9095 34.9149L21.6561 30.867C21.8691 30.739 22.1363 30.739 22.3502 30.867L29.0968 34.9149C29.2796 35.0248 29.4002 35.2157 29.4206 35.429C29.4415 35.6415 29.3591 35.8519 29.2007 35.9951L22.4536 42.0648C22.3253 42.1802 22.1634 42.2376 22.002 42.2376H22.002Z" fill="#272B65"/>
<path fill-rule="evenodd" clip-rule="evenodd" d="M21.9992 11.8795C22.0841 11.8795 22.1691 11.8959 22.2495 11.9274L28.0708 14.2564V8.80648L21.9986 3.34396L15.9272 8.80648V14.2564L21.7489 11.9274C21.8293 11.8959 21.9142 11.8795 21.9992 11.8795H21.9992ZM28.7458 15.9274C28.6605 15.9274 28.5755 15.9119 28.4955 15.8794L21.9992 13.281L15.503 15.8794C15.2961 15.9613 15.0598 15.9377 14.8744 15.8114C14.6895 15.686 14.5781 15.4767 14.5781 15.2528V8.5065C14.5781 8.31474 14.6591 8.13274 14.8015 8.005L21.5472 1.93532C21.8044 1.70395 22.1928 1.70395 22.45 1.93474L29.1971 8.00442C29.3394 8.13274 29.4204 8.31474 29.4204 8.5065V15.2528C29.4204 15.4767 29.309 15.686 29.1242 15.8114C29.0108 15.8883 28.8787 15.9274 28.7458 15.9274" fill="#272B65"/>
<path fill-rule="evenodd" clip-rule="evenodd" d="M16.3864 8.3972L22.0029 11.7676L27.6193 8.3972L22.002 3.344L16.3864 8.3972ZM22.0029 13.229C21.8826 13.229 21.7626 13.1966 21.6561 13.1326L14.9095 9.08471C14.7261 8.97448 14.6052 8.78358 14.5851 8.57116C14.5647 8.35787 14.6463 8.14745 14.805 8.0045L21.5507 1.93482C21.8076 1.70402 22.1963 1.70402 22.4535 1.93482L29.2006 8.0045C29.3591 8.14745 29.4414 8.35787 29.4205 8.57058C29.4001 8.78358 29.2795 8.97448 29.0967 9.08471L22.3501 13.1326C22.2436 13.1966 22.1227 13.229 22.0028 13.229H22.0029Z" fill="#272B65"/>
<path fill-rule="evenodd" clip-rule="evenodd" d="M29.4237 14.5777L34.9416 14.5783L36.5842 6.24034L29.4237 8.97057V14.5777ZM35.4962 15.9278L28.7491 15.9269C28.3759 15.9269 28.0742 15.6246 28.0742 15.2523V8.50603C28.0742 8.22586 28.247 7.97496 28.5088 7.87507L37.2414 4.54569C37.4722 4.45928 37.7294 4.50263 37.9169 4.66051C38.1043 4.81897 38.1913 5.06584 38.1443 5.30669L36.1581 15.3834C36.0961 15.7 35.8188 15.9274 35.4964 15.9274L35.4962 15.9278Z" fill="#272B65"/>
<path fill-rule="evenodd" clip-rule="evenodd" d="M7.45406 6.27003L9.06536 14.5793L14.5804 14.5779V8.97244L7.45406 6.27003ZM8.50788 15.9286C8.18551 15.9286 7.90763 15.6998 7.8462 15.382L5.89905 5.33765C5.85255 5.09767 5.93953 4.8505 6.12641 4.69348C6.31415 4.5356 6.57107 4.49168 6.80044 4.57866L15.4948 7.87497C15.7572 7.97487 15.93 8.22576 15.93 8.50593V15.2522C15.93 15.6254 15.6283 15.9268 15.2551 15.9268L8.50788 15.9286Z" fill="#272B65"/>
<path fill-rule="evenodd" clip-rule="evenodd" d="M9.06285 29.421L7.45383 37.7148L14.5793 35.0277V29.4219L9.06285 29.421ZM6.5611 39.447C6.40465 39.447 6.24963 39.3924 6.12619 39.2885C5.93931 39.1306 5.85205 38.8837 5.89942 38.644L7.84428 28.6181C7.90571 28.3006 8.18388 28.0718 8.50682 28.0718L15.2539 28.0724C15.6265 28.0724 15.9285 28.3746 15.9285 28.747V35.4935C15.9285 35.7743 15.7546 36.0257 15.4916 36.1251L6.79943 39.4039C6.72192 39.4329 6.64154 39.447 6.56116 39.447L6.5611 39.447Z" fill="#272B65"/>
<path fill-rule="evenodd" clip-rule="evenodd" d="M29.424 35.0288L36.5733 37.749L34.9414 29.4213L29.424 29.4219V35.0288ZM37.468 39.486C37.3871 39.486 37.3061 39.4719 37.228 39.442L28.5094 36.1242C28.2476 36.0252 28.0742 35.7734 28.0742 35.4935V28.747C28.0742 28.3746 28.3756 28.0724 28.7488 28.0724L35.4959 28.0718C35.8183 28.0718 36.0964 28.2997 36.1576 28.6169L38.1297 38.6819C38.1768 38.9221 38.0898 39.1696 37.9024 39.3275C37.7789 39.4314 37.6245 39.4859 37.4677 39.4859L37.468 39.486Z" fill="#272B65"/>
</svg>
