<svg width="26" height="26" viewBox="0 0 26 26" fill="none" xmlns="http://www.w3.org/2000/svg">
<path d="M13.8125 17.2467H14.5167C15.2208 17.2467 15.8058 16.6183 15.8058 15.86C15.8058 14.9175 15.47 14.7333 14.9175 14.5383L13.8233 14.1592V17.2467H13.8125Z" fill="#38A7DE"/>
<path d="M12.9689 2.05837C6.98887 2.08003 2.14637 6.9442 2.16804 12.9242C2.18971 18.9042 7.05387 23.7467 13.0339 23.725C19.0139 23.7034 23.8564 18.8392 23.8347 12.8592C23.813 6.8792 18.9489 2.04753 12.9689 2.05837ZM15.4497 13C16.2947 13.2925 17.4322 13.9209 17.4322 15.86C17.4322 17.5284 16.1214 18.8717 14.518 18.8717H13.8139V19.5C13.8139 19.9442 13.4455 20.3125 13.0014 20.3125C12.5572 20.3125 12.1889 19.9442 12.1889 19.5V18.8717H11.7989C10.0222 18.8717 8.58137 17.3767 8.58137 15.535C8.58137 15.0909 8.94971 14.7225 9.39387 14.7225C9.83804 14.7225 10.2064 15.0909 10.2064 15.535C10.2064 16.4775 10.9214 17.2467 11.7989 17.2467H12.1889V13.585L10.553 13C9.70804 12.7075 8.57054 12.0792 8.57054 10.14C8.57054 8.4717 9.88138 7.12837 11.4847 7.12837H12.1889V6.50003C12.1889 6.05587 12.5572 5.68753 13.0014 5.68753C13.4455 5.68753 13.8139 6.05587 13.8139 6.50003V7.12837H14.2039C15.9805 7.12837 17.4214 8.62337 17.4214 10.465C17.4214 10.9092 17.053 11.2775 16.6089 11.2775C16.1647 11.2775 15.7964 10.9092 15.7964 10.465C15.7964 9.52253 15.0814 8.75337 14.2039 8.75337H13.8139V12.415L15.4497 13Z" fill="#38A7DE"/>
<path d="M10.2031 10.1508C10.2031 11.0933 10.539 11.2775 11.0915 11.4725L12.1856 11.8516V8.7533H11.4815C10.7773 8.7533 10.2031 9.38163 10.2031 10.1508Z" fill="#38A7DE"/>
</svg>
