<svg width="38" height="38" viewBox="0 0 38 38" fill="none" xmlns="http://www.w3.org/2000/svg">
<circle cx="19" cy="19" r="18.5" fill="white" stroke="#AEAEAE"/>
<path d="M11 24.0647V27.5022H14.4375L24.5758 17.3639L21.1383 13.9264L11 24.0647ZM27.2342 14.7056C27.3191 14.6208 27.3866 14.52 27.4326 14.4091C27.4786 14.2983 27.5022 14.1794 27.5022 14.0593C27.5022 13.9393 27.4786 13.8204 27.4326 13.7095C27.3866 13.5986 27.3191 13.4979 27.2342 13.4131L25.0892 11.2681C25.0044 11.1831 24.9036 11.1157 24.7927 11.0697C24.6818 11.0237 24.563 11 24.4429 11C24.3229 11 24.204 11.0237 24.0931 11.0697C23.9822 11.1157 23.8815 11.1831 23.7967 11.2681L22.1192 12.9456L25.5567 16.3831L27.2342 14.7056V14.7056Z" fill="#323232"/>
</svg>
