<svg width="44" height="44" viewBox="0 0 44 44" fill="none" xmlns="http://www.w3.org/2000/svg">
<path fill-rule="evenodd" clip-rule="evenodd" d="M22 40.9747C32.4789 40.9747 40.9747 32.48 40.9747 22C40.9747 11.5211 32.48 3.02526 22 3.02526C11.5211 3.02526 3.02526 11.52 3.02526 22C3.02526 32.4789 11.52 40.9747 22 40.9747V40.9747ZM22 42C33.0453 42 42 33.0453 42 22C42 10.9547 33.0453 2 22 2C10.9547 2 2 10.9547 2 22C2 33.0453 10.9547 42 22 42Z" fill="#272B65"/>
<path fill-rule="evenodd" clip-rule="evenodd" d="M30.3107 4.6705L4.41276 30.5684L3.6875 29.8421L29.5854 3.94629L30.3107 4.6726V4.6705Z" fill="#272B65"/>
<path fill-rule="evenodd" clip-rule="evenodd" d="M39.3371 30.3185C29.1234 20.4679 23.4497 14.7911 13.4266 4.40794L14.1634 3.69531C24.1792 14.07 29.8445 19.7385 40.0487 29.5795L39.3371 30.3185ZM29.3234 40.5616C19.6919 30.5743 14.0834 25.0227 3.69922 15.1932L4.40448 14.4479C14.7992 24.2879 20.4192 29.8511 30.0613 39.849L29.3234 40.5616Z" fill="#272B65"/>
<path fill-rule="evenodd" clip-rule="evenodd" d="M27.4898 27.4909L40.5635 14.674L39.8456 13.9414L26.7646 26.7656L13.9414 39.8467L14.673 40.5646L27.4909 27.4909H27.4898Z" fill="#272B65"/>
<path fill-rule="evenodd" clip-rule="evenodd" d="M35.1794 36.2498L26.9741 27.5319L27.7215 26.8288L35.9257 35.5467L35.1783 36.2498H35.1794ZM16.7383 17.8109L7.50781 9.093L8.21202 8.34668L17.4436 17.0646L16.7383 17.8109ZM36.4162 9.34879L27.6983 17.554L26.9952 16.8067L35.7131 8.60247L36.4162 9.34984V9.34879ZM17.2183 27.6404L8.50044 36.8709L7.75518 36.1656L16.4731 26.9362L17.2183 27.6404Z" fill="#272B65"/>
<path fill-rule="evenodd" clip-rule="evenodd" d="M13.7969 39.927C14.3716 25.8091 14.3379 17.966 13.7969 4.07125L14.8211 4.03125C15.3632 17.9513 15.3969 25.8207 14.8211 39.9691L13.7969 39.927ZM30.1116 39.927C29.5369 25.8091 29.5706 17.966 30.1116 4.07125L29.0874 4.03125C28.5442 17.9513 28.5116 25.8207 29.0874 39.9691L30.1116 39.927Z" fill="#272B65"/>
<path fill-rule="evenodd" clip-rule="evenodd" d="M39.7064 15.5898C25.718 15.9656 17.9064 15.9645 4.03906 15.5898L4.06643 14.5635C17.9149 14.9393 25.7085 14.9403 39.6801 14.5635L39.7075 15.5898H39.7064ZM39.7064 28.9498C25.718 28.5729 17.9064 28.574 4.03906 28.9498L4.06643 29.9751C17.9149 29.5993 25.7085 29.5982 39.6801 29.9751L39.7075 28.9498H39.7064Z" fill="#272B65"/>
<path fill-rule="evenodd" clip-rule="evenodd" d="M21.4882 15.6422V2.5127H22.5135V15.6422H21.4882ZM21.7061 41.539V29.2316H22.7314V41.539H21.7051H21.7061ZM28.8851 21.5401H41.7061V22.5653H28.8851V21.5401ZM2.21875 21.5401H14.5261V22.5653H2.21875V21.5401Z" fill="#272B65"/>
</svg>
