<svg width="44" height="44" viewBox="0 0 44 44" fill="none" xmlns="http://www.w3.org/2000/svg">
<path fill-rule="evenodd" clip-rule="evenodd" d="M10.0867 2H33.9133L42 10.4833V33.5156L33.9133 42H10.0867L2 33.5167V10.4844L10.0867 2ZM13.8078 40.9744H21.4744V38.1289L13.8078 40.9733V40.9744ZM22.5267 40.9744H30.1933L22.5267 38.1289V40.9733V40.9744ZM33.5789 40.8444L36.7156 37.5533L33.5789 34.0611V40.8444ZM32.5267 33.2822H26.0222L22.2711 36.9378L32.5256 40.7433V33.2822H32.5267ZM24.5356 33.2822H19.4656L22 35.7522L24.5356 33.2822ZM17.9767 33.2822H11.4733V40.7433L21.7278 36.9367L17.9767 33.2811V33.2822ZM11.4733 32.2567H16.9233L11.4733 26.9456V32.2567V32.2567ZM18.4122 32.2567H25.5878L32.5267 25.4956V18.7356L25.35 11.7444H18.65L11.4733 18.7367V25.4967L18.4122 32.2578V32.2567ZM27.0767 32.2567H32.5267V26.9456L27.0767 32.2567ZM33.5789 32.2567H40.1833L36.5678 23.0078L33.5789 25.92V32.2567V32.2567ZM10.4211 34.06V40.8444L7.28444 37.5533L10.4211 34.0611V34.06ZM7.04333 6.70222L10.4211 3.15778V9.99333L7.04333 6.70222V6.70222ZM26.8389 11.7444H32.5267V17.2867L26.8378 11.7444H26.8389ZM11.4733 11.7444H17.1622L11.4733 17.2867V11.7433V11.7444ZM3.29 11.7444H10.4211V18.3122L7.11667 21.5322L3.28889 11.7433L3.29 11.7444ZM33.5789 18.3122V11.7444H40.1833L36.5022 21.16L33.5789 18.3111V18.3122ZM33.5789 3.15667V9.99333L36.9567 6.70222L33.5789 3.15778V3.15667ZM32.5267 10.7189V3.25667L22.1 7.12667L25.7856 10.7178H32.5267V10.7189ZM21.9 7.12667L11.4733 3.25667V10.7178H18.2144L21.9 7.12667ZM3.05222 14.0178V21.4867H5.97333L3.05222 14.0178ZM3.05222 22.5133V29.9822L5.97333 22.5122H3.05222V22.5133ZM3.21333 33.2822L6.56444 36.7978L9.72222 33.2822H3.21333V33.2822ZM10.4211 32.2567V25.92L7.05111 22.6367L3.29 32.2567H10.4222H10.4211ZM10.4211 19.7611L8.00444 22.1167L10.4211 24.47V19.7611V19.7611ZM9.67667 10.7178H3.21333L6.32556 7.45222L9.67667 10.7189V10.7178ZM37.6744 7.45222L40.7867 10.7189H34.3233L37.6744 7.45222ZM37.5011 21.4867L40.9478 12.6711V21.4867H37.5H37.5011ZM37.5011 22.5133H40.9478V31.3289L37.5011 22.5133V22.5133ZM35.9956 22.1156L33.5789 24.47V19.7611L35.9956 22.1167V22.1156ZM37.4356 36.7978L34.2778 33.2822H40.7867L37.4356 36.7978V36.7978ZM24.2978 10.7178L22 8.48L19.7022 10.7178H24.2978ZM13.8078 3.02556L21.4744 5.87111V3.02667H13.8078V3.02556ZM22.5267 5.87111L30.1933 3.02667H22.5267V5.87111V5.87111Z" fill="#272B65"/>
</svg>
