<svg width="26" height="26" viewBox="0 0 26 26" fill="none" xmlns="http://www.w3.org/2000/svg">
<path d="M8.28891 22.6525C8.25641 22.6525 8.21307 22.6742 8.18057 22.6742C6.07891 21.6342 4.36724 19.9117 3.31641 17.81C3.31641 17.7775 3.33807 17.7342 3.33807 17.7017C4.65974 18.0917 6.02474 18.3842 7.37891 18.6117C7.61724 19.9767 7.89891 21.3308 8.28891 22.6525Z" fill="#38A7DE"/>
<path d="M22.6859 17.8208C21.6134 19.9767 19.8259 21.7208 17.6484 22.7717C18.0601 21.3958 18.4068 20.0092 18.6343 18.6117C19.9993 18.3842 21.3426 18.0917 22.6643 17.7017C22.6534 17.745 22.6859 17.7883 22.6859 17.8208Z" fill="#38A7DE"/>
<path d="M22.7726 8.35244C21.4076 7.94077 20.0318 7.60494 18.6343 7.36661C18.4068 5.96911 18.0709 4.58244 17.6484 3.22827C19.8909 4.30077 21.7001 6.10994 22.7726 8.35244Z" fill="#38A7DE"/>
<path d="M8.28573 3.34744C7.89573 4.66911 7.61406 6.01244 7.38656 7.37744C5.98906 7.59411 4.6024 7.94077 3.22656 8.35244C4.2774 6.17494 6.02156 4.38744 8.1774 3.31494C8.2099 3.31494 8.25323 3.34744 8.28573 3.34744Z" fill="#38A7DE"/>
<path d="M16.7804 7.13925C14.2671 6.85758 11.7321 6.85758 9.21875 7.13925C9.48958 5.65508 9.83625 4.17091 10.3237 2.74091C10.3454 2.65425 10.3346 2.58925 10.3454 2.50258C11.2013 2.29675 12.0787 2.16675 12.9996 2.16675C13.9096 2.16675 14.7979 2.29675 15.6429 2.50258C15.6537 2.58925 15.6538 2.65425 15.6754 2.74091C16.1629 4.18175 16.5096 5.65508 16.7804 7.13925Z" fill="#38A7DE"/>
<path d="M7.14047 16.7809C5.64547 16.5101 4.17214 16.1634 2.74214 15.6759C2.65547 15.6542 2.59047 15.6651 2.5038 15.6542C2.29797 14.7984 2.16797 13.9209 2.16797 13.0001C2.16797 12.0901 2.29797 11.2017 2.5038 10.3567C2.59047 10.3459 2.65547 10.3459 2.74214 10.3242C4.18297 9.84757 5.64547 9.49007 7.14047 9.21924C6.86964 11.7326 6.86964 14.2676 7.14047 16.7809Z" fill="#38A7DE"/>
<path d="M23.8319 13.0001C23.8319 13.9209 23.7019 14.7984 23.496 15.6542C23.4094 15.6651 23.3444 15.6542 23.2577 15.6759C21.8169 16.1526 20.3435 16.5101 18.8594 16.7809C19.141 14.2676 19.141 11.7326 18.8594 9.21924C20.3435 9.49007 21.8277 9.83674 23.2577 10.3242C23.3444 10.3459 23.4094 10.3567 23.496 10.3567C23.7019 11.2126 23.8319 12.0901 23.8319 13.0001Z" fill="#38A7DE"/>
<path d="M16.7804 18.8608C16.5096 20.3558 16.1629 21.8292 15.6754 23.2592C15.6538 23.3458 15.6537 23.4108 15.6429 23.4975C14.7979 23.7033 13.9096 23.8333 12.9996 23.8333C12.0787 23.8333 11.2013 23.7033 10.3454 23.4975C10.3346 23.4108 10.3454 23.3458 10.3237 23.2592C9.84708 21.8183 9.48958 20.3558 9.21875 18.8608C10.4754 19.0017 11.7321 19.0992 12.9996 19.0992C14.2671 19.0992 15.5346 19.0017 16.7804 18.8608Z" fill="#38A7DE"/>
<path d="M17.0782 17.077C14.3687 17.4189 11.6339 17.4189 8.92436 17.077C8.5825 14.3675 8.5825 11.6327 8.92436 8.92314C11.6339 8.58128 14.3687 8.58128 17.0782 8.92314C17.4201 11.6327 17.4201 14.3675 17.0782 17.077Z" fill="#38A7DE"/>
</svg>
