<svg width="44" height="44" viewBox="0 0 44 44" fill="none" xmlns="http://www.w3.org/2000/svg">
<path fill-rule="evenodd" clip-rule="evenodd" d="M12.0143 21.44H12.0113C11.8713 24.62 13.0143 29.805 16.1513 34.172C19.3083 38.564 24.4843 42.128 32.3673 41.997H32.5133V2H32.3563C24.3173 2 19.2113 5.435 16.1273 9.632C13.1393 13.699 12.0663 18.459 12.0143 21.44ZM30.6143 3.069C29.5496 3.13852 28.4912 3.28456 27.4473 3.506L25.9523 7.421L30.6133 3.069H30.6143ZM24.6493 8.052L26.2753 3.795C24.8186 4.19637 23.4193 4.78246 22.1113 5.539L24.6493 8.052ZM20.3913 6.688C19.1457 7.63998 18.0352 8.75687 17.0903 10.008L18.4263 11.078L20.3913 6.688ZM17.7783 11.843L16.5053 10.825C15.7205 11.9893 15.0586 13.232 14.5303 14.533L17.7783 11.843V11.843ZM13.6553 17.134C13.2353 18.706 13.0393 20.157 13.0063 21.322H14.8423C14.7073 20.082 14.3203 18.742 13.6553 17.134V17.134ZM14.8983 22.333H12.9963C13.0333 23.647 13.2733 25.24 13.7623 26.936C14.5143 25.26 14.8883 23.841 14.8983 22.379V22.333ZM14.6203 29.376C15.2356 30.859 16.0173 32.2674 16.9503 33.574C17.9457 34.9702 19.1342 36.218 20.4803 37.28L18.4213 32.455L18.2753 32.404L14.6203 29.376V29.376ZM19.6923 32.904L21.7073 37.625L24.0183 34.433L19.6923 32.904V32.904ZM24.6763 35.224L22.2923 38.518C23.4915 39.2249 24.7727 39.7824 26.1073 40.178L24.6763 35.224V35.224ZM27.2243 40.474C28.3271 40.7258 29.449 40.8847 30.5783 40.949L25.8883 35.85L27.2243 40.473V40.474ZM26.8693 35.44L30.4613 39.346L29.1293 36.239L26.8693 35.44ZM30.2523 36.34L31.5243 39.306V4.772L30.3583 7.232L30.2523 36.34V36.34ZM29.4093 6.914L30.5593 4.488L26.8483 7.954L29.4093 6.914ZM24.2103 9.025L21.5933 6.434L19.5933 10.9L24.2103 9.025V9.025ZM18.1413 12.843L14.2713 16.048C15.0693 17.861 15.5753 19.406 15.7813 20.858L18.3733 17.306C18.3133 15.918 18.2363 14.452 18.1413 12.843ZM18.4353 18.912L16.2553 21.898L18.5263 24.843C18.5353 22.844 18.5053 20.941 18.4353 18.912ZM19.5053 26.114C19.5403 23.207 19.4983 20.584 19.3763 17.622L25.0883 9.794L27.3593 11.541V31.834L25.1063 33.378L19.5063 26.114H19.5053ZM18.5123 26.458L15.8623 23.021C15.7483 24.608 15.2483 26.149 14.4093 27.901L18.3943 31.201C18.4523 29.487 18.4923 27.933 18.5123 26.458ZM19.3663 31.719C19.4163 30.287 19.4553 28.967 19.4803 27.714L23.7673 33.274L19.3663 31.719V31.719ZM25.9213 34.036L28.5883 34.978L27.6703 32.838L25.9213 34.036V34.036ZM28.3483 32.016L28.3903 31.998L29.2713 34.053L29.3613 9.333L28.3483 11.468V32.017V32.016ZM27.6933 10.533L28.7703 8.261L26.1333 9.332L27.6933 10.532V10.533ZM23.3743 10.453L19.3043 16.029C19.2473 14.829 19.1763 13.561 19.0943 12.19L23.3743 10.452V10.453Z" fill="#272B65"/>
</svg>
