<svg width="41" height="38" viewBox="0 0 41 38" fill="none" xmlns="http://www.w3.org/2000/svg">
<path d="M36.9197 3.54646C35.8744 2.50116 34.6987 1.67394 33.4355 1.1077L33.3921 1.06426H33.3487C31.084 0.0626764 28.5579 -0.242333 26.163 0.193328H26.0758C23.9417 0.628655 21.9383 1.58679 20.2398 3.1109C18.5413 1.58648 16.5378 0.628367 14.4041 0.23649H14.3169C11.9215 -0.19914 9.3956 0.0624198 7.13121 1.10742H7.08776C7.08776 1.10742 7.04432 1.10742 7.04432 1.15086C5.78151 1.71711 4.60557 2.54464 3.5602 3.58962C-1.18673 8.33655 -1.18673 16.0015 3.5602 20.7485L8.13309 25.3214C8.17653 25.3649 8.22028 25.4521 8.30716 25.4955L19.8045 36.9928C19.8479 37.0363 19.8479 37.0363 19.8917 37.0363H19.9351C19.9786 37.0363 20.0223 37.0797 20.0223 37.0797C20.1095 37.1232 20.1529 37.1232 20.2401 37.1232C20.3273 37.1232 20.3708 37.1232 20.4579 37.0797C20.5014 37.0797 20.5451 37.0363 20.5451 37.0363H20.5886C20.632 37.0363 20.632 36.9928 20.6758 36.9928L32.1731 25.4955C32.2166 25.4521 32.3037 25.4083 32.3472 25.3214L36.9201 20.7485C41.6667 16.0019 41.6667 8.29308 36.9198 3.54607L36.9197 3.54646ZM27.5998 28.2396C26.9902 27.3249 26.2933 26.454 25.4658 25.6264H30.2127L27.5998 28.2396ZM10.2667 25.583H15.0137C14.2299 26.454 13.4892 27.3249 12.8796 28.1962L10.2667 25.583ZM9.30861 17.4826C11.3555 18.1358 13.3587 18.9198 15.2315 19.878V24.2765H9.30861V17.4826ZM2.16632 7.90151C3.08103 8.2934 3.95197 8.68527 4.7795 9.12093L1.42572 13.7807C1.12102 11.7775 1.38228 9.73063 2.16635 7.90151H2.16632ZM20.2398 7.94495L25.9015 9.42559C27.1209 10.2531 27.8178 11.4725 27.9483 13.0838C26.5546 14.6082 25.3351 16.4807 24.2464 18.7888C22.8526 19.4857 21.5026 20.3132 20.2397 21.1404C18.9769 20.3128 17.6265 19.4854 16.2331 18.7888C15.1443 16.4372 13.9249 14.6078 12.5311 13.0838C12.6617 11.4288 13.3149 10.2531 14.578 9.42559L20.2398 7.94495ZM34.4808 8.24995C34.4374 8.24995 34.3936 8.29339 34.3068 8.33714C33.6536 8.68558 33.044 9.03402 32.4342 9.38243V5.85491L36.7021 7.16151C35.9615 7.50965 35.2212 7.85778 34.4809 8.24996L34.4808 8.24995ZM29.0805 11.9516C28.8192 10.6888 28.2096 9.68689 27.2948 8.85935L31.1708 6.20277V10.2528C30.4305 10.7759 29.7337 11.3419 29.0805 11.9516ZM26.0754 8.16277L21.4591 6.94336L26.2932 1.76077L30.6918 4.98358L26.0754 8.16277ZM23.8979 24.0587C23.1141 23.3618 22.2866 22.665 21.4154 22.0118C22.1991 21.4893 23.0704 21.0103 23.8979 20.5312V24.0587ZM16.5816 20.5749C17.4525 21.054 18.28 21.533 19.0641 22.0556C18.1932 22.7087 17.3656 23.4055 16.5816 24.1024V20.5749ZM20.2397 22.8393C21.4591 23.7102 22.5913 24.625 23.6367 25.6265L20.2397 34.6415L16.8428 25.6265C17.8881 24.625 19.0203 23.7102 20.2397 22.8393V22.8393ZM14.404 8.16277L9.78774 4.98366L14.1863 1.76084L19.0204 6.94344L14.404 8.16277ZM13.1846 8.9031C12.2699 9.73063 11.6602 10.7322 11.399 11.9953C10.7458 11.3856 10.049 10.8194 9.30861 10.2969V6.24682L13.1846 8.9031ZM6.17297 8.33684C6.12922 8.33684 6.12922 8.33684 6.17297 8.33684C6.12953 8.2934 6.04234 8.24966 5.9989 8.24966C5.25858 7.85777 4.51826 7.50934 3.73419 7.16089L8.00207 5.8543V9.38182C7.39237 9.03368 6.78265 8.68524 6.17294 8.33676L6.17297 8.33684ZM5.95515 9.68715C6.65203 10.079 7.34893 10.4709 8.00203 10.9066V15.6973C6.08573 15.2182 4.1695 14.8697 2.29698 14.6957L5.95515 9.68715ZM9.30862 11.9081C10.0489 12.4744 10.7024 13.0841 11.3555 13.8244C12.4008 14.9567 13.4024 16.3504 14.2734 17.9617C12.6621 17.2214 10.9636 16.6117 9.26523 16.1325L9.26493 11.9081H9.30862ZM15.8412 26.6282L18.585 33.9012L13.8377 29.1539C14.404 28.283 15.1008 27.4555 15.8412 26.6282ZM24.6384 26.6282C25.4222 27.4558 26.0756 28.2832 26.6419 29.1542L21.895 33.9011L24.6384 26.6282ZM25.2047 24.2763V19.8778C27.121 18.9197 29.1241 18.136 31.1276 17.4825V24.2763L25.2047 24.2763ZM26.1628 17.9616C27.0337 16.3066 28.0353 14.9565 29.0807 13.8244C29.7338 13.1275 30.4307 12.4744 31.1276 11.9081V16.1325C29.4726 16.6115 27.7741 17.2212 26.1628 17.9616V17.9616ZM32.4775 10.95C33.1307 10.5143 33.8275 10.1224 34.5244 9.73054L38.1391 14.7825C36.2666 14.9566 34.3503 15.2616 32.4341 15.7841V10.95H32.4775ZM35.7004 9.12083C36.5279 8.6852 37.3988 8.29329 38.3135 7.90142C39.0973 9.77394 39.3588 11.8208 39.0539 13.7809L35.7004 9.12083ZM37.2245 5.94172L32.6516 4.54795L33.4353 2.58825C34.3501 3.06732 35.221 3.72049 35.9613 4.46077C36.4841 4.93984 36.8763 5.41888 37.2244 5.94172H37.2245ZM32.3035 2.06572L31.5197 3.98202L27.9484 1.32544C29.3856 1.28169 30.9097 1.49951 32.3035 2.06576V2.06572ZM20.719 4.46077C21.7206 3.45918 22.8531 2.7189 24.0725 2.19606L20.24 6.3336L16.4075 2.19637C17.6269 2.71889 18.759 3.45918 19.7609 4.46108C20.0222 4.72234 20.4578 4.72234 20.719 4.46077V4.46077ZM12.5751 1.32513L9.00379 3.98171L8.22003 2.06541C9.48284 1.58634 10.8332 1.32509 12.1394 1.32509H12.5751L12.5751 1.32513ZM4.47468 4.46077C5.25844 3.67701 6.08598 3.06699 7.00062 2.58825L7.78437 4.54795L3.25527 5.94172C3.60341 5.4189 3.99559 4.93982 4.47468 4.46077ZM2.03593 16.0452C3.99563 16.2193 6.04258 16.5677 8.04598 17.134L8.04568 23.3619L4.47438 19.7906C3.38592 18.7018 2.55839 17.3952 2.03594 16.0452H2.03593ZM32.4778 23.3619V17.134C34.4813 16.5677 36.4844 16.2193 38.4878 16.0452C37.9653 17.3952 37.1378 18.7018 36.0491 19.7906L32.4778 23.3619Z" fill="#272B65"/>
</svg>
