<svg width="44" height="44" viewBox="0 0 44 44" fill="none" xmlns="http://www.w3.org/2000/svg">
<path fill-rule="evenodd" clip-rule="evenodd" d="M12.25 6.3L14.596 10.367L7.943 21.9H3.25L12.25 6.3V6.3ZM3.25 22.766H7.943L14.596 34.3L12.25 38.367L3.25 22.767V22.766ZM13 38.8H31L28.653 34.733H15.347L13 38.8ZM15.847 33.866H28.153L26.146 30.387H17.854L15.847 33.866V33.866ZM17.854 29.52H26.146L30.293 22.333L26.146 15.146H17.854L13.708 22.333L17.854 29.52V29.52ZM12.957 21.9L17.103 14.713L15.097 11.234L8.943 21.9H12.957V21.9ZM8.943 22.767L15.097 33.432L17.103 29.954L12.957 22.766H8.943V22.767ZM15.847 10.8L17.854 14.28H26.146L28.153 10.8H15.847V10.8ZM28.904 11.234L35.057 21.9H31.043L26.897 14.713L28.904 11.234V11.234ZM31.044 22.767L26.897 29.954L28.904 33.432L35.057 22.767H31.043H31.044ZM36.057 22.767L29.404 34.299L31.75 38.366L40.75 22.766H36.057V22.767ZM40.749 21.9H36.057L29.404 10.367L31.75 6.3L40.75 21.9H40.749ZM31 5.867L28.654 9.934H15.347L13 5.867H31ZM32 5L42 22.333L32 39.666H12L2 22.333L12 5H32Z" fill="#272B65"/>
</svg>
