<svg width="24" height="30" viewBox="0 0 24 30" fill="none" xmlns="http://www.w3.org/2000/svg">
<path fill-rule="evenodd" clip-rule="evenodd" d="M11.9955 0.128145C11.5869 0.300422 11.2702 0.590912 11.0753 0.972115L10.9347 1.24724L10.9054 7.05236C10.8745 13.1656 10.8807 13.0363 10.6147 13.1786C10.4708 13.2557 10.1673 13.2557 10.0233 13.1786C9.76004 13.0377 9.7635 13.0964 9.73265 8.19579L9.70334 3.53411L9.52162 3.2116C8.82448 1.97417 7.06899 2.03668 6.43605 3.32143L6.30236 3.59274L6.27304 11.0047L6.24372 18.4167L5.07291 16.8098C3.69575 14.9198 3.45973 14.653 2.93715 14.3958C2.5807 14.2203 2.50828 14.2061 1.96442 14.2062C1.44201 14.2062 1.34415 14.2234 1.08245 14.3616C0.675094 14.5766 0.277707 15.0191 0.124663 15.428C-0.0786331 15.9714 -0.0282635 16.7937 0.239124 17.2961C0.38132 17.5632 5.88603 25.8819 6.16767 26.2553C6.53093 26.7367 7.24326 27.4692 7.73898 27.8708C9.37039 29.1926 11.5446 29.8976 14.2771 29.9908C17.2882 30.0934 19.7088 29.3381 21.2528 27.814C22.4628 26.6196 23.1497 25.2247 23.4927 23.2656C23.5939 22.6874 23.6004 22.1428 23.6004 14.3234V5.99688L23.4486 5.67437C23.2433 5.23864 23.0533 5.02725 22.6818 4.82143C22.4042 4.66769 22.313 4.64822 21.8706 4.64822C21.4218 4.64822 21.3401 4.66628 21.0497 4.82994C20.7034 5.02502 20.3556 5.4264 20.2253 5.78145C20.1629 5.9512 20.1393 6.85932 20.1141 10.0626L20.0822 14.1284L19.9176 14.2699C19.7001 14.457 19.4087 14.4569 19.1912 14.2699L19.0267 14.1284L18.9974 8.3035C18.9682 2.50812 18.9674 2.47728 18.8428 2.20761C18.6722 1.83872 18.3599 1.50701 18.0199 1.33326C17.6263 1.1322 16.8617 1.12668 16.4922 1.32224C16.1484 1.50413 15.8428 1.82599 15.6782 2.17946L15.5389 2.47863L15.5384 7.52879C15.538 10.3064 15.5214 12.661 15.5013 12.7614C15.4119 13.2081 14.8999 13.3905 14.5589 13.0971L14.3943 12.9556L14.365 7.13075C14.3359 1.33537 14.3351 1.30453 14.2104 1.03486C13.9261 0.419984 13.384 0.0520922 12.6938 0.00565127C12.4141 -0.0131714 12.271 0.0119255 11.9955 0.128145Z" fill="#FF8D69"/>
</svg>
