<svg width="16" height="20" viewBox="0 0 16 20" fill="none" xmlns="http://www.w3.org/2000/svg">
<path d="M16 4.23076V15.7692C16 16.3814 15.7592 16.9682 15.3306 17.4011C14.9019 17.8338 14.3206 18.0769 13.7143 18.0769H11.0476C10.7753 18.0769 10.5238 17.9303 10.3878 17.6923C10.2517 17.4543 10.2517 17.1611 10.3878 16.9231C10.5238 16.6851 10.7753 16.5385 11.0476 16.5385H13.7143C13.9163 16.5385 14.1102 16.4574 14.2531 16.3132C14.3959 16.169 14.4762 15.9732 14.4762 15.7692V4.23076C14.4762 4.02678 14.3959 3.83103 14.2531 3.68681C14.1102 3.54258 13.9163 3.46153 13.7143 3.46153H11.0476C10.7753 3.46153 10.5238 3.3149 10.3878 3.07692C10.2517 2.83893 10.2517 2.54566 10.3878 2.30768C10.5238 2.06971 10.7753 1.92307 11.0476 1.92307H13.7143C14.3206 1.92307 14.9019 2.1662 15.3306 2.59889C15.7592 3.03176 16 3.61863 16 4.23076ZM8.7619 0.769221V19.2308C8.7619 19.5057 8.61667 19.7596 8.38095 19.897C8.14524 20.0343 7.85476 20.0343 7.61905 19.897C7.38334 19.7596 7.2381 19.5057 7.2381 19.2308V18.0769H2.28571C1.67941 18.0769 1.09814 17.8338 0.669388 17.4011C0.240814 16.9682 0 16.3814 0 15.7692V4.23076C0 3.61863 0.240814 3.03177 0.669388 2.59889C1.09813 2.1662 1.67941 1.92307 2.28571 1.92307H7.2381V0.769221C7.2381 0.494324 7.38333 0.240385 7.61905 0.103022C7.85476 -0.0343407 8.14524 -0.0343407 8.38095 0.103022C8.61666 0.240385 8.7619 0.494332 8.7619 0.769221ZM7.2381 16.5385V3.46153H2.28571C2.08367 3.46153 1.88979 3.54258 1.74694 3.68681C1.60408 3.83103 1.52381 4.02678 1.52381 4.23076V15.7692C1.52381 15.9732 1.60408 16.169 1.74694 16.3132C1.88979 16.4574 2.08367 16.5385 2.28571 16.5385H7.2381Z" fill="#768395"/>
</svg>
