<svg width="44" height="44" viewBox="0 0 44 44" fill="none" xmlns="http://www.w3.org/2000/svg">
<path fill-rule="evenodd" clip-rule="evenodd" d="M17.5096 13.6362H11.6406V12.9092H17.5096V13.6362ZM32.1806 13.6362H26.6786V12.9092H32.1806V13.6362Z" fill="#272B65"/>
<path fill-rule="evenodd" clip-rule="evenodd" d="M26.3066 12.9818L21.9086 8.6218L17.5106 12.9818L21.9086 27.6238L26.3066 12.9818ZM27.1346 12.7748L21.9096 7.5918L16.6836 12.7728L21.9096 30.1708L27.1356 12.7728L27.1346 12.7748Z" fill="#272B65"/>
<path fill-rule="evenodd" clip-rule="evenodd" d="M29.2701 12.8768L21.9101 5.5788L14.5481 12.8768L21.9091 33.7388L29.2701 12.8768V12.8768ZM30.1151 12.6858L21.9091 4.5498L13.7031 12.6858L21.9091 35.9418L30.1151 12.6858V12.6858Z" fill="#272B65"/>
<path fill-rule="evenodd" clip-rule="evenodd" d="M31.967 13L21.909 3.029L11.851 13L21.91 39.907L31.967 13ZM32.818 12.816L21.91 2L11 12.816L21.91 42L32.818 12.816V12.816Z" fill="#272B65"/>
<path fill-rule="evenodd" clip-rule="evenodd" d="M21.543 8.18226V2.36426H22.277V8.18226H21.543V8.18226ZM21.543 40.5453V28.1823H22.277V40.5453H21.543Z" fill="#272B65"/>
</svg>
