<svg width="18" height="13" viewBox="0 0 18 13" fill="none" xmlns="http://www.w3.org/2000/svg">
<path fill-rule="evenodd" clip-rule="evenodd" d="M5 11.25C5 11.0842 5.06585 10.9253 5.18306 10.8081C5.30027 10.6908 5.45924 10.625 5.625 10.625H16.875C17.0408 10.625 17.1997 10.6908 17.3169 10.8081C17.4342 10.9253 17.5 11.0842 17.5 11.25C17.5 11.4158 17.4342 11.5747 17.3169 11.6919C17.1997 11.8092 17.0408 11.875 16.875 11.875H5.625C5.45924 11.875 5.30027 11.8092 5.18306 11.6919C5.06585 11.5747 5 11.4158 5 11.25ZM5 6.25C5 6.08424 5.06585 5.92527 5.18306 5.80806C5.30027 5.69085 5.45924 5.625 5.625 5.625H16.875C17.0408 5.625 17.1997 5.69085 17.3169 5.80806C17.4342 5.92527 17.5 6.08424 17.5 6.25C17.5 6.41576 17.4342 6.57473 17.3169 6.69194C17.1997 6.80915 17.0408 6.875 16.875 6.875H5.625C5.45924 6.875 5.30027 6.80915 5.18306 6.69194C5.06585 6.57473 5 6.41576 5 6.25ZM5 1.25C5 1.08424 5.06585 0.925269 5.18306 0.808058C5.30027 0.690848 5.45924 0.625 5.625 0.625H16.875C17.0408 0.625 17.1997 0.690848 17.3169 0.808058C17.4342 0.925269 17.5 1.08424 17.5 1.25C17.5 1.41576 17.4342 1.57473 17.3169 1.69194C17.1997 1.80915 17.0408 1.875 16.875 1.875H5.625C5.45924 1.875 5.30027 1.80915 5.18306 1.69194C5.06585 1.57473 5 1.41576 5 1.25ZM1.25 2.5C1.58152 2.5 1.89946 2.3683 2.13388 2.13388C2.3683 1.89946 2.5 1.58152 2.5 1.25C2.5 0.918479 2.3683 0.600537 2.13388 0.366116C1.89946 0.131696 1.58152 0 1.25 0C0.918479 0 0.600537 0.131696 0.366116 0.366116C0.131696 0.600537 0 0.918479 0 1.25C0 1.58152 0.131696 1.89946 0.366116 2.13388C0.600537 2.3683 0.918479 2.5 1.25 2.5V2.5ZM1.25 7.5C1.58152 7.5 1.89946 7.3683 2.13388 7.13388C2.3683 6.89946 2.5 6.58152 2.5 6.25C2.5 5.91848 2.3683 5.60054 2.13388 5.36612C1.89946 5.1317 1.58152 5 1.25 5C0.918479 5 0.600537 5.1317 0.366116 5.36612C0.131696 5.60054 0 5.91848 0 6.25C0 6.58152 0.131696 6.89946 0.366116 7.13388C0.600537 7.3683 0.918479 7.5 1.25 7.5V7.5ZM1.25 12.5C1.58152 12.5 1.89946 12.3683 2.13388 12.1339C2.3683 11.8995 2.5 11.5815 2.5 11.25C2.5 10.9185 2.3683 10.6005 2.13388 10.3661C1.89946 10.1317 1.58152 10 1.25 10C0.918479 10 0.600537 10.1317 0.366116 10.3661C0.131696 10.6005 0 10.9185 0 11.25C0 11.5815 0.131696 11.8995 0.366116 12.1339C0.600537 12.3683 0.918479 12.5 1.25 12.5V12.5Z" fill="#768395"/>
</svg>
