<svg width="26" height="26" viewBox="0 0 26 26" fill="none" xmlns="http://www.w3.org/2000/svg">
<path d="M9.91146 8.11426C9.30479 8.11426 8.82812 8.60176 8.82812 9.19759C8.82812 9.79342 9.31562 10.2809 9.91146 10.2809C10.5073 10.2809 10.9948 9.79342 10.9948 9.19759C10.9948 8.60176 10.5073 8.11426 9.91146 8.11426Z" fill="#38A7DE"/>
<path d="M23.2496 5.46008C22.3396 3.34758 20.3355 2.16675 17.5405 2.16675H8.46214C4.98464 2.16675 2.16797 4.98341 2.16797 8.46091V17.5392C2.16797 20.3342 3.3488 22.3384 5.4613 23.2484C5.66714 23.3351 5.90547 23.2809 6.05714 23.1292L23.1305 6.05592C23.293 5.89342 23.3471 5.65508 23.2496 5.46008ZM11.4088 13.2601C10.9863 13.6717 10.4338 13.8667 9.8813 13.8667C9.3288 13.8667 8.7763 13.6609 8.3538 13.2601C7.2488 12.2201 6.03547 10.5626 6.5013 8.59091C6.91297 6.80341 8.49464 6.00175 9.8813 6.00175C11.268 6.00175 12.8496 6.80341 13.2613 8.60175C13.7163 10.5626 12.503 12.2201 11.4088 13.2601Z" fill="#38A7DE"/>
<path d="M21.0913 22.2408C21.3297 22.4791 21.2972 22.8691 21.0047 23.0316C20.0513 23.5625 18.8922 23.8333 17.538 23.8333H8.45966C8.1455 23.8333 8.0155 23.465 8.23216 23.2483L14.7755 16.705C14.9922 16.4883 15.328 16.4883 15.5447 16.705L21.0913 22.2408Z" fill="#38A7DE"/>
<path d="M23.8329 8.46088V17.5392C23.8329 18.8934 23.5621 20.0634 23.0313 21.0059C22.8688 21.2984 22.4788 21.32 22.2404 21.0925L16.6937 15.5459C16.4771 15.3292 16.4771 14.9934 16.6937 14.7767L23.2371 8.23338C23.4646 8.01672 23.8329 8.14672 23.8329 8.46088Z" fill="#38A7DE"/>
</svg>
