<svg width="44" height="44" viewBox="0 0 44 44" fill="none" xmlns="http://www.w3.org/2000/svg">
<path fill-rule="evenodd" clip-rule="evenodd" d="M22.09 2L35.182 22L22.09 42L9 22L22.09 2ZM10.073 22.352L21.74 40.178V37.301L11.955 22.352H10.072H10.073ZM12.798 22.352L21.741 36.016V32.447L15.132 22.352H12.797H12.798ZM15.743 22L22.091 31.698L28.439 22L22.091 12.302L15.743 22ZM22.443 11.555L29.05 21.648H31.385L22.443 7.987V11.555V11.555ZM21.739 7.987L12.797 21.648H15.132L21.74 11.555V7.987H21.739ZM21.739 6.701L11.956 21.648H10.072L21.739 3.823V6.701ZM22.443 6.701L32.226 21.648H34.11L22.443 3.823V6.701V6.701ZM34.11 22.352H32.226L22.444 37.298V40.175L34.11 22.352ZM22.444 36.012L31.385 22.352H29.05L22.444 32.444V36.012V36.012Z" fill="#272B65"/>
</svg>
