<svg width="26" height="26" viewBox="0 0 26 26" fill="none" xmlns="http://www.w3.org/2000/svg">
<path d="M18.418 3.79175H7.58464C4.33464 3.79175 2.16797 5.41675 2.16797 9.20841V16.7917C2.16797 20.5834 4.33464 22.2084 7.58464 22.2084H18.418C21.668 22.2084 23.8346 20.5834 23.8346 16.7917V9.20841C23.8346 5.41675 21.668 3.79175 18.418 3.79175ZM18.9271 10.3892L15.5363 13.0976C14.8213 13.6717 13.9113 13.9534 13.0013 13.9534C12.0913 13.9534 11.1705 13.6717 10.4663 13.0976L7.07547 10.3892C6.7288 10.1076 6.67464 9.58758 6.94547 9.24091C7.22714 8.89425 7.7363 8.82925 8.08297 9.11091L11.4738 11.8192C12.2971 12.4801 13.6946 12.4801 14.518 11.8192L17.9088 9.11091C18.2555 8.82925 18.7755 8.88341 19.0463 9.24091C19.328 9.58758 19.2738 10.1076 18.9271 10.3892Z" fill="#38A7DE"/>
</svg>
