<svg width="23" height="41" viewBox="0 0 23 41" fill="none" xmlns="http://www.w3.org/2000/svg">
<path d="M18.5417 32.9064C18.5851 32.8627 18.5851 32.8627 18.5417 32.9064C19.6299 31.3394 20.6746 29.5113 21.4581 27.5089C21.5015 27.4655 21.5452 27.3784 21.5452 27.2912C22.4157 25.1149 22.9816 22.7208 22.9816 20.2399C22.9816 17.6718 22.3722 15.1906 21.458 12.9708C21.458 12.8836 21.4146 12.8402 21.3708 12.7531C20.5875 10.8378 19.5861 9.09685 18.5851 7.61699V7.57358L18.5417 7.53016C18.15 6.96421 17.8017 6.44197 17.41 5.96317C16.8007 5.13607 16.1479 4.39618 15.5385 3.74334C13.5795 1.52298 11.9254 0.217075 11.8383 0.130254L11.7949 0.0868357C11.7949 0.0868357 11.7514 0.0868357 11.7514 0.0434179C11.7514 0.0434179 11.708 0.0434179 11.708 0H11.6646H11.6212H11.534H11.4906H11.4472H11.4038H11.3166H11.2732C11.2298 0 11.2298 -4.63293e-09 11.2298 0.0434179C11.2298 0.0434179 11.1864 0.0434179 11.1864 0.0868357C11.1864 0.0868357 11.143 0.0868357 11.143 0.130254C11.0558 0.217394 9.40203 1.56666 7.35616 3.83024C6.79021 4.48303 6.18084 5.17952 5.61522 5.96317C5.26696 6.44199 4.87529 6.96422 4.48358 7.53016C4.44016 7.57358 4.44016 7.6173 4.39644 7.66072C3.3517 9.18433 2.3072 11.0124 1.52355 12.9711C1.48013 13.0145 1.43641 13.1016 1.43641 13.1888C0.565936 15.3651 0 17.7592 0 20.2401C0 22.8082 0.60937 25.2894 1.52362 27.5092C1.52362 27.5964 1.56704 27.6398 1.61076 27.7269C2.3941 29.6422 3.39546 31.3832 4.39652 32.863C4.39652 32.863 4.39652 32.9064 4.43994 32.9064L4.48335 32.9498C4.87503 33.5158 5.22328 34.038 5.61499 34.5168C8.3573 38.0862 11.0559 40.2626 11.1431 40.3494C11.1865 40.3929 11.2302 40.3929 11.2736 40.4366C11.317 40.4366 11.4042 40.48 11.4913 40.48C11.5785 40.48 11.6219 40.48 11.709 40.4366C11.7524 40.4366 11.7962 40.3932 11.8396 40.3932C11.9267 40.306 13.5805 38.9568 15.6264 36.6498C16.1923 35.997 16.8017 35.3005 17.3673 34.5169C17.8018 33.9946 18.1497 33.4721 18.5417 32.9064L18.5417 32.9064ZM15.4945 34.7779L15.1029 33.1675H16.757C16.3216 33.7335 15.9299 34.2557 15.4945 34.7779H15.4945ZM6.13614 33.1675H7.79026L7.442 34.8216C7.0066 34.2991 6.57153 33.7769 6.1361 33.1675H6.13614ZM1.34796 22.2856L3.69829 25.2454L2.34901 26.3335C1.87051 25.028 1.52222 23.6784 1.34796 22.2856ZM2.30556 14.3201L3.6986 15.2777L1.39164 18.1941C1.5222 16.8882 1.87046 15.5823 2.30556 14.3201ZM7.39851 5.70168L7.79019 7.31211H6.13607C6.57147 6.74616 6.96317 6.22393 7.39852 5.70168H7.39851ZM16.7569 7.31211H15.1028L15.4511 5.65799C15.8865 6.18053 16.3215 6.70273 16.757 7.31211H16.7569ZM21.5451 18.194L19.1948 15.2343L20.544 14.1461C21.0226 15.4517 21.3708 16.8013 21.5451 18.194ZM20.5875 26.1595L19.1945 25.2019L21.5014 22.2856C21.3709 23.5915 21.0226 24.8974 20.5875 26.1595V26.1595ZM11.4467 27.9877L8.66097 25.8984L7.35506 20.1964L8.66097 14.4944L11.4467 12.4051L14.2325 14.4944L15.5384 20.1964L14.2325 25.8984L11.4467 27.9877ZM7.18111 25.3759L5.48354 24.897L6.48459 22.4158L7.18111 25.3759ZM6.52802 18.0634L5.52696 15.5822L7.22454 15.1034L6.52802 18.0634ZM7.48562 13.6672L5.30925 14.2766L5.48323 8.61792H7.92069L7.48562 13.6672ZM4.43878 16.4092L5.9624 20.2397L4.43878 24.0265L1.39193 20.2397L4.43878 16.4092ZM5.30925 26.2029L7.48562 26.8122L7.92102 31.8615H5.52693L5.30925 26.2029ZM15.7123 15.1034L17.4099 15.5822L16.3654 18.0631L15.7123 15.1034ZM16.3654 22.4158L17.3665 24.8971L15.6689 25.3759L16.3654 22.4158ZM18.4547 24.07L16.931 20.2395L18.4547 16.4527L21.5015 20.2395L18.4547 24.07ZM17.5842 14.2763L15.4078 13.6669L14.9724 8.61764H17.3665L17.5842 14.2763ZM15.4078 26.8122L17.5842 26.2028L17.4102 31.8615H15.0161L15.4078 26.8122ZM18.8901 26.5511L20.1089 27.4215C19.7172 28.3358 19.2384 29.2497 18.7596 30.1202L18.8901 26.5511ZM18.8901 13.841L18.7595 10.4025C19.2383 11.2296 19.6738 12.0567 20.0217 12.9271L18.8901 13.841ZM13.7537 9.70602L14.0148 12.7966L12.361 11.5342L13.7537 9.70602ZM11.4467 10.5765L9.35748 7.83418L11.4467 2.48038L13.536 7.87786L11.4467 10.5765ZM10.5325 11.5341L8.87837 12.7962L9.13949 9.70563L10.5325 11.5341ZM4.00337 13.9282L2.7846 13.0577C3.17628 12.1435 3.65507 11.2296 4.13387 10.3591L4.00337 13.9282ZM4.00337 26.6382L4.13393 30.0767C3.65511 29.2496 3.2197 28.4226 2.87179 27.5521L4.00337 26.6382ZM9.13977 30.7732L8.83493 27.6829L10.4891 28.9451L9.13977 30.7732ZM11.4467 29.9028L13.536 32.6451L11.4467 37.9989L9.35748 32.6014L11.4467 29.9028ZM12.361 28.9452L14.0151 27.683L13.754 30.7736L12.361 28.9452ZM14.3631 4.39566L14.102 5.65781L13.0572 3.00263C13.4492 3.43803 13.928 3.91686 14.3631 4.39566H14.3631ZM9.83637 3.04639L8.79163 5.7887L8.48679 4.4828C8.92219 3.96026 9.40102 3.48143 9.83637 3.04639H9.83637ZM8.53046 36.0837L8.79158 34.8216L9.83632 37.4768C9.44434 37.0414 8.96554 36.5625 8.53042 36.0837H8.53046ZM13.0572 37.433L14.1019 34.6907L14.4067 35.9966C13.9713 36.5191 13.4925 36.998 13.0572 37.433H13.0572Z" fill="#272B65"/>
</svg>
