<svg width="26" height="26" viewBox="0 0 26 26" fill="none" xmlns="http://www.w3.org/2000/svg">
<path d="M21.6673 8.93746V19.5C21.6673 22.75 19.7281 23.8333 17.334 23.8333H8.66732C6.27315 23.8333 4.33398 22.75 4.33398 19.5V8.93746C4.33398 5.41663 6.27315 4.60413 8.66732 4.60413C8.66732 5.27579 8.93812 5.88246 9.38229 6.32662C9.82645 6.77079 10.4331 7.04163 11.1048 7.04163H14.8965C16.2398 7.04163 17.334 5.94746 17.334 4.60413C19.7281 4.60413 21.6673 5.41663 21.6673 8.93746Z" stroke="#AEAEAE" stroke-width="1.5" stroke-linecap="round" stroke-linejoin="round"/>
<path d="M17.3327 4.60413C17.3327 5.94746 16.2385 7.04163 14.8952 7.04163H11.1035C10.4318 7.04163 9.82515 6.77079 9.38099 6.32662C8.93682 5.88245 8.66602 5.27579 8.66602 4.60413C8.66602 3.26079 9.76018 2.16663 11.1035 2.16663H14.8952C15.5668 2.16663 16.1735 2.43746 16.6177 2.88163C17.0619 3.3258 17.3327 3.93246 17.3327 4.60413Z" stroke="#AEAEAE" stroke-width="1.5" stroke-linecap="round" stroke-linejoin="round"/>
<path d="M8.66602 14.0834H12.9993" stroke="#AEAEAE" stroke-width="1.5" stroke-linecap="round" stroke-linejoin="round"/>
<path d="M8.66602 18.4166H17.3327" stroke="#AEAEAE" stroke-width="1.5" stroke-linecap="round" stroke-linejoin="round"/>
</svg>
