<svg width="44" height="44" viewBox="0 0 44 44" fill="none" xmlns="http://www.w3.org/2000/svg">
<path fill-rule="evenodd" clip-rule="evenodd" d="M30.23 2L41.9622 13.6778L42 30.23L30.3222 41.9622L13.77 42L2.03778 30.3222L2 13.77L13.6778 2.03778L30.23 2ZM13.7 3.43333L14.3278 4.91333L4.88889 14.3956L3.41111 13.7689L13.7 3.43333V3.43333ZM3.00222 14.6822L3.03556 29.4711L4.52444 28.8411L4.49222 15.3133L3.00222 14.6822V14.6822ZM5.49333 15.7378L5.52222 28.4178L7.18667 27.7133L7.16 16.4444L5.49333 15.7378V15.7378ZM8.16111 16.8678L8.18556 27.29L10.0478 26.5011L10.0278 17.6589L8.16111 16.8678V16.8678ZM10.3767 16.7211L8.52667 15.9367L15.8711 8.55778L16.6567 10.4111L10.3767 16.7211V16.7211ZM11.0267 17.4844L11.0489 26.5667L17.4422 32.9311L17.5422 32.9733L26.5667 32.9522L32.9733 26.5156L32.9511 17.4344L26.5156 11.0267L17.4333 11.0489L11.0267 17.4844V17.4844ZM17.5889 10.0478L26.3156 10.0278L27.1067 8.16111L16.8 8.18556L17.5889 10.0478V10.0478ZM16.3778 7.18667L27.5311 7.16111L28.2367 5.49333L15.6722 5.52222L16.3767 7.18667H16.3778ZM14.7489 5.90778L5.88222 14.8156L7.53444 15.5156L15.45 7.56333L14.7489 5.90778V5.90778ZM15.2489 4.52333L28.6611 4.49222L29.2922 3.00222L14.6178 3.03556L15.2489 4.52333ZM30.2133 3.39333L29.5867 4.87111L39.0011 14.2422L40.4811 13.6144L30.2122 3.39333H30.2133ZM40.9633 14.4956L39.4767 15.1267L39.5078 28.5111L40.9967 29.1433L40.9633 14.4956ZM40.7111 30.1067L39.2333 29.4811L29.8222 38.9367L30.4489 40.4178L40.7111 30.1067V30.1067ZM29.5933 40.9633L28.9633 39.4767L15.4633 39.5078L14.8322 40.9967L29.5933 40.9633ZM13.8744 40.6933L14.5011 39.2156L4.97667 29.7356L3.49667 30.3633L13.8744 40.6933ZM5.97 29.3144L14.9211 38.2233L15.6211 36.5711L7.62667 28.6122L5.97111 29.3144H5.97ZM8.62111 28.1922L16.0422 35.5789L16.8256 33.7289L10.4744 27.4067L8.62111 28.1911V28.1922ZM17.8089 33.9722L17.0178 35.8389L27.4122 35.8144L26.6233 33.9522L17.8089 33.9722V33.9722ZM27.4922 33.4389L28.2778 35.2933L35.5967 27.94L33.7467 27.1567L27.4911 33.44L27.4922 33.4389ZM33.9722 26.1656L35.8389 26.9567L35.8144 16.6778L33.9522 17.4667L33.9722 26.1667V26.1656ZM33.5033 16.5711L35.3567 15.7856L28.0456 8.50778L27.2611 10.3589L33.5033 16.5711V16.5711ZM28.4656 7.51556L36.3511 15.3644L38.0067 14.6633L29.1667 5.86333L28.4667 7.51667L28.4656 7.51556ZM38.4767 15.5489L36.8133 16.2544L36.8389 27.3811L38.5056 28.0878L38.4778 15.55L38.4767 15.5489ZM38.2411 29.0611L36.5889 28.3611L28.6989 36.2878L29.4 37.9433L38.2411 29.0611ZM28.5411 38.4778L27.8356 36.8133L16.5933 36.84L15.8878 38.5067L28.54 38.4778H28.5411Z" fill="#272B65"/>
</svg>
