<svg width="44" height="44" viewBox="0 0 44 44" fill="none" xmlns="http://www.w3.org/2000/svg">
<path fill-rule="evenodd" clip-rule="evenodd" d="M22.19 2L33.7189 3.6362L38.3767 5.3911L38.8156 5.34631L38.7811 5.69572L40.5833 10.7219L42 22.0991L40.0278 33.604L38.2311 38.5238L33.4856 40.1678L21.8133 41.9574L21.75 42L21.69 41.9597L10.59 40.1678L5.34111 38.5271L3.69333 32.9813L2 21.5504L3.90333 10.1104L5.62778 5.28695L10.9089 3.3327L22.1889 2H22.19ZM23.8667 40.6203L32.6067 39.2797L31.1067 35.9021L23.8667 40.6203ZM32.2278 35.9502L33.6067 39.0557L36.3589 38.1038L35.5089 37.6659C34.6256 37.2068 33.49 36.6132 32.2278 35.9491V35.9502ZM37.8933 36.5225L38.9267 33.6891L35.8878 32.4012C36.5625 33.7719 37.2311 35.1457 37.8933 36.5225V36.5225ZM35.72 31.232L39.1656 32.6935L40.6633 23.9604L35.7211 31.232H35.72ZM40.78 20.4237L39.6733 11.5383L35.8844 13.095L40.78 20.4237ZM35.7944 12.04L39.45 10.5394L38.2378 7.15497C38.1089 7.41927 37.9567 7.72724 37.7856 8.07218C37.1263 9.39706 36.4626 10.7197 35.7944 12.04V12.04ZM36.97 5.94098L33.9289 4.79531L32.4511 8.17521C33.8844 7.45847 35.1767 6.81563 36.1589 6.33519C36.4589 6.18848 36.7322 6.05521 36.97 5.94098V5.94098ZM31.3144 8.26368L32.9411 4.54669L24.2133 3.30806L31.3156 8.26368H31.3144ZM20.27 3.24535L11.6978 4.25887L13.1811 7.97027L20.27 3.24423V3.24535ZM10.6222 4.51645L7.62778 5.62516C7.90444 5.75955 8.23111 5.92082 8.6 6.10449C9.49778 6.55245 10.6489 7.13369 11.9267 7.78212L10.6222 4.51645ZM12.4944 9.20217C11.0504 8.46671 9.60373 7.73652 8.15444 7.01162C7.59444 6.73164 7.13556 6.50654 6.80778 6.34863C6.94889 6.65101 7.13222 7.03626 7.35222 7.49094C7.88333 8.59518 8.61778 10.0947 9.43333 11.7489L9.58333 12.0546L14.5889 14.4445L12.4944 9.20329V9.20217ZM14.9278 15.7246L10.3067 13.5183C11.4444 15.8197 12.65 18.2421 13.6367 20.221L14.9267 15.7246H14.9278ZM13.24 21.6758C12.0756 19.3441 10.4622 16.1031 9.01667 13.1756L3.27 21.5683L8.78333 30.4996L10.02 28.0548C11.1889 25.7467 12.3567 23.4397 13.24 21.6758V21.6758ZM7.87333 30.9397L3.31111 23.5505L4.59556 32.2243L7.87333 30.9397ZM4.81333 33.2243L5.78333 36.4855L6.2 35.64C6.68556 34.659 7.33 33.3778 8.04667 31.9566L4.81333 33.2243V33.2243ZM9.45444 31.4011L9.28222 31.7416C8.54919 33.189 7.82104 34.6389 7.09778 36.0913C6.90889 36.4721 6.74333 36.8081 6.60889 37.0858L7.44 36.6737C8.89077 35.948 10.3389 35.2171 11.7844 34.4809L12.6067 34.062L14.5811 29.3102L9.45444 31.4011V31.4011ZM15.82 28.9485L20.2822 30.1468C18.1825 31.2162 16.0836 32.2872 13.9856 33.3599L15.8189 28.9485H15.82ZM12.0089 35.4989C10.6366 36.1979 9.26174 36.8918 7.88444 37.5808C7.57111 37.7376 7.28667 37.8776 7.04 37.9985L10.5178 39.086L12.0089 35.4989V35.4989ZM11.5178 39.2932L19.6933 40.6113L12.8789 36.0163L11.5178 39.2932ZM13.2744 35.0666L13.3867 34.7956C14.7067 34.1236 16.08 33.4237 17.3989 32.7495C19.0156 31.9252 20.55 31.1413 21.8067 30.5041C24.728 32.0071 27.641 33.5265 30.5456 35.0621L21.7589 40.7883L13.2744 35.0655V35.0666ZM31.5667 34.4596L31.7111 34.5358C33.3644 35.4048 34.8633 36.1932 35.9667 36.7644C36.4644 37.022 36.88 37.2348 37.1922 37.3915C37.0086 37 36.8227 36.6095 36.6344 36.2201C36.1022 35.1159 35.3678 33.6163 34.5533 31.9622L34.4656 31.7864L29.2967 29.345L31.5667 34.4596ZM29.0011 28.0884L33.7467 30.3294C32.612 28.0354 31.4734 25.7433 30.3311 23.4531L29.0011 28.0884ZM28.0011 27.9339L29.69 22.0487L29.6933 22.0498L28.2044 15.9597L22.5767 14.3247L16.04 15.8231L14.3333 21.7732L16.1144 27.9798L21.6278 29.4614L21.7122 29.4189L21.7411 29.476L21.8944 29.4379L21.9033 29.42L21.9256 29.4312L28.0011 27.9339V27.9339ZM23.2978 30.1334C25.3156 31.1738 27.7956 32.4762 30.1333 33.7059L28.03 28.9687L23.2967 30.1334H23.2978ZM15.9156 14.8152L21.1489 13.6146L17.6589 11.834L13.9744 9.95476L15.9156 14.8152V14.8152ZM13.83 8.74861L18.1133 10.9324C19.73 11.7578 21.2656 12.5418 22.5211 13.1801C24.7656 12.0412 27.8567 10.4789 30.69 9.05658L22.2278 3.15127L13.83 8.74861V8.74861ZM23.8444 13.6404C25.7722 12.6638 28.1444 11.4655 30.4133 10.3254L28.3856 14.9597L23.8444 13.6404ZM29.2122 15.8578L30.3622 20.5592C31.1622 18.9678 32.1178 17.0797 33.0733 15.1915L33.6733 14.0088L29.2122 15.8578ZM34.3722 12.6246L34.7033 11.9695C35.5503 10.296 36.3907 8.61906 37.2244 6.93882L36.5967 7.24344C35.0004 8.02804 33.4078 8.8202 31.8189 9.6199L29.6456 14.5845L34.3722 12.6246ZM35.0089 13.5922L33.9644 15.6551C32.7967 17.9633 31.6289 20.2703 30.7456 22.0342C31.9122 24.3681 33.5267 27.6125 34.9733 30.5422L40.7011 22.1148L35.0089 13.5922V13.5922ZM13.6622 23.0734C12.4946 25.3929 11.3231 27.7104 10.1478 30.0259L15.0789 28.0145L13.6611 23.0734H13.6622ZM3.32222 19.7081L4.76222 11.0601L8.22222 12.553L3.32333 19.7092L3.32222 19.7081ZM8.15 11.423C7.57782 10.2616 7.01003 9.09796 6.44667 7.93219C6.31244 7.65377 6.1791 7.37491 6.04667 7.09561L4.98889 10.0567L8.15111 11.423H8.15Z" fill="#272B65"/>
</svg>
