<svg width="26" height="26" viewBox="0 0 26 26" fill="none" xmlns="http://www.w3.org/2000/svg">
<path d="M21.6666 8.93758V19.5001C21.6666 22.7501 19.7275 23.8334 17.3333 23.8334H8.66665C6.27248 23.8334 4.33331 22.7501 4.33331 19.5001V8.93758C4.33331 5.41675 6.27248 4.60425 8.66665 4.60425C8.66665 5.27591 8.93745 5.88258 9.38162 6.32674C9.82578 6.77091 10.4325 7.04175 11.1041 7.04175H14.8958C16.2391 7.04175 17.3333 5.94758 17.3333 4.60425C19.7275 4.60425 21.6666 5.41675 21.6666 8.93758Z" stroke="#38A7DE" stroke-width="1.5" stroke-linecap="round" stroke-linejoin="round"/>
<path d="M17.3334 4.60425C17.3334 5.94758 16.2392 7.04175 14.8959 7.04175H11.1042C10.4325 7.04175 9.82582 6.77091 9.38166 6.32674C8.93749 5.88258 8.66669 5.27591 8.66669 4.60425C8.66669 3.26091 9.76085 2.16675 11.1042 2.16675H14.8959C15.5675 2.16675 16.1742 2.43759 16.6184 2.88175C17.0625 3.32592 17.3334 3.93258 17.3334 4.60425Z" stroke="#38A7DE" stroke-width="1.5" stroke-linecap="round" stroke-linejoin="round"/>
<path d="M8.66669 14.0833H13" stroke="#38A7DE" stroke-width="1.5" stroke-linecap="round" stroke-linejoin="round"/>
<path d="M8.66669 18.4167H17.3334" stroke="#38A7DE" stroke-width="1.5" stroke-linecap="round" stroke-linejoin="round"/>
</svg>
