<svg width="44" height="44" viewBox="0 0 44 44" fill="none" xmlns="http://www.w3.org/2000/svg">
<path fill-rule="evenodd" clip-rule="evenodd" d="M1 2H18.8947V27.7242H1V2ZM1.91158 2.55895L4.45474 5.35579H15.2389L17.9547 2.55789H1.91158V2.55895ZM18.3358 2.96947L15.6316 5.75053V24.1632L18.3347 26.7821V2.96842L18.3358 2.96947ZM17.9253 27.1642L15.3284 24.6484H4.37053L1.93895 27.1642H17.9253ZM1.55789 26.7526V3.00316L3.96842 5.65158V24.2589L1.55789 26.7526ZM4.90947 24.0895H14.7505L13.8842 23.2505H5.72105L4.91053 24.0884L4.90947 24.0895ZM5.88105 22.6905H13.7179V7.31158H5.88211V22.6905H5.88105ZM5.72421 6.75368H13.88L14.6947 5.91474H4.96316L5.72526 6.75368H5.72421ZM4.52632 6.26632V23.68L5.32105 22.8579V7.14105L4.52632 6.26737V6.26632ZM15.0726 6.32737L14.2779 7.14632V22.8516L15.0726 23.6221V6.32737V6.32737ZM31.5263 18.8421H34.7832L39.9337 23.2284L41.0495 26.9063L42.0526 30.4716L40.0442 37.6126L34.7684 42L28.2716 41.9874L22.8968 37.6021L21 30.4716L22.8958 23.24L28.2579 18.8547L31.5253 18.8421H31.5263ZM30.6211 19.3495L28.6684 19.3558L28.96 20.3979C29.3684 20.1558 29.7053 19.9379 30.0442 19.7179L30.0463 19.7168C30.2326 19.5958 30.42 19.4747 30.62 19.3484L30.6211 19.3495ZM28.5 20.5726L26.48 20.9516L28.2095 19.5368L28.5 20.5726ZM25.1537 22.0358L23.5011 23.3874L24.2579 24.0253L25.1537 22.0358ZM24.8726 24.5432L25.9758 25.4726C26.2705 24.9947 26.56 24.5095 26.8495 23.9989C26.2295 24.18 25.5779 24.3579 24.8726 24.5432ZM27.5274 23.7958C27.1379 24.5011 26.7547 25.1537 26.3568 25.7937L31.0726 29.7653L29.2421 23.2253C28.6811 23.4274 28.1158 23.6147 27.5274 23.7958V23.7958ZM29.1063 22.7411C28.7 22.8874 28.2916 23.0263 27.8737 23.1611C28.1579 22.6326 28.4463 22.0726 28.7505 21.4684L29.1063 22.7411ZM29.7042 23.0558L31.5253 29.56L33.3337 23.0674C32.7171 22.837 32.107 22.5895 31.5042 22.3253C30.8863 22.5937 30.2937 22.8337 29.7042 23.0558V23.0558ZM30.8832 22.0453C30.4358 22.2347 30.0011 22.4074 29.5674 22.5716L29.1937 21.2347C29.7926 21.5347 30.3495 21.8032 30.8821 22.0453H30.8832ZM32.1284 22.0474C32.5821 22.24 33.0253 22.4158 33.4684 22.5821L33.8442 21.2347C33.2379 21.5337 32.6705 21.8032 32.1284 22.0474V22.0474ZM34.2926 21.4505L33.9305 22.7516C34.3411 22.8989 34.7579 23.04 35.1874 23.1779C34.8814 22.6065 34.5831 22.031 34.2926 21.4516V21.4505ZM35.5347 23.8137C34.951 23.6337 34.3712 23.441 33.7958 23.2358L31.9821 29.7474L36.6442 25.7105C36.2591 25.0873 35.8892 24.4548 35.5347 23.8137V23.8137ZM37.0211 25.3832C36.7484 24.9411 36.4821 24.4905 36.2147 24.02C36.7747 24.1863 37.3663 24.3537 38.0063 24.5305L37.0211 25.3832V25.3832ZM36.9116 26.1368L32.1958 30.22H38.0526C38.0495 29.4758 38.0632 28.7179 38.0989 27.9158C37.6903 27.3315 37.2944 26.7384 36.9116 26.1368V26.1368ZM38.14 27.1063C37.8432 26.6705 37.5611 26.2432 37.2874 25.8105L38.3053 24.9295C38.2384 25.6542 38.1834 26.3799 38.14 27.1063V27.1063ZM38.5632 28.5737C38.5464 29.1223 38.5393 29.6711 38.5421 30.22H39.7705C39.3625 29.6753 38.96 29.1265 38.5632 28.5737V28.5737ZM39.7705 30.7232H38.5474C38.5558 31.26 38.5726 31.7937 38.599 32.3358C38.96 31.8232 39.3484 31.2905 39.7705 30.7232V30.7232ZM38.1432 32.9905C38.0989 32.22 38.0695 31.4747 38.0579 30.7232H32.2105L36.9926 34.7505C37.3547 34.1674 37.7337 33.5884 38.1432 32.9905V32.9905ZM37.3737 35.0716C37.6368 34.6463 37.9084 34.2242 38.1947 33.7958C38.2411 34.4653 38.2968 35.1611 38.3611 35.9032L37.3737 35.0716ZM36.7295 35.1789L31.9779 31.1779L33.8074 37.7137C34.4129 37.4846 35.0243 37.2715 35.6411 37.0747C35.9896 36.4351 36.3525 35.8033 36.7295 35.18V35.1789ZM36.319 36.8642C36.5821 36.3958 36.8432 35.9442 37.1116 35.5011L38.1274 36.3568C37.4853 36.5253 36.8884 36.6937 36.32 36.8642H36.319ZM35.2958 37.7168C34.8358 37.8695 34.3884 38.0295 33.9432 38.1989L34.3326 39.5905C34.6684 38.9189 34.9853 38.3 35.2958 37.7168ZM33.8789 39.7884L33.4832 38.3768C33.0432 38.5505 32.6 38.7347 32.1463 38.9347C32.6989 39.1937 33.2705 39.4768 33.8789 39.7884ZM31.5411 38.6547C32.1371 38.3859 32.7394 38.1311 33.3474 37.8905L31.5263 31.3789L29.6968 37.88C30.3084 38.1158 30.9158 38.3716 31.5421 38.6547H31.5411ZM29.56 38.3653C30.0158 38.5421 30.4705 38.7295 30.9326 38.9326C30.3386 39.2088 29.7481 39.4924 29.1611 39.7832L29.56 38.3653ZM29.2358 37.7053L31.0747 31.1684L26.2958 35.1358C26.6768 35.7642 27.0453 36.4053 27.4179 37.0905C28.0293 37.2791 28.6354 37.4841 29.2358 37.7053V37.7053ZM27.76 37.7263C28.2179 37.8737 28.6611 38.0284 29.1 38.1895L28.7105 39.5758C28.3779 38.9126 28.0653 38.3021 27.76 37.7253V37.7263ZM26.7442 36.8884C26.4684 36.3937 26.1937 35.92 25.9126 35.4547L24.8158 36.3642C25.5021 36.5389 26.14 36.7116 26.7442 36.8884V36.8884ZM24.5884 35.9063L25.6495 35.0253C25.363 34.5642 25.0683 34.1083 24.7653 33.6579C24.7168 34.3716 24.6579 35.1126 24.5884 35.9063ZM24.8137 32.8537C25.2505 33.4853 25.6505 34.0947 26.0326 34.7074L30.8326 30.7232H24.8916C24.8811 31.4305 24.8537 32.1316 24.8137 32.8537V32.8537ZM24.4021 30.7232C24.3942 31.2156 24.3791 31.708 24.3568 32.2C24.0036 31.7036 23.6446 31.2113 23.28 30.7232H24.4021ZM24.8968 30.22H30.84L26.0895 26.2179C25.6919 26.8392 25.2806 27.4517 24.8558 28.0547C24.8874 28.8053 24.8989 29.5179 24.8958 30.22H24.8968ZM24.3895 28.7116C24.4042 29.2263 24.4095 29.7253 24.4074 30.22H23.2811C23.6779 29.6884 24.0453 29.1895 24.3895 28.7116ZM24.8168 27.2453C25.1284 26.7905 25.4232 26.3463 25.7084 25.8979L24.6516 25.0074C24.7232 25.8032 24.7779 26.5432 24.8168 27.2453ZM24.1621 25.0347C24.2568 26.0726 24.32 27.0137 24.36 27.9011C23.9221 28.5221 23.4474 29.1705 22.9189 29.8779L22.4021 27.1621L24.1621 25.0337V25.0347ZM23.9979 24.4558L22.6589 26.0747L23.2484 23.8263L23.9979 24.4568V24.4558ZM22.1021 28.2021L21.5726 30.22H22.4863L22.1021 28.2021ZM22.4916 30.7232L22.1316 32.8179L21.5737 30.7232H22.4916ZM22.7053 34.9768L23.2484 37.019L23.9337 36.4495L22.7053 34.9768ZM24.1 35.8758C24.1895 34.8463 24.2632 33.9053 24.3158 33.0011C23.8937 32.3937 23.4368 31.7611 22.9274 31.0768L22.4432 33.8895L24.1 35.8758ZM24.1989 36.8758L23.5032 37.4547L25.0568 38.7221L24.1989 36.8758V36.8758ZM26.7 40.0632L28.2232 41.3053L28.4653 40.4463L26.7 40.0632ZM28.9253 40.6211L30.5295 41.4884L28.6821 41.4853L28.9242 40.6221L28.9253 40.6211ZM32.5211 41.4926L34.3568 41.4958L34.1158 40.6368L32.5211 41.4926ZM34.5758 40.4611L36.3021 40.0768L34.8147 41.3137L34.5758 40.4611V40.4611ZM37.9168 38.7347L39.4432 37.4653L38.7484 36.8789L37.9168 38.7347V38.7347ZM39.0095 36.4484L40.2779 34.9705L39.6989 37.0295L39.0095 36.4484ZM40.8832 32.8168L40.5558 30.7221H41.4726L40.8832 32.8168ZM41.4726 30.22H40.5547L40.8832 28.1253L41.4726 30.22ZM40.2453 25.9484L39.5979 23.8116L38.9063 24.4095L40.2453 25.9484ZM38.7874 25.0274C38.6979 26.0168 38.6347 26.9168 38.5947 27.7642C39.0558 28.4211 39.5558 29.1063 40.1168 29.8568L40.5547 27.0568L38.7874 25.0274V25.0274ZM40.1168 31.0863C39.6131 31.761 39.1214 32.4446 38.6421 33.1368C38.6947 33.9979 38.7653 34.8947 38.8505 35.8737L40.5558 33.8863L40.1168 31.0863V31.0863ZM38.6621 23.9632L37.8589 22.1147L39.34 23.3758L38.6621 23.9632V23.9632ZM36.3716 20.8474L34.54 20.5611L34.8274 19.5326L36.3716 20.8484V20.8474ZM34.3705 19.3453H32.4063L34.0811 20.3832L34.3705 19.3453ZM33.7126 20.7421L31.5221 19.3842C31.0537 19.6589 30.6811 19.9 30.3053 20.1432V20.1442C30.0032 20.3389 29.7 20.5358 29.3453 20.7505C30.1242 21.1411 30.8316 21.4779 31.5053 21.7779C32.2484 21.4485 32.9843 21.1031 33.7126 20.7421V20.7421ZM28.3821 21.1063C28.0019 21.8687 27.6075 22.624 27.1989 23.3716C26.4516 23.5979 25.6621 23.8168 24.7884 24.0453L25.9021 21.5716L28.3821 21.1063V21.1063ZM34.6621 21.0895C35.0832 21.9316 35.4768 22.6874 35.8621 23.3895C36.5705 23.6063 37.3253 23.8211 38.1653 24.0526L37.0389 21.4632L34.6621 21.0895V21.0895ZM38.2211 36.8516C37.4664 37.0493 36.7163 37.2645 35.9716 37.4968C35.5414 38.2955 35.1245 39.1012 34.7211 39.9137L37.0853 39.3874L38.2221 36.8505L38.2211 36.8516ZM33.7316 40.2758C32.9526 39.8758 32.2326 39.5221 31.54 39.2042C30.8453 39.52 30.1158 39.8695 29.3168 40.2653L31.5263 41.4579L33.7316 40.2758V40.2758ZM28.3211 39.9C27.9232 39.0983 27.5122 38.3031 27.0884 37.5147C26.3089 37.2793 25.5242 37.0617 24.7347 36.8621L25.9032 39.3758L28.3221 39.9H28.3211Z" fill="#272B65"/>
</svg>
