<svg width="28" height="41" viewBox="0 0 28 41" fill="none" xmlns="http://www.w3.org/2000/svg">
<path d="M26.3337 27.8576C26.3771 27.8142 26.3771 27.7271 26.3771 27.6399C26.9865 25.333 27.3347 22.8517 27.3347 20.2403C27.3347 17.498 26.943 14.9299 26.29 12.5358C26.29 12.4924 26.2466 12.4052 26.2466 12.3618C25.5938 10.0548 24.6361 7.96559 23.4608 6.18087V6.13745V6.09403C23.4608 6.05062 23.4174 6.05062 23.4174 6.05062C23.4174 6.05062 23.4174 6.0072 23.3739 6.0072L23.2868 5.92006C22.068 4.09189 20.5882 2.61202 18.934 1.61073C18.8906 1.52329 18.8469 1.47987 18.7597 1.47987C17.1927 0.522255 15.4517 0 13.667 0C11.7955 0 9.96698 0.565954 8.35661 1.61045C8.26947 1.65387 8.22605 1.69759 8.13891 1.74101C6.61528 2.74207 5.17918 4.17849 4.00385 5.91983L3.91701 6.00667C3.91701 6.00667 3.91701 6.05009 3.8736 6.05009L3.83018 6.09351V6.13692V6.18034C2.6114 8.00851 1.65379 10.1849 1.00103 12.6224C0.95761 12.6658 0.95761 12.7529 0.95761 12.8401C0.348237 15.147 0 17.6283 0 20.2397C0 22.982 0.391679 25.5501 1.04474 27.9442C1.04474 27.9876 1.08816 28.0748 1.08816 28.1182C1.74095 30.4252 2.69861 32.5144 3.87394 34.2991C3.87394 34.3426 3.91736 34.3863 3.96108 34.4297V34.4731C4.0045 34.5165 4.0045 34.5603 4.04822 34.5603C5.267 36.3884 6.74686 37.8683 8.401 38.8696C8.44441 38.913 8.53156 38.9567 8.6187 39.0001C10.1857 39.9578 11.9267 40.48 13.7548 40.48C15.6264 40.48 17.4548 39.9141 19.1087 38.8696C19.1958 38.8261 19.2392 38.7824 19.3264 38.739C20.85 37.7379 22.2861 36.3015 23.4614 34.5602C23.5486 34.473 23.592 34.3862 23.6354 34.2991C24.6796 32.4715 25.6372 30.2517 26.3337 27.8576L26.3337 27.8576ZM1.95815 13.8852L4.39562 15.3216L1.26162 18.5862C1.34846 16.9324 1.60989 15.3653 1.95814 13.8852H1.95815ZM25.289 26.5953L22.8516 25.1589L25.9855 21.8943C25.8987 23.5481 25.6373 25.1152 25.289 26.5953H25.289ZM23.2869 32.1231L22.6341 26.5516L24.9845 27.9008C24.5056 29.4245 23.9397 30.8172 23.2869 32.123L23.2869 32.1231ZM16.4967 30.9915L14.6248 28.9457L16.8446 27.5526L16.4967 30.9915ZM10.7508 9.48876L12.6224 11.5346L10.4025 12.9276L10.7508 9.48876ZM21.981 24.2011L20.0657 20.24L21.981 16.2789L25.7678 20.24L21.981 24.2011ZM19.5001 18.4119L18.5858 15.0602L20.8494 15.5825L19.5001 18.4119ZM17.106 25.8987L13.6237 28.0751L10.1414 25.8987L8.57437 20.24L10.1414 14.5813L13.6237 12.405L17.106 14.5813L18.673 20.24L17.106 25.8987ZM16.54 9.48876L16.8883 12.9273L14.6247 11.5346L16.54 9.48876ZM13.6236 10.7075L11.0118 7.83462L13.6236 2.2197L16.2355 7.87838L13.6236 10.7075ZM7.74725 18.412L6.39796 15.6262L8.66148 15.104L7.74725 18.412ZM5.26632 16.2791L7.18162 20.2402L5.26632 24.2013L1.47948 20.2402L5.26632 16.2791ZM7.74725 22.0683L8.66148 25.42L6.39796 24.8978L7.74725 22.0683ZM10.7073 30.9915L10.359 27.5529L12.5789 28.946L10.7073 30.9915ZM13.6236 29.7727L16.2355 32.6456L13.6236 38.2605L11.0118 32.6018L13.6236 29.7727ZM19.5001 22.0682L20.8493 24.854L18.5858 25.3762L19.5001 22.0682ZM25.9855 18.5425L22.8081 15.2345L25.2456 13.624C25.6372 15.1907 25.8987 16.8449 25.9855 18.5425L25.9855 18.5425ZM22.6341 13.8415L23.2869 8.35711C23.9397 9.57589 24.4622 10.8817 24.8974 12.3182L22.6341 13.8415ZM21.2411 14.3638L18.2376 13.6673L17.7154 8.48738L22.0681 7.31205L21.2411 14.3638ZM14.6685 1.3925C15.7567 1.52306 16.8012 1.87132 17.7588 2.39356L16.8445 6.00636L14.6685 1.3925ZM10.3591 6.13695L9.27095 2.52414C10.3157 1.91477 11.4473 1.52308 12.579 1.3925L10.3591 6.13695ZM8.9661 13.6675L6.00637 14.364L5.13589 7.26889L9.53212 8.44422L8.9661 13.6675ZM3.96056 8.3571L4.61336 13.9286L2.30638 12.5794C2.74179 11.0557 3.30776 9.66301 3.96052 8.35717L3.96056 8.3571ZM1.26192 21.9378L4.43937 25.2458L2.00189 26.8562C1.61021 25.2896 1.3488 23.6353 1.26196 21.9378L1.26192 21.9378ZM4.61332 26.6388L3.96053 32.1232C3.30774 30.9044 2.78521 29.5986 2.35008 28.1621L4.61332 26.6388ZM6.00637 26.1165L9.00986 26.813L9.5321 31.9929L5.17933 33.1682L6.00637 26.1165ZM12.579 39.0878C11.4908 38.9572 10.446 38.609 9.48836 38.0867L10.4026 34.4739L12.579 39.0878ZM16.8883 34.3433L17.9765 37.9561C16.9318 38.5221 15.8436 38.9138 14.7119 39.0878L16.8883 34.3433ZM18.2814 26.8128L21.2411 26.1163L22.1116 33.2114L17.7153 32.0361L18.2814 26.8128ZM21.807 6.00653L17.9331 7.05128L18.9341 3.13393C19.9789 3.87387 20.9362 4.87489 21.807 6.00653V6.00653ZM8.18283 3.26452L9.31448 7.05136L5.48396 6.00661C6.26761 4.91842 7.18185 3.96081 8.18291 3.2646L8.18283 3.26452ZM5.44051 34.4739L9.31448 33.4292L8.31342 37.3465C7.26867 36.6066 6.3113 35.6056 5.44051 34.4739V34.4739ZM19.0647 37.2159L17.9765 33.4726L21.807 34.5173C20.9799 35.562 20.0658 36.5197 19.0647 37.2159Z" fill="#272B65"/>
</svg>
