<svg width="38" height="38" viewBox="0 0 38 38" fill="none" xmlns="http://www.w3.org/2000/svg">
<circle opacity="0.12" cx="19" cy="19" r="19" fill="#272B65"/>
<path d="M18.9981 23.9042C19.8233 23.9042 20.4922 23.2353 20.4922 22.4101C20.4922 21.5849 19.8233 20.9159 18.9981 20.9159C18.1729 20.9159 17.5039 21.5849 17.5039 22.4101C17.5039 23.2353 18.1729 23.9042 18.9981 23.9042Z" fill="#272B65"/>
<path d="M24.7554 16.7359V15.59C24.7554 13.115 24.1595 9.83337 18.9987 9.83337C13.8379 9.83337 13.242 13.115 13.242 15.59V16.7359C10.6754 17.0567 9.83203 18.3584 9.83203 21.5575V23.2625C9.83203 27.0209 10.9779 28.1667 14.7362 28.1667H23.2612C27.0195 28.1667 28.1654 27.0209 28.1654 23.2625V21.5575C28.1654 18.3584 27.322 17.0567 24.7554 16.7359ZM18.9987 25.1784C17.4679 25.1784 16.2304 23.9317 16.2304 22.41C16.2304 20.8792 17.477 19.6417 18.9987 19.6417C20.5204 19.6417 21.767 20.8884 21.767 22.41C21.767 23.9409 20.5295 25.1784 18.9987 25.1784ZM14.7362 16.6534C14.6629 16.6534 14.5987 16.6534 14.5254 16.6534V15.59C14.5254 12.9042 15.2862 11.1167 18.9987 11.1167C22.7112 11.1167 23.472 12.9042 23.472 15.59V16.6625C23.3987 16.6625 23.3345 16.6625 23.2612 16.6625H14.7362V16.6534Z" fill="#272B65"/>
</svg>
