<svg width="28" height="41" viewBox="0 0 28 41" fill="none" xmlns="http://www.w3.org/2000/svg">
<path d="M25.7697 7.70445C25.8131 7.74787 25.8131 7.79159 25.8568 7.83501C26.5967 9.22802 27.1189 10.8818 27.3804 12.7971V12.8405C27.4676 13.5804 27.511 14.3203 27.511 15.104C27.511 19.7177 25.2912 25.3763 20.8514 31.9053C17.6303 36.7368 14.322 40.2625 14.2787 40.306C14.2352 40.3494 14.1915 40.3931 14.1481 40.3931H14.1047C14.0613 40.4366 14.0175 40.4366 13.9741 40.4366H13.9307C13.8873 40.4366 13.8436 40.48 13.7567 40.48C13.5828 40.48 13.4085 40.3928 13.2779 40.2623C13.2345 40.2189 9.88283 36.6929 6.57495 31.8616C2.13513 25.3326 -0.0846627 19.6741 0.00246877 15.0167C0.00246877 14.3202 0.0458862 13.6675 0.133026 13.0143C0.350723 11.2734 0.785804 9.66268 1.43891 8.22621V8.18279C2.266 6.3113 3.48467 4.74433 5.05164 3.43844C8.01131 0.913888 11.5807 -2.37182e-05 13.7135 -2.37182e-05C14.7582 -2.37182e-05 16.3252 0.304814 18.0662 1.00102C18.1533 1.00102 18.1967 1.00102 18.2839 1.04444C18.3273 1.08785 18.371 1.08785 18.4144 1.13157C19.6332 1.6538 20.8956 2.35033 22.0706 3.30792C22.2012 3.35133 22.2883 3.43847 22.3317 3.52561C23.7238 4.65723 24.8554 6.00649 25.7696 7.70403L25.7697 7.70445ZM18.4136 2.52468L18.0653 3.30832H19.85C19.3712 3.00348 18.8924 2.78579 18.4136 2.52468H18.4136ZM7.57539 3.30832H9.57778L9.22952 2.43786C8.66358 2.69897 8.14104 2.96009 7.57542 3.30832H7.57539ZM1.82968 18.8909H2.48246L1.43774 16.2792C1.48146 17.1499 1.61202 18.0204 1.82972 18.8909H1.82968ZM24.8119 8.70565H23.4626L25.6389 10.9254C25.4213 10.1421 25.1601 9.40215 24.8119 8.70565ZM13.7996 30.382L11.5361 32.5584C12.4503 34.9524 13.277 36.9545 13.7996 38.2169C14.3218 36.9548 15.1926 34.909 16.063 32.515L13.7996 30.382ZM16.5853 31.2088C17.1946 29.5547 17.804 27.8137 18.3262 26.0728L14.7568 29.4679L16.5853 31.2088ZM12.8853 29.4679L9.27262 26.0294C9.83856 27.7703 10.4479 29.555 11.0135 31.2092L12.8853 29.4679ZM13.7996 28.5537L19.0227 23.5916C19.7192 21.0236 20.198 18.6295 20.198 16.8015C20.198 12.7099 18.5005 10.3159 16.7596 9.05371C16.7161 9.01029 16.629 8.96656 16.5856 8.92315C15.4974 8.18323 14.4092 7.87843 13.7999 7.87843C13.1471 7.87843 12.1023 8.18326 11.0141 8.92315C10.9707 8.96656 10.8836 9.01029 10.8402 9.05371C9.09924 10.3158 7.4017 12.7099 7.4017 16.8015C7.4017 18.5862 7.88051 20.9802 8.53332 23.5045L13.7996 28.5537ZM24.0719 18.1072L25.9872 13.058L22.2439 9.31471L21.1557 13.3626L24.0719 18.1072ZM21.5039 16.4097V16.8013C21.5039 18.2377 21.2428 19.9787 20.8074 21.894L23.3754 19.4566L21.5039 16.4097ZM6.09539 16.4097L4.26727 19.4565L6.74845 21.8505C6.31306 19.979 6.05195 18.2378 6.05195 16.8451C6.09537 16.6708 6.09537 16.5403 6.09537 16.4097L6.09539 16.4097ZM8.79429 9.14068H6.5745L7.271 11.3605C7.70609 10.4466 8.22828 9.75006 8.79428 9.14068H8.79429ZM6.22597 7.8348H9.88246V4.61373H6.22629L6.22597 7.8348ZM11.188 7.26885C11.6234 7.05116 12.0151 6.87719 12.4502 6.74663L11.188 5.52788V7.26885ZM13.7998 6.31127L16.1501 3.96097L13.7998 1.61068L11.4495 3.96097L13.7998 6.31127ZM15.1491 6.79007C15.5407 6.92063 15.9761 7.09491 16.4112 7.3123V5.57138L15.1491 6.79007ZM17.7171 7.8348H21.2427L21.243 4.61373H17.7171L17.7171 7.8348ZM18.8052 9.14068C19.3712 9.75004 19.8934 10.4899 20.3288 11.4042L20.9382 9.14068H18.8052ZM25.1603 18.8907H25.6825C25.9002 18.0202 26.0308 17.1498 26.1179 16.3227L25.1603 18.8907ZM24.8992 20.1966L24.9426 21.5025C25.1166 21.0671 25.2474 20.632 25.378 20.1966H24.8992ZM23.5933 21.067L20.1982 24.2881C19.7194 26.0728 19.11 27.9443 18.5007 29.729L23.6367 24.3752L23.5933 21.067ZM16.0632 36.2144C16.5855 35.5616 17.1514 34.8651 17.7173 34.0815L17.108 33.5155C16.716 34.5169 16.3678 35.4308 16.0633 36.2144L16.0632 36.2144ZM10.4918 33.5155L9.88245 34.1248C10.4918 34.9519 11.1012 35.6918 11.6234 36.3446C11.2751 35.4745 10.8834 34.5603 10.4917 33.5155L10.4918 33.5155ZM7.35788 24.2007L4.13681 21.1539L4.26737 25.115L9.1423 29.9031C8.53294 28.0313 7.88017 26.0726 7.35793 24.2008L7.35788 24.2007ZM2.83093 20.1963H2.17815C2.39584 20.8928 2.61354 21.5893 2.87465 22.2855L2.83093 20.1963ZM1.87334 11.2297L3.96255 9.14052H2.56953C2.30872 9.7933 2.04761 10.4898 1.87334 11.2297ZM1.65594 13.3189L3.5712 18.1071L6.53087 13.1884L5.39925 9.61909L1.65594 13.3189ZM10.7966 2.78545L12.0587 1.52332C11.5365 1.61046 11.014 1.78444 10.4917 1.95872L10.7966 2.78545ZM16.8468 2.82917L17.1951 2.04584C16.6291 1.82815 16.1069 1.69759 15.5847 1.56703L16.8468 2.82917ZM22.5488 7.39926H24.1157C23.6369 6.65934 23.1147 6.05 22.5488 5.44062V7.39926ZM21.4606 28.5098L17.7606 32.3402L18.4571 33.0367C19.4585 31.6437 20.5029 30.1202 21.4606 28.5098L21.4606 28.5098ZM9.09896 33.0802L9.83887 32.3837L6.22615 28.8143C7.14036 30.3379 8.14141 31.7743 9.099 33.0802L9.09896 33.0802ZM3.17931 7.8346H4.87685V5.48431C4.22407 6.1805 3.6581 6.96415 3.17931 7.8346Z" fill="#272B65"/>
</svg>
