<svg width="44" height="44" viewBox="0 0 44 44" fill="none" xmlns="http://www.w3.org/2000/svg">
<path fill-rule="evenodd" clip-rule="evenodd" d="M22 2L42 17.291L34.3705 42H9.62947L2 17.291L22 2ZM3.34737 18.276L10.1895 40.4398L12.1632 37.546L6.54947 19.3674L3.34737 18.276ZM7.71474 19.7635L12.88 36.4925L15.1516 33.1614L11.4032 21.0203L7.71474 19.7635ZM12.3821 20.8149L16.0663 32.7453H27.9347L31.6189 20.8149L22 13.4617L12.3821 20.8149ZM22.4979 12.5873L32.2874 20.0722L36.0095 18.7996L22.4979 8.47037V12.5884V12.5873ZM21.5021 8.47037L7.98632 18.8027L11.7126 20.0711L21.5021 12.5873V8.46826V8.47037ZM21.5021 7.21675L6.85158 18.4161L3.61053 17.3131L21.5021 3.63497V7.21675V7.21675ZM22.4979 7.21675L37.1432 18.4119L40.3789 17.3058L22.4979 3.63497V7.21675V7.21675ZM40.6568 18.2634L37.4526 19.359L31.8495 37.5049L33.8305 40.3734L40.6568 18.2634V18.2634ZM33.0537 41.0024L31.0411 38.0874H13L11.0105 41.0034H33.0526L33.0537 41.0024ZM13.6779 37.0909H30.3526L28.04 33.7408H15.9611L13.6779 37.0909ZM28.8484 33.1593L31.1295 36.4619L36.2874 19.7582L32.5968 21.0192L28.8495 33.1593H28.8484Z" fill="#272B65"/>
</svg>
