<svg width="26" height="26" viewBox="0 0 26 26" fill="none" xmlns="http://www.w3.org/2000/svg">
<path d="M11.9721 16.1959L9.96797 18.2001C9.54547 18.6226 8.8738 18.6226 8.44047 18.2109C8.3213 18.0917 8.20214 17.9834 8.08297 17.8642C6.96714 16.7376 5.95964 15.5567 5.06047 14.3217C4.17214 13.0867 3.45714 11.8517 2.93714 10.6276C2.42797 9.39258 2.16797 8.21175 2.16797 7.08508C2.16797 6.34841 2.29797 5.64425 2.55797 4.99425C2.81797 4.33341 3.22964 3.72675 3.8038 3.18508C4.49714 2.50258 5.25547 2.16675 6.05714 2.16675C6.36047 2.16675 6.6638 2.23175 6.93464 2.36175C7.2163 2.49175 7.46547 2.68675 7.66047 2.96841L10.1738 6.51092C10.3688 6.78175 10.5096 7.03091 10.6071 7.26925C10.7046 7.49675 10.7588 7.72425 10.7588 7.93008C10.7588 8.19008 10.683 8.45008 10.5313 8.69925C10.3905 8.94841 10.1846 9.20841 9.92463 9.46841L9.1013 10.3242C8.98213 10.4434 8.92797 10.5842 8.92797 10.7576C8.92797 10.8442 8.9388 10.9201 8.96047 11.0067C8.99297 11.0934 9.02547 11.1584 9.04714 11.2234C9.24214 11.5809 9.57797 12.0467 10.0546 12.6101C10.5421 13.1734 11.0621 13.7476 11.6255 14.3217C11.7338 14.4301 11.853 14.5384 11.9613 14.6467C12.3946 15.0692 12.4055 15.7626 11.9721 16.1959Z" fill="#38A7DE"/>
<path d="M23.7993 19.8575C23.7993 20.1608 23.7451 20.475 23.6368 20.7783C23.6043 20.865 23.5718 20.9516 23.5284 21.0383C23.3443 21.4283 23.1059 21.7966 22.7918 22.1433C22.2609 22.7283 21.6759 23.1508 21.0151 23.4216C21.0043 23.4216 20.9934 23.4325 20.9826 23.4325C20.3434 23.6925 19.6501 23.8333 18.9026 23.8333C17.7976 23.8333 16.6168 23.5733 15.3709 23.0425C14.1251 22.5116 12.8793 21.7966 11.6443 20.8975C11.2218 20.5833 10.7993 20.2691 10.3984 19.9333L13.9409 16.3908C14.2443 16.6183 14.5151 16.7916 14.7426 16.9108C14.7968 16.9325 14.8618 16.965 14.9376 16.9975C15.0243 17.03 15.1109 17.0408 15.2084 17.0408C15.3926 17.0408 15.5334 16.9758 15.6526 16.8566L16.4759 16.0441C16.7468 15.7733 17.0068 15.5675 17.2559 15.4375C17.5051 15.2858 17.7543 15.21 18.0251 15.21C18.2309 15.21 18.4476 15.2533 18.6859 15.3508C18.9243 15.4483 19.1734 15.5891 19.4443 15.7733L23.0301 18.3191C23.3118 18.5141 23.5068 18.7416 23.6259 19.0125C23.7343 19.2833 23.7993 19.5541 23.7993 19.8575Z" fill="#38A7DE"/>
</svg>
