<svg width="44" height="44" viewBox="0 0 44 44" fill="none" xmlns="http://www.w3.org/2000/svg">
<path d="M1.76172 1.75977V42.2398H42.2417V1.75977H1.76172ZM35.7562 13.2073L31.447 12.5108L30.7505 8.2016L40.2393 3.76209L35.7562 13.2073ZM8.24723 30.7922L12.5565 31.4887L13.253 35.7979L3.7641 40.2374L8.24723 30.7922ZM35.1904 29.5734L31.7081 30.1394L32.6657 24.176L35.1904 29.5734ZM31.6648 22.0868L30.3155 30.3134L22.0454 31.6627L22.0017 31.6192L21.9145 31.6627L13.688 30.3134L12.3387 22.0433L12.3821 21.9562L12.3387 21.869L13.688 13.5989L21.9145 12.2497L22.0017 12.2931L22.0888 12.2497L30.3589 13.5989L31.7082 21.8255L31.6213 21.9995L31.6648 22.0868ZM8.81315 14.4259L12.2954 13.86L11.3378 19.8234L8.81315 14.4259ZM24.1781 11.3357L29.5319 8.81112L30.0978 12.2933L24.1781 11.3357ZM22.0018 10.944L16.8658 8.50627H27.1817L22.0018 10.944ZM19.8255 11.3357L13.9058 12.2933L14.4717 8.81104L19.8255 11.3357ZM12.5131 12.511L8.20385 13.2075L3.76403 3.76215L13.2094 8.20197L12.5131 12.511ZM10.9461 21.9998L8.50839 27.1359V16.8635L10.9461 21.9998ZM11.3378 24.1762L12.2954 30.0958L8.81316 29.5299L11.3378 24.1762ZM13.8624 31.7063L19.8255 32.6639L14.4717 35.1884L13.8624 31.7063ZM22.0019 33.0555L27.1379 35.4933H16.8656L22.0019 33.0555ZM24.1782 32.6638L30.0979 31.7063L29.5319 35.1885L24.1782 32.6638ZM31.4906 31.4885L35.7998 30.792L40.2396 40.2374L30.7943 35.7544L31.4906 31.4885ZM33.0576 21.9997L35.4953 16.8637V27.1795L33.0576 21.9997ZM32.6659 19.8233L31.7083 13.9037L35.1905 14.4696L32.6659 19.8233ZM29.9239 7.20054H14.0801L5.33123 3.06525H38.6728L29.9239 7.20054ZM7.20289 14.0776V29.9213L3.0676 38.6702V5.32865L7.20289 14.0776ZM14.0799 36.7986H29.9237L38.6726 40.9336L5.331 40.9339L14.0799 36.7986ZM36.8009 29.9216V14.0778L40.9359 5.32888V38.6705L36.8009 29.9216Z" fill="#272B65"/>
</svg>
