<svg width="44" height="44" viewBox="0 0 44 44" fill="none" xmlns="http://www.w3.org/2000/svg">
<path fill-rule="evenodd" clip-rule="evenodd" d="M8.94869 8.30244L12.3159 9.74554L16.266 6.3602L14.3317 3.45857L8.94869 8.30244ZM12.436 11.2055C12.3464 11.2055 12.2551 11.188 12.1701 11.151L7.44759 9.12689C7.23631 9.03647 7.08531 8.84442 7.04828 8.61707C7.01039 8.39029 7.09077 8.15948 7.26215 8.00562L14.0085 1.9339C14.1543 1.803 14.3458 1.74013 14.5442 1.76596C14.7385 1.79007 14.9128 1.89801 15.0213 2.06135L17.72 6.10926C17.9089 6.3926 17.8569 6.77325 17.5971 6.99568L12.8746 11.043C12.7503 11.1504 12.5938 11.2055 12.436 11.2055V11.2055Z" fill="#272B65"/>
<path fill-rule="evenodd" clip-rule="evenodd" d="M28.1728 6.35956L32.1222 9.74518L35.4901 8.30208L30.107 3.45873L28.1728 6.35956ZM32.0028 11.2058C31.8444 11.2058 31.6885 11.1498 31.5636 11.043L26.8411 6.9951C26.5821 6.7732 26.5293 6.39284 26.7191 6.10868L29.4175 2.06077C29.5263 1.89743 29.7003 1.79035 29.8946 1.76538C30.0924 1.73983 30.2844 1.80241 30.4303 1.93332L37.1769 8.00504C37.3483 8.15891 37.4284 8.38971 37.3908 8.61706C37.3529 8.84442 37.2025 9.03617 36.9906 9.12717L32.2681 11.151C32.1831 11.1874 32.0927 11.2058 32.0028 11.2058V11.2058Z" fill="#272B65"/>
<path fill-rule="evenodd" clip-rule="evenodd" d="M17.5199 5.80818H26.9176L28.7166 3.10975H15.7201L17.5199 5.80818ZM27.2784 7.15766H17.1583C16.9332 7.15766 16.722 7.04484 16.5971 6.85739L13.8984 2.80948C13.7609 2.60222 13.7474 2.3364 13.8648 2.11651C13.9822 1.89747 14.211 1.76025 14.4599 1.76025H29.977C30.2259 1.76025 30.4547 1.89747 30.5718 2.11651C30.6892 2.3364 30.6757 2.60222 30.5382 2.80948L27.8455 6.8485C27.8274 6.87635 27.8079 6.90247 27.7864 6.92687C27.766 6.95041 27.7439 6.97194 27.7201 6.99232V6.99289C27.6021 7.0948 27.4491 7.15681 27.2809 7.15767L27.2784 7.15766Z" fill="#272B65"/>
<path fill-rule="evenodd" clip-rule="evenodd" d="M8.94868 35.6978L14.3317 40.5417L16.266 37.6401L12.3159 34.2548L8.94868 35.6978ZM14.46 42.24C14.2947 42.24 14.1334 42.1786 14.0085 42.0666L7.26215 35.9946C7.09077 35.8407 7.01039 35.6102 7.04828 35.3834C7.08531 35.1561 7.23631 34.9637 7.44759 34.8733L12.1701 32.8495C12.4064 32.7482 12.6797 32.7901 12.8746 32.9574L17.5971 37.0045C17.8569 37.2272 17.9089 37.6079 17.72 37.8912L15.0213 41.9391C14.9127 42.1022 14.7385 42.2101 14.5442 42.2345C14.516 42.2379 14.4876 42.2399 14.46 42.2399V42.24Z" fill="#272B65"/>
<path fill-rule="evenodd" clip-rule="evenodd" d="M8.38827 9.52988V34.4698L11.7616 33.0238V10.9757L8.38827 9.52988ZM7.71367 36.1674C7.58392 36.1674 7.45387 36.1303 7.34192 36.056C7.15303 35.9311 7.03906 35.7193 7.03906 35.4928V8.50694C7.03906 8.28016 7.15303 8.06859 7.34192 7.94371C7.53081 7.81827 7.77166 7.79731 7.97949 7.88688L12.702 9.91098C12.9503 10.0175 13.1108 10.2612 13.1108 10.531V33.4691C13.1108 33.7389 12.9503 33.9832 12.702 34.0892L7.97949 36.113C7.89452 36.1503 7.8041 36.1678 7.71367 36.1678V36.1674Z" fill="#272B65"/>
<path fill-rule="evenodd" clip-rule="evenodd" d="M28.1728 37.6403L30.107 40.5414L35.4901 35.698L32.1222 34.2549L28.1728 37.6403ZM29.979 42.2393C29.9512 42.2393 29.923 42.2382 29.8946 42.2348C29.7003 42.2098 29.5263 42.1024 29.4175 41.9391L26.7191 37.8915C26.5293 37.6073 26.5821 37.2269 26.8411 37.0047L31.5636 32.9568C31.7594 32.7903 32.0338 32.7484 32.2681 32.8489L36.9906 34.873C37.2025 34.964 37.3529 35.1558 37.3908 35.3831C37.4284 35.6105 37.3483 35.841 37.1769 35.9949L30.4303 42.0669C30.3054 42.1788 30.1444 42.2394 29.979 42.2394V42.2393Z" fill="#272B65"/>
<path fill-rule="evenodd" clip-rule="evenodd" d="M27.278 40.8902H28.7165L26.9172 38.1915H17.5194L15.7201 40.8902H27.278ZM29.9767 42.2394H14.4596C14.2107 42.2394 13.9819 42.1025 13.8648 41.8832C13.7474 41.6633 13.7609 41.3974 13.8984 41.1905L16.5971 37.1426C16.7225 36.9548 16.933 36.8423 17.1583 36.8423H27.2806C27.4486 36.8429 27.6019 36.9052 27.7199 37.0068V37.0076C27.7434 37.0277 27.7658 37.0493 27.7859 37.0731C27.8074 37.0972 27.8269 37.1236 27.8453 37.1512L30.5377 41.1905C30.6755 41.3975 30.689 41.6633 30.5716 41.8832C30.4542 42.1025 30.2254 42.2394 29.9765 42.2394L29.9767 42.2394Z" fill="#272B65"/>
<path fill-rule="evenodd" clip-rule="evenodd" d="M32.6776 33.0248L36.0509 34.4704V9.53055L32.6776 10.9756V33.0248ZM36.7256 36.1679C36.6351 36.1679 36.5447 36.1498 36.4597 36.1133L31.7372 34.0892C31.4889 33.9833 31.3281 33.7393 31.3281 33.4695V10.5314C31.3281 10.2616 31.4889 10.0173 31.7372 9.91135L36.4597 7.88754C36.6676 7.79855 36.9076 7.81922 37.0973 7.94409C37.2862 8.06896 37.4002 8.28082 37.4002 8.5076V35.4934C37.4002 35.7202 37.2862 35.9321 37.0973 36.0569C36.9853 36.131 36.855 36.168 36.7256 36.168V36.1679Z" fill="#272B65"/>
<path fill-rule="evenodd" clip-rule="evenodd" d="M13.1109 14.469V29.5298L15.7683 21.9994L13.1109 14.469ZM12.4369 34.1427C12.3984 34.1427 12.3608 34.1401 12.3224 34.1332C11.9986 34.0772 11.7617 33.7965 11.7617 33.4681V10.53C11.7617 10.2016 11.9986 9.92086 12.3224 9.86489C12.6433 9.81235 12.9625 9.99578 13.0725 10.3055L17.1204 21.7742C17.1718 21.9195 17.1718 22.0785 17.1204 22.2237L13.0725 33.6924C12.976 33.9657 12.7182 34.1425 12.4369 34.1425V34.1427Z" fill="#272B65"/>
<path fill-rule="evenodd" clip-rule="evenodd" d="M28.6673 21.9995L31.325 29.5299V14.4692L28.6673 21.9995ZM31.9987 34.1436C31.7174 34.1436 31.4605 33.967 31.3632 33.6937L27.3152 22.2243C27.2647 22.0794 27.2647 21.9201 27.3152 21.7751L31.3632 10.3057C31.4734 9.99595 31.7943 9.81193 32.1135 9.86504C32.4379 9.92102 32.6742 10.2018 32.6742 10.5305V33.4685C32.6742 33.7972 32.4379 34.0777 32.1135 34.1336C32.0757 34.1405 32.0372 34.1431 31.9987 34.1431L31.9987 34.1436Z" fill="#272B65"/>
<path fill-rule="evenodd" clip-rule="evenodd" d="M27.8221 7.83668L27.3975 12.079L30.7913 10.3821L27.8221 7.83668ZM26.6044 13.9044C26.4701 13.9044 26.3366 13.8639 26.2217 13.7849C26.0194 13.6454 25.9088 13.4072 25.933 13.1623L26.6076 6.41565C26.6325 6.16562 26.7953 5.95032 27.0278 5.85644C27.2601 5.76401 27.5273 5.80735 27.7182 5.97041L32.4408 10.0183C32.6127 10.1662 32.6991 10.3889 32.6707 10.6134C32.6431 10.8373 32.5053 11.0331 32.3038 11.1344L26.9064 13.8329C26.8108 13.8808 26.7075 13.9043 26.6044 13.9043L26.6044 13.9044Z" fill="#272B65"/>
<path fill-rule="evenodd" clip-rule="evenodd" d="M13.6464 10.3821L17.0398 12.079L16.6156 7.83667L13.6464 10.3821ZM17.8333 13.9044C17.7308 13.9044 17.6269 13.8809 17.5319 13.8329L12.1345 11.1342C11.9321 11.0332 11.7946 10.8374 11.7668 10.6135C11.7392 10.3887 11.8256 10.1662 11.9976 10.0184L16.7201 5.97048C16.9104 5.80713 17.1777 5.76408 17.4096 5.85651C17.643 5.95038 17.8049 6.16539 17.8299 6.41572L18.5048 13.1624C18.5289 13.4072 18.4184 13.6455 18.216 13.785C18.102 13.8639 17.9677 13.9044 17.8333 13.9044L17.8333 13.9044Z" fill="#272B65"/>
<path fill-rule="evenodd" clip-rule="evenodd" d="M18.5386 7.1576L21.9165 11.5004L25.7769 7.1576H18.5386ZM21.8814 13.2293H21.859C21.6587 13.2227 21.4718 13.1274 21.3492 12.9689L16.6264 6.89723C16.4688 6.69399 16.4395 6.41812 16.5529 6.18674C16.6663 5.95537 16.9011 5.80811 17.1589 5.80811H27.2783C27.5441 5.80811 27.785 5.96398 27.8938 6.20627C28.0023 6.44913 27.9592 6.73246 27.7824 6.9314L22.385 13.0034C22.2575 13.1469 22.0735 13.2293 21.8812 13.2293L21.8814 13.2293Z" fill="#272B65"/>
<path fill-rule="evenodd" clip-rule="evenodd" d="M18.0631 8.74458L18.4334 12.4457L20.6545 12.0751L18.0631 8.74458ZM17.8337 13.9043C17.6867 13.9043 17.5429 13.8564 17.4241 13.7651C17.2757 13.652 17.1807 13.4817 17.1626 13.2969L16.4877 6.55053C16.4581 6.25083 16.6295 5.96836 16.9088 5.8564C17.1847 5.74502 17.507 5.83057 17.6913 6.06883L22.4138 12.1405C22.5603 12.3283 22.5967 12.5792 22.5103 12.8005C22.4239 13.0218 22.227 13.1817 21.9921 13.2202L17.9442 13.8948C17.9078 13.9014 17.8707 13.9043 17.8337 13.9043L17.8337 13.9043Z" fill="#272B65"/>
<path fill-rule="evenodd" clip-rule="evenodd" d="M23.2207 12.0644L26.0029 12.4617L26.4008 8.48578L23.2207 12.0644ZM26.6047 13.9042C26.5731 13.9042 26.5406 13.9013 26.5091 13.8967L21.7862 13.2221C21.5408 13.1877 21.3335 13.0203 21.248 12.786C21.163 12.5535 21.2121 12.2917 21.3783 12.106L26.7754 6.03427C26.9689 5.81495 27.2835 5.74692 27.5499 5.8649C27.8177 5.98232 27.9796 6.25876 27.9506 6.54955L27.276 13.2962C27.2571 13.4791 27.1652 13.647 27.0208 13.7604C26.9008 13.8534 26.7544 13.9042 26.6046 13.9042L26.6047 13.9042Z" fill="#272B65"/>
<path fill-rule="evenodd" clip-rule="evenodd" d="M13.6286 11.8804L16.2266 19.241L17.0921 13.6122L13.6286 11.8804ZM16.4838 22.6744C16.201 22.6744 15.9447 22.4956 15.8482 22.2243L11.8003 10.7549C11.7085 10.4954 11.784 10.2066 11.9898 10.0243C12.1971 9.84233 12.493 9.80386 12.7387 9.92644L18.1358 12.6252C18.3976 12.7561 18.5455 13.0414 18.501 13.3308L17.1515 22.1009C17.1044 22.4072 16.8552 22.6421 16.5469 22.6705C16.5263 22.6725 16.5053 22.6739 16.4838 22.6739L16.4838 22.6744Z" fill="#272B65"/>
<path fill-rule="evenodd" clip-rule="evenodd" d="M27.3465 13.6119L28.2119 19.2404L30.8099 11.8798L27.3465 13.6119ZM27.9542 22.6738C27.9332 22.6738 27.9123 22.6727 27.8913 22.6707C27.583 22.6423 27.3335 22.4074 27.287 22.1011L25.9376 13.331C25.8931 13.0416 26.0403 12.7563 26.3027 12.6254L31.6998 9.92664C31.9441 9.80378 32.2409 9.84225 32.4479 10.0245C32.6546 10.2065 32.7292 10.4953 32.6382 10.7551L28.5903 22.2245C28.4939 22.4958 28.2375 22.6743 27.9542 22.6743L27.9542 22.6738Z" fill="#272B65"/>
<path fill-rule="evenodd" clip-rule="evenodd" d="M27.3979 31.9211L27.8221 36.1633L30.7912 33.6179L27.3979 31.9211ZM27.279 38.1914C27.194 38.1914 27.1091 38.1756 27.0281 38.1426C26.7947 38.049 26.6328 37.8337 26.6079 37.584L25.933 30.8376C25.9088 30.5928 26.0194 30.3539 26.2217 30.215C26.4236 30.0752 26.6859 30.0562 26.9058 30.1662L32.3032 32.8649C32.5056 32.966 32.6431 33.1617 32.6709 33.3865C32.6985 33.6104 32.6121 33.8338 32.4407 33.9807L27.7182 38.0287C27.5942 38.1352 27.4374 38.1914 27.279 38.1914H27.279Z" fill="#272B65"/>
<path fill-rule="evenodd" clip-rule="evenodd" d="M13.6465 33.6176L16.6156 36.163L17.0399 31.9207L13.6465 33.6176ZM17.1587 38.1911C17.0009 38.1911 16.8435 38.1357 16.7201 38.0292L11.9976 33.9813C11.8256 33.8334 11.7392 33.6107 11.7668 33.3862C11.7946 33.162 11.9321 32.9665 12.1345 32.8651L17.5319 30.1667C17.7523 30.0559 18.0136 30.0754 18.216 30.2147C18.4183 30.3542 18.5289 30.5924 18.5047 30.8373L17.8299 37.5836C17.8049 37.834 17.643 38.0493 17.4096 38.1431C17.3286 38.1756 17.2437 38.1911 17.1587 38.1911L17.1587 38.1911Z" fill="#272B65"/>
<path fill-rule="evenodd" clip-rule="evenodd" d="M18.5383 36.8422H25.7766L21.9162 32.4994L18.5383 36.8422ZM27.2783 38.1913H17.1589C16.9011 38.1913 16.6663 38.0444 16.5529 37.813C16.4395 37.5816 16.4688 37.3057 16.6264 37.1025L21.3492 31.0308C21.4718 30.872 21.6587 30.777 21.859 30.7701C22.0763 30.7615 22.2532 30.8471 22.3852 30.9963L27.7826 37.068C27.9594 37.2673 28.0025 37.5506 27.894 37.7935C27.7852 38.0355 27.5444 38.1913 27.2785 38.1913H27.2783Z" fill="#272B65"/>
<path fill-rule="evenodd" clip-rule="evenodd" d="M18.4335 31.5544L18.0632 35.2556L20.6542 31.9239L18.4335 31.5544ZM17.1589 38.1917C17.0748 38.1917 16.9895 38.1753 16.9086 38.1437C16.6293 38.0318 16.4579 37.749 16.4877 37.4493L17.1623 30.703C17.1813 30.5172 17.2757 30.3473 17.4241 30.2339C17.5726 30.1214 17.7609 30.074 17.9443 30.105L21.9922 30.7799C22.227 30.8184 22.424 30.9783 22.5104 31.1993C22.5968 31.4206 22.5603 31.6718 22.4139 31.8593L17.6914 37.931C17.5611 38.0992 17.3627 38.1916 17.1589 38.1916L17.1589 38.1917Z" fill="#272B65"/>
<path fill-rule="evenodd" clip-rule="evenodd" d="M23.2206 31.9352L26.4007 35.5137L26.0028 31.5378L23.2206 31.9352ZM27.2792 38.1912C27.0903 38.1912 26.9054 38.1123 26.7754 37.9653L21.3783 31.8936C21.2121 31.7078 21.163 31.446 21.248 31.2135C21.3335 30.9793 21.5408 30.8119 21.7862 30.7775L26.5091 30.1028C26.6911 30.0773 26.8759 30.1258 27.0209 30.2392C27.1653 30.3526 27.2571 30.5205 27.2761 30.7034L27.9507 37.45C27.9797 37.7405 27.8178 38.0173 27.55 38.1347C27.463 38.1731 27.3705 38.1912 27.2793 38.1912L27.2792 38.1912Z" fill="#272B65"/>
<path fill-rule="evenodd" clip-rule="evenodd" d="M16.2262 24.7576L13.6282 32.1183L17.0916 30.3865L16.2262 24.7576ZM12.4367 34.1429C12.2762 34.1429 12.1163 34.0855 11.9903 33.9744C11.7836 33.7921 11.7089 33.5033 11.7999 33.2435L15.8479 21.7741C15.9518 21.4828 16.2417 21.2959 16.5474 21.3277C16.8557 21.3559 17.1046 21.5907 17.1511 21.8964L18.5006 30.6666C18.5457 30.9559 18.3978 31.2413 18.1354 31.373L12.7384 34.0715C12.6425 34.1188 12.5394 34.1424 12.4367 34.1424V34.1429Z" fill="#272B65"/>
<path fill-rule="evenodd" clip-rule="evenodd" d="M27.3464 30.3864L30.8099 32.1182L28.2119 24.7576L27.3464 30.3864ZM32.0015 34.1429C31.8987 34.1429 31.7957 34.1199 31.6998 34.072L26.3027 31.3733C26.0403 31.2424 25.8931 30.957 25.9376 30.6676L27.287 21.8975C27.3335 21.5912 27.583 21.3564 27.8913 21.328C28.195 21.2975 28.4864 21.4833 28.5903 21.7746L32.6382 33.244C32.7292 33.5038 32.6546 33.7923 32.4479 33.9746C32.3219 34.086 32.1626 34.1434 32.0015 34.1434L32.0015 34.1429Z" fill="#272B65"/>
</svg>
