<svg width="44" height="44" viewBox="0 0 44 44" fill="none" xmlns="http://www.w3.org/2000/svg">
<path fill-rule="evenodd" clip-rule="evenodd" d="M22.2105 2L31.9695 4.91789L39.4926 12.1368L42.0021 22.2789L39.4937 31.7253L31.9716 39.7758L22.2074 42L12.3095 39.7768L4.65158 31.7295L2 22.2737L4.92632 12.1389L11.8947 5.05789L11.9337 4.90632L12.0232 4.92737L12.0316 4.91789L22.2105 2ZM11.3853 6.9979L6.27368 12.1926L9.51579 14.0589L9.54105 14.0453L11.3863 6.9979H11.3853ZM9.04316 14.94L5.70947 13.0221L3.54421 20.5211L9.04316 14.94ZM3.49474 23.9021L5.48 30.9842L8.85474 29.0421L3.49474 23.9021V23.9021ZM9.40632 29.8779L6.08632 31.7874L11.7989 37.7916L9.40632 29.8779V29.8779ZM14.1747 39.1726L21.7074 40.8632V37.1337L14.1737 39.1716L14.1747 39.1726ZM22.7063 37.1368V40.8621L30.1242 39.1726L22.7063 37.1368V37.1368ZM32.5084 37.7368L38.1579 31.6905L34.9674 29.8547L32.5084 37.7368ZM35.5411 29.0316L38.6926 30.8453L40.6126 23.6211L35.5411 28.8842V29.0316ZM35.5411 27.4442L40.5368 22.2589L35.5411 16.5537V27.4442ZM35.5411 15.0379L40.6147 20.8316L38.6853 13.0316L35.5411 14.8411V15.0379V15.0379ZM35.0326 13.9811L38.12 12.2042L32.5621 6.87053L34.9179 13.9147L35.0326 13.9811V13.9811ZM33.6126 13.1642L31.2453 6.08632L24.1579 7.72421L33.6126 13.1642ZM22.8863 6.99263L29.9558 5.35895L22.7063 3.19053V6.88947L22.8853 6.99263H22.8863ZM21.7074 7.04211L14.0684 5.37368L21.7074 3.18421V7.04211V7.04211ZM20.4232 7.78421L10.7579 13.3453L12.6579 6.08737L20.4242 7.78421H20.4232ZM21.7074 8.19789L10.5179 14.6358L21.7074 21.0726V8.2V8.19789ZM22.7063 8.05895L22.7274 8.05474L34.0305 14.5568L22.7063 21.0726V8.05895V8.05895ZM21.7063 22.8L10.6368 29.1695L21.7084 35.54V22.8H21.7063ZM21.0053 36.2884L10.5737 30.2863L13.04 38.4442L21.0053 36.2884ZM10.1421 28.3011L21.2053 21.9368L10.1421 15.5716V28.3011V28.3011ZM9.14526 16.2632V27.9347L3.23158 22.2642L9.14526 16.2632V16.2632ZM23.5874 36.3421L31.2432 38.4432L33.7158 30.5147L23.5874 36.3421ZM34.5432 28.4579L23.2084 21.9368L34.5421 15.4158V28.4579H34.5432ZM33.9137 29.2474L22.7063 22.8V35.6958L33.9126 29.2484L33.9137 29.2474Z" fill="#272B65"/>
</svg>
