<svg width="44" height="44" viewBox="0 0 44 44" fill="none" xmlns="http://www.w3.org/2000/svg">
<path d="M42.2416 21.9783C42.2416 19.1955 41.6756 16.5432 40.6746 14.1517V14.1083V14.065C39.6736 11.7171 38.2372 9.58642 36.4525 7.80362L36.3656 7.71688L36.3222 7.67351L36.2788 7.63013C34.4073 5.80393 32.1872 4.32566 29.7497 3.28203C29.7063 3.28203 29.7063 3.23866 29.6626 3.23866H29.5755C27.1814 2.28146 24.6568 1.75977 22.0017 1.75977C19.2159 1.75977 16.5608 2.32511 14.1668 3.32508H14.1234H14.08C11.7297 4.32507 9.59667 5.75994 7.81198 7.54274L7.76856 7.58611C7.76856 7.58611 7.72515 7.58611 7.72515 7.62948L7.63831 7.71623C5.81017 9.58575 4.33033 11.8035 3.2856 14.2384C3.2856 14.2817 3.24218 14.2817 3.24218 14.3254V14.4125C2.28397 16.804 1.76172 19.3259 1.76172 21.9782C1.76172 24.761 2.32766 27.4134 3.32869 29.8048V29.8482V29.8916C4.32974 32.2394 5.76613 34.3701 7.55082 36.1962C7.59424 36.2396 7.63796 36.2833 7.68138 36.3267H7.7248L7.76821 36.37C9.63972 38.1962 11.8598 39.6745 14.2973 40.7181C14.3407 40.7181 14.3407 40.7615 14.3844 40.7615H14.4278C16.7781 41.7181 19.3028 42.2398 21.9579 42.2398C24.7437 42.2398 27.3988 41.6744 29.8363 40.6311H29.8798H29.9232C32.2735 39.6311 34.4065 38.1962 36.1912 36.4134C36.2783 36.37 36.3217 36.3263 36.3651 36.2396C38.1933 34.3701 39.7168 32.1523 40.7178 29.6741C40.7178 29.6741 40.7178 29.6307 40.7613 29.6307V29.5436C41.7195 27.1524 42.2417 24.6305 42.2417 21.9781L42.2416 21.9783ZM39.7607 28.5004L35.6257 26.8917L40.8489 23.2394C40.7617 25.0656 40.37 26.8481 39.7607 28.5004ZM29.9671 39.1533L28.1824 35.1097L34.4504 36.2401C33.1011 37.4142 31.5775 38.3708 29.9671 39.1534V39.1533ZM9.55289 36.2401L15.8642 35.1096L14.2538 39.284C12.5563 38.4574 10.9893 37.4575 9.55289 36.2401V36.2401ZM3.11096 23.2392L8.37789 26.8916L4.28627 28.7178C3.67659 27.0223 3.24154 25.1962 3.11096 23.2392ZM4.24259 15.4561L8.37758 17.0649L3.15441 20.7172C3.24155 18.891 3.63322 17.1085 4.24259 15.4561ZM14.0362 4.80329L15.8209 8.84687L9.55289 7.71644C10.9022 6.58601 12.4258 5.58579 14.0362 4.80321V4.80329ZM34.4504 7.71652L28.139 8.84695L29.7495 4.67262C31.447 5.49914 33.014 6.49905 34.4504 7.71652ZM40.8923 20.7173L35.6254 17.065L39.717 15.2388C40.3267 16.9343 40.7617 18.7604 40.8923 20.7173ZM22.0016 29.8483L16.4301 27.5439L14.1232 21.9783L16.4301 16.4127L22.0016 14.1082L27.573 16.4127L29.88 21.9783L27.573 27.5439L22.0016 29.8483ZM13.2526 20.6739L10.8585 17.4128L14.863 16.8041L13.2526 20.6739ZM14.9064 27.196L10.9019 26.5439L13.296 23.2828L14.9064 27.196ZM30.7503 23.2829L33.1443 26.5439L29.0965 27.196L30.7503 23.2829ZM29.0965 16.7607L33.101 17.4128L30.7503 20.6739L29.0965 16.7607ZM33.7537 16.152L28.6177 15.3258L27.834 10.2385L35.0596 8.934L33.7537 16.152ZM26.6153 10.8906L27.2246 14.8909L23.3074 13.2822L26.6153 10.8906ZM22.0015 12.63L17.8227 9.58645L22.0015 3.54228L26.1802 9.54274L22.0015 12.63ZM20.6956 13.2388L16.7783 14.8475L17.4311 10.8472L20.6956 13.2388ZM15.3853 15.3692L10.2492 16.152L8.94336 8.93406L16.1689 10.2386L15.3853 15.3692ZM9.59618 17.804L12.643 21.9784L9.59618 26.1527L3.54592 21.9784L9.59618 17.804ZM10.2493 27.8047L15.3853 28.6309L16.169 33.7182L8.94338 35.0227L10.2493 27.8047ZM17.3877 33.066L16.7783 29.0658L20.6956 30.6745L17.3877 33.066ZM22.0015 31.3266L26.1803 34.3702L22.0015 40.4144L17.8227 34.4139L22.0015 31.3266ZM23.3074 30.7179L27.2247 29.1092L26.5719 33.1094L23.3074 30.7179ZM28.6177 28.5875L33.7537 27.8047L35.0596 35.0226L27.8341 33.7181L28.6177 28.5875ZM34.4068 26.1526L31.36 21.9783L34.4068 17.804L40.4571 21.9783L34.4068 26.1526ZM35.1467 15.8042L36.2783 9.54281C37.4537 10.8906 38.4113 12.3689 39.1947 14.0214L35.1467 15.8042ZM26.9201 8.32542L23.2639 3.10778C25.092 3.2382 26.8333 3.62946 28.4871 4.19481L26.9201 8.32542ZM17.0395 8.36879L15.2113 4.2815C16.9522 3.62941 18.7807 3.19448 20.6957 3.06404L17.0395 8.36879ZM7.72466 9.54286L8.85629 15.8475L4.67753 14.2388C5.50493 12.543 6.5059 10.9777 7.72466 9.54286V9.54286ZM8.85629 28.1527L7.72466 34.4141C6.54935 33.0662 5.59175 31.588 4.80834 29.9355L8.85629 28.1527ZM17.0829 35.6315L20.7391 40.8491C18.911 40.7187 17.1697 40.3274 15.5159 39.7621L17.0829 35.6315ZM26.9636 35.5881L28.7917 39.6754C27.0508 40.3275 25.2223 40.7624 23.3074 40.8928L26.9636 35.5881ZM36.2783 34.414L35.1467 28.1094L39.3255 29.7181C38.4981 31.4138 37.4971 32.9792 36.2783 34.414V34.414Z" fill="#272B65"/>
</svg>
