<svg width="26" height="26" viewBox="0 0 26 26" fill="none" xmlns="http://www.w3.org/2000/svg">
<path d="M7.29085 21.3418C8.17919 20.3884 9.53335 20.4643 10.3134 21.5043L11.4075 22.9668C12.285 24.1259 13.7042 24.1259 14.5817 22.9668L15.6759 21.5043C16.4559 20.4643 17.81 20.3884 18.6984 21.3418C20.6267 23.4001 22.1975 22.7176 22.1975 19.8359V7.62675C22.2084 3.26091 21.19 2.16675 17.095 2.16675H8.90502C4.81002 2.16675 3.79169 3.26091 3.79169 7.62675V19.8251C3.79169 22.7176 5.37335 23.3893 7.29085 21.3418Z" stroke="#38A7DE" stroke-width="1.5" stroke-linecap="round" stroke-linejoin="round"/>
<path d="M8.77076 11.9167H8.78049" stroke="#38A7DE" stroke-width="2" stroke-linecap="round" stroke-linejoin="round"/>
<path d="M11.8066 11.9167H17.765" stroke="#38A7DE" stroke-width="1.5" stroke-linecap="round" stroke-linejoin="round"/>
<path d="M8.77076 7.58341H8.78049" stroke="#38A7DE" stroke-width="2" stroke-linecap="round" stroke-linejoin="round"/>
<path d="M11.8066 7.58325H17.765" stroke="#38A7DE" stroke-width="1.5" stroke-linecap="round" stroke-linejoin="round"/>
</svg>
