<svg width="26" height="26" viewBox="0 0 26 26" fill="none" xmlns="http://www.w3.org/2000/svg">
<path d="M7.29018 21.3416C8.17852 20.3883 9.53268 20.4641 10.3127 21.5041L11.4068 22.9666C12.2843 24.1258 13.7035 24.1258 14.581 22.9666L15.6752 21.5041C16.4552 20.4641 17.8093 20.3883 18.6977 21.3416C20.626 23.4 22.1968 22.7175 22.1968 19.8358V7.62663C22.2077 3.26079 21.1893 2.16663 17.0943 2.16663H8.90435C4.80935 2.16663 3.79102 3.26079 3.79102 7.62663V19.825C3.79102 22.7175 5.37268 23.3891 7.29018 21.3416Z" stroke="#AEAEAE" stroke-width="1.5" stroke-linecap="round" stroke-linejoin="round"/>
<path d="M8.77009 11.9167H8.77982" stroke="#AEAEAE" stroke-width="2" stroke-linecap="round" stroke-linejoin="round"/>
<path d="M11.8066 11.9166H17.765" stroke="#AEAEAE" stroke-width="1.5" stroke-linecap="round" stroke-linejoin="round"/>
<path d="M8.77009 7.58329H8.77982" stroke="#AEAEAE" stroke-width="2" stroke-linecap="round" stroke-linejoin="round"/>
<path d="M11.8066 7.58337H17.765" stroke="#AEAEAE" stroke-width="1.5" stroke-linecap="round" stroke-linejoin="round"/>
</svg>
