<svg width="26" height="26" viewBox="0 0 26 26" fill="none" xmlns="http://www.w3.org/2000/svg">
<path d="M12.4584 22.7501C18.1423 22.7501 22.75 18.1423 22.75 12.4584C22.75 6.77448 18.1423 2.16675 12.4584 2.16675C6.77442 2.16675 2.16669 6.77448 2.16669 12.4584C2.16669 18.1423 6.77442 22.7501 12.4584 22.7501Z" stroke="#AEAEAE" stroke-width="1.5" stroke-linecap="round" stroke-linejoin="round"/>
<path d="M23.8334 23.8334L21.6667 21.6667" stroke="#AEAEAE" stroke-width="1.5" stroke-linecap="round" stroke-linejoin="round"/>
<path d="M9.61507 8.6875C9.60081 8.68737 9.58674 8.69079 9.57414 8.69745C9.56153 8.70411 9.55078 8.7138 9.54285 8.72565C9.53492 8.7375 9.53007 8.75114 9.52872 8.76533C9.52737 8.77952 9.52958 8.79383 9.53514 8.80696L9.58456 8.92362L10.459 10.9625C10.4649 10.9764 10.4744 10.9884 10.4865 10.9974C10.4986 11.0065 10.5128 11.0122 10.5278 11.014C10.5428 11.0158 10.558 11.0136 10.5718 11.0076C10.5857 11.0017 10.5977 10.9922 10.6068 10.9801L12.2207 8.825C12.2303 8.81224 12.2361 8.79705 12.2375 8.78116C12.239 8.76526 12.2359 8.74928 12.2288 8.73501C12.2217 8.72073 12.2107 8.70873 12.1971 8.70034C12.1835 8.69195 12.1679 8.6875 12.1519 8.6875H9.61507ZM16.0219 9.24739L15.135 11.3178C15.1295 11.3309 15.1272 11.3452 15.1285 11.3593C15.1298 11.3735 15.1346 11.3871 15.1424 11.3989C15.1502 11.4108 15.1609 11.4205 15.1734 11.4273C15.1859 11.434 15.1999 11.4375 15.2141 11.4375H17.384C17.3994 11.4375 17.4144 11.4334 17.4276 11.4257C17.4408 11.4179 17.4517 11.4067 17.4592 11.3934C17.4666 11.38 17.4703 11.3648 17.47 11.3495C17.4696 11.3342 17.4652 11.3193 17.4571 11.3062L16.1738 9.236C16.1655 9.22267 16.1537 9.21187 16.1397 9.20476C16.1257 9.19766 16.1101 9.19452 16.0944 9.1957C16.0788 9.19687 16.0637 9.20231 16.051 9.21142C16.0382 9.22053 16.0281 9.23297 16.0219 9.24739V9.24739ZM8.82616 9.23686L7.54333 11.3062C7.53524 11.3193 7.53079 11.3342 7.53042 11.3495C7.53006 11.3648 7.53379 11.38 7.54124 11.3934C7.54869 11.4067 7.55959 11.4179 7.5728 11.4257C7.58601 11.4334 7.60105 11.4375 7.61637 11.4375H9.7863C9.80052 11.4375 9.81451 11.4339 9.82702 11.4272C9.83954 11.4204 9.85018 11.4107 9.85799 11.3988C9.86581 11.3869 9.87055 11.3733 9.8718 11.3591C9.87305 11.3449 9.87076 11.3307 9.86514 11.3176L8.97655 9.24825C8.97019 9.23419 8.96017 9.2221 8.94754 9.21325C8.9349 9.2044 8.92011 9.19912 8.90473 9.19796C8.88935 9.19679 8.87394 9.19979 8.86011 9.20663C8.84629 9.21348 8.83456 9.22392 8.82616 9.23686V9.23686ZM15.4491 8.6875H12.7539C12.7462 8.68745 12.7385 8.68958 12.7319 8.69364C12.7253 8.69771 12.7199 8.70354 12.7164 8.71049C12.7129 8.71745 12.7114 8.72523 12.7122 8.73298C12.7129 8.74072 12.7157 8.74812 12.7204 8.75432L14.4374 11.0415C14.4418 11.0474 14.4477 11.052 14.4544 11.0549C14.4612 11.0578 14.4685 11.0589 14.4758 11.058C14.4831 11.0571 14.49 11.0544 14.4959 11.05C14.5017 11.0456 14.5063 11.0397 14.5092 11.033L15.4133 8.92383L15.4863 8.74465C15.4889 8.7385 15.4899 8.73182 15.4894 8.72518C15.4888 8.71853 15.4866 8.71213 15.483 8.70651C15.4794 8.70089 15.4745 8.69623 15.4687 8.69292C15.463 8.68961 15.4565 8.68775 15.4498 8.6875H15.4491ZM12.1348 17.625L10.2134 12.1789C10.2078 12.1631 10.1974 12.1494 10.1836 12.1398C10.1699 12.1301 10.1535 12.125 10.1367 12.125H7.55214C7.53716 12.125 7.52248 12.1291 7.50976 12.137C7.49704 12.1449 7.48679 12.1562 7.48019 12.1697C7.47358 12.1831 7.47088 12.1981 7.4724 12.213C7.47391 12.2279 7.47958 12.2421 7.48876 12.2539L12.1294 18.2655C12.1451 18.2858 12.1675 18.2999 12.1926 18.3053C12.2178 18.3107 12.244 18.307 12.2667 18.2949C12.2895 18.2829 12.3072 18.2631 12.3166 18.2391C12.326 18.2151 12.3265 18.1886 12.318 18.1643L12.1348 17.625ZM17.4478 12.125H14.8633C14.8466 12.125 14.8303 12.1302 14.8166 12.1398C14.803 12.1495 14.7927 12.1632 14.7872 12.1789L12.6774 18.155C12.6686 18.1801 12.669 18.2075 12.6785 18.2324C12.688 18.2572 12.7061 18.2779 12.7294 18.2906C12.7528 18.3033 12.7799 18.3072 12.8059 18.3017C12.8319 18.2963 12.8552 18.2817 12.8715 18.2607L17.5112 12.2539C17.5204 12.2421 17.5261 12.2279 17.5276 12.213C17.5291 12.1981 17.5264 12.1831 17.5198 12.1697C17.5132 12.1562 17.5029 12.1449 17.4902 12.137C17.4775 12.1291 17.4628 12.125 17.4478 12.125V12.125ZM12.5687 9.69577L13.7719 11.3C13.7814 11.3128 13.7873 11.328 13.7887 11.3438C13.7901 11.3597 13.7871 11.3757 13.78 11.39C13.7728 11.4043 13.7619 11.4163 13.7483 11.4247C13.7347 11.4331 13.7191 11.4375 13.7031 11.4375H11.2969C11.2809 11.4375 11.2653 11.4331 11.2517 11.4247C11.2381 11.4163 11.2271 11.4043 11.22 11.39C11.2129 11.3757 11.2098 11.3597 11.2113 11.3438C11.2127 11.328 11.2185 11.3128 11.2281 11.3L12.4312 9.69577C12.4392 9.68509 12.4496 9.67643 12.4616 9.67046C12.4735 9.6645 12.4866 9.66139 12.5 9.66139C12.5133 9.66139 12.5265 9.6645 12.5384 9.67046C12.5504 9.67643 12.5607 9.68509 12.5687 9.69577V9.69577ZM12.4183 16.3626L10.9639 12.2395C10.9593 12.2266 10.9579 12.2127 10.9598 12.1991C10.9617 12.1855 10.9668 12.1725 10.9747 12.1613C10.9827 12.1501 10.9932 12.141 11.0054 12.1346C11.0176 12.1283 11.0311 12.125 11.0449 12.125H13.9551C13.9689 12.125 13.9824 12.1283 13.9946 12.1346C14.0068 12.141 14.0173 12.1501 14.0252 12.1613C14.0332 12.1725 14.0383 12.1855 14.0402 12.1991C14.0421 12.2127 14.0407 12.2266 14.0361 12.2395L12.581 16.3626C12.575 16.3793 12.5641 16.3938 12.5496 16.4041C12.5351 16.4143 12.5177 16.4198 12.5 16.4198C12.4822 16.4198 12.4649 16.4143 12.4504 16.4041C12.4359 16.3938 12.4249 16.3793 12.419 16.3626H12.4183Z" fill="#AEAEAE"/>
</svg>
