<svg width="38" height="38" viewBox="0 0 38 38" fill="none" xmlns="http://www.w3.org/2000/svg">
<circle opacity="0.12" cx="19" cy="19" r="19" fill="#272B65"/>
<path d="M27.167 18.1933V14.1692C27.167 13.4175 26.5987 12.565 25.8929 12.2808L20.787 10.1908C19.6412 9.72333 18.3487 9.72333 17.2029 10.1908L12.097 12.2808C11.4004 12.565 10.832 13.4175 10.832 14.1692V18.1933C10.832 22.6758 14.0862 26.8742 18.532 28.1025C18.8345 28.185 19.1645 28.185 19.467 28.1025C23.9129 26.8742 27.167 22.6758 27.167 18.1933ZM19.687 19.7975V22.2083C19.687 22.5842 19.3754 22.8958 18.9995 22.8958C18.6237 22.8958 18.312 22.5842 18.312 22.2083V19.7975C17.3862 19.5042 16.7079 18.6425 16.7079 17.625C16.7079 16.36 17.7345 15.3333 18.9995 15.3333C20.2645 15.3333 21.2912 16.36 21.2912 17.625C21.2912 18.6517 20.6129 19.5042 19.687 19.7975Z" fill="#272B65"/>
</svg>
