<svg width="26" height="26" viewBox="0 0 26 26" fill="none" xmlns="http://www.w3.org/2000/svg">
<path d="M13 16.25C14.7949 16.25 16.25 14.7949 16.25 13C16.25 11.2051 14.7949 9.75 13 9.75C11.2051 9.75 9.75 11.2051 9.75 13C9.75 14.7949 11.2051 16.25 13 16.25Z" stroke="#AEAEAE" stroke-width="1.5" stroke-miterlimit="10" stroke-linecap="round" stroke-linejoin="round"/>
<path d="M2.16602 13.9533V12.0467C2.16602 10.92 3.08685 9.98835 4.22435 9.98835C6.18518 9.98835 6.98685 8.60168 6.00102 6.90085C5.43768 5.92585 5.77352 4.65835 6.75935 4.09501L8.63351 3.02251C9.48935 2.51335 10.5943 2.81668 11.1035 3.67251L11.2227 3.87835C12.1977 5.57918 13.801 5.57918 14.7868 3.87835L14.906 3.67251C15.4152 2.81668 16.5202 2.51335 17.376 3.02251L19.2502 4.09501C20.236 4.65835 20.5718 5.92585 20.0085 6.90085C19.0227 8.60168 19.8243 9.98835 21.7852 9.98835C22.9118 9.98835 23.8435 10.9092 23.8435 12.0467V13.9533C23.8435 15.08 22.9227 16.0117 21.7852 16.0117C19.8243 16.0117 19.0227 17.3983 20.0085 19.0992C20.5718 20.085 20.236 21.3417 19.2502 21.905L17.376 22.9775C16.5202 23.4867 15.4152 23.1833 14.906 22.3275L14.7868 22.1217C13.8118 20.4208 12.2085 20.4208 11.2227 22.1217L11.1035 22.3275C10.5943 23.1833 9.48935 23.4867 8.63351 22.9775L6.75935 21.905C5.77352 21.3417 5.43768 20.0742 6.00102 19.0992C6.98685 17.3983 6.18518 16.0117 4.22435 16.0117C3.08685 16.0117 2.16602 15.08 2.16602 13.9533Z" stroke="#AEAEAE" stroke-width="1.5" stroke-miterlimit="10" stroke-linecap="round" stroke-linejoin="round"/>
</svg>
