<svg width="26" height="26" viewBox="0 0 26 26" fill="none" xmlns="http://www.w3.org/2000/svg">
<path d="M13 16.25C14.7949 16.25 16.25 14.7949 16.25 13C16.25 11.2051 14.7949 9.75 13 9.75C11.2051 9.75 9.75 11.2051 9.75 13C9.75 14.7949 11.2051 16.25 13 16.25Z" stroke="#38A7DE" stroke-width="1.5" stroke-miterlimit="10" stroke-linecap="round" stroke-linejoin="round"/>
<path d="M2.16669 13.9532V12.0466C2.16669 10.9199 3.08752 9.98822 4.22502 9.98822C6.18585 9.98822 6.98752 8.60156 6.00169 6.90072C5.43835 5.92572 5.77419 4.65822 6.76002 4.09489L8.63419 3.02239C9.49002 2.51322 10.595 2.81656 11.1042 3.67239L11.2234 3.87822C12.1984 5.57906 13.8017 5.57906 14.7875 3.87822L14.9067 3.67239C15.4159 2.81656 16.5209 2.51322 17.3767 3.02239L19.2509 4.09489C20.2367 4.65822 20.5725 5.92572 20.0092 6.90072C19.0234 8.60156 19.825 9.98822 21.7859 9.98822C22.9125 9.98822 23.8442 10.9091 23.8442 12.0466V13.9532C23.8442 15.0799 22.9234 16.0116 21.7859 16.0116C19.825 16.0116 19.0234 17.3982 20.0092 19.0991C20.5725 20.0849 20.2367 21.3416 19.2509 21.9049L17.3767 22.9774C16.5209 23.4866 15.4159 23.1832 14.9067 22.3274L14.7875 22.1216C13.8125 20.4207 12.2092 20.4207 11.2234 22.1216L11.1042 22.3274C10.595 23.1832 9.49002 23.4866 8.63419 22.9774L6.76002 21.9049C5.77419 21.3416 5.43835 20.0741 6.00169 19.0991C6.98752 17.3982 6.18585 16.0116 4.22502 16.0116C3.08752 16.0116 2.16669 15.0799 2.16669 13.9532Z" stroke="#38A7DE" stroke-width="1.5" stroke-miterlimit="10" stroke-linecap="round" stroke-linejoin="round"/>
</svg>
