<svg width="44" height="44" viewBox="0 0 44 44" fill="none" xmlns="http://www.w3.org/2000/svg">
<path fill-rule="evenodd" clip-rule="evenodd" d="M21.8 2L42 7.36632L36.6274 27.5158L21.7979 42L7.16211 27.5126L2 7.36737L21.8 2ZM22.3179 3.17053V6.59474L36.1926 10.28L40.1968 7.92L22.3179 3.17053ZM40.5705 8.85895L35.8337 26.6242L33.1758 25.0853L36.9305 11.0042L40.5695 8.85895H40.5705ZM34.9842 10.9926L22.3179 7.62737V10.7432L31.3411 13.14L34.9842 10.9926V10.9926ZM31.8663 13.9895L35.7063 11.7263L32.2821 24.5684L29.4789 22.9442L31.8663 13.9895ZM30.8211 14.0347L21.9032 11.6663L13.1684 14.0347L15.4463 22.9274L21.9042 29.3189L28.4516 22.9232L30.8211 14.0358V14.0347ZM28.9758 23.8063L22.3179 30.3095V34.7411L31.8242 25.4568L28.9758 23.8063V23.8063ZM32.7211 25.9747L22.3179 36.1358V40.0979L35.2674 27.4505L32.72 25.9758L32.7211 25.9747ZM21.3211 40.1221V36.0737L11.0168 25.8737L8.40632 27.34L21.32 40.1232L21.3211 40.1221ZM7.92316 26.4663L10.6358 24.9453L7.07789 11.0621L3.42105 8.88947L7.92421 26.4653L7.92316 26.4663ZM3.75368 7.92632L7.74211 10.2947L21.3211 6.61368V3.16421L3.75263 7.92632H3.75368ZM21.3211 7.64737L8.93684 11.0053L12.5695 13.1611L21.32 10.7895V7.64737H21.3211ZM12.1474 14.0716L8.29263 11.7821L11.5347 24.4389L14.3937 22.8358L12.1484 14.0716H12.1474ZM14.8379 23.7295L11.9221 25.3663L21.32 34.6684V30.1453L14.8379 23.7295Z" fill="#272B65"/>
</svg>
