<svg width="38" height="38" viewBox="0 0 38 38" fill="none" xmlns="http://www.w3.org/2000/svg">
<circle opacity="0.12" cx="19" cy="19" r="19" fill="#272B65"/>
<path d="M26.9031 15.9757C25.9498 11.7315 22.2465 9.83398 19.0015 9.83398C19.0015 9.83398 19.0015 9.83398 18.9923 9.83398C15.7565 9.83398 12.0623 11.7315 11.0998 15.9665C10.0181 20.6965 12.9148 24.7023 15.5365 27.2323C16.5081 28.1673 17.7548 28.6348 19.0015 28.6348C20.2481 28.6348 21.4948 28.1673 22.4573 27.2323C25.079 24.7023 27.9756 20.7057 26.9031 15.9757ZM22.0081 16.7365L18.3415 20.4032C18.204 20.5407 18.0298 20.6048 17.8556 20.6048C17.6815 20.6048 17.5073 20.5407 17.3698 20.4032L15.9948 19.0282C15.729 18.7623 15.729 18.3223 15.9948 18.0565C16.2606 17.7907 16.7006 17.7907 16.9665 18.0565L17.8556 18.9457L21.0365 15.7648C21.3023 15.499 21.7423 15.499 22.0081 15.7648C22.274 16.0307 22.274 16.4707 22.0081 16.7365Z" fill="#272B65"/>
</svg>
