<svg width="22" height="22" viewBox="0 0 22 22" fill="none" xmlns="http://www.w3.org/2000/svg">
<path d="M14.8962 20.6251C15.7821 20.6251 16.5003 19.9069 16.5003 19.0209C16.5003 18.135 15.7821 17.4167 14.8962 17.4167C14.0102 17.4167 13.292 18.135 13.292 19.0209C13.292 19.9069 14.0102 20.6251 14.8962 20.6251Z" fill="white"/>
<path d="M7.56217 20.6251C8.44813 20.6251 9.16634 19.9069 9.16634 19.0209C9.16634 18.135 8.44813 17.4167 7.56217 17.4167C6.67622 17.4167 5.95801 18.135 5.95801 19.0209C5.95801 19.9069 6.67622 20.6251 7.56217 20.6251Z" fill="white"/>
<path opacity="0.4" d="M4.43634 3.61159L4.25301 5.85742C4.21634 6.28825 4.55551 6.64575 4.98634 6.64575H19.0205C19.4055 6.64575 19.7263 6.35241 19.7538 5.96741C19.873 4.34491 18.6355 3.02492 17.013 3.02492H5.7655C5.67384 2.62159 5.4905 2.23658 5.20633 1.91575C4.75717 1.42992 4.11551 1.14575 3.45551 1.14575H1.83301C1.45717 1.14575 1.14551 1.45742 1.14551 1.83325C1.14551 2.20909 1.45717 2.52075 1.83301 2.52075H3.42801C3.71218 2.52075 3.97801 2.63992 4.17051 2.84159C4.36301 3.05242 4.45467 3.32742 4.43634 3.61159Z" fill="white"/>
<path d="M18.8012 8.02075H4.73954C4.35454 8.02075 4.04287 8.31408 4.00621 8.68991L3.67621 12.6774C3.54787 14.2358 4.77621 15.5833 6.34371 15.5833H16.537C17.912 15.5833 19.122 14.4558 19.2229 13.0808L19.5254 8.79992C19.562 8.37826 19.232 8.02075 18.8012 8.02075Z" fill="white"/>
</svg>
