<svg width="41" height="41" viewBox="0 0 41 41" fill="none" xmlns="http://www.w3.org/2000/svg">
<path d="M40.3057 5.23454L34.2858 0.13084C34.2423 0.0873285 34.155 0.0435115 34.1115 0.0435115H34.068C33.9806 -6.03199e-09 33.9371 0 33.8498 0H6.58644C6.49911 0 6.4556 -6.03199e-09 6.36827 0.0435115H6.32476C6.28125 0.0870231 6.19392 0.0870232 6.15041 0.13084L0.174048 5.27832L0.0870231 5.36534C0.0870231 5.40885 0.0435118 5.40885 0.0435118 5.45267V5.49618C0.0435118 5.53969 0 5.53969 0 5.58351V5.62702V5.75786V34.7225V34.8533V34.8968C0 34.9403 2.92552e-07 34.9841 0.0435118 34.9841V35.0276C0.0435118 35.0712 0.0870231 35.0712 0.0870231 35.115C0.0870231 35.115 0.0870233 35.1585 0.130535 35.1585L0.174046 35.202L6.1501 40.3492C6.19361 40.3927 6.28094 40.4365 6.32445 40.4365H6.36796C6.45529 40.48 6.4988 40.48 6.58613 40.48H33.8495C33.9368 40.48 33.9803 40.48 34.0677 40.4365H34.1112C34.1547 40.393 34.242 40.393 34.2855 40.3492L40.306 35.2461C40.4368 35.1152 40.5241 34.9406 40.5241 34.7662L40.5238 5.75802C40.5238 5.54016 40.4365 5.36538 40.3057 5.23454ZM28.4843 10.5129C26.6522 10.5129 24.8202 10.2512 22.9007 9.64053C25.0383 9.07336 27.1755 7.9393 29.3131 6.1946C28.8767 7.76466 28.6151 9.20416 28.4843 10.5129ZM11.5592 10.5129C11.5157 9.20416 11.2975 7.80843 10.9485 6.28161C13.0422 8.07016 15.1798 9.20424 17.3608 9.68408C15.3544 10.3383 13.4351 10.5999 11.5592 10.5129ZM8.72394 18.1902C8.46226 15.5293 7.58987 12.9991 6.1939 10.7746C7.54609 11.2545 8.89835 11.6035 10.2944 11.7343C10.2509 14.4387 9.5963 16.5763 8.72394 18.1902ZM8.68043 22.2033C9.59664 23.861 10.3381 25.9983 10.4251 28.7465C8.89823 28.9209 7.37171 29.2699 5.88866 29.8371C7.41526 27.4817 8.33138 24.8642 8.68043 22.2033ZM17.6228 30.8404C15.4853 31.4075 13.348 32.5416 11.1669 34.2863C11.5159 32.7159 11.6903 31.2763 11.7341 29.9677C13.6535 29.881 15.6164 30.1862 17.6228 30.8404ZM20.2403 30.4043C17.3176 29.1829 14.4821 28.6158 11.7777 28.6596C11.6469 24.9082 10.3817 22.16 9.02948 20.2407C10.3817 18.3651 11.5595 15.6169 11.6469 11.8218H12.2141C14.8315 11.8218 17.5359 11.2546 20.284 10.0771C23.0323 11.2549 25.7367 11.8218 28.354 11.8218H28.3975C28.1793 15.2674 28.8335 18.0592 30.3604 20.2399C28.8773 22.3775 28.2666 25.1692 28.5283 28.6589C25.8671 28.6153 23.0753 29.183 20.2403 30.4043ZM28.6592 29.968C28.8335 31.2767 29.0955 32.6724 29.4881 34.1993C27.3943 32.4546 25.2568 31.2766 23.0757 30.7968C24.9951 30.1861 26.8709 29.9245 28.6592 29.968ZM30.6659 22.3343C31.0584 24.777 32.149 27.1762 33.894 29.5755C32.5853 29.1391 31.2331 28.834 29.8373 28.7031C29.6189 26.1731 29.9244 24.0793 30.6659 22.3343ZM30.6659 18.1903C29.837 16.4456 29.4881 14.2645 29.6627 11.778C31.1022 11.6471 32.5418 11.3416 33.9375 10.8618C32.149 13.261 31.0584 15.704 30.6659 18.1903ZM29.7936 10.4692C29.9679 8.94233 30.3169 7.24118 30.8406 5.45294L35.0284 9.03004C33.3268 9.81507 31.5821 10.2948 29.7936 10.4692ZM19.7606 8.72454C16.9689 8.68103 14.1771 7.37235 11.3853 4.92956H28.7903C25.693 7.50314 22.6831 8.81186 19.7606 8.72454ZM10.2512 10.4258C8.5935 10.2076 7.02313 9.77158 5.45268 9.02973L9.42231 5.45262C9.90216 7.28495 10.1638 8.94272 10.2512 10.4258ZM4.92938 11.2108C6.49975 13.6974 7.41596 16.4891 7.50297 19.4552C7.63381 22.7704 6.71794 25.9984 4.92938 28.8775V11.2108ZM10.4256 30.0552C10.3821 31.5383 10.1201 33.196 9.59671 35.0281L5.45276 31.451C7.11045 30.7094 8.76791 30.2296 10.4256 30.0552ZM20.7202 31.7565C23.512 31.8 26.3038 33.1087 29.0955 35.5514H11.6906C14.7879 32.9779 17.7978 31.713 20.7202 31.7565ZM29.968 30.0552C31.6692 30.2296 33.3704 30.7094 35.0281 31.4513L31.1024 35.0284C30.5787 33.196 30.1861 31.5383 29.968 30.0552ZM35.5515 29.5754C33.1088 26.522 31.8435 23.4247 31.8435 20.3277C31.8435 17.1869 33.1084 14.0461 35.5515 10.9491V29.5754ZM36.1622 8.28815L31.4945 4.27499C32.3234 3.4461 33.1522 2.53029 33.9811 1.57054L38.8666 5.75835C37.8634 6.58692 36.9475 7.41573 36.1622 8.28815ZM30.2297 3.62082H10.033C9.33498 2.92281 8.63695 2.13777 7.93924 1.26542L32.4544 1.26512C31.7129 2.13778 30.9715 2.9228 30.2297 3.62082ZM6.49966 1.57062C7.24118 2.57383 8.02656 3.44618 8.81159 4.27506L4.36213 8.28823C3.57711 7.37203 2.6609 6.54353 1.65769 5.75819L6.49966 1.57062ZM1.26486 7.06683C2.13721 7.76484 2.92255 8.54988 3.62026 9.42223V30.7531C2.92225 31.6254 2.13721 32.4978 1.26486 33.2831V7.06683ZM4.23127 32.1055L9.02978 36.2495C8.20089 37.0783 7.37209 37.9942 6.5432 38.9539L1.61391 34.7229C2.57358 33.8941 3.44593 33.0214 4.23127 32.1055ZM10.2511 36.8602H30.4478C31.1458 37.5582 31.8438 38.3432 32.5415 39.2155L8.02633 39.2159C8.76785 38.3432 9.5093 37.5582 10.2511 36.8602ZM33.9811 38.9104C33.2396 37.9507 32.4542 37.0348 31.7127 36.2059L36.1622 32.1927C36.9911 33.0216 37.9069 33.894 38.8666 34.7228L33.9811 38.9104ZM36.8602 31.0585V9.46593C37.5582 8.6809 38.3433 7.93903 39.2156 7.154V33.3268C38.3433 32.5853 37.5582 31.8438 36.8602 31.0585Z" fill="#272B65"/>
</svg>
