<svg width="44" height="44" viewBox="0 0 44 44" fill="none" xmlns="http://www.w3.org/2000/svg">
<path fill-rule="evenodd" clip-rule="evenodd" d="M2 2H42V42H2V2ZM3.70667 3L8.12333 7.41667H35.8778L40.2933 3H3.70667ZM41 3.70667L36.5833 8.12333V35.8778L41 40.2944V3.70667ZM40.2933 41L35.8767 36.5833H8.12222L3.70667 41H40.2933ZM3 40.2933V3.70667L7.41667 8.12333V35.8778L3 40.2933ZM9.12333 35.5833H34.8778L29.3778 30.0833H14.6222L9.12222 35.5833H9.12333ZM14.9167 29.0833H29.0833V14.9167H14.9167V29.0833ZM14.6233 13.9167H29.3778L34.8778 8.41667H9.12222L14.6222 13.9167H14.6233ZM8.41667 9.12333V34.8778L13.9167 29.3778V14.6222L8.41667 9.12222V9.12333ZM35.5833 9.12333L30.0833 14.6233V29.3778L35.5833 34.8778V9.12222V9.12333Z" fill="#272B65"/>
</svg>
