<svg width="44" height="44" viewBox="0 0 44 44" fill="none" xmlns="http://www.w3.org/2000/svg">
<path fill-rule="evenodd" clip-rule="evenodd" d="M21.3358 2L32.2084 4.35585L32.2695 4.42645L32.3242 4.39905L32.3284 4.49282L39.1989 12.2947L41.9684 21.7803L41.9558 21.8204L42 21.8499L41.9337 21.892L38.8768 31.7916L32.2137 39.3217L21.6495 42L10.8179 38.7812L10.8 38.7602H10.7958V38.7549L4.48421 31.2048L2 22.2797L4.06316 12.3042L11.3116 4.44225L11.3158 4.40643L11.3347 4.41696L11.3895 4.35796L21.3358 2ZM11.0779 6.17016L5.32526 12.4096C6.95158 13.2103 8.48632 13.9057 9.95158 14.501L11.0779 6.17016V6.17016ZM9.81368 15.523C8.14071 14.8455 6.49392 14.105 4.87684 13.303L3.24 21.2156L9.79579 15.6505L9.81368 15.523V15.523ZM10.6705 16.2184L3.67053 22.1596L10.7179 27.1505C12.3368 25.8019 14.1674 24.0687 15.8526 21.8183C14.363 19.7446 12.6223 17.8636 10.6705 16.2184V16.2184ZM16.4495 22.6843C15.2794 24.2 13.9741 25.6061 12.5495 26.885C14.4 26.2792 16.2747 25.8736 18.1916 25.6839C17.6707 24.6504 17.089 23.6488 16.4495 22.6843V22.6843ZM19.2653 25.6007C18.628 24.2931 17.8974 23.0332 17.0789 21.8309C17.934 20.6278 18.6925 19.3588 19.3474 18.0358C20.7252 18.1734 22.112 18.1967 23.4937 18.1054C24.1345 19.447 24.8733 20.7394 25.7042 21.9721C24.8984 23.1673 24.179 24.4186 23.5516 25.7166C22.1283 25.5618 20.6948 25.523 19.2653 25.6007ZM18.6547 26.6437C16.1284 26.8566 13.6726 27.4592 11.2358 28.4201L11.7179 37.3178L20.8789 33.666C20.4259 31.2437 19.6789 28.8859 18.6547 26.6448V26.6437ZM21.9832 33.6797L31.3621 37.6465V28.7099C28.8495 27.7384 26.4558 27.1094 24.1495 26.7965C23.1559 28.9963 22.4286 31.3071 21.9832 33.6797V33.6797ZM23.1095 26.6754C21.9831 26.5672 20.8507 26.5348 19.72 26.5784C20.3937 28.0956 20.9779 29.7498 21.4337 31.5483C21.8811 29.7888 22.4526 28.1662 23.1084 26.6754H23.1095ZM24.5979 25.8504C26.3979 26.1159 28.2421 26.5647 30.1432 27.2053C28.7379 25.8741 27.4578 24.4164 26.3189 22.8508C25.6866 23.8158 25.1119 24.8174 24.5979 25.8504V25.8504ZM26.9168 21.9721C28.2973 23.9161 29.8989 25.6928 31.6895 27.2664L40.1863 21.8246L32.0947 16.3248C30.1411 17.9846 28.4017 19.8817 26.9168 21.9721V21.9721ZM33.0726 15.7822L40.6884 20.9585L38.4674 13.3515C36.5695 14.2997 34.7832 15.111 33.0726 15.7822V15.7822ZM38.0137 12.4602L32.4032 6.09008L32.8168 14.8097C34.5821 14.1018 36.316 13.3179 38.0137 12.4602V12.4602ZM31.8347 15.1848L31.3989 5.97419L22.0526 10.6185C22.4949 12.8333 23.1837 14.9916 24.1063 17.0528C26.5853 16.8158 29.1042 16.1941 31.8347 15.1848ZM24.5579 18.0105C25.082 19.0725 25.6701 20.1017 26.3189 21.0923C27.4245 19.572 28.6634 18.1534 30.0211 16.8537C28.1474 17.4279 26.3453 17.8146 24.5579 18.0105ZM23.0484 17.1297C22.3824 15.5956 21.8417 14.01 21.4316 12.3885C21.0223 13.9941 20.4765 15.5616 19.8 17.0739C20.8803 17.1658 21.9656 17.1845 23.0484 17.1297V17.1297ZM18.7537 16.9633C16.2853 16.6493 13.7221 15.9581 10.9074 14.8792L12.1126 5.96576L20.8137 10.6121C20.3792 12.803 19.6878 14.9348 18.7537 16.9633V16.9633ZM18.2937 17.9094C17.7528 18.967 17.1427 19.9877 16.4674 20.9648C15.2899 19.3602 13.964 17.8702 12.5074 16.5144C14.52 17.1835 16.4284 17.6481 18.2937 17.9094ZM21.4337 9.81035L12.6063 5.09759L21.3453 3.0241L30.9168 5.0997L21.4337 9.81035V9.81035ZM40.6316 22.7275L32.4842 27.9449C32.5979 28.0398 32.7116 28.1314 32.8232 28.221C34.5389 28.9417 36.3032 29.8119 38.1253 30.8402L40.6305 22.7275H40.6316ZM37.6211 31.7031L32.3611 37.6486V29.1303L32.4463 29.1987L32.4779 29.1598C34.2396 29.9082 35.9568 30.7574 37.6211 31.7031V31.7031ZM31.0295 38.5916L21.6716 40.9643L12.2747 38.1723L21.42 34.5268L31.0305 38.5916H31.0295ZM10.7053 37.0902L10.2579 28.8258C8.7076 29.506 7.20551 30.2913 5.76211 31.1763L10.7053 37.0902ZM5.26947 30.3061C6.70946 29.425 8.20606 28.6401 9.74947 27.9565L9.73895 27.9428L9.91368 27.8048L3.26316 23.0952L5.26947 30.3061V30.3061Z" fill="#272B65"/>
</svg>
