<svg width="44" height="44" viewBox="0 0 44 44" fill="none" xmlns="http://www.w3.org/2000/svg">
<path fill-rule="evenodd" clip-rule="evenodd" d="M12 2H31.33L28.966 42H14.363L12 2ZM12.79 3.271L15.01 40.831L16.654 39.194L14.353 4.826L12.79 3.271ZM15.12 5.59L17.326 38.525L18.684 37.173L16.362 6.826L15.12 5.59ZM17.17 6.622L15.564 5.025H27.763L26.16 6.622H17.17ZM17.137 7.598L19.35 36.51L20.424 35.441L18.128 8.584L17.137 7.598ZM18.62 8.066L17.887 7.336H25.443L24.709 8.066H18.62ZM18.862 8.78L21.122 35.22H22.207L24.467 8.78H18.862ZM25.202 8.584L22.905 35.441L23.979 36.511L26.192 7.598L25.202 8.584ZM26.967 6.826L24.645 37.173L26.004 38.525L28.209 5.59L26.967 6.826ZM28.977 4.826L26.675 39.194L28.319 40.831L30.539 3.271L28.977 4.826ZM30.084 2.714H13.244L14.848 4.311H28.48L30.084 2.714ZM27.763 41.286L26.159 39.689H17.17L15.565 41.286H27.764H27.763ZM17.886 38.975H25.442L24.128 37.667H19.2L17.886 38.975ZM19.917 36.953H23.41L22.387 35.933H20.94L19.917 36.953Z" fill="#272B65"/>
</svg>
