<svg width="44" height="44" viewBox="0 0 44 44" fill="none" xmlns="http://www.w3.org/2000/svg">
<path fill-rule="evenodd" clip-rule="evenodd" d="M9 2H35.667L33.074 30.634L22.334 42L11.592 30.634L9 2ZM10.005 3.593L12.383 29.856L14.804 29.015L12.323 5.955L10.005 3.593V3.593ZM13.291 6.941L15.636 28.726L18.057 27.884L15.587 9.28L13.29 6.94L13.291 6.941ZM16.482 9.511L18.936 27.987L22.333 31.796L25.731 27.988L28.184 9.51H16.482V9.511ZM29.08 9.28L26.61 27.884L29.031 28.726L31.375 6.94L29.08 9.28ZM30.922 6.173H13.744L16.171 8.646H28.496L30.922 6.173ZM31.772 5.308H12.894L10.498 2.865H34.168L31.771 5.308H31.772ZM32.344 5.954L29.862 29.014L32.283 29.856L34.661 3.593L32.344 5.954V5.954ZM31.889 30.634L29.522 29.812L22.762 37.064V40.292L31.889 30.634ZM21.905 40.292V37.064L15.145 29.811L12.778 30.634L21.905 40.292V40.292ZM16.035 29.502L21.905 35.802V32.608L18.4 28.68L16.034 29.502H16.035ZM22.762 32.609V35.8L28.633 29.501L26.267 28.679L22.762 32.607V32.609Z" fill="#272B65"/>
</svg>
