<svg width="44" height="44" viewBox="0 0 44 44" fill="none" xmlns="http://www.w3.org/2000/svg">
<path fill-rule="evenodd" clip-rule="evenodd" d="M2 2H42L31.7642 42H11.8568L2 2ZM4.02632 3L8.17368 6.41474H35.7968L39.9632 3H4.02632ZM40.5021 3.84737L36.7411 6.93053L28.84 36.9547L31.1695 40.32L40.5021 3.84737V3.84737ZM30.4284 41H13.3579L15.8032 37.5853H28.0663L30.4305 41H30.4284ZM28.0958 35.88L35.4326 8.00421L32.3747 10.5095L26.5695 33.6747L28.0958 35.88V35.88ZM25.6463 33.2737L31.2968 10.7263H12.6547L18.3063 33.2737H25.6463ZM17.3811 33.6705L11.5768 10.5084L8.94526 8.34105L15.6463 36.0926L17.3811 33.6705V33.6705ZM16.5179 36.5853H27.3737L25.7737 34.2737H18.1737L16.5179 36.5853ZM14.8821 37.16L7.66842 7.29053L3.47579 3.83789L12.5053 40.48L14.8821 37.16V37.16ZM9.38737 7.41474L12.1968 9.72632H31.7579L34.5789 7.41474H9.38737Z" fill="#272B65"/>
</svg>
