<svg width="44" height="44" viewBox="0 0 44 44" fill="none" xmlns="http://www.w3.org/2000/svg">
<path fill-rule="evenodd" clip-rule="evenodd" d="M16.9622 24.7671L21.0882 7.20605L21.9872 7.41705L17.7992 25.2451L3.38219 39.0761L2.74219 38.4091L16.9622 24.7671V24.7671ZM27.0362 24.7671L22.9112 7.20605L22.0112 7.41705L26.2002 25.2451L39.6932 38.1521L40.3312 37.4841L27.0362 24.7671V24.7671Z" fill="#272B65"/>
<path fill-rule="evenodd" clip-rule="evenodd" d="M21.8251 33.4683L4.35512 38.9523L4.07812 38.0702L21.8221 32.5002L40.6101 38.3003L40.3381 39.1842L21.8251 33.4683V33.4683ZM21.5371 17.9423V6.15625H22.4611V17.9423H21.5371Z" fill="#272B65"/>
<path fill-rule="evenodd" clip-rule="evenodd" d="M2.81641 38.8139L12.9774 32.3439L13.4734 33.1239L3.31241 39.5939L2.81641 38.8139ZM40.7184 38.3479L30.5564 32.1079L30.0734 32.8959L40.2354 39.1359L40.7184 38.3479Z" fill="#272B65"/>
<path fill-rule="evenodd" clip-rule="evenodd" d="M22 5L2 39.667H42L22 5ZM22 6.849L3.6 38.742H40.4L22 6.85V6.849Z" fill="#272B65"/>
<path fill-rule="evenodd" clip-rule="evenodd" d="M21.9984 16.5557L12.3984 33.1957H31.5984L21.9984 16.5557ZM21.9984 18.4047L13.9984 32.2697H29.9984L21.9984 18.4037V18.4047Z" fill="#272B65"/>
</svg>
