<svg width="44" height="44" viewBox="0 0 44 44" fill="none" xmlns="http://www.w3.org/2000/svg">
<path d="M43.5207 39.2447C43.5207 39.198 43.5674 39.151 43.5674 39.1043V39.0577V38.9173V38.8706V38.7302C41.0871 28.7621 35.7054 18.6068 27.1878 7.79629C27.1878 7.79629 27.1878 7.74961 27.1412 7.74961L27.0945 7.70293C25.5968 5.7841 24.0057 3.86527 22.2742 1.89981L22.2275 1.85313H22.1809C22.1342 1.85313 22.1342 1.80645 22.0872 1.80645H22.0405C21.9938 1.80645 21.9938 1.75977 21.9468 1.75977H21.9001H21.8534H21.8068H21.7601H21.7134H21.6667H21.62H21.5734H21.5267C21.48 1.75977 21.48 1.80645 21.433 1.80645H21.3863H21.3396L21.2929 1.85313H21.2463L21.1996 1.89981C16.6134 7.09446 12.6822 12.3359 9.4531 17.5774C8.79794 18.4666 8.23642 19.4025 7.76835 20.3855C6.0836 23.2869 4.63284 26.1886 3.41624 29.0432C3.41624 29.0432 3.41624 29.0899 3.36956 29.0899C3.32287 29.1366 3.32288 29.1836 3.32288 29.2303C1.96588 32.3658 0.889259 35.5012 0 38.6368V38.7772V38.8239V38.9642V39.0109C0 39.0576 0.0466812 39.1046 0.0466812 39.1513C0.0933621 39.198 0.0933622 39.245 0.140371 39.2917C0.140371 39.2917 0.187051 39.2917 0.187051 39.3383L0.280741 39.432C0.280741 39.432 0.327421 39.432 0.327421 39.4787C0.374102 39.4787 0.421111 39.5254 0.467792 39.5254H0.514474C3.18217 40.2272 5.80281 40.7421 8.47017 41.1635H8.51685H8.56353C12.6349 41.8187 16.7533 42.1465 20.8248 42.1931C21.1055 42.1931 21.3863 42.2398 21.667 42.2398C21.9477 42.2398 22.2285 42.2398 22.5092 42.1931C26.6276 42.1464 30.699 41.8187 34.7705 41.1635H34.8171H34.9108C37.5785 40.7424 40.2459 40.1806 42.8665 39.5254H42.9132C42.9599 39.5254 43.0069 39.4787 43.0536 39.4787C43.0536 39.4787 43.1003 39.4787 43.1003 39.432C43.1469 39.432 43.1469 39.3854 43.194 39.3383L43.2406 39.2917C43.4737 39.385 43.4737 39.3383 43.5207 39.2447L43.5207 39.2447ZM35.5647 39.7595C35.5647 39.5725 35.518 39.3851 35.518 39.2447C36.2199 39.2914 36.922 39.3851 37.6239 39.4318C36.922 39.5255 36.2202 39.6658 35.5646 39.7595H35.5647ZM31.6337 37.4196H31.4933C29.2001 37.0918 26.9538 36.7177 24.7542 36.2496C27.6089 35.4074 30.417 34.4712 33.1312 33.3482C33.4119 34.7989 33.646 36.2496 33.88 37.7003C33.1315 37.6066 32.3826 37.5129 31.6338 37.4195L31.6337 37.4196ZM21.0572 40.9295C18.5302 40.7891 16.0966 39.9465 14.0374 38.5428C16.7051 38.1217 19.3257 37.6069 21.8527 36.9985C24.3797 37.607 27.0008 38.1684 29.6681 38.5428C27.5623 39.9469 25.1753 40.7891 22.6483 40.9295H21.0573H21.0572ZM12.0718 37.4196C11.323 37.5133 10.5741 37.6066 9.82556 37.7003C10.0596 36.2026 10.2937 34.7519 10.5744 33.3482C13.2887 34.4715 16.0965 35.4541 18.9514 36.2496C16.7518 36.7178 14.5056 37.0919 12.2123 37.4196C12.2123 37.3726 12.1186 37.3726 12.0719 37.4196L12.0718 37.4196ZM6.1283 39.3851C6.83015 39.3384 7.53234 39.2914 8.23416 39.1981C8.23416 39.3851 8.18748 39.5725 8.18748 39.7129C7.4853 39.6659 6.78343 39.5255 6.12825 39.3851H6.1283ZM4.49018 30.4934C4.72424 30.6337 4.9583 30.7274 5.19202 30.8678C4.49018 31.8507 3.83503 32.88 3.1328 33.9566C3.55424 32.7866 3.97534 31.6167 4.49013 30.4934L4.49018 30.4934ZM2.05689 38.2153C3.50757 35.8754 4.95833 33.6291 6.45606 31.4762C7.39195 31.8973 8.32784 32.3184 9.26415 32.7399C8.9364 34.378 8.65566 36.0628 8.42194 37.7941C6.31541 37.9812 4.20955 38.1216 2.05698 38.2152L2.05689 38.2153ZM7.85977 26.9368C7.85977 24.8776 8.32789 22.9121 9.12342 21.087C9.63822 20.1977 10.153 19.3086 10.7145 18.4193C11.7441 17.0623 13.0544 15.8923 14.5521 14.9561C13.6163 17.1557 12.8207 19.4019 12.0718 21.6482C10.6678 23.3796 9.26373 25.1581 7.8601 27.0298C7.85977 27.0305 7.85977 26.9835 7.85977 26.9368L7.85977 26.9368ZM17.1727 9.24693L17.2194 9.29361C16.6109 10.5103 16.0027 11.7272 15.441 12.9439C14.8795 13.2246 14.3177 13.5054 13.7562 13.8332C14.8328 12.2888 15.9561 10.7914 17.1728 9.24697L17.1727 9.24693ZM29.9956 13.8801C29.4341 13.5523 28.8723 13.2249 28.2641 12.9442C27.7026 11.7275 27.1408 10.5106 26.4856 9.29389L26.5323 9.24721C27.749 10.7913 28.919 12.3357 29.9955 13.8801L29.9956 13.8801ZM18.3427 10.1828C19.1849 10.8847 20.0274 11.5869 20.823 12.3357C18.7171 14.3013 16.6113 16.4541 14.5988 18.7471C15.6751 15.8456 16.892 12.9909 18.3428 10.1829L18.3427 10.1828ZM35.8454 27.0771C34.4413 25.2054 33.0373 23.4268 31.6337 21.6955C30.8848 19.4022 30.0893 17.2026 29.1533 15.0034C33.2717 17.5304 35.8454 22.0232 35.8454 26.9371V27.0771V27.0771ZM29.153 18.7937C27.0938 16.5005 25.0346 14.3479 22.9288 12.3824C23.771 11.6335 24.5669 10.9317 25.4091 10.2294C26.8132 12.9908 28.0301 15.8455 29.1531 18.7936L29.153 18.7937ZM21.8525 11.3997C20.9166 10.5575 19.9337 9.715 18.9978 8.91942C19.887 7.23467 20.8696 5.5032 21.8525 3.81844C22.8821 5.5032 23.818 7.18795 24.7072 8.91942C23.7713 9.71495 22.7884 10.5572 21.8525 11.3997V11.3997ZM21.8525 13.3182C24.7539 16.0326 27.6087 19.0744 30.3699 22.3972C31.3528 25.486 32.195 28.6214 32.8502 31.8973C29.2933 33.348 25.643 34.565 21.8525 35.5476C18.0619 34.6117 14.4116 33.3947 10.8548 31.8973C11.51 28.6215 12.3525 25.439 13.3351 22.3972C16.0965 19.0277 18.9512 16.0326 21.8525 13.3182V13.3182ZM32.7098 25.2987C33.7394 26.6557 34.769 28.013 35.7986 29.4638C35.9856 29.7445 36.173 30.0253 36.4071 30.306C35.6582 30.6804 34.9094 31.0079 34.1608 31.3356C33.7391 29.2764 33.2712 27.2642 32.7098 25.2987H32.7098ZM37.1086 28.8553C37.2023 28.2468 37.249 27.5917 37.249 26.9365C37.249 26.5621 37.249 26.141 37.2023 25.7665C37.7638 26.8898 38.2786 28.0128 38.7934 29.136C38.419 29.3231 38.0915 29.5105 37.7171 29.6975C37.53 29.4168 37.296 29.136 37.1086 28.8553L37.1086 28.8553ZM7.85943 29.4638C8.889 28.0131 9.91866 26.6091 10.9949 25.2987C10.4335 27.2643 9.96537 29.2768 9.54427 31.3356C8.79541 31.0078 8.04654 30.6804 7.29802 30.306C7.48507 30.0253 7.67245 29.7445 7.8595 29.4638H7.85943ZM34.4411 32.7396C35.377 32.3185 36.3129 31.8974 37.2492 31.476C38.7469 33.6289 40.1976 35.8752 41.6483 38.2151C39.4954 38.1684 37.3896 38.028 35.3304 37.8407C35.0496 36.0622 34.7685 34.3775 34.4411 32.7397V32.7396ZM38.5125 30.8675C38.7932 30.7272 39.074 30.5868 39.3547 30.4464C39.8695 31.7101 40.3843 32.9734 40.8054 34.237C40.0569 33.0671 39.2613 31.9441 38.5124 30.8675L38.5125 30.8675ZM6.59578 28.8553C6.40873 29.1361 6.22135 29.4168 5.9873 29.6976C5.65955 29.5572 5.33214 29.3698 5.00436 29.2294C5.47248 28.1999 5.94025 27.1702 6.45504 26.0939C6.45504 26.3747 6.40836 26.6554 6.40836 26.9832C6.45536 27.5917 6.50204 28.2001 6.59573 28.8553L6.59578 28.8553ZM9.54385 39.9934C9.59053 39.7127 9.63754 39.385 9.68422 39.1042C10.4798 39.0105 11.2753 38.9171 12.0709 38.8234C12.9131 39.5253 13.8023 40.1338 14.7852 40.6019C13.0071 40.4612 11.2756 40.2741 9.54383 39.9934L9.54385 39.9934ZM31.6328 38.8235C32.4284 38.9172 33.2239 39.0105 34.0195 39.1042C34.0662 39.385 34.1132 39.7127 34.1599 39.9935C32.4284 40.2742 30.65 40.4616 28.9185 40.602C29.9014 40.1338 30.7906 39.5253 31.6328 38.8235L31.6328 38.8235Z" fill="#272B65"/>
</svg>
