<svg width="38" height="38" viewBox="0 0 38 38" fill="none" xmlns="http://www.w3.org/2000/svg">
<circle opacity="0.12" cx="19" cy="19" r="19" fill="#272B65"/>
<path d="M16.2487 9.83337C13.847 9.83337 11.8945 11.7859 11.8945 14.1875C11.8945 16.5434 13.737 18.45 16.1387 18.5325C16.212 18.5234 16.2854 18.5234 16.3404 18.5325C16.3587 18.5325 16.3679 18.5325 16.3862 18.5325C16.3954 18.5325 16.3954 18.5325 16.4045 18.5325C18.7512 18.45 20.5937 16.5434 20.6029 14.1875C20.6029 11.7859 18.6504 9.83337 16.2487 9.83337Z" fill="#272B65"/>
<path d="M20.9069 20.9709C18.3494 19.2659 14.1785 19.2659 11.6027 20.9709C10.4385 21.7501 9.79688 22.8042 9.79688 23.9317C9.79688 25.0592 10.4385 26.1042 11.5935 26.8742C12.8769 27.7359 14.5635 28.1667 16.2502 28.1667C17.9369 28.1667 19.6235 27.7359 20.9069 26.8742C22.0619 26.0951 22.7035 25.0501 22.7035 23.9134C22.6944 22.7859 22.0619 21.7409 20.9069 20.9709Z" fill="#272B65"/>
<path d="M26.3236 14.7283C26.4703 16.5067 25.2053 18.065 23.4544 18.2758C23.4453 18.2758 23.4453 18.2758 23.4361 18.2758H23.4086C23.3536 18.2758 23.2986 18.2758 23.2528 18.2942C22.3636 18.34 21.5478 18.0558 20.9336 17.5333C21.8778 16.69 22.4186 15.425 22.3086 14.05C22.2444 13.3075 21.9878 12.6292 21.6028 12.0517C21.9511 11.8775 22.3544 11.7675 22.7669 11.7308C24.5636 11.575 26.1678 12.9133 26.3236 14.7283Z" fill="#272B65"/>
<path d="M28.1576 23.2075C28.0842 24.0967 27.5159 24.8667 26.5626 25.3892C25.6459 25.8934 24.4909 26.1317 23.3451 26.1042C24.0051 25.5084 24.3901 24.7659 24.4634 23.9775C24.5551 22.8409 24.0142 21.75 22.9326 20.8792C22.3184 20.3934 21.6034 20.0084 20.8242 19.7242C22.8501 19.1375 25.3984 19.5317 26.9659 20.7967C27.8092 21.475 28.2401 22.3275 28.1576 23.2075Z" fill="#272B65"/>
</svg>
