<svg width="40" height="40" viewBox="0 0 40 40" fill="none" xmlns="http://www.w3.org/2000/svg">
<path opacity="0.4" d="M20.0007 36.6833C29.2054 36.6833 36.6673 29.2214 36.6673 20.0166C36.6673 10.8119 29.2054 3.34998 20.0007 3.34998C10.7959 3.34998 3.33398 10.8119 3.33398 20.0166C3.33398 29.2214 10.7959 36.6833 20.0007 36.6833Z" fill="#38A7DE"/>
<path d="M20 11.5667C16.55 11.5667 13.75 14.3666 13.75 17.8166C13.75 21.2 16.4 23.95 19.9167 24.05C19.9667 24.05 20.0333 24.05 20.0667 24.05C20.1 24.05 20.15 24.05 20.1833 24.05C20.2 24.05 20.2167 24.05 20.2167 24.05C23.5833 23.9333 26.2333 21.2 26.25 17.8166C26.25 14.3666 23.45 11.5667 20 11.5667Z" fill="#38A7DE"/>
<path d="M31.2992 32.2667C28.3325 35 24.3659 36.6834 19.9992 36.6834C15.6326 36.6834 11.6659 35 8.69922 32.2667C9.09922 30.75 10.1826 29.3667 11.7659 28.3C16.3159 25.2667 23.7159 25.2667 28.2325 28.3C29.8325 29.3667 30.8992 30.75 31.2992 32.2667Z" fill="#38A7DE"/>
</svg>
