<svg width="22" height="22" viewBox="0 0 22 22" fill="none" xmlns="http://www.w3.org/2000/svg">
<path d="M20.1663 13.75V8.25001C20.1663 3.66668 18.333 1.83334 13.7497 1.83334H8.24967C3.66634 1.83334 1.83301 3.66668 1.83301 8.25001V13.75C1.83301 18.3333 3.66634 20.1667 8.24967 20.1667H13.7497C18.333 20.1667 20.1663 18.3333 20.1663 13.75Z" stroke="#272B65" stroke-width="1.2" stroke-linecap="round" stroke-linejoin="round"/>
<path d="M2.30957 6.51752H19.6896" stroke="#272B65" stroke-width="1.2" stroke-linecap="round" stroke-linejoin="round"/>
<path d="M7.80957 1.93417V6.38917" stroke="#272B65" stroke-width="1.2" stroke-linecap="round" stroke-linejoin="round"/>
<path d="M14.1904 1.93417V5.97667" stroke="#272B65" stroke-width="1.2" stroke-linecap="round" stroke-linejoin="round"/>
<path d="M8.9375 13.2459V12.1459C8.9375 10.7342 9.93667 10.1567 11.1558 10.8625L12.1092 11.4125L13.0625 11.9625C14.2817 12.6684 14.2817 13.8234 13.0625 14.5292L12.1092 15.0792L11.1558 15.6292C9.93667 16.335 8.9375 15.7575 8.9375 14.3459V13.2459V13.2459Z" stroke="#38A7DE" stroke-width="1.2" stroke-miterlimit="10" stroke-linecap="round" stroke-linejoin="round"/>
</svg>
